<?xml version="1.0" standalone="no"?>
<!DOCTYPE svg PUBLIC "-//W3C//DTD SVG 1.1//EN" "http://www.w3.org/Graphics/SVG/1.1/DTD/svg11.dtd" >
<svg>
<metadata>
Created by FontForge 20090914 at Thu Oct 17 11:28:48 2013
 By www-data
Copyright (c) 2012 by Paula Nazal. All rights reserved.
</metadata>
<defs>
<font id="VNFJulietaPro" horiz-adv-x="348" >
  <font-face 
    font-family="VNF Julieta Pro"
    font-weight="400"
    font-stretch="normal"
    units-per-em="1000"
    panose-1="2 0 0 0 0 0 0 0 0 0"
    ascent="750"
    descent="-250"
    x-height="688.997"
    cap-height="689"
    bbox="-987.001 -847 1529 1715"
    underline-thickness="50"
    underline-position="-50"
    unicode-range="U+000D-U+FB05"
  />
<missing-glyph horiz-adv-x="0" 
 />
    <glyph glyph-name=".notdef" horiz-adv-x="0" 
 />
    <glyph glyph-name=".null" horiz-adv-x="500" 
 />
    <glyph glyph-name=".null" horiz-adv-x="500" 
 />
    <glyph glyph-name="nonmarkingreturn" unicode="&#xd;" horiz-adv-x="500" 
 />
    <glyph glyph-name="space" unicode=" " horiz-adv-x="183" 
 />
    <glyph glyph-name="exclam" unicode="!" horiz-adv-x="140" 
d="M83 749l-3 -615h-20l-3 615h26zM48 19c0 6 2.16699 11.167 6.5 15.5s9.5 6.5 15.5 6.5s11.167 -2.16699 15.5 -6.5s6.5 -9.5 6.5 -15.5s-2.16699 -11.167 -6.5 -15.5s-9.5 -6.5 -15.5 -6.5s-11.167 2.16699 -15.5 6.5s-6.5 9.5 -6.5 15.5z" />
    <glyph glyph-name="quotedbl" unicode="&#x22;" horiz-adv-x="194" 
d="M72 689v-115h-20v115h20zM142 689v-115h-20v115h20z" />
    <glyph glyph-name="numbersign" unicode="#" horiz-adv-x="606" 
d="M485 689l-54 -211h130v-20h-135l-57 -223h192v-20h-197l-55 -215h-20l55 215h-165l-55 -215l-20 1l54 214h-115v20h120l57 223h-177v20h182l55 211h20l-54 -211h165l54 211h20zM184 235h165l57 223h-165z" />
    <glyph glyph-name="dollar" unicode="$" horiz-adv-x="391" 
d="M202 762l-0.000976562 -73.001h6c43.333 0 77.5 -11 102.5 -33s37.5 -51 37.5 -87c0 -25.333 -6.83301 -46.833 -20.5 -64.5s-32.5 -26.5 -56.5 -26.5c-20.667 0 -36.834 6.5 -48.501 19.5s-17.5 26.833 -17.5 41.5h18c0 -11.333 4.33301 -21 13 -29
s20.334 -12 35.001 -12c18 0 32 6.83301 42 20.5s15 30.5 15 50.5c0 30 -10.667 54 -32 72s-50.666 27 -87.999 27c-19.333 0 -37.5 -2.16699 -54.5 -6.5s-32 -11.333 -45 -21s-23.333 -22.167 -31 -37.5s-11.5 -34 -11.5 -56c0 -31.333 7.33301 -57 22 -77
s32.834 -37.5 54.501 -52.5s45.334 -28.833 71.001 -41.5s49.334 -27.334 71.001 -44.001s39.834 -37 54.501 -61s22 -54.333 22 -91c0 -33.333 -4.33301 -61.666 -13 -84.999s-20.334 -42.333 -35.001 -57s-31.667 -25.5 -51 -32.5s-39.333 -10.833 -60 -11.5v-75h-20v75
c-48 2 -85.667 16 -113 42s-41 60 -41 102c0 37.333 8.83301 66.666 26.5 87.999s40.5 32 68.5 32c19.333 0 36 -5 50 -15s21 -24 21 -42h-21c0 13.333 -5 22.5 -15 27.5s-21.667 7.5 -35 7.5c-22.667 0 -40.667 -8.5 -54 -25.5s-20 -41.167 -20 -72.5
c0 -37.333 12.833 -67.166 38.5 -89.499s60.834 -33.5 105.501 -33.5c19.333 0 37.833 2.83301 55.5 8.5s33.334 15 47.001 28s24.5 30 32.5 51s12 46.833 12 77.5c0 34 -7.33301 61.833 -22 83.5s-32.834 40.334 -54.501 56.001s-45.334 30 -71.001 43
s-49.334 27.333 -71.001 43s-39.834 34.5 -54.501 56.5s-22 50 -22 84c0 23.333 3.5 43.5 10.5 60.5s16.833 31.333 29.5 43s27.167 20.5 43.5 26.5s34.166 10 53.499 12v74h20z" />
    <glyph glyph-name="percent" unicode="%" horiz-adv-x="542" 
d="M30 511c0 38.667 2.5 69.667 7.5 93s11.833 41.333 20.5 54s18.667 20.834 30 24.501s23.333 5.5 36 5.5s24.667 -1.83301 36 -5.5s21.333 -11.834 30 -24.501s15.5 -30.667 20.5 -54s7.5 -54.333 7.5 -93c0 -42 -2.5 -75.5 -7.5 -100.5s-11.833 -44.167 -20.5 -57.5
s-18.667 -22 -30 -26s-23.333 -6 -36 -6s-24.667 2 -36 6s-21.333 12.667 -30 26s-15.5 32.5 -20.5 57.5s-7.5 58.5 -7.5 100.5zM322 188c0 38.667 2.5 69.667 7.5 93s11.833 41.333 20.5 54s18.667 20.834 30 24.501s23.333 5.5 36 5.5s24.667 -1.83301 36 -5.5
s21.333 -11.834 30 -24.501s15.5 -30.667 20.5 -54s7.5 -54.333 7.5 -93c0 -42 -2.5 -75.5 -7.5 -100.5s-11.833 -44.167 -20.5 -57.5s-18.667 -22 -30 -26s-23.333 -6 -36 -6s-24.667 2 -36 6s-21.333 12.667 -30 26s-15.5 32.5 -20.5 57.5s-7.5 58.5 -7.5 100.5zM50 511
c0 -37.333 2 -67.166 6 -89.499s9.33301 -39.5 16 -51.5s14.5 -19.833 23.5 -23.5s18.5 -5.5 28.5 -5.5s19.5 1.83301 28.5 5.5s16.833 11.5 23.5 23.5s12 29.167 16 51.5s6 52.166 6 89.499c0 34.667 -2 62.334 -6 83.001s-9.33301 36.5 -16 47.5s-14.5 18.167 -23.5 21.5
s-18.5 5 -28.5 5s-19.5 -1.66699 -28.5 -5s-16.833 -10.5 -23.5 -21.5s-12 -26.833 -16 -47.5s-6 -48.334 -6 -83.001zM342 188c0 -37.333 2 -67.166 6 -89.499s9.33301 -39.5 16 -51.5s14.5 -19.833 23.5 -23.5s18.5 -5.5 28.5 -5.5s19.5 1.83301 28.5 5.5
s16.833 11.5 23.5 23.5s12 29.167 16 51.5s6 52.166 6 89.499c0 34.667 -2 62.334 -6 83.001s-9.33301 36.5 -16 47.5s-14.5 18.167 -23.5 21.5s-18.5 5 -28.5 5s-19.5 -1.66699 -28.5 -5s-16.833 -10.5 -23.5 -21.5s-12 -26.833 -16 -47.5s-6 -48.334 -6 -83.001zM465 638
l-366 -638l-22 1l366 637h22z" />
    <glyph glyph-name="ampersand" unicode="&#x26;" horiz-adv-x="580" 
d="M532 364c0 20 -6.1709 36.499 -18.5039 49.499s-29.166 19.833 -50.499 20.5c-37.333 0 -62.166 -14.833 -74.499 -44.5s-18.5 -72.834 -18.5 -129.501c0 -30 -2 -60.167 -6 -90.5s-12 -58.166 -24 -83.499c21.333 -22 42.5 -39.333 63.5 -52s40.833 -19 59.5 -19
c16 0 30.167 4.5 42.5 13.5s18.5 26.833 18.5 53.5h18c0 -32 -7.33301 -54.5 -22 -67.5s-34.667 -19.5 -60 -19.5c-19.333 0 -40 6.5 -62 19.5s-44.333 30.833 -67 53.5c-13.333 -22 -31.166 -39.667 -53.499 -53s-51.166 -20 -86.499 -20c-23.333 0 -44.833 4 -64.5 12
s-36.667 19.667 -51 35s-25.5 33.833 -33.5 55.5s-11.667 46.5 -11 74.5c0.666992 28.667 4 53.834 10 75.501s13.833 40.667 23.5 57s20.834 30.5 33.501 42.5s26 23 40 33c-13.333 33.333 -23.5 65.666 -30.5 96.999s-10.5 60.666 -10.5 87.999
c0 36.667 8.33301 66.5 25 89.5s45.667 34.5 87 34.5c14 0 27 -3.16699 39 -9.5s22.333 -14.833 31 -25.5s15.334 -22.667 20.001 -36s7 -27.333 7 -42c0 -30 -4.33301 -55 -13 -75s-19.834 -37.5 -33.501 -52.5s-29.167 -28.167 -46.5 -39.5l-52 -35
c10 -25.333 21.167 -50.333 33.5 -75s25.5 -48.667 39.5 -72s28.667 -45.666 44 -66.999s31 -40.666 47 -57.999c10 23.333 16.667 48.833 20 76.5s5 55.5 5 83.5c0 30.667 1.83301 57.834 5.5 81.501s9.66699 43.667 18 60s19.666 28.833 33.999 37.5s32.5 13 54.5 13
c28 0 50 -8.33301 66 -25s24 -38.334 24 -65.001c0 -22 -6.83301 -41 -20.5 -57s-32.5 -24 -56.5 -24c-20.667 0 -36.834 6.5 -48.501 19.5s-17.5 26.833 -17.5 41.5h18c0 -11.333 4.33301 -21 13 -29s20.334 -12 35.001 -12c18 0 32 5.83301 42 17.5s15 26.167 15 43.5z
M190.996 14.999c32 0 58.001 6.16504 78.001 18.498s35.667 28.833 47 49.5c-33.333 36 -64.833 78.5 -94.5 127.5s-55.167 99.5 -76.5 151.5c-12.667 -9.33301 -24.667 -19.833 -36 -31.5s-21.333 -25 -30 -40s-15.5 -32.167 -20.5 -51.5s-7.5 -41.666 -7.5 -66.999
c0 -26 3.66699 -48.667 11 -68s17.166 -35.666 29.499 -48.999s27 -23.333 44 -30s35.5 -10 55.5 -10zM116.997 564.997c0 -25.333 3.33301 -52.499 10 -81.499s16 -59.5 28 -91.5l47.5 32.5c15.667 11 29.667 23.333 42 37s22.333 29.667 30 48s11.5 40.5 11.5 66.5
c0 25.333 -7.16699 47.166 -21.5 65.499s-32.833 27.5 -55.5 27.5c-34 0 -57.833 -9.33301 -71.5 -28s-20.5 -44 -20.5 -76z" />
    <glyph glyph-name="quotesingle" unicode="'" horiz-adv-x="124" 
d="M72 689v-115h-20v115h20z" />
    <glyph glyph-name="parenleft" unicode="(" horiz-adv-x="309" 
d="M46 301c0 -30 3.5 -58.502 10.5 -85.502s16 -52.167 27 -75.5s23.667 -44.833 38 -64.5s29.166 -37.5 44.499 -53.5c35.333 -37.333 75.333 -70 120 -98l-7 -17c-48 28 -90.333 61.333 -127 100c-16 16.667 -31.667 35.334 -47 56.001s-28.833 43.167 -40.5 67.5
s-21.167 50.833 -28.5 79.5s-11 59 -11 91c0 33.333 3.66699 64.5 11 93.5s16.833 55.667 28.5 80s25 46.5 40 66.5s30.5 38 46.5 54c36.667 36.667 78.667 68 126 94l9 -15c-44.667 -24.667 -84.667 -55.334 -120 -92.001c-15.333 -15.333 -30.166 -32.666 -44.499 -51.999
s-27 -40.833 -38 -64.5s-20 -49.167 -27 -76.5s-10.5 -56.666 -10.5 -87.999z" />
    <glyph glyph-name="parenright" unicode=")" horiz-adv-x="309" 
d="M263 301c0 31.333 -3.50098 60.668 -10.501 88.001s-16 52.833 -27 76.5s-23.833 45.167 -38.5 64.5s-29.334 36.666 -44.001 51.999c-35.333 36.667 -75.333 67.334 -120 92.001l9 15c47.333 -26 89.333 -57.333 126 -94c16 -16 31.5 -34 46.5 -54
s28.333 -42.167 40 -66.5s21.167 -51 28.5 -80s11 -60.167 11 -93.5c0 -32 -3.66699 -62.333 -11 -91s-17 -55.167 -29 -79.5s-25.5 -46.833 -40.5 -67.5s-30.5 -39.334 -46.5 -56.001c-37.333 -38.667 -79.666 -72 -126.999 -100l-7 17c44.667 28 84.667 60.667 120 98
c14.667 16 29.334 33.833 44.001 53.5s27.5 41.167 38.5 64.5s20 48.5 27 75.5s10.5 55.5 10.5 85.5z" />
    <glyph glyph-name="asterisk" unicode="*" horiz-adv-x="300" 
d="M261 614l-91 -53l91 -52l-10 -17l-91 52v-105h-20v105l-91 -52l-10 17l91 52l-91 53l10 17l91 -53v106h20v-106l91 53z" />
    <glyph glyph-name="plus" unicode="+" horiz-adv-x="460" 
d="M415 323h-175v-185h-20v185h-175v20h175v185h20v-185h175v-20z" />
    <glyph glyph-name="comma" unicode="," horiz-adv-x="132" 
d="M39 26c0 7.33301 2.5 13.5 7.5 18.5s11.167 7.5 18.5 7.5s13.5 -2.5 18.5 -7.5s7.5 -11.167 7.5 -18.5c0 -17.333 -2.5 -33 -7.5 -47s-10.167 -25.667 -15.5 -35c-6.66699 -11.333 -14 -21.333 -22 -30l-9 11c4.66699 6 9 12.667 13 20
c3.33301 6.66699 6.83301 14.5 10.5 23.5s6.5 19.5 8.5 31.5h-4c-7.33301 0 -13.5 2.5 -18.5 7.5s-7.5 11.167 -7.5 18.5z" />
    <glyph glyph-name="_45" unicode="-" horiz-adv-x="426" 
d="M82 240v47h262v-47h-262z" />
    <glyph glyph-name="period" unicode="." horiz-adv-x="130" 
d="M39 26c0 7.33301 2.5 13.5 7.5 18.5s11.167 7.5 18.5 7.5s13.5 -2.5 18.5 -7.5s7.5 -11.167 7.5 -18.5s-2.5 -13.5 -7.5 -18.5s-11.167 -7.5 -18.5 -7.5s-13.5 2.5 -18.5 7.5s-7.5 11.167 -7.5 18.5z" />
    <glyph glyph-name="slash" unicode="/" horiz-adv-x="359" 
d="M342 689l-306 -689l-22 1l306 688h22z" />
    <glyph glyph-name="zero" unicode="0" horiz-adv-x="420" 
d="M42 355c0 73.333 4.5 132.001 13.5 176.001s21.167 77.667 36.5 101s33.166 38.666 53.499 45.999s41.833 11 64.5 11s44.167 -3.66699 64.5 -11s38.166 -22.666 53.499 -45.999s27.5 -57 36.5 -101s13.5 -103 13.5 -177c0 -79.333 -4.5 -142.666 -13.5 -189.999
s-21.167 -83.5 -36.5 -108.5s-33.166 -41.5 -53.499 -49.5s-41.833 -12 -64.5 -12s-44.167 4 -64.5 12s-38.166 24.667 -53.499 50s-27.5 61.666 -36.5 108.999s-13.5 110.666 -13.5 189.999zM357 356.001c0 68.667 -4 123.501 -12 164.501s-18.667 72.5 -32 94.5
s-28.833 36.333 -46.5 43s-36.5 10 -56.5 10s-38.833 -3.33301 -56.5 -10s-33.167 -21 -46.5 -43s-24 -53.667 -32 -95s-12 -96.333 -12 -165c0 -74.667 4 -134.334 12 -179.001s18.667 -79 32 -103s28.833 -39.667 46.5 -47s36.5 -11 56.5 -11s38.833 3.66699 56.5 11
s33.167 23 46.5 47s24 58.333 32 103s12 104.667 12 180z" />
    <glyph glyph-name="one" unicode="1" horiz-adv-x="209" 
d="M152 689v-689h-21v631l-96 -258l-19 6l115 310h21z" />
    <glyph glyph-name="two" unicode="2" horiz-adv-x="412" 
d="M42 0l0.00195312 19.0029c1.33301 44 10 80 26 108s35.5 52.333 58.5 73s47.5 39.667 73.5 57s50.167 36.666 72.5 57.999s40.833 47 55.5 77s22 68.333 22 115c0 34 -4 62 -12 84s-18.667 39.5 -32 52.5s-28.833 22.167 -46.5 27.5s-36.5 8 -56.5 8s-38.833 -3 -56.5 -9
s-33.167 -16.833 -46.5 -32.5s-24 -36.834 -32 -63.501s-12 -61 -12 -103h-21c0 46.667 4.5 84.834 13.5 114.501s21.167 53 36.5 70s33.166 28.667 53.499 35s41.833 9.5 64.5 9.5s44.167 -2.83301 64.5 -8.5s38.166 -15.834 53.499 -30.501s27.5 -34.667 36.5 -60
s13.5 -57.333 13.5 -96c0 -48 -7.33301 -87.833 -22 -119.5s-33.167 -58.5 -55.5 -80.5s-46.5 -41.667 -72.5 -59s-50.333 -35.833 -73 -55.5s-42 -42.834 -58 -69.501s-25 -60.667 -27 -102h311v-19h-332z" />
    <glyph glyph-name="three" unicode="3" horiz-adv-x="410" 
d="M376 689l-0.00292969 -19.001h-3l2 -1l-184 -260c54.667 -3.33301 98.667 -22.166 132 -56.499s50 -86.166 50 -155.499c0 -40.667 -4.5 -74.167 -13.5 -100.5s-21.167 -47.333 -36.5 -63s-33.166 -26.5 -53.499 -32.5s-41.833 -9 -64.5 -9s-44.167 3.16699 -64.5 9.5
s-38.166 18 -53.499 35s-27.5 40.333 -36.5 70s-13.5 67.834 -13.5 114.501h21c0 -42 4 -76.333 12 -103s18.667 -47.834 32 -63.501s28.833 -26.5 46.5 -32.5s36.5 -9 56.5 -9s38.833 2.66699 56.5 8s33.167 15 46.5 29s24 32.667 32 56s12 53 12 89
c0 35.333 -4.16699 65.166 -12.5 89.499s-20.166 44.333 -35.499 60s-33.833 27 -55.5 34s-45.5 10.833 -71.5 11.5l-17 12l189 268h-305v19h332z" />
    <glyph glyph-name="four" unicode="4" horiz-adv-x="374" 
d="M279 689v-559h72v-19h-72v-111h-21v111h-234v19h2l103 564l21 -5l-103 -559h211v559h21z" />
    <glyph glyph-name="five" unicode="5" horiz-adv-x="411" 
d="M184 415c-16 0 -30.3359 -1.83105 -43.0029 -5.49805s-23.667 -7.83398 -33 -12.501c-10.667 -5.33301 -20.334 -11 -29.001 -17h-21v309h315v-19h-294v-268c7.33301 6 16.333 11.333 27 16c9.33301 4 20.333 7.83301 33 11.5s27.667 5.5 45 5.5
c56.667 0 101.834 -18.167 135.501 -54.5s50.5 -92.5 50.5 -168.5c0 -44 -4.5 -80.167 -13.5 -108.5s-21.167 -50.666 -36.5 -66.999s-33.166 -27.833 -53.499 -34.5s-41.833 -10 -64.5 -10s-44.167 3.16699 -64.5 9.5s-38.166 18 -53.499 35s-27.5 40.333 -36.5 70
s-13.5 67.834 -13.5 114.501h21c0 -42 4 -76.333 12 -103s18.667 -47.834 32 -63.501s28.833 -26.5 46.5 -32.5s36.5 -9 56.5 -9s38.833 3 56.5 9s33.167 16.333 46.5 31s24 34.667 32 60s12 57.666 12 96.999c0 37.333 -4 69 -12 95s-19.167 47.167 -33.5 63.5
s-31.666 28.166 -51.999 35.499s-42.833 11 -67.5 11z" />
    <glyph glyph-name="six" unicode="6" horiz-adv-x="402" 
d="M295 666c-36 0 -68.1729 -9.50098 -96.5059 -28.501s-52.666 -45.5 -72.999 -79.5s-36.166 -74.833 -47.499 -122.5s-17.333 -100.5 -18 -158.5c5.33301 16.667 13 32.667 23 48s22 29 36 41s30 21.667 48 29s38 11 60 11c44 0 79.667 -15.167 107 -45.5
s41 -77.166 41 -140.499c0 -46 -4.66699 -83.667 -14 -113s-21.666 -52.333 -36.999 -69s-33.166 -28.167 -53.499 -34.5s-41.5 -9.5 -63.5 -9.5c-22.667 0 -44.167 4.33301 -64.5 13s-38.166 23.334 -53.499 44.001s-27.5 48 -36.5 82s-13.5 76 -13.5 126
c0 63.333 5.66699 121.166 17 173.499s28 97.333 50 135s48.833 67 80.5 88s67.834 31.5 108.501 31.5v-21zM353.994 219.999c0 56.667 -11.668 98.501 -35.001 125.501s-54 40.5 -92 40.5c-26 0 -49.167 -5.66699 -69.5 -17s-37.5 -25.833 -51.5 -43.5
s-24.667 -37.167 -32 -58.5s-11.333 -42 -12 -62c2.66699 -35.333 8.5 -65.166 17.5 -89.499s20 -44 33 -59s27.5 -25.667 43.5 -32s33 -9.5 51 -9.5c19.333 0 37.833 3 55.5 9s33.334 16.667 47.001 32s24.5 36.166 32.5 62.499s12 60.166 12 101.499z" />
    <glyph glyph-name="seven" unicode="7" horiz-adv-x="379" 
d="M257 396l73 274h-310v19h332v-19h-3l2 -1l-73 -273h70v-19h-75l-101 -377h-21l101 377h-111v19h116z" />
    <glyph glyph-name="eight" unicode="8" horiz-adv-x="412" 
d="M359 546c0 -24 -3.1709 -44.833 -9.50391 -62.5s-14.833 -32.834 -25.5 -45.501s-23.167 -23.167 -37.5 -31.5s-29.5 -14.833 -45.5 -19.5c18 -6.66699 35.333 -14.834 52 -24.501s31.334 -22.5 44.001 -38.5s22.834 -35.833 30.501 -59.5s11.5 -52.5 11.5 -86.5
c0 -59.333 -15.5 -105 -46.5 -137s-73.167 -48 -126.5 -48s-95.5 15.833 -126.5 47.5s-46.5 77.5 -46.5 137.5c0 34 3.83301 62.833 11.5 86.5s17.834 43.5 30.501 59.5s27.334 28.833 44.001 38.5s34 17.834 52 24.501c-16 4.66699 -31.167 11.167 -45.5 19.5
s-26.833 18.833 -37.5 31.5s-19.167 27.834 -25.5 45.501s-9.5 38.5 -9.5 62.5c0 22 4.16699 41.833 12.5 59.5s19.5 32.667 33.5 45s30.333 21.833 49 28.5s38 10 58 10s39.333 -3.33301 58 -10s35 -16.167 49 -28.5s25.167 -27.333 33.5 -45s12.5 -37.5 12.5 -59.5z
M53.9961 176c0 -54 14.165 -94.499 42.498 -121.499s64.833 -40.5 109.5 -40.5s81.167 13.5 109.5 40.5s42.5 67.5 42.5 121.5c0 34 -4.33301 62.667 -13 86s-20.167 42.666 -34.5 57.999s-30.666 27.5 -48.999 36.5s-36.833 16.5 -55.5 22.5
c-19.333 -6 -38.166 -13.5 -56.499 -22.5s-34.5 -21.333 -48.5 -37s-25.333 -35 -34 -58s-13 -51.5 -13 -85.5zM73.9941 547.001c0 -25.333 3.66699 -46.666 11 -63.999s17 -31.833 29 -43.5s26 -21 42 -28s32.667 -12.5 50 -16.5c17.333 4 34 9.5 50 16.5s30 16.333 42 28
s21.667 26.167 29 43.5s11 38.666 11 63.999c0 18.667 -3.66699 35.5 -11 50.5s-17 27.833 -29 38.5s-26 18.667 -42 24s-32.667 8 -50 8s-34 -2.66699 -50 -8s-30 -13.333 -42 -24s-21.667 -23.5 -29 -38.5s-11 -31.833 -11 -50.5z" />
    <glyph glyph-name="nine" unicode="9" horiz-adv-x="402" 
d="M107 15c36 0 68.1709 9.50098 96.5039 28.501s52.5 45.5 72.5 79.5s35.667 74.833 47 122.5s17.666 100.5 18.999 158.5c-6 -16.667 -13.833 -32.667 -23.5 -48s-21.5 -29 -35.5 -41s-30 -21.667 -48 -29s-38 -11 -60 -11c-44 0 -79.667 15.167 -107 45.5
s-41 77.166 -41 140.499c0 46 4.66699 83.5 14 112.5s21.666 52 36.999 69s33 28.667 53 35s41.333 9.5 64 9.5s44.167 -4.33301 64.5 -13s38.166 -23.334 53.499 -44.001s27.5 -48 36.5 -82s13.5 -76 13.5 -126c0 -63.333 -5.66699 -121.166 -17 -173.499
s-28 -97.333 -50 -135s-48.833 -67 -80.5 -88s-67.834 -31.5 -108.501 -31.5v21zM48.0039 461.001c0 -56.667 11.667 -98.499 35 -125.499s54 -40.5 92 -40.5c26 0 49.167 5.66699 69.5 17s37.5 25.833 51.5 43.5s24.667 37.167 32 58.5s11.333 42 12 62
c-3.33301 35.333 -9.33301 65 -18 89s-19.5 43.5 -32.5 58.5s-27.5 25.833 -43.5 32.5s-33 10 -51 10c-20 0 -38.833 -3 -56.5 -9s-33.167 -16.667 -46.5 -32s-24 -36.333 -32 -63s-12 -60.334 -12 -101.001z" />
    <glyph glyph-name="colon" unicode=":" horiz-adv-x="157" 
d="M53 26c0 7.33301 2.5 13.5 7.5 18.5s11.167 7.5 18.5 7.5s13.5 -2.5 18.5 -7.5s7.5 -11.167 7.5 -18.5s-2.5 -13.5 -7.5 -18.5s-11.167 -7.5 -18.5 -7.5s-13.5 2.5 -18.5 7.5s-7.5 11.167 -7.5 18.5zM52 470c0 7.33301 2.5 13.5 7.5 18.5s11.167 7.5 18.5 7.5
s13.5 -2.5 18.5 -7.5s7.5 -11.167 7.5 -18.5s-2.5 -13.5 -7.5 -18.5s-11.167 -7.5 -18.5 -7.5s-13.5 2.5 -18.5 7.5s-7.5 11.167 -7.5 18.5z" />
    <glyph glyph-name="semicolon" unicode=";" horiz-adv-x="160" 
d="M54 27c0 7.33301 2.5 13.5 7.5 18.5s11.167 7.5 18.5 7.5s13.5 -2.5 18.5 -7.5s7.5 -11.167 7.5 -18.5c0 -17.333 -2.5 -33 -7.5 -47s-10.167 -25.667 -15.5 -35c-6.66699 -11.333 -14 -21.333 -22 -30l-9 11c4.66699 6 9 12.667 13 20
c3.33301 6.66699 6.83301 14.5 10.5 23.5s6.5 19.5 8.5 31.5h-4c-7.33301 0 -13.5 2.5 -18.5 7.5s-7.5 11.167 -7.5 18.5zM54 470c0 7.33301 2.5 13.5 7.5 18.5s11.167 7.5 18.5 7.5s13.5 -2.5 18.5 -7.5s7.5 -11.167 7.5 -18.5s-2.5 -13.5 -7.5 -18.5
s-11.167 -7.5 -18.5 -7.5s-13.5 2.5 -18.5 7.5s-7.5 11.167 -7.5 18.5z" />
    <glyph glyph-name="less" unicode="&#x3c;" horiz-adv-x="390" 
d="M340 537l-290 -203l289 -202l-11 -16l-301 210v16l6 4l296 207z" />
    <glyph glyph-name="equal" unicode="=" horiz-adv-x="477" 
d="M425 295h-373v20h373v-20zM425 458h-373v20h373v-20z" />
    <glyph glyph-name="greater" unicode="&#x3e;" horiz-adv-x="390" 
d="M61 553l296 -207l6 -4v-16l-301 -210l-11 16l289 202l-290 203z" />
    <glyph glyph-name="question" unicode="?" horiz-adv-x="388" 
d="M157 135c0 33.333 4.50195 60.998 13.502 82.998s20.333 41 34 57s28.334 30.5 44.001 43.5s30.334 27.667 44.001 44s25 35.833 34 58.5s13.5 51.334 13.5 86.001c0 34 -4 62 -12 84s-18.667 39.5 -32 52.5s-28.833 22.167 -46.5 27.5s-36.5 8 -56.5 8
s-38.833 -3 -56.5 -9s-33.167 -16.833 -46.5 -32.5s-24 -36.834 -32 -63.501s-12 -61 -12 -103h-21c0 46.667 4.5 84.834 13.5 114.501s21.167 53 36.5 70s33.166 28.667 53.499 35s41.833 9.5 64.5 9.5s44.167 -2.83301 64.5 -8.5s38.166 -15.834 53.499 -30.501
s27.5 -34.667 36.5 -60s13.5 -57.333 13.5 -96c0 -36 -4.5 -66 -13.5 -90s-20.333 -44.667 -34 -62s-28.334 -32.666 -44.001 -45.999s-30.334 -27.666 -44.001 -42.999s-25 -33 -34 -53s-13.5 -45.333 -13.5 -76h-21zM149.002 19.998c0 5.33301 2 10 6 14s8.66699 6 14 6
s10 -2 14 -6s6 -8.66699 6 -14s-2 -10 -6 -14s-8.66699 -6 -14 -6s-10 2 -14 6s-6 8.66699 -6 14z" />
    <glyph glyph-name="at" unicode="@" horiz-adv-x="539" 
d="M173 505c0 17.333 7.17383 31.4971 21.5068 42.4971s34.166 16.5 59.499 16.5c20 0 36.167 -2.66699 48.5 -8s22 -13.833 29 -25.5s11.667 -27 14 -46s3.5 -42.167 3.5 -69.5v-253c0 -21.333 4.5 -36.166 13.5 -44.499s21.167 -12.5 36.5 -12.5
c12 0 23.333 3.66699 34 11s19.834 20.666 27.501 39.999s13.667 45.833 18 79.5s6.5 76.834 6.5 129.501c0 56.667 -3 104.5 -9 143.5s-16.833 70.667 -32.5 95s-36.834 41.833 -63.501 52.5s-60.667 16 -102 16c-45.333 0 -82.166 -7.16699 -110.499 -21.5
s-50.5 -37.666 -66.5 -69.999s-26.833 -74.5 -32.5 -126.5s-8.5 -115.667 -8.5 -191c0 -52 3.66699 -96.167 11 -132.5s17.166 -66.333 29.499 -90s26.333 -42.167 42 -55.5s31.5 -23.166 47.5 -29.499s31.667 -10.166 47 -11.499s29 -2 41 -2c30.667 0 56 4 76 12
s35.667 16.667 47 26c13.333 11.333 23.666 24 30.999 38l18 -8c-8 -16.667 -19.667 -31.334 -35 -44.001c-13.333 -11.333 -31 -21.5 -53 -30.5s-50 -13.5 -84 -13.5c-12.667 0 -27.334 0.666992 -44.001 2s-33.834 5.5 -51.501 12.5s-35 17.5 -52 31.5
s-32.167 33.5 -45.5 58.5s-24.166 56.833 -32.499 95.5s-12.5 85.667 -12.5 141c0 78.667 3.16699 145.334 9.5 200.001s18.333 99 36 133s41.834 58.5 72.501 73.5s70.667 22.5 120 22.5c45.333 0 82.666 -5.83301 111.999 -17.5s52.5 -30.334 69.5 -56.001
s28.833 -59.334 35.5 -101.001s10 -92.5 10 -152.5c0 -56.667 -2.5 -103.167 -7.5 -139.5s-12.167 -64.833 -21.5 -85.5s-20.5 -35 -33.5 -43s-27.5 -12 -43.5 -12c-17.333 0 -32 3.83301 -44 11.5s-20 20.167 -24 37.5c-4 -10 -11.333 -20.667 -22 -32
s-27.334 -17 -50.001 -17c-25.333 0 -46 9.66699 -62 29s-24 47 -24 83c0 24.667 4.5 46.5 13.5 65.5s21 34.667 36 47s31.667 21.833 50 28.5s37.166 10.667 56.499 12v65c0 24 -0.833008 44.167 -2.5 60.5s-5.33398 29.5 -11.001 39.5s-13.334 17.333 -23.001 22
s-22.5 7 -38.5 7c-19.333 0 -34.333 -3.66699 -45 -11s-16 -16.666 -16 -27.999h-20zM329.007 330.997c-16.667 -1.33301 -32.999 -5 -48.999 -11s-30.5 -14.5 -43.5 -25.5s-23.5 -24.667 -31.5 -41s-12 -35.166 -12 -56.499c0 -30 6.16699 -52.833 18.5 -68.5
s28.166 -23.5 47.499 -23.5c15.333 0 27.333 3.66699 36 11s15.667 15.666 21 24.999c6 10.667 10.333 22.667 13 36v154z" />
    <glyph glyph-name="A" unicode="A" horiz-adv-x="346" 
d="M188 689l145 -689h-21l-63 297h-150l-62 -297h-21l143 689h29zM103 316h142l-72 338z" />
    <glyph glyph-name="B" unicode="B" horiz-adv-x="340" 
d="M49 0l-0.000976562 689.001h17c38 0 71.833 -1.83301 101.5 -5.5s54.5 -11.334 74.5 -23.001s35.333 -27.834 46 -48.501s16 -48 16 -82c0 -48 -11 -84.333 -33 -109s-54 -39.667 -96 -45c44 -5.33301 77.833 -22.833 101.5 -52.5s35.5 -74.5 35.5 -134.5
c0 -41.333 -5.16699 -74.333 -15.5 -99s-25.666 -43.667 -45.999 -57s-45.5 -22.166 -75.5 -26.499s-65 -6.5 -105 -6.5h-21zM290.999 189.001c0 36 -4.16797 65.333 -12.501 88s-20.5 40.5 -36.5 53.5s-35.5 22 -58.5 27s-49.167 7.5 -78.5 7.5h-35v-344
c36 0 67.833 1.83301 95.5 5.5s50.834 11.5 69.501 23.5s32.667 29 42 51s14 51.333 14 88zM104.998 387.001c60.667 0 105.5 10.499 134.5 31.499s43.5 58.167 43.5 111.5c0 29.333 -4.66699 53 -14 71s-23 31.833 -41 41.5s-40.333 16.334 -67 20.001s-57 5.5 -91 5.5
v-281h35z" />
    <glyph glyph-name="C" unicode="C" horiz-adv-x="360" 
d="M57 251c0 -48.667 3.99902 -88.332 11.999 -118.999s19 -54.667 33 -72s30.167 -29.166 48.5 -35.499s37.833 -9.5 58.5 -9.5c31.333 0 55.833 7 73.5 21s26.5 31.333 26.5 52h20c0 -26.667 -10.667 -49 -32 -67s-50.666 -27 -87.999 -27
c-23.333 0 -45.5 3.33301 -66.5 10s-39.333 19.5 -55 38.5s-28.167 45.167 -37.5 78.5s-14 76.666 -14 129.999v185c0 53.333 4.66699 96.5 14 129.5s21.833 58.667 37.5 77s34 30.666 55 36.999s43.167 9.5 66.5 9.5c40 0 71.667 -11 95 -33s35 -51 35 -87
c0 -25.333 -6.83301 -46.833 -20.5 -64.5s-32.5 -26.5 -56.5 -26.5c-20.667 0 -36.834 6.5 -48.501 19.5s-17.5 26.833 -17.5 41.5h18c0 -11.333 4.33301 -21 13 -29s20.334 -12 35.001 -12c18 0 32 6.83301 42 20.5s15 30.5 15 50.5c0 30 -9.83301 54 -29.5 72
s-46.5 27 -80.5 27c-20.667 0 -40.167 -3 -58.5 -9s-34.5 -17.333 -48.5 -34s-25 -40.167 -33 -70.5s-12 -69.833 -12 -118.5v-185z" />
    <glyph glyph-name="D" unicode="D" horiz-adv-x="360" 
d="M70 689c35.333 0 68.498 -3.33301 99.498 -10s58 -19 81 -37s41 -43.333 54 -76s19.5 -75.334 19.5 -128.001v-185c0 -53.333 -6.66699 -96.5 -20 -129.5s-31.666 -58.667 -54.999 -77s-50.666 -30.666 -81.999 -36.999s-65 -9.5 -101 -9.5h-17v689h21zM302.998 438
c0 48 -6 87 -18 117s-28.5 53.333 -49.5 70s-45.667 28 -74 34s-58.833 9 -91.5 9v-647c32.667 0 63.167 3 91.5 9s53 17.5 74 34.5s37.5 40.667 49.5 71s18 69.5 18 117.5v185z" />
    <glyph glyph-name="E" unicode="E" horiz-adv-x="356" 
d="M54 522c0 -20 3.66797 -38.499 11.001 -55.499s16.333 -31.5 27 -43.5s21.834 -21.5 33.501 -28.5s22.167 -10.5 31.5 -10.5h111v-20h-114c-8.66699 0 -18.834 -3.16699 -30.501 -9.5s-22.667 -16.5 -33 -30.5s-19 -32.333 -26 -55s-10.5 -50 -10.5 -82
c0 -34.667 4 -63.167 12 -85.5s19 -39.833 33 -52.5s30.167 -21.5 48.5 -26.5s37.833 -7.5 58.5 -7.5c31.333 0 55.833 6.66699 73.5 20s26.5 31 26.5 53h20c0 -28 -10.667 -50.667 -32 -68s-50.666 -26 -87.999 -26c-23.333 0 -45.5 2.83301 -66.5 8.5
s-39.333 15.667 -55 30s-28.167 34 -37.5 59s-14 56.833 -14 95.5c0 30.667 2.66699 56.667 8 78s12 39 20 53s17 25.167 27 33.5s19.667 15.166 29 20.499c-8 6 -16.833 13.5 -26.5 22.5s-18.834 19.5 -27.501 31.5s-15.834 25.833 -21.501 41.5s-8.5 33.5 -8.5 53.5
c0 34 4.66699 61.833 14 83.5s21.833 38.667 37.5 51s34 21 55 26s43.167 7.5 66.5 7.5c40 0 71.667 -11 95 -33s35 -51 35 -87c0 -25.333 -6.83301 -46.833 -20.5 -64.5s-32.5 -26.5 -56.5 -26.5c-20.667 0 -36.834 6.5 -48.501 19.5s-17.5 26.833 -17.5 41.5h18
c0 -11.333 4.33301 -21 13 -29s20.334 -12 35.001 -12c18 0 32 6.83301 42 20.5s15 30.5 15 50.5c0 30 -9.83301 54 -29.5 72s-46.5 27 -80.5 27c-20.667 0 -40.167 -2 -58.5 -6s-34.5 -11.5 -48.5 -22.5s-25 -26 -33 -45s-12 -43.167 -12 -72.5z" />
    <glyph glyph-name="F" unicode="F" horiz-adv-x="358" 
d="M45 0v446c0 52 4.66699 94.333 14 127s21.833 58 37.5 76s34 30.167 55 36.5s43.167 9.5 66.5 9.5c40 0 71.667 -11 95 -33s35 -51 35 -87c0 -25.333 -6.83301 -46.833 -20.5 -64.5s-32.5 -26.5 -56.5 -26.5c-20.667 0 -36.834 6.5 -48.501 19.5s-17.5 26.833 -17.5 41.5
h18c0 -11.333 4.33301 -21 13 -29s20.334 -12 35.001 -12c18 0 32 6.83301 42 20.5s15 30.5 15 50.5c0 30 -9.83301 54 -29.5 72s-46.5 27 -80.5 27c-20.667 0 -40.167 -3 -58.5 -9s-34.333 -17.167 -48 -33.5s-24.667 -39.333 -33 -69s-12.5 -68.5 -12.5 -116.5v-61h174
v-20h-174v-365h-21z" />
    <glyph glyph-name="G" unicode="G" horiz-adv-x="370" 
d="M57 251c0 -48.667 3.99902 -88.3311 11.999 -118.998s19 -54.667 33 -72s30.167 -29.166 48.5 -35.499s37.833 -9.5 58.5 -9.5c12 0 24.5 3 37.5 9s25 15.5 36 28.5s20 29.833 27 50.5s10.5 45.667 10.5 75v101c0 30 -5 51.833 -15 65.5s-24 20.5 -42 20.5
c-14.667 0 -26.334 -4 -35.001 -12s-13 -17.667 -13 -29h-18c0 14.667 5.83301 28.5 17.5 41.5s27.834 19.5 48.501 19.5c24 0 43 -9 57 -27s20.667 -44.333 20 -79l-1 -107c0 -32.667 -4.16699 -60.334 -12.5 -83.001s-18.666 -41 -30.999 -55
s-26.166 -24.167 -41.499 -30.5s-30.333 -9.5 -45 -9.5c-23.333 0 -45.5 3.33301 -66.5 10s-39.333 19.5 -55 38.5s-28.167 45.167 -37.5 78.5s-14 76.666 -14 129.999v185c0 53.333 4.66699 96.5 14 129.5s21.833 58.667 37.5 77s34 30.666 55 36.999s43.167 9.5 66.5 9.5
c37.333 0 66.666 -8.33301 87.999 -25s32 -38.334 32 -65.001h-20c0 20.667 -8.83301 37.334 -26.5 50.001s-42.167 19 -73.5 19c-20.667 0 -40.167 -3 -58.5 -9s-34.5 -17.333 -48.5 -34s-25 -40.167 -33 -70.5s-12 -69.833 -12 -118.5v-185z" />
    <glyph glyph-name="H" unicode="H" horiz-adv-x="357" 
d="M308 689v-689h-21v297h-217v-297h-21v689h21v-373h217v373h21z" />
    <glyph glyph-name="I" unicode="I" horiz-adv-x="119" 
d="M70 689v-689h-21v689h21z" />
    <glyph glyph-name="J" unicode="J" horiz-adv-x="350" 
d="M16 147c0 48 11.0029 85.8311 33.0029 113.498s51 41.5 87 41.5c25.333 0 46.833 -6.83301 64.5 -20.5s26.5 -32.5 26.5 -56.5c0 -20.667 -6.5 -36.834 -19.5 -48.501s-26.833 -17.5 -41.5 -17.5v18c11.333 0 21 4.33301 29 13s12 20.334 12 35.001
c0 18 -6.83301 32 -20.5 42s-30.5 15 -50.5 15c-28.667 0 -52.334 -11.5 -71.001 -34.5s-28 -54.5 -28 -94.5c0 -25.333 3.83301 -46.666 11.5 -63.999s17.167 -31.5 28.5 -42.5s24 -19 38 -24s27.667 -7.5 41 -7.5c16.667 0 32.667 3.16699 48 9.5
s28.833 18.166 40.5 35.499s21 41.333 28 72s10.5 70.334 10.5 119.001v438h21v-438c0 -53.333 -4 -96.666 -12 -129.999s-18.833 -59.5 -32.5 -78.5s-29.5 -31.833 -47.5 -38.5s-36.667 -10 -56 -10c-15.333 0 -31.333 2.83301 -48 8.5s-31.834 14.5 -45.501 26.5
s-24.834 27.667 -33.501 47s-13 43 -13 71z" />
    <glyph glyph-name="K" unicode="K" horiz-adv-x="342" 
d="M70 689v-367l238 366h24l-164 -254l166 -434h-22l-159 412l-83 -128v-284h-21v689h21z" />
    <glyph glyph-name="L" unicode="L" horiz-adv-x="254" 
d="M70 689v-669h167v-20h-188v689h21z" />
    <glyph glyph-name="M" unicode="M" horiz-adv-x="447" 
d="M393 689l10 -689h-21l-9 627l-140 -438h-20l-139 438l-9 -627h-21l10 689h21l148 -463l149 463h21z" />
    <glyph glyph-name="N" unicode="N" horiz-adv-x="367" 
d="M318 689v-689h-21l-227 627v-627h-21v689h21l227 -629v629h21z" />
    <glyph glyph-name="O" unicode="O" horiz-adv-x="408" 
d="M34 436c0 53.333 4.5 96.5 13.5 129.5s21.167 58.667 36.5 77s33.166 30.666 53.499 36.999s41.833 9.5 64.5 9.5s44.167 -3.16699 64.5 -9.5s38.166 -18.666 53.499 -36.999s27.5 -44 36.5 -77s13.5 -76.167 13.5 -129.5v-185c0 -53.333 -4.5 -96.666 -13.5 -129.999
s-21.167 -59.5 -36.5 -78.5s-33.166 -31.833 -53.499 -38.5s-41.833 -10 -64.5 -10s-44.167 3.33301 -64.5 10s-38.166 19.5 -53.499 38.5s-27.5 45.167 -36.5 78.5s-13.5 76.666 -13.5 129.999v185zM349 436c0 48.667 -4 88.167 -12 118.5s-18.667 53.833 -32 70.5
s-28.833 28 -46.5 34s-36.5 9 -56.5 9s-38.833 -3 -56.5 -9s-33.167 -17.333 -46.5 -34s-24 -40.167 -32 -70.5s-12 -69.833 -12 -118.5v-185c0 -48.667 4 -88.334 12 -119.001s18.667 -54.667 32 -72s28.833 -29.166 46.5 -35.499s36.5 -9.5 56.5 -9.5
s38.833 3.16699 56.5 9.5s33.167 18.166 46.5 35.499s24 41.333 32 72s12 70.334 12 119.001v185z" />
    <glyph glyph-name="P" unicode="P" horiz-adv-x="322" 
d="M70 689c37.333 0 70.5 -2.00098 99.5 -6.00098s53.5 -11.667 73.5 -23s35.167 -27.333 45.5 -48s15.5 -48 15.5 -82c0 -33.333 -5 -60.666 -15 -81.999s-25 -38 -45 -50s-44.5 -20.5 -73.5 -25.5s-62.5 -7.5 -100.5 -7.5v-365h-21v689h21zM283 529.999
c0 29.333 -4.66895 52.9971 -14.002 70.9971s-23 31.833 -41 41.5s-40.333 16.334 -67 20.001s-57 5.5 -91 5.5v-281c36 0 67.333 1.83301 94 5.5s48.834 10.834 66.501 21.501s30.834 25.334 39.501 44.001s13 42.667 13 72z" />
    <glyph glyph-name="Q" unicode="Q" horiz-adv-x="408" 
d="M411 -212c34 0 60.5 7.49316 79.5 22.4932s28.5 34.167 28.5 57.5c0 12 -1.83301 22.167 -5.5 30.5s-10.167 12.5 -19.5 12.5v21c15.333 0 27 -6.66699 35 -20s12 -28.666 12 -45.999c0 -30 -11.667 -54.167 -35 -72.5s-55 -27.5 -95 -27.5
c-26 0 -51.5 3.83301 -76.5 11.5s-47.167 20.334 -66.5 38.001s-35.166 41 -47.499 70s-19.166 65.167 -20.499 108.5c-22.667 0 -43.834 3.5 -63.501 10.5s-37 20 -52 39s-26.833 45 -35.5 78s-13 76.167 -13 129.5v185c0 53.333 4.5 96.5 13.5 129.5
s21.167 58.667 36.5 77s33.166 30.666 53.499 36.999s41.833 9.5 64.5 9.5s44.167 -3.16699 64.5 -9.5s38.166 -18.666 53.499 -36.999s27.5 -44 36.5 -77s13.5 -76.167 13.5 -129.5v-185c0 -49.333 -4 -90.166 -12 -122.499s-18.667 -58.166 -32 -77.499
s-29.166 -33.166 -47.499 -41.499s-37.5 -13.166 -57.5 -14.499c1.33301 -38.667 7.33301 -71.167 18 -97.5s24.5 -47.666 41.5 -63.999s36.667 -28 59 -35s45.5 -10.5 69.5 -10.5zM351 435.993c0 48.667 -4 88.167 -12 118.5s-18.667 53.833 -32 70.5s-28.833 28 -46.5 34
s-36.5 9 -56.5 9s-38.833 -3 -56.5 -9s-33.167 -17.333 -46.5 -34s-24 -40.167 -32 -70.5s-12 -69.833 -12 -118.5v-185c0 -48.667 4 -88.334 12 -119.001s18.667 -54.667 32 -72s28.833 -29.166 46.5 -35.499s36.5 -9.5 56.5 -9.5s38.833 3.16699 56.5 9.5
s33.167 18.166 46.5 35.499s24 41.333 32 72s12 70.334 12 119.001v185z" />
    <glyph glyph-name="R" unicode="R" horiz-adv-x="334" 
d="M49 0v689h17c38 0 71.833 -1.83301 101.5 -5.5s54.5 -11.334 74.5 -23.001s35.333 -27.834 46 -48.501s16 -48 16 -82c0 -47.333 -10 -82.666 -30 -105.999s-49.333 -39.666 -88 -48.999l133 -375h-22l-132 371c-28 -4 -59.667 -6 -95 -6v-365h-21zM283 530
c0 29.333 -4.66895 52.9971 -14.002 70.9971s-23 31.833 -41 41.5s-40.333 16.334 -67 20.001s-57 5.5 -91 5.5v-281c36 0 67.333 1.83301 94 5.5s48.834 10.834 66.501 21.501s30.834 25.334 39.501 44.001s13 42.667 13 72z" />
    <glyph glyph-name="S" unicode="S" horiz-adv-x="379" 
d="M42 138c0 -37.333 12.8291 -67.1621 38.4961 -89.4951s60.834 -33.5 105.501 -33.5c19.333 0 37.833 2.83301 55.5 8.5s33.334 15 47.001 28s24.5 30 32.5 51s12 46.833 12 77.5c0 34 -7.33301 61.833 -22 83.5s-32.834 40.334 -54.501 56.001s-45.334 30 -71.001 43
s-49.334 27.333 -71.001 43s-39.834 34.5 -54.501 56.5s-22 50 -22 84c0 26 4.33301 48.167 13 66.5s20.5 33.166 35.5 44.499s32.333 19.5 52 24.5s40.5 7.5 62.5 7.5c43.333 0 77.5 -11 102.5 -33s37.5 -51 37.5 -87c0 -25.333 -6.83301 -46.833 -20.5 -64.5
s-32.5 -26.5 -56.5 -26.5c-20.667 0 -36.834 6.5 -48.501 19.5s-17.5 26.833 -17.5 41.5h18c0 -11.333 4.33301 -21 13 -29s20.334 -12 35.001 -12c18 0 32 6.83301 42 20.5s15 30.5 15 50.5c0 30 -10.667 54 -32 72s-50.666 27 -87.999 27
c-19.333 0 -37.5 -2.16699 -54.5 -6.5s-32 -11.333 -45 -21s-23.333 -22.167 -31 -37.5s-11.5 -34 -11.5 -56c0 -31.333 7.33301 -57 22 -77s32.834 -37.5 54.501 -52.5s45.334 -28.833 71.001 -41.5s49.334 -27.334 71.001 -44.001s39.834 -37 54.501 -61
s22 -54.333 22 -91c0 -34.667 -4.66699 -63.834 -14 -87.501s-21.666 -42.834 -36.999 -57.501s-33.166 -25.167 -53.499 -31.5s-41.5 -9.5 -63.5 -9.5c-50.667 0 -90.834 13.167 -120.501 39.5s-44.5 61.166 -44.5 104.499c0 37.333 8.83301 66.666 26.5 87.999
s40.5 32 68.5 32c19.333 0 36 -5 50 -15s21 -24 21 -42h-21c0 13.333 -5 22.5 -15 27.5s-21.667 7.5 -35 7.5c-22.667 0 -40.667 -8.5 -54 -25.5s-20 -41.167 -20 -72.5z" />
    <glyph glyph-name="T" unicode="T" horiz-adv-x="301" 
d="M160 674v-674h-21v674h-123v19h269v-19h-125z" />
    <glyph glyph-name="U" unicode="U" horiz-adv-x="422" 
d="M376 689v-438c0 -53.333 -4.33301 -96.666 -13 -129.999s-20.5 -59.5 -35.5 -78.5s-32.5 -31.833 -52.5 -38.5s-41.333 -10 -64 -10s-44 3.33301 -64 10s-37.5 19.5 -52.5 38.5s-26.833 45.167 -35.5 78.5s-13 76.666 -13 129.999v438h21v-438
c0 -48.667 3.83301 -88.334 11.5 -119.001s18 -54.667 31 -72s28.167 -29.166 45.5 -35.499s36 -9.5 56 -9.5s38.667 3.16699 56 9.5s32.5 18.166 45.5 35.499s23.333 41.333 31 72s11.5 70.334 11.5 119.001v438h21z" />
    <glyph glyph-name="V" unicode="V" horiz-adv-x="346" 
d="M334 689l-154 -689h-20l-143 689h21l132 -636l142 636h22z" />
    <glyph glyph-name="W" unicode="W" horiz-adv-x="515" 
d="M501 689l-134 -689h-20l-89 376l-95 -376h-20l-123 689h21l114 -637l92 368l-63 269h21l53 -225l57 225h22l-68 -269l87 -367l123 636h22z" />
    <glyph glyph-name="X" unicode="X" horiz-adv-x="323" 
d="M294 689l-122 -308l152 -381h-22l-141 355l-140 -355h-22l152 381l-122 308h21l111 -281l112 281h21z" />
    <glyph glyph-name="Y" unicode="Y" horiz-adv-x="343" 
d="M38 689l133 -295l142 295h22l-154 -322v-367h-21v367l-143 322h21z" />
    <glyph glyph-name="Z" unicode="Z" horiz-adv-x="325" 
d="M15 0v19l273 653h-272v19h293v-19l-272 -653h272v-19h-294z" />
    <glyph glyph-name="bracketleft" unicode="[" horiz-adv-x="190" 
d="M56 -96v785h106v-20h-85v-745h85v-20h-106z" />
    <glyph glyph-name="backslash" unicode="\" horiz-adv-x="357" 
d="M37 689l306 -688l-20 -1l-306 689h20z" />
    <glyph glyph-name="bracketright" unicode="]" horiz-adv-x="190" 
d="M134 689v-785h-106v20h85v745h-85v20h106z" />
    <glyph glyph-name="asciicircum" unicode="^" 
d="M314 435l-16 -13l-124 217l-124 -217l-16 13l140 243z" />
    <glyph glyph-name="underscore" unicode="_" horiz-adv-x="570" 
d="M550 -6h-530v20h530v-20z" />
    <glyph glyph-name="grave" unicode="`" horiz-adv-x="98" 
d="M61 731l-16 -13l-104 136l16 12z" />
    <glyph glyph-name="a" unicode="a" horiz-adv-x="353" 
d="M149 669c-31.333 0 -55.9971 -6.50195 -73.9971 -19.502s-27 -29.833 -27 -50.5h-18c0 26.667 10.5 48.334 31.5 65.001s50.167 25 87.5 25c30 0 54.167 -4 72.5 -12s32.666 -20.667 42.999 -38s17.333 -39.833 21 -67.5s5.5 -61.5 5.5 -101.5v-360
c0 -34 5 -57.833 15 -71.5s28 -20.5 54 -20.5v-18c-28.667 0 -49.834 5.66699 -63.501 17s-21.834 32 -24.501 62c-4 -10 -9.16699 -20 -15.5 -30s-14.166 -19.167 -23.499 -27.5s-20.333 -15.166 -33 -20.499s-27.334 -8 -44.001 -8c-36.667 0 -67.167 14.167 -91.5 42.5
s-36.5 69.833 -36.5 124.5c0 38 7.5 71.167 22.5 99.5s34.167 51.833 57.5 70.5s49.5 32.5 78.5 41.5s57.167 13.5 84.5 13.5v85c0 36 -1.5 66.667 -4.5 92s-9 46 -18 62s-21.333 27.5 -37 34.5s-36.5 10.5 -62.5 10.5zM156.003 12.998c24.667 0 44.666 6 59.999 18
s27 25.333 35 40c9.33301 17.333 16 37 20 59v235c-26 0 -52.333 -4.16699 -79 -12.5s-50.667 -21 -72 -38s-38.666 -38.333 -51.999 -64s-20 -55.834 -20 -90.501c0 -47.333 10 -83.666 30 -108.999s46 -38 78 -38z" />
    <glyph glyph-name="b" unicode="b" horiz-adv-x="332" 
d="M69 690v-240.001c27.333 0 55.333 -5.66699 84 -17s54.667 -28 78 -50s42.5 -49.5 57.5 -82.5s22.5 -71.5 22.5 -115.5c0 -62.667 -12.167 -110.334 -36.5 -143.001s-54.833 -49 -91.5 -49c-16 0 -30.333 2.33301 -43 7s-23.5 10.834 -32.5 18.501
s-16.667 16.334 -23 26.001s-11.5 19.167 -15.5 28.5v-73h-20v690h20zM183 12.999c32 0 58 15 78 45s30 72.333 30 127c0 40.667 -6.66699 76.167 -20 106.5s-30.5 55.833 -51.5 76.5s-44.833 36.167 -71.5 46.5s-53 15.5 -79 15.5v-306c0.666992 -6 3 -15 7 -27
s10.333 -24.333 19 -37s20 -23.667 34 -33s32 -14 54 -14z" />
    <glyph glyph-name="c" unicode="c" horiz-adv-x="353" 
d="M56 251c0 -48.667 4.16699 -88.167 12.5 -118.5s19.5 -54 33.5 -71s30.167 -28.5 48.5 -34.5s37.833 -9 58.5 -9c31.333 0 55.833 6.5 73.5 19.5s26.5 29.833 26.5 50.5c0 12.667 -3.16699 23.5 -9.5 32.5s-15.5 13.5 -27.5 13.5c-11.333 0 -20.5 -3.66699 -27.5 -11
s-10.5 -15.666 -10.5 -24.999h-18c0 13.333 5 26 15 38s23.667 18 41 18c18 0 32 -6.66699 42 -20s15 -28.666 15 -45.999c0 -26.667 -10.667 -48.334 -32 -65.001s-50.666 -25 -87.999 -25c-23.333 0 -45.5 3.16699 -66.5 9.5s-39.333 18.666 -55 36.999
s-28.167 44 -37.5 77s-14 76.167 -14 129.5v185c0 53.333 4.66699 96.5 14 129.5s21.833 58.667 37.5 77s34 30.666 55 36.999s43.167 9.5 66.5 9.5c37.333 0 66.666 -8.33301 87.999 -25s32 -38.334 32 -65.001c0 -17.333 -5 -32.666 -15 -45.999s-24 -20 -42 -20
c-17.333 0 -31 6 -41 18s-15 24.667 -15 38h18c0 -9.33301 3.5 -17.666 10.5 -24.999s16.167 -11 27.5 -11c12 0 21.167 4.5 27.5 13.5s9.5 19.833 9.5 32.5c0 20.667 -8.83301 37.5 -26.5 50.5s-42.167 19.5 -73.5 19.5c-20.667 0 -40.167 -3 -58.5 -9
s-34.5 -17.5 -48.5 -34.5s-25.167 -40.667 -33.5 -71s-12.5 -69.833 -12.5 -118.5v-185z" />
    <glyph glyph-name="d" unicode="d" horiz-adv-x="345" 
d="M21 185c0 44 7.49707 82.499 22.4971 115.499s34.167 60.5 57.5 82.5s49.333 38.667 78 50s56.667 17 84 17v240h20v-580c0 -34 5 -57.833 15 -71.5s28 -20.5 54 -20.5v-18c-28.667 0 -49.667 5.5 -63 16.5s-21.666 31.167 -24.999 60.5c-4 -10 -9.16699 -20 -15.5 -30
s-14.166 -19 -23.499 -27s-20.166 -14.5 -32.499 -19.5s-26.833 -7.5 -43.5 -7.5c-36.667 0 -67.167 16.333 -91.5 49s-36.5 80.334 -36.5 143.001zM148.997 12.999c21.333 0 39.168 4.66699 53.501 14s25.666 20.333 33.999 33s14.5 25 18.5 37s6.66699 21 8 27v306
c-26 0 -52.333 -5.16699 -79 -15.5s-50.5 -25.833 -71.5 -46.5s-38.167 -46.167 -51.5 -76.5s-20 -65.833 -20 -106.5c0 -54.667 10 -97 30 -127s46 -45 78 -45z" />
    <glyph glyph-name="e" unicode="e" horiz-adv-x="343" 
d="M53 367l-0.00585938 -115.997c0 -48.667 3.83301 -88.167 11.5 -118.5s17.834 -54 30.501 -71s27.334 -28.5 44.001 -34.5s34 -9 52 -9c30 0 53.333 6.5 70 19.5s25 29.833 25 50.5h20c0 -26.667 -10.167 -48.334 -30.5 -65.001s-48.5 -25 -84.5 -25
c-21.333 0 -41.5 3.16699 -60.5 9.5s-35.667 18.666 -50 36.999s-25.833 44 -34.5 77s-13 76.167 -13 129.5v185c0 53.333 3.83301 96.5 11.5 129.5s17.834 58.667 30.501 77s27.334 30.666 44.001 36.999s34 9.5 52 9.5c28 0 50.833 -7.33301 68.5 -22
s31.334 -36 41.001 -64s16.334 -61.833 20.001 -101.5s5.5 -84.5 5.5 -134.5h-253zM285.994 385.003c0 42.667 -1.33301 81.333 -4 116s-8 64.5 -16 89.5s-19.667 44.333 -35 58s-35.333 20.5 -60 20.5c-15.333 0 -30 -3 -44 -9s-26.5 -17.5 -37.5 -34.5
s-19.833 -40.667 -26.5 -71s-10 -69.833 -10 -118.5v-51h233z" />
    <glyph glyph-name="f" unicode="f" horiz-adv-x="362" 
d="M232 689c37.333 0 66.667 -8.33301 88 -25s32 -38.334 32 -65.001c0 -17.333 -5 -32.666 -15 -45.999s-24 -20 -42 -20c-17.333 0 -31 6 -41 18s-15 24.667 -15 38h18c0 -9.33301 3.5 -17.666 10.5 -24.999s16.167 -11 27.5 -11c12 0 21.167 4.5 27.5 13.5
s9.5 19.833 9.5 32.5c0 20.667 -8.83301 37.5 -26.5 50.5s-42.167 19.5 -73.5 19.5c-16.667 0 -32.667 -3 -48 -9s-29 -17.5 -41 -34.5s-21.5 -40.667 -28.5 -71s-10.5 -69.833 -10.5 -118.5v-51h167v-18h-167v-367h-20v367h-72v18h72v51c0 53.333 4 96.5 12 129.5
s18.833 58.667 32.5 77s29.5 30.666 47.5 36.999s36.667 9.5 56 9.5z" />
    <glyph glyph-name="g" unicode="g" horiz-adv-x="332" 
d="M285 161c0 -23.333 -1.49707 -45.166 -4.49707 -65.499s-8.5 -38 -16.5 -53s-19.5 -26.833 -34.5 -35.5s-34.5 -13 -58.5 -13c-34 0 -62.167 11 -84.5 33s-33.5 55 -33.5 99c0 35.333 8.5 63.166 25.5 83.499s38.5 30.5 64.5 30.5c17.333 0 32.666 -5 45.999 -15
s20 -24 20 -42c0 -17.333 -6 -31 -18 -41s-24.667 -15 -38 -15v18c9.33301 0 17.666 3.5 24.999 10.5s11 16.167 11 27.5c0 12 -4.5 21.167 -13.5 27.5s-19.833 9.5 -32.5 9.5c-20 0 -36.667 -8.33301 -50 -25s-20 -39.667 -20 -69c0 -36.667 9.16699 -64.5 27.5 -83.5
s41.833 -28.5 70.5 -28.5c22 0 39.167 4.5 51.5 13.5s21.666 20.5 27.999 34.5s10.333 29.833 12 47.5s2.5 35.167 2.5 52.5v142c-39.333 0 -74 2.16699 -104 6.5s-55 13.166 -75 26.499s-35.167 32.333 -45.5 57s-15.5 57.667 -15.5 99c0 42.667 5.33301 77 16 103
s26.167 45.833 46.5 59.5s45.5 22.834 75.5 27.501s64 7 102 7h20v-529zM45.0029 493c0 -36.667 4.66699 -66.167 14 -88.5s23.333 -39.5 42 -51.5s41.667 -19.833 69 -23.5s59 -5.5 95 -5.5v346c-35.333 0 -66.666 -2 -93.999 -6s-50.333 -12.333 -69 -25
s-32.834 -30.5 -42.501 -53.5s-14.5 -53.833 -14.5 -92.5z" />
    <glyph glyph-name="h" unicode="h" horiz-adv-x="345" 
d="M309 0l-19.999 -0.000976562v349c0 12.667 -0.333008 27.167 -1 43.5s-3.5 31.833 -8.5 46.5s-13 26.834 -24 36.501s-26.833 14.5 -47.5 14.5c-16 0 -31.333 -2.33301 -46 -7s-28.167 -10 -40.5 -16s-23 -12.167 -32 -18.5s-15.833 -11.5 -20.5 -15.5v-433h-20v690h20
v-237c4.66699 4 11.5 9.33301 20.5 16s19.5 13 31.5 19s25.667 11.167 41 15.5s31.666 6.5 48.999 6.5c23.333 0 41.5 -5.16699 54.5 -15.5s22.833 -23.333 29.5 -39s10.667 -33 12 -52s2 -36.833 2 -53.5v-350z" />
    <glyph glyph-name="i" unicode="i" horiz-adv-x="159" 
d="M57 564h20v-454c0 -34 5 -57.833 15 -71.5s28 -20.5 54 -20.5v-18c-33.333 -0 -56.5 7.83301 -69.5 23.5s-19.5 44.5 -19.5 86.5v454zM47 670c0 5.33301 2 10 6 14s8.66699 6 14 6s10 -2 14 -6s6 -8.66699 6 -14s-2 -10 -6 -14s-8.66699 -6 -14 -6s-10 2 -14 6
s-6 8.66699 -6 14z" />
    <glyph glyph-name="j" unicode="j" horiz-adv-x="298" 
d="M258 669c0 -5.33301 -2 -10 -6 -14s-8.66699 -6 -14 -6s-10 2 -14 6s-6 8.66699 -6 14s2 10 6 14s8.66699 6 14 6s10 -2 14 -6s6 -8.66699 6 -14zM250 161c0 -23.333 -1.49707 -45.166 -4.49707 -65.499s-8.5 -38 -16.5 -53s-19.5 -26.833 -34.5 -35.5
s-34.5 -13 -58.5 -13c-34 0 -62.167 11 -84.5 33s-33.5 55 -33.5 99c0 35.333 8.5 63.166 25.5 83.499s38.5 30.5 64.5 30.5c17.333 0 32.666 -5 45.999 -15s20 -24 20 -42c0 -17.333 -6 -31 -18 -41s-24.667 -15 -38 -15v18c9.33301 0 17.666 3.5 24.999 10.5
s11 16.167 11 27.5c0 12 -4.5 21.167 -13.5 27.5s-19.833 9.5 -32.5 9.5c-20 0 -36.667 -8.33301 -50 -25s-20 -39.667 -20 -69c0 -36.667 9.16699 -64.5 27.5 -83.5s41.833 -28.5 70.5 -28.5c22 0 39.167 4.5 51.5 13.5s21.666 20.5 27.999 34.5s10.333 29.833 12 47.5
s2.5 35.167 2.5 52.5v401h20v-402z" />
    <glyph glyph-name="k" unicode="k" horiz-adv-x="340" 
d="M289 694c0 -50.667 -2.1709 -94.834 -6.50391 -132.501s-10.666 -69.667 -18.999 -96s-18.833 -48 -31.5 -65s-27.334 -30.5 -44.001 -40.5c15.333 -4 27.833 -11.5 37.5 -22.5s17.334 -24.5 23.001 -40.5s9.66699 -34.333 12 -55s3.5 -42.334 3.5 -65.001
c0 -19.333 0.833008 -38.666 2.5 -57.999s5 -36.5 10 -51.5s12.5 -27.167 22.5 -36.5s23 -14 39 -14v-17c-21.333 0 -38.166 5.16699 -50.499 15.5s-21.666 23.833 -27.999 40.5s-10.5 35.5 -12.5 56.5s-3 42.167 -3 63.5c0 23.333 -1.33301 45.333 -4 66
s-7.16699 38.834 -13.5 54.501s-14.833 28.167 -25.5 37.5s-24 14 -40 14c-26 -8.66699 -56.667 -13 -92 -13v-329h-20v690h20v-341c32.667 0 61.5 4.16699 86.5 12.5s45.833 24.833 62.5 49.5s29.334 59 38.001 103s13 102 13 174h20z" />
    <glyph glyph-name="l" unicode="l" horiz-adv-x="146" 
d="M76 110c0 -34 5 -57.833 15 -71.5s28 -20.5 54 -20.5v-18c-33.333 -0 -56.5 7.83301 -69.5 23.5s-19.5 44.5 -19.5 86.5v579h20v-579z" />
    <glyph glyph-name="m" unicode="m" horiz-adv-x="593" 
d="M545 0l-19.999 -0.00390625v532c0 12.667 -0.333008 27.167 -1 43.5s-3.5 31.833 -8.5 46.5s-13 26.834 -24 36.501s-26.833 14.5 -47.5 14.5c-16.667 0 -32.834 -2.5 -48.501 -7.5s-29.667 -10.833 -42 -17.5s-23 -13.334 -32 -20.001s-15.5 -11.667 -19.5 -15
c3.33301 -13.333 5.33301 -27.166 6 -41.499s1 -28.166 1 -41.499v-530h-20v529c0 12.667 -0.333008 27.167 -1 43.5s-3.5 31.833 -8.5 46.5s-13 26.834 -24 36.501s-26.833 14.5 -47.5 14.5c-16 0 -31.333 -2.33301 -46 -7s-28.167 -10 -40.5 -16s-23 -12.167 -32 -18.5
s-15.833 -11.5 -20.5 -15.5v-613h-20v690h20v-57c4.66699 4 11.5 9.33301 20.5 16s19.5 13 31.5 19s25.667 11.167 41 15.5s31.666 6.5 48.999 6.5c24.667 0 43.667 -5.83301 57 -17.5s23 -26.167 29 -43.5c0.666992 0.666992 4.83398 4.33398 12.501 11.001s18 14 31 22
s28.5 15.167 46.5 21.5s38 9.5 60 9.5c23.333 0 41.5 -5.16699 54.5 -15.5s22.833 -23.333 29.5 -39s10.667 -33 12 -52s2 -36.833 2 -53.5v-533z" />
    <glyph glyph-name="n" unicode="n" horiz-adv-x="356" 
d="M309 0l-19.999 -0.000976562v529c0 12.667 -0.333008 27.167 -1 43.5s-3.5 31.833 -8.5 46.5s-13 26.834 -24 36.501s-26.833 14.5 -47.5 14.5c-16 0 -31.333 -2.33301 -46 -7s-28.167 -10 -40.5 -16s-23 -12.167 -32 -18.5s-15.833 -11.5 -20.5 -15.5v-613h-20v690h20
v-57c4.66699 4 11.5 9.33301 20.5 16s19.5 13 31.5 19s25.667 11.167 41 15.5s31.666 6.5 48.999 6.5c23.333 0 41.5 -5.16699 54.5 -15.5s22.833 -23.333 29.5 -39s10.667 -33 12 -52s2 -36.833 2 -53.5v-530z" />
    <glyph glyph-name="o" unicode="o" horiz-adv-x="422" 
d="M34 436c0 53.333 4.16602 96.498 12.499 129.498s19.5 58.667 33.5 77s30.333 30.666 49 36.999s38 9.5 58 9.5s39.167 -3.33301 57.5 -10s34.5 -19.167 48.5 -37.5s25.167 -44 33.5 -77s12.5 -75.833 12.5 -128.5v-15c19.333 6 34.5 15.333 45.5 28s16.5 28.667 16.5 48
c0 12.667 -2.33301 23.5 -7 32.5s-11.667 13.5 -21 13.5v20c15.333 0 27 -6.66699 35 -20s12 -28.666 12 -45.999c0 -23.333 -7.16699 -43.166 -21.5 -59.499s-34.166 -27.833 -59.499 -34.5v-157c0 -53.333 -4.16699 -96.5 -12.5 -129.5s-19.5 -58.667 -33.5 -77
s-30.333 -30.666 -49 -36.999s-38 -9.5 -58 -9.5s-39.167 3.33301 -57.5 10s-34.5 19.167 -48.5 37.5s-25.167 43.833 -33.5 76.5s-12.5 75.667 -12.5 129v190zM53.999 245.998c0 -48.667 3.66895 -88.166 11.002 -118.499s17.166 -54 29.499 -71s26.5 -28.5 42.5 -34.5
s32.667 -9 50 -9s34 3 50 9s30 17.5 42 34.5s21.667 40.667 29 71s11 69.833 11 118.5v153c-4.66699 -1.33301 -9.33398 -2 -14.001 -2h-15c-25.333 0 -49.833 3.5 -73.5 10.5s-45 18.667 -64 35s-34.667 37.833 -47 64.5s-19.833 60 -22.5 100
c-9.33301 -18 -16.5 -40.833 -21.5 -68.5s-7.5 -61.834 -7.5 -102.501v-190zM290.001 414.999l14.9971 0.000976562c4.66699 0 9.33398 0.666992 14.001 2v19c0 48.667 -3.66699 88.167 -11 118.5s-17.166 54 -29.499 71s-26.5 28.5 -42.5 34.5s-32.667 9 -50 9
c-16.667 -0.666992 -32.5 -3.5 -47.5 -8.5s-28.167 -14.833 -39.5 -29.5c0.666992 -41.333 6.5 -75.833 17.5 -103.5s25.333 -49.834 43 -66.501s37.834 -28.5 60.501 -35.5s46 -10.5 70 -10.5z" />
    <glyph glyph-name="p" unicode="p" horiz-adv-x="325" 
d="M61 690c39.333 0 74.5 -2.00098 105.5 -6.00098s57 -12.833 78 -26.5s37 -33.5 48 -59.5s16.5 -61 16.5 -105c0 -41.333 -5.16699 -74.333 -15.5 -99s-25.5 -43.667 -45.5 -57s-45 -22.166 -75 -26.499s-64.667 -6.5 -104 -6.5v-304h-20v690h12zM289 492.999
c0 38.667 -4.83203 69.5 -14.499 92.5s-23.834 40.833 -42.501 53.5s-41.667 21 -69 25s-58.666 6 -93.999 6v-346c36 0 67.667 1.83301 95 5.5s50.166 11.5 68.499 23.5s32.333 29.167 42 51.5s14.5 51.833 14.5 88.5z" />
    <glyph glyph-name="q" unicode="q" horiz-adv-x="376" 
d="M331 -106c-42 0 -63 28.3359 -63 85.0029c0 6 -0.166992 11.5 -0.5 16.5s-0.833008 10.167 -1.5 15.5c-11.333 -6.66699 -23.5 -11.334 -36.5 -14.001s-26.167 -4 -39.5 -4c-20 0 -39.167 3.33301 -57.5 10s-34.5 19.167 -48.5 37.5s-25.167 43.833 -33.5 76.5
s-12.5 75.667 -12.5 129v190c0 53.333 4.16699 96.5 12.5 129.5s19.5 58.667 33.5 77s30.333 30.666 49 36.999s38 9.5 58 9.5s39.167 -3.33301 57.5 -10s34.5 -19.167 48.5 -37.5s25.167 -44 33.5 -77s12.5 -75.833 12.5 -128.5v-190
c0 -61.333 -5.5 -109.166 -16.5 -143.499s-25.167 -59.833 -42.5 -76.5c2.66699 -12.667 4 -28.334 4 -47.001c0 -21.333 3.16699 -37.5 9.5 -48.5s17.5 -16.5 33.5 -16.5c9.33301 0 17.666 3.66699 24.999 11s11 17.666 11 30.999c0 11.333 -3.66699 20.5 -11 27.5
s-15.666 10.5 -24.999 10.5v18c13.333 0 26 -5 38 -15s18 -23.667 18 -41c0 -19.333 -5.66699 -34.5 -17 -45.5s-24.333 -16.5 -39 -16.5zM323 436.003c0 48.667 -3.66699 88.166 -11 118.499s-17.166 54 -29.499 71s-26.5 28.5 -42.5 34.5s-32.667 9 -50 9
s-34 -3.16699 -50 -9.5s-30 -18 -42 -35s-21.667 -40.5 -29 -70.5s-11 -69.333 -11 -118v-190c0 -52 4.16699 -93.5 12.5 -124.5s19.166 -54.833 32.499 -71.5c2 6 5.33301 13 10 21s10.834 15.667 18.501 23s17 13.5 28 18.5s23.833 7.5 38.5 7.5c40 0 66.667 -23 80 -69
c13.333 16.667 24.166 40.334 32.499 71.001s12.5 72 12.5 124v190zM191 13.002c12.667 0 25.001 1.49902 37.001 4.49902s23.333 8.83301 34 17.5c-9.33301 43.333 -30.666 65 -63.999 65c-12.667 0 -23.834 -2.33301 -33.501 -7s-17.834 -10.167 -24.501 -16.5
s-12 -13.166 -16 -20.499s-7 -13.333 -9 -18c11.333 -9.33301 23.333 -15.833 36 -19.5s26 -5.5 40 -5.5z" />
    <glyph glyph-name="r" unicode="r" horiz-adv-x="336" 
d="M61 690c36.667 0 69.1641 -2.00098 97.4971 -6.00098s52.166 -12.833 71.499 -26.5s34 -33.5 44 -59.5s15 -61 15 -105c0 -52.667 -7.5 -92.167 -22.5 -118.5s-37.5 -44.833 -67.5 -55.5c22 -9.33301 35.833 -27.5 41.5 -54.5s8.5 -58.167 8.5 -93.5
c0 -19.333 0.833008 -38.666 2.5 -57.999s5 -36.5 10 -51.5s12.5 -27.167 22.5 -36.5s23 -14 39 -14v-17c-21.333 0 -38.166 5.16699 -50.499 15.5s-21.666 23.833 -27.999 40.5s-10.5 35.5 -12.5 56.5s-3 42.167 -3 63.5c0 18 -0.666992 35.333 -2 52
s-4.16602 31.5 -8.49902 44.5s-10.5 23.5 -18.5 31.5s-18.667 12 -32 12v1c-14 -2.66699 -29.167 -4.5 -45.5 -5.5s-34.166 -1.5 -53.499 -1.5v-304h-20v690h12zM268.997 492.999c0 38.667 -4.33398 69.668 -13.001 93.001s-21.5 41.166 -38.5 53.499s-38 20.5 -63 24.5
s-53.5 6 -85.5 6v-346c32.667 0 61.5 1.66699 86.5 5s45.833 10.833 62.5 22.5s29.334 28.667 38.001 51s13 52.5 13 90.5z" />
    <glyph glyph-name="s" unicode="s" horiz-adv-x="353" 
d="M55 556c0 -35.333 6.83203 -63.333 20.499 -84s30.667 -38.167 51 -52.5s42.333 -27.333 66 -39s45.667 -26 66 -43s37.333 -38.833 51 -65.5s20.5 -62 20.5 -106c0 -31.333 -4.33301 -57.833 -13 -79.5s-20.167 -39.334 -34.5 -53.001s-31.166 -23.667 -50.499 -30
s-39.333 -9.5 -60 -9.5c-46 0 -82.5 10.5 -109.5 31.5s-40.5 51.833 -40.5 92.5c0 20.667 5.83301 38.5 17.5 53.5s28.167 22.5 49.5 22.5c19.333 0 34.333 -6 45 -18s16 -24.667 16 -38h-18c0 9.33301 -3.83301 17.666 -11.5 24.999s-18.167 11 -31.5 11
c-15.333 0 -27 -5.5 -35 -16.5s-12 -24.167 -12 -39.5c0 -34.667 11.667 -60.667 35 -78s55 -26 95 -26c18.667 0 36.334 2.83301 53.001 8.5s31.334 14.5 44.001 26.5s22.667 27.667 30 47s11 42.666 11 69.999c0 42 -6.83301 75.333 -20.5 100s-30.667 45 -51 61
s-42.333 29.667 -66 41s-45.667 24.5 -66 39.5s-37.333 33.833 -51 56.5s-20.5 53.334 -20.5 92.001c0 24 4 44.5 12 61.5s18.5 30.833 31.5 41.5s28.167 18.334 45.5 23.001s35.333 7 54 7c42 0 75 -8.33301 99 -25s36 -38.334 36 -65.001
c0 -17.333 -5 -32.666 -15 -45.999s-24 -20 -42 -20c-17.333 0 -31 6 -41 18s-15 24.667 -15 38h18c0 -9.33301 3.5 -17.666 10.5 -24.999s16.167 -11 27.5 -11c12 0 21.167 4.5 27.5 13.5s9.5 19.833 9.5 32.5c0 20.667 -10.167 37.5 -30.5 50.5s-48.5 19.5 -84.5 19.5
c-16 0 -31.333 -2.16699 -46 -6.5s-27.834 -11 -39.501 -20s-20.834 -20.667 -27.501 -35s-10 -31.5 -10 -51.5z" />
    <glyph glyph-name="t" unicode="t" horiz-adv-x="323" 
d="M72 470l0.00292969 219h20v-219h174v-18h-174v-290c0 -17.333 0.833008 -34.833 2.5 -52.5s5.66699 -33.5 12 -47.5s15.666 -25.5 27.999 -34.5s29.5 -13.5 51.5 -13.5c28.667 0 52.167 9.5 70.5 28.5s27.5 46.833 27.5 83.5c0 29.333 -6.66699 52.333 -20 69
s-30 25 -50 25c-12.667 0 -23.5 -3.16699 -32.5 -9.5s-13.5 -15.5 -13.5 -27.5c0 -11.333 3.66699 -20.5 11 -27.5s15.666 -10.5 24.999 -10.5v-18c-13.333 0 -26 5 -38 15s-18 23.667 -18 41c0 18 6.66699 32 20 42s28.666 15 45.999 15c26 0 47.5 -10.167 64.5 -30.5
s25.5 -48.166 25.5 -83.499c0 -44 -11.167 -77 -33.5 -99s-50.5 -33 -84.5 -33c-24 0 -43.5 4.33301 -58.5 13s-26.5 20.5 -34.5 35.5s-13.5 32.667 -16.5 53s-4.5 42.166 -4.5 65.499v291h-65v18h65z" />
    <glyph glyph-name="u" unicode="u" horiz-adv-x="357" 
d="M288 0v50.002l-21 -15.5c-8.66699 -6.33301 -19.167 -12.5 -31.5 -18.5s-26 -11.167 -41 -15.5s-31.167 -6.5 -48.5 -6.5c-23.333 0 -41.5 5.16699 -54.5 15.5s-22.833 23.333 -29.5 39s-10.667 32.834 -12 51.501s-2 36.667 -2 54v536h20v-535
c0 -13.333 0.333008 -28 1 -44s3.5 -31.333 8.5 -46s13 -26.834 24 -36.501s26.833 -14.5 47.5 -14.5c16 0 31.333 2.16699 46 6.5s28 9.66602 40 15.999s22.667 12.666 32 18.999s16.333 11.5 21 15.5v619h20v-690h-20z" />
    <glyph glyph-name="v" unicode="v" horiz-adv-x="338" 
d="M316 689c-12.667 -99.333 -25.9971 -193.665 -39.9971 -282.998c-6 -38 -12.5 -76.833 -19.5 -116.5s-14.5 -77.834 -22.5 -114.501s-16.167 -70.667 -24.5 -102s-16.833 -57.666 -25.5 -78.999h-23c-8.66699 21.333 -17.5 47.666 -26.5 78.999s-17.667 65.333 -26 102
l-25 114.5c-8.33301 39.667 -15.833 78.5 -22.5 116.5c-16.667 89.333 -32.334 183.666 -47.001 282.999h21c13.333 -91.333 27.666 -179.333 42.999 -264l21 -111c7.33301 -38 15 -75 23 -111s16.167 -69.833 24.5 -101.5s16.833 -59.5 25.5 -83.5c8 24 16 51.833 24 83.5
s15.667 65.5 23 101.5s14.166 73 20.499 111l18.5 111c12.667 84.667 25 172.667 37 264h21z" />
    <glyph glyph-name="w" unicode="w" horiz-adv-x="494" 
d="M187 689c4.66699 -27.333 10.3359 -57 17.0029 -89l18.5 -95.5c7 -35.667 14.833 -73.5 23.5 -113.5l21 113.5c6.66699 35.667 12.334 67.5 17.001 95.5l15 89h21c-5.33301 -34 -11.333 -69.667 -18 -107c-5.33301 -32.667 -11.833 -69.667 -19.5 -111
s-16.167 -84.333 -25.5 -129l21 -90.5l22 -87.5c7.33301 -28 14.666 -54.5 21.999 -79.5s14.666 -47.167 21.999 -66.5c8 24 15.5 51.833 22.5 83.5s13.667 65.5 20 101.5s12.166 73 17.499 111l15 111c10.667 84.667 20 172.667 28 264h21
c-8.66699 -99.333 -18.667 -193.666 -30 -282.999c-4.66699 -38 -10 -76.833 -16 -116.5s-12.333 -77.834 -19 -114.501s-14 -70.667 -22 -102s-16.333 -57.666 -25 -78.999h-23c-6.66699 16 -13.667 35.167 -21 57.5s-14.5 46.5 -21.5 72.5l-21.5 82.5
c-7.33301 29 -14.333 58.5 -21 88.5c-6 -30 -12.333 -59.5 -19 -88.5s-13.5 -56.5 -20.5 -82.5s-13.833 -50.167 -20.5 -72.5s-13.334 -41.5 -20.001 -57.5h-23c-8.66699 21.333 -17.167 47.666 -25.5 78.999s-16.333 65.333 -24 102s-14.834 74.834 -21.501 114.501
l-19 116.5c-13.333 89.333 -25.666 183.666 -36.999 282.999h21c10.667 -91.333 22 -179.333 34 -264l17 -111c6 -38 12.5 -74.833 19.5 -110.5s14.5 -69.5 22.5 -101.5s16 -60 24 -84c13.333 39.333 27 88 41 146s27.333 117.667 40 179l-28 128.5l-23 110.5
c-7.33301 37.333 -14 73 -20 107h21z" />
    <glyph glyph-name="x" unicode="x" horiz-adv-x="322" 
d="M31 689l130 -319l130 319h21l-141 -345l141 -344h-21l-130 319l-130 -319h-21l140 344l-140 345h21z" />
    <glyph glyph-name="y" unicode="y" horiz-adv-x="341" 
d="M294 161c0 -23.333 -1.49414 -45.168 -4.49414 -65.501s-8.5 -38 -16.5 -53s-19.5 -26.833 -34.5 -35.5s-34.5 -13 -58.5 -13c-34 0 -62.167 11 -84.5 33s-33.5 55 -33.5 99c0 35.333 8.5 63.166 25.5 83.499s38.5 30.5 64.5 30.5c17.333 0 32.666 -5 45.999 -15
s20 -24 20 -42c0 -17.333 -6 -31 -18 -41s-24.667 -15 -38 -15v18c9.33301 0 17.666 3.5 24.999 10.5s11 16.167 11 27.5c0 12 -4.5 21.167 -13.5 27.5s-19.833 9.5 -32.5 9.5c-20 0 -36.667 -8.33301 -50 -25s-20 -39.667 -20 -69c0 -36.667 9.16699 -64.5 27.5 -83.5
s41.833 -28.5 70.5 -28.5c22 0 39.167 4.5 51.5 13.5s21.666 20.5 27.999 34.5s10.333 29.833 12 47.5s2.5 35.167 2.5 52.5v193c-4.66699 -4 -11.334 -9.33301 -20.001 -16s-19.167 -13 -31.5 -19s-26.333 -11.333 -42 -16s-32.5 -7 -50.5 -7
c-23.333 0 -41.5 5.16699 -54.5 15.5s-22.833 23.333 -29.5 39s-10.667 32.834 -12 51.501s-2 36.667 -2 54v232h20v-231c0 -13.333 0.333008 -28 1 -44s3.5 -31.333 8.5 -46s13 -26.834 24 -36.501s26.833 -14.5 47.5 -14.5c16 0 31.667 2.33301 47 7
s29.166 10.334 41.499 17.001s23.166 13.334 32.499 20.001s16 11.667 20 15v313h20v-528z" />
    <glyph glyph-name="z" unicode="z" horiz-adv-x="361" 
d="M314 674l-123.004 -292.001c8.66699 -2.66699 17.5 -5 26.5 -7s17.167 -3 24.5 -3c8.66699 0 15.334 0.666992 20.001 2s8.66699 3 12 5c2.66699 2.66699 5 5.33398 7 8.00098l20 -6c-2.66699 -6 -6.33398 -11 -11.001 -15c-4.66699 -3.33301 -10.667 -6.5 -18 -9.5
s-17.333 -4.5 -30 -4.5c-11.333 0 -21.666 1 -30.999 3s-18.666 4.33301 -27.999 7l-138 -331c10 4 21.167 7.83301 33.5 11.5s24.166 5.5 35.499 5.5c18.667 0 34.834 -1.66699 48.501 -5s26.334 -6.83301 38.001 -10.5l34.5 -10.5c11.333 -3.33301 24 -5 38 -5
c19.333 0 34.166 6.5 44.499 19.5s15.5 29.833 15.5 50.5h20c0 -26.667 -7 -48.334 -21 -65.001s-33.667 -25 -59 -25c-14.667 0 -27.834 1.66699 -39.501 5s-23.167 6.83301 -34.5 10.5s-23.666 7.16699 -36.999 10.5s-29.333 5 -48 5
c-9.33301 0 -19.666 -1.5 -30.999 -4.5s-21.666 -6.16699 -30.999 -9.5c-11.333 -4 -22.333 -8.66699 -33 -14v20l146 348c-7.33301 2.66699 -14.5 4.83398 -21.5 6.50098s-13.167 2.5 -18.5 2.5c-8.66699 0 -16 -1 -22 -3s-11.333 -4.33301 -16 -7
c-5.33301 -2.66699 -10 -5.66699 -14 -9l-14 14c5.33301 4.66699 11.333 8.66699 18 12c5.33301 3.33301 12 6.33301 20 9s17.333 4 28 4c7.33301 0 15.333 -1 24 -3s16.667 -4 24 -6l119 286h-272v18h294v-18z" />
    <glyph glyph-name="braceleft" unicode="{" horiz-adv-x="205" 
d="M178 -87c-8 -0.666992 -15.667 -0.99707 -23 -0.99707c-6.66699 -0.666992 -13.5 -1 -20.5 -1h-17.5c-11.333 0 -20.666 3 -27.999 9s-13.166 14.167 -17.499 24.5s-7.33301 22.666 -9 36.999s-2.5 30.166 -2.5 47.499c0 28 1.83301 54.833 5.5 80.5s5.5 53.5 5.5 83.5
c0 27.333 -2.66699 50.333 -8 69s-16.666 28 -33.999 28v20c17.333 0 28.666 9.33301 33.999 28s8 41.667 8 69c0 26.667 -1.83301 53 -5.5 79s-5.5 54.333 -5.5 85c0 16.667 0.833008 32.334 2.5 47.001s4.66699 27.167 9 37.5s10.166 18.5 17.499 24.5s16.666 9 27.999 9
c4.66699 0 10.5 -0.166992 17.5 -0.5s13.833 -0.5 20.5 -0.5c7.33301 -0.666992 15 -1 23 -1v-20c-8 0 -15.667 0.333008 -23 1c-6.66699 0 -13.5 0.166992 -20.5 0.5s-12.833 0.5 -17.5 0.5c-15.333 0 -25.333 -9.33301 -30 -28s-7 -42 -7 -70
c0 -27.333 1.83301 -54 5.5 -80s5.5 -54 5.5 -84c0 -24.667 -2.16699 -46.334 -6.5 -65.001s-12.166 -32.667 -23.499 -42c11.333 -9.33301 19.166 -23.333 23.499 -42s6.5 -40.334 6.5 -65.001c0 -26.667 -1.83301 -53 -5.5 -79s-5.5 -54.333 -5.5 -85
c0 -28 2.33301 -51.333 7 -70s14.667 -28 30 -28h17.5c7 0 13.833 0.333008 20.5 1c7.33301 0 15 0.333008 23 1v-20z" />
    <glyph glyph-name="bar" unicode="|" horiz-adv-x="133" 
d="M77 689v-784h-21v784h21z" />
    <glyph glyph-name="braceright" unicode="}" horiz-adv-x="205" 
d="M27 -67c8 -0.666992 15.667 -1.00195 23 -1.00195c6.66699 -0.666992 13.334 -1 20.001 -1h18c15.333 0 25.333 9.33301 30 28s7 42 7 70c0 30.667 -1.83301 59 -5.5 85s-5.5 52.333 -5.5 79c0 24 2 45.5 6 64.5s11.667 33.167 23 42.5
c-11.333 9.33301 -19 23.333 -23 42s-6 40.334 -6 65.001c0 30 1.83301 58 5.5 84s5.5 52.667 5.5 80c0 28 -2.33301 51.333 -7 70s-14.667 28 -30 28c-5.33301 0 -11.333 -0.166992 -18 -0.5s-13.334 -0.5 -20.001 -0.5c-7.33301 -0.666992 -15 -1 -23 -1v20
c8 0 15.667 0.333008 23 1c6.66699 0 13.334 0.166992 20.001 0.5s12.667 0.5 18 0.5c22.667 0 37.834 -11.167 45.501 -33.5s11.5 -50.5 11.5 -84.5c0 -30.667 -1.83301 -59 -5.5 -85s-5.5 -52.333 -5.5 -79s2.33301 -49.167 7 -67.5s15.334 -28.166 32.001 -29.499h3v-20
h-3c-16.667 -1.33301 -27.334 -11.333 -32.001 -30s-7 -41 -7 -67c0 -30 1.83301 -57.833 5.5 -83.5s5.5 -52.5 5.5 -80.5c0 -34 -3.83301 -62.167 -11.5 -84.5s-22.834 -33.5 -45.501 -33.5h-18c-6.66699 0 -13.334 0.333008 -20.001 1c-7.33301 0 -15 0.333008 -23 1v20z
" />
    <glyph glyph-name="asciitilde" unicode="~" horiz-adv-x="583" 
d="M43 265c11.333 19.333 24.6709 36.998 40.0039 52.998c13.333 13.333 29 25.5 47 36.5s38.667 16.5 62 16.5c22.667 0 42.667 -5.5 60 -16.5s33.666 -23 48.999 -36s31.166 -25 47.499 -36s35.166 -16.5 56.499 -16.5s39 5.5 53 16.5s25.667 23.167 35 36.5
c10.667 16 19 34 25 54l20 -6c-7.33301 -23.333 -17 -43.666 -29 -60.999c-10.667 -15.333 -24.334 -29.166 -41.001 -41.499s-37.667 -18.5 -63 -18.5c-24 0 -45 5.5 -63 16.5s-34.667 23 -50 36s-30.833 25 -46.5 36s-33.5 16.5 -53.5 16.5c-20.667 0 -39 -5 -55 -15
s-29.667 -21 -41 -33c-13.333 -14 -25 -30 -35 -48z" />
    <glyph glyph-name="uni00A0" unicode="&#xa0;" horiz-adv-x="182" 
 />
    <glyph glyph-name="exclamdown" unicode="&#xa1;" horiz-adv-x="140" 
d="M57 -59l3 615h20l3 -615h-26zM48 671c0 6 2.16699 11.167 6.5 15.5s9.5 6.5 15.5 6.5s11.167 -2.16699 15.5 -6.5s6.5 -9.5 6.5 -15.5s-2.16699 -11.167 -6.5 -15.5s-9.5 -6.5 -15.5 -6.5s-11.167 2.16699 -15.5 6.5s-6.5 9.5 -6.5 15.5z" />
    <glyph glyph-name="cent" unicode="&#xa2;" horiz-adv-x="365" 
d="M216 762v-73.0039c35.333 -1.33301 63.166 -10.333 83.499 -27s30.5 -37.667 30.5 -63c0 -17.333 -5 -32.666 -15 -45.999s-24 -20 -42 -20c-17.333 0 -31 6 -41 18s-15 24.667 -15 38h18c0 -9.33301 3.5 -17.666 10.5 -24.999s16.167 -11 27.5 -11
c12 0 21.167 4.5 27.5 13.5s9.5 19.833 9.5 32.5c0 20.667 -8.83301 37.5 -26.5 50.5s-42.167 19.5 -73.5 19.5c-20.667 0 -40.167 -3 -58.5 -9s-34.5 -17.5 -48.5 -34.5s-25.167 -40.667 -33.5 -71s-12.5 -69.833 -12.5 -118.5v-185c0 -48.667 4.16699 -88.167 12.5 -118.5
s19.5 -54 33.5 -71s30.167 -28.5 48.5 -34.5s37.833 -9 58.5 -9c31.333 0 55.833 6.5 73.5 19.5s26.5 29.833 26.5 50.5c0 12.667 -3.16699 23.5 -9.5 32.5s-15.5 13.5 -27.5 13.5c-11.333 0 -20.5 -3.66699 -27.5 -11s-10.5 -15.666 -10.5 -24.999h-18c0 13.333 5 26 15 38
s23.667 18 41 18c18 0 32 -6.66699 42 -20s15 -28.666 15 -45.999c0 -26 -10.167 -47.167 -30.5 -63.5s-48.166 -25.166 -83.499 -26.499v-74h-20v75c-22 0.666992 -42.5 4.66699 -61.5 12s-35.833 20.333 -50.5 39s-26.167 44.167 -34.5 76.5s-12.5 73.833 -12.5 124.5v185
c0 50.667 4.16699 92 12.5 124s19.833 57.333 34.5 76s31.5 31.667 50.5 39s39.5 11.666 61.5 12.999v74h20z" />
    <glyph glyph-name="sterling" unicode="&#xa3;" horiz-adv-x="445" 
d="M319 363l-182.005 0.00195312v-315c18 0 33.667 -1.66699 47 -5s25.833 -7 37.5 -11s23 -7.5 34 -10.5s23.5 -4.5 37.5 -4.5c19.333 0 34.166 6.5 44.499 19.5s15.5 29.833 15.5 50.5h20c0 -26.667 -7 -48.334 -21 -65.001s-33.667 -25 -59 -25
c-14.667 0 -27.834 1.66699 -39.501 5s-23.167 6.83301 -34.5 10.5s-23.666 7.16699 -36.999 10.5s-29.333 5 -48 5c-9.33301 0 -19.666 -1.5 -30.999 -4.5s-21.666 -6.16699 -30.999 -9.5c-11.333 -4 -22.333 -8.66699 -33 -14v20c8 4 16.333 7.66699 25 11
c7.33301 3.33301 15.5 6.33301 24.5 9s18.167 4.66699 27.5 6v317h-87v20h87v76c0.666992 49.333 5.83398 89.5 15.501 120.5s22.334 55 38.001 72s33.834 28.5 54.501 34.5s42.334 9 65.001 9c40 0 71.667 -11 95 -33s35 -51 35 -87
c0 -25.333 -6.83301 -46.833 -20.5 -64.5s-32.5 -26.5 -56.5 -26.5c-20.667 0 -36.834 6.5 -48.501 19.5s-17.5 26.833 -17.5 41.5h18c0 -11.333 4.33301 -21 13 -29s20.334 -12 35.001 -12c18 0 32 6.83301 42 20.5s15 30.5 15 50.5c0 30 -9.83301 54 -29.5 72
s-46.5 27 -80.5 27c-20 0 -39 -2.83301 -57 -8.5s-34 -16.334 -48 -32.001s-25.167 -37.667 -33.5 -66s-12.833 -65.5 -13.5 -111.5v-73h182v-20z" />
    <glyph glyph-name="currency" unicode="&#xa4;" horiz-adv-x="562" 
d="M67 594l53 -53c20.667 19.333 44.667 34.5 72 45.5s57 16.5 89 16.5c32.667 0 62.834 -5.83301 90.501 -17.5s52.167 -27.5 73.5 -47.5l-3 3l53 53l14 -14l-53 -53c19.333 -21.333 34.666 -46 45.999 -74s17 -57.333 17 -88s-5.5 -59.834 -16.5 -87.501
s-26.167 -52.167 -45.5 -73.5l52 -52l-14 -14l-52 52c-21.333 -19.333 -45.666 -34.666 -72.999 -45.999s-57 -17 -89 -17s-61.833 5.66699 -89.5 17s-51.834 26.666 -72.501 45.999l-52 -52l-14 14l52 52c-19.333 21.333 -34.5 45.833 -45.5 73.5
s-16.5 56.834 -16.5 87.501s5.5 60 16.5 88s26.5 52.667 46.5 74l-53 53zM63 365c0 -29.333 5.33301 -57.166 16 -83.499s25.667 -49.5 45 -69.5s42.333 -35.833 69 -47.5s56 -17.5 88 -17.5s61.333 5.83301 88 17.5s49.667 27.5 69 47.5s34.333 43.167 45 69.5
s16 54.166 16 83.499s-5.33301 57.166 -16 83.499s-25.667 49.5 -45 69.5s-42.333 35.833 -69 47.5s-56 17.5 -88 17.5s-61.333 -5.83301 -88 -17.5s-49.667 -27.5 -69 -47.5s-34.333 -43.167 -45 -69.5s-16 -54.166 -16 -83.499z" />
    <glyph glyph-name="yen" unicode="&#xa5;" horiz-adv-x="398" 
d="M60 689l133 -295l142 295h22l-101 -211h101v-20h-111l-43 -91v-52h154v-20h-154v-295h-21v295h-142v20h142v52l-41 91h-101v20h92l-93 211h21z" />
    <glyph glyph-name="brokenbar" unicode="&#xa6;" horiz-adv-x="135" 
d="M57 340v349h21v-349h-21zM78 238v-333h-21v333h21z" />
    <glyph glyph-name="section" unicode="&#xa7;" horiz-adv-x="356" 
d="M280 142c8 -11.333 14.502 -23.6709 19.502 -37.0039s7.5 -28.666 7.5 -45.999c0 -28 -3.66699 -51.667 -11 -71s-17.333 -34.833 -30 -46.5s-27 -20.167 -43 -25.5s-33 -8 -51 -8c-40.667 0 -72.834 10.5 -96.501 31.5s-35.5 48.833 -35.5 83.5c0 30 6.66699 53 20 69
s31 24 53 24c14 0 26.167 -3 36.5 -9s15.5 -16.333 15.5 -31h-18c0 7.33301 -3.33301 12.5 -10 15.5s-14.667 4.5 -24 4.5c-16 0 -28.833 -6.33301 -38.5 -19s-14.5 -30.667 -14.5 -54c0 -28.667 10 -51.667 30 -69s47.333 -26 82 -26c15.333 0 30 2.16699 44 6.5
s26.167 11.666 36.5 21.999s18.666 23.833 24.999 40.5s9.5 37.334 9.5 62.001c0 26 -6.16699 47.667 -18.5 65s-27.833 32.833 -46.5 46.5s-38.667 26.334 -60 38.001s-41.333 24.834 -60 39.501s-34.167 31.5 -46.5 50.5s-18.5 42.833 -18.5 71.5
c0 28 5.66699 50.833 17 68.5s26.666 31.5 45.999 41.5c-13.333 12.667 -24.166 26.834 -32.499 42.501s-12.5 34.167 -12.5 55.5c0 20.667 3.5 38.167 10.5 52.5s16.5 26 28.5 35s25.833 15.5 41.5 19.5s32.167 6 49.5 6c34.667 0 62 -8.66699 82 -26s30 -40 30 -68
c0 -20 -5.16699 -36.833 -15.5 -50.5s-24.5 -20.5 -42.5 -20.5c-15.333 0 -27.666 4.5 -36.999 13.5s-14 19.5 -14 31.5h18c0 -7.33301 3.16699 -13.333 9.5 -18s14.166 -7 23.499 -7c12 0 21.333 5 28 15s10 22 10 36c0 22 -8.16699 39.833 -24.5 53.5
s-38.833 20.5 -67.5 20.5c-14.667 0 -28.667 -1.66699 -42 -5s-25 -8.66602 -35 -15.999s-18 -17 -24 -29s-9 -26.333 -9 -43c0 -24.667 6.16699 -45.167 18.5 -61.5s27.833 -30.833 46.5 -43.5s38.667 -24.834 60 -36.501s41.333 -25 60 -40s34.167 -32.833 46.5 -53.5
s18.5 -46.334 18.5 -77.001c0 -28.667 -4 -53.167 -12 -73.5s-19 -37.166 -33 -50.499zM305.002 265.995c0 28.667 -6.33301 52.502 -19 71.502s-28.5 35.667 -47.5 50s-39.5 27.5 -61.5 39.5s-42.333 25 -61 39c-18 -8 -32.333 -19.667 -43 -35s-16 -35.666 -16 -60.999
c0 -29.333 7.66699 -53.333 23 -72s34 -35.334 56 -50.001s45 -28.834 69 -42.501s44.667 -29.834 62 -48.501c11.333 11.333 20.5 26 27.5 44s10.5 39.667 10.5 65z" />
    <glyph glyph-name="dieresis" unicode="&#xa8;" horiz-adv-x="225" 
d="M17 791c0 5.33301 2 10 6 14s8.66699 6 14 6s10 -2 14 -6s6 -8.66699 6 -14s-2 -10 -6 -14s-8.66699 -6 -14 -6s-10 2 -14 6s-6 8.66699 -6 14zM168 791c0 5.33301 2 10 6 14s8.66699 6 14 6s10 -2 14 -6s6 -8.66699 6 -14s-2 -10 -6 -14s-8.66699 -6 -14 -6s-10 2 -14 6
s-6 8.66699 -6 14z" />
    <glyph glyph-name="copyright" unicode="&#xa9;" horiz-adv-x="455" 
d="M44 365c0 32 3.33301 62.333 10 91s17.5 53.834 32.5 75.501s34.5 39 58.5 52s53 19.5 87 19.5s62.5 -6.5 85.5 -19.5s41.333 -30.333 55 -52s23.334 -46.834 29.001 -75.501s8.5 -59 8.5 -91s-2.83301 -62.333 -8.5 -91s-15.334 -53.834 -29.001 -75.501
s-32 -39 -55 -52s-51.5 -19.5 -85.5 -19.5s-63 6.5 -87 19.5s-43.5 30.333 -58.5 52s-25.833 46.834 -32.5 75.501s-10 59 -10 91zM64 365c0 -29.333 2.83301 -57.166 8.5 -83.499s15 -49.5 28 -69.5s30.167 -35.833 51.5 -47.5s48 -17.5 80 -17.5s58.167 5.83301 78.5 17.5
s36.333 27.5 48 47.5s19.834 43.167 24.501 69.5s7 54.166 7 83.499s-2.33301 57.166 -7 83.499s-12.834 49.5 -24.501 69.5s-27.667 35.833 -48 47.5s-46.5 17.5 -78.5 17.5s-58.667 -5.83301 -80 -17.5s-38.5 -27.5 -51.5 -47.5s-22.333 -43.167 -28 -69.5
s-8.5 -54.166 -8.5 -83.499zM259 487c0 -6.66699 3.66699 -9.99707 11 -9.99707c3.33301 0 5.83301 1.66699 7.5 5s2.5 6.66602 2.5 9.99902c0 16.667 -13.333 25 -40 25c-9.33301 0 -18 -1.33301 -26 -4s-15 -7.83398 -21 -15.501s-10.833 -18.5 -14.5 -32.5
s-5.5 -32 -5.5 -54v-93c0 -22 1.83301 -40 5.5 -54s8.5 -24.833 14.5 -32.5s13 -12.834 21 -15.501s16.667 -4 26 -4c26.667 0 40 8.33301 40 25c0 3.33301 -0.833008 6.5 -2.5 9.5s-4.16699 4.5 -7.5 4.5c-7.33301 0 -11 -3 -11 -9h-17c0 7.33301 2.66699 13.833 8 19.5
s12.333 8.5 21 8.5c9.33301 0 16.5 -3.33301 21.5 -10s7.5 -14.334 7.5 -23.001c0 -13.333 -5.33301 -24.166 -16 -32.499s-25.334 -12.5 -44.001 -12.5c-11.333 0 -22.333 1.66699 -33 5s-20 9.5 -28 18.5s-14.333 21.833 -19 38.5s-7 38 -7 64v93
c0 26 2.33301 47.333 7 64s11 29.5 19 38.5s17.333 15.167 28 18.5s21.667 5 33 5c18.667 0 33.334 -4.16699 44.001 -12.5s16 -19.166 16 -32.499c0 -8.66699 -2.5 -16.334 -7.5 -23.001s-12.167 -10 -21.5 -10c-8.66699 0 -15.667 2.83301 -21 8.5s-8 12.167 -8 19.5h17z
" />
    <glyph glyph-name="ordfeminine" unicode="&#xaa;" horiz-adv-x="244" 
d="M44 648c0 12.667 5.16895 22.999 15.502 30.999s24.833 12 43.5 12c14 0 25.5 -1.83301 34.5 -5.5s16 -9.66699 21 -18s8.5 -19.333 10.5 -33s3 -30.167 3 -49.5v-177c0 -14 3 -23.833 9 -29.5s14 -8.5 24 -8.5v-18c-13.333 0 -24 2.5 -32 7.5s-13.667 13.5 -17 25.5
c-2 -7.33301 -6.33301 -14.666 -13 -21.999s-18.667 -11 -36 -11c-18 0 -33 7 -45 21s-18 33.667 -18 59c0 18 3.16699 33.5 9.5 46.5s14.666 24 24.999 33s22.166 16 35.499 21s26.666 7.83301 39.999 8.5v44c0 32 -3.16699 54.667 -9.5 68s-20.166 20 -41.499 20
c-12.667 0 -22.667 -2.33301 -30 -7s-11 -10.667 -11 -18h-18zM154.002 522.999c-11.333 -0.666992 -22.499 -2.99902 -33.499 -6.99902s-20.833 -9.83301 -29.5 -17.5s-15.667 -17 -21 -28s-8 -23.833 -8 -38.5c0 -19.333 4.16699 -34.5 12.5 -45.5
s19.166 -16.5 32.499 -16.5c10 0 18 2.5 24 7.5s10.667 10.5 14 16.5c4 7.33301 7 15.666 9 24.999v104z" />
    <glyph glyph-name="guillemotleft" unicode="&#xab;" horiz-adv-x="450" 
d="M246 3l-229 289l229 289l15 -12l-219 -277l219 -277zM399 3l-229 289l229 289l15 -12l-219 -277l219 -277z" />
    <glyph glyph-name="logicalnot" unicode="&#xac;" horiz-adv-x="478" 
d="M406 260v144h-334v20h354v-164h-20z" />
    <glyph glyph-name="uni00AD" unicode="&#xad;" horiz-adv-x="368" 
d="M331 323h-294v20h294v-20z" />
    <glyph glyph-name="registered" unicode="&#xae;" horiz-adv-x="455" 
d="M44 365c0 32 3.33301 62.333 10 91s17.5 53.834 32.5 75.501s34.5 39 58.5 52s53 19.5 87 19.5s62.5 -6.5 85.5 -19.5s41.333 -30.333 55 -52s23.334 -46.834 29.001 -75.501s8.5 -59 8.5 -91s-2.83301 -62.333 -8.5 -91s-15.334 -53.834 -29.001 -75.501
s-32 -39 -55 -52s-51.5 -19.5 -85.5 -19.5s-63 6.5 -87 19.5s-43.5 30.333 -58.5 52s-25.833 46.834 -32.5 75.501s-10 59 -10 91zM64 365c0 -29.333 2.83301 -57.166 8.5 -83.499s15 -49.5 28 -69.5s30.167 -35.833 51.5 -47.5s48 -17.5 80 -17.5s58.167 5.83301 78.5 17.5
s36.333 27.5 48 47.5s19.834 43.167 24.501 69.5s7 54.166 7 83.499s-2.33301 57.166 -7 83.499s-12.834 49.5 -24.501 69.5s-27.667 35.833 -48 47.5s-46.5 17.5 -78.5 17.5s-58.667 -5.83301 -80 -17.5s-38.5 -27.5 -51.5 -47.5s-22.333 -43.167 -28 -69.5
s-8.5 -54.166 -8.5 -83.499zM313 196c-12.667 0 -22.834 2.83008 -30.501 8.49707s-13.5 13.167 -17.5 22.5s-6.5 19.833 -7.5 31.5s-1.5 23.5 -1.5 35.5c0 15.333 -1.16699 29.166 -3.5 41.499s-7.83301 18.5 -16.5 18.5c-12 -2 -25.333 -3 -40 -3v-152h-20v345h6
c18 0 34.167 -1 48.5 -3s26.333 -6.33301 36 -13s17 -16.667 22 -30s7.5 -31 7.5 -53c0 -23.333 -2.83301 -41.5 -8.5 -54.5s-14.167 -22.5 -25.5 -28.5c6 -7.33301 9.83301 -17.166 11.5 -29.499s2.5 -25.166 2.5 -38.499c0 -9.33301 0.333008 -18.666 1 -27.999
s2.33398 -17.666 5.00098 -24.999s6.5 -13.333 11.5 -18s11.5 -7 19.5 -7v-20zM276 444.997c0 16 -1.66699 29.168 -5 39.501s-8.5 18.333 -15.5 24s-15.5 9.5 -25.5 11.5s-21.333 3.33301 -34 4v-153c12.667 0 24 1 34 3s18.5 5.66699 25.5 11s12.167 12.666 15.5 21.999
s5 22 5 38z" />
    <glyph glyph-name="macron" unicode="&#xaf;" horiz-adv-x="279" 
d="M257 754h-244v20h244v-20z" />
    <glyph glyph-name="degree" unicode="&#xb0;" horiz-adv-x="302" 
d="M37 575c0 15.333 3 29.833 9 43.5s14.333 25.834 25 36.501s22.834 19 36.501 25s28.167 9 43.5 9s29.833 -3 43.5 -9s25.834 -14.333 36.501 -25s19 -22.834 25 -36.501s9 -28.167 9 -43.5s-3 -29.833 -9 -43.5s-14.333 -25.834 -25 -36.501s-22.834 -19 -36.501 -25
s-28.167 -9 -43.5 -9s-29.833 3 -43.5 9s-25.834 14.333 -36.501 25s-19 22.834 -25 36.501s-9 28.167 -9 43.5zM57 575c0 -12.667 2.5 -24.667 7.5 -36s11.833 -21.333 20.5 -30s18.667 -15.5 30 -20.5s23.333 -7.5 36 -7.5s24.667 2.5 36 7.5s21.333 11.833 30 20.5
s15.5 18.667 20.5 30s7.5 23.333 7.5 36s-2.5 24.667 -7.5 36s-11.833 21.333 -20.5 30s-18.667 15.5 -30 20.5s-23.333 7.5 -36 7.5s-24.667 -2.5 -36 -7.5s-21.333 -11.833 -30 -20.5s-15.5 -18.667 -20.5 -30s-7.5 -23.333 -7.5 -36z" />
    <glyph glyph-name="plusminus" unicode="&#xb1;" horiz-adv-x="475" 
d="M423 323h-175v-185h-20v185h-175v20h175v185h20v-185h175v-20zM422 0h-370v20h370v-20z" />
    <glyph glyph-name="twosuperior" unicode="&#xb2;" horiz-adv-x="270" 
d="M44 323c0.666992 22.667 4.83496 42.333 12.502 59s17.167 31.334 28.5 44.001s23.666 24.667 36.999 36s25.666 23 36.999 35s20.666 25.5 27.999 40.5s11 33.167 11 54.5c0 30 -6.33301 50.167 -19 60.5s-27.667 15.5 -45 15.5c-8.66699 0 -16.834 -1.33301 -24.501 -4
s-14.334 -7.5 -20.001 -14.5s-10.167 -16.667 -13.5 -29s-5 -27.833 -5 -46.5h-20c0 22.667 2.33301 41.5 7 56.5s10.667 26.667 18 35s16 14.166 26 17.499s20.667 5 32 5s22 -1.5 32 -4.5s18.833 -8 26.5 -15s13.834 -16.833 18.501 -29.5s7 -28.334 7 -47.001
c0 -32 -7.16699 -58 -21.5 -78s-30.666 -38.167 -48.999 -54.5s-35.666 -33.166 -51.999 -50.499s-26.5 -39.333 -30.5 -66h155v-20h-176v0z" />
    <glyph glyph-name="threesuperior" unicode="&#xb3;" horiz-adv-x="264" 
d="M46 690h176.001v-20l-91 -129c26.667 -2.66699 48 -12.667 64 -30s24 -45 24 -83c0 -21.333 -2.33301 -38.833 -7 -52.5s-11 -24.5 -19 -32.5s-17.333 -13.5 -28 -16.5s-22 -4.5 -34 -4.5s-23.333 1.66699 -34 5s-20 9.5 -28 18.5s-14.333 21.333 -19 37s-7 35.5 -7 59.5
h20c0 -20 1.83301 -36.5 5.5 -49.5s8.5 -23.167 14.5 -30.5s13.167 -12.5 21.5 -15.5s17.166 -4.5 26.499 -4.5c18.667 0 34.667 5.83301 48 17.5s20 34.5 20 68.5s-7.5 58 -22.5 72s-34.833 21.333 -59.5 22l-16 12l96 136h-151v20z" />
    <glyph glyph-name="acute" unicode="&#xb4;" horiz-adv-x="75" 
d="M133 866l16 -12l-104 -136l-16 13z" />
    <glyph glyph-name="uni00B5" unicode="&#xb5;" horiz-adv-x="556" 
d="M408 0v57c-36 -42 -83.333 -63 -142 -63c-26.667 0 -50.5 3.83301 -71.5 11.5s-39.5 18.834 -55.5 33.501v-269h-51v712h51v-299c0 -46.667 11.333 -82.334 34 -107.001s55.667 -37 99 -37s76.833 12.5 100.5 37.5s35.5 60.5 35.5 106.5v299h51v-482h-51z" />
    <glyph glyph-name="paragraph" unicode="&#xb6;" horiz-adv-x="456" 
d="M399 0h-20v670h-94v-670h-20v304c-39.333 0 -74 2.16699 -104 6.5s-55 13.166 -75 26.499s-35.167 32.333 -45.5 57s-15.5 57.667 -15.5 99c0 42.667 5.33301 77 16 103s26.167 45.833 46.5 59.5s45.5 22.834 75.5 27.501s64 7 102 7h134v-690zM45 493
c0 -36.667 4.66699 -66.167 14 -88.5s23.333 -39.5 42 -51.5s41.667 -19.833 69 -23.5s59 -5.5 95 -5.5v346c-35.333 0 -66.666 -2 -93.999 -6s-50.333 -12.333 -69 -25s-32.834 -30.5 -42.501 -53.5s-14.5 -53.833 -14.5 -92.5z" />
    <glyph glyph-name="periodcentered" unicode="&#xb7;" horiz-adv-x="208" 
d="M52 352c0 14 5.16699 26.167 15.5 36.5s22.5 15.5 36.5 15.5s26.167 -5.16699 36.5 -15.5s15.5 -22.5 15.5 -36.5s-5.16699 -26.167 -15.5 -36.5s-22.5 -15.5 -36.5 -15.5s-26.167 5.16699 -36.5 15.5s-15.5 22.5 -15.5 36.5z" />
    <glyph glyph-name="cedilla" unicode="&#xb8;" horiz-adv-x="117" 
d="M26 -1l20 0.000976562v-41c6 -2 13.167 -5 21.5 -9s16.333 -9.16699 24 -15.5s14.167 -14 19.5 -23s8 -19.5 8 -31.5c0 -25.333 -10 -45.5 -30 -60.5s-48.333 -22.5 -85 -22.5v20c30.667 0 54.167 5.66699 70.5 17s24.5 26.666 24.5 45.999
c0 11.333 -3.83301 21 -11.5 29s-16.167 14.667 -25.5 20c-10.667 6 -22.667 10.667 -36 14v57z" />
    <glyph glyph-name="onesuperior" unicode="&#xb9;" horiz-adv-x="151" 
d="M98 689v-365h-21v305l-29 -80l-19 6l48 134h21z" />
    <glyph glyph-name="ordmasculine" unicode="&#xba;" horiz-adv-x="270" 
d="M61 531c0 -32 2 -57.833 6 -77.5s9.33301 -34.834 16 -45.501s14.5 -17.834 23.5 -21.501s18.5 -5.5 28.5 -5.5s19.5 1.83301 28.5 5.5s16.833 10.834 23.5 21.501s12 25.834 16 45.501s6 45.5 6 77.5c0 29.333 -2 53 -6 71s-9.33301 31.833 -16 41.5
s-14.5 16.167 -23.5 19.5s-18.5 5 -28.5 5s-19.5 -1.66699 -28.5 -5s-16.833 -9.83301 -23.5 -19.5s-12 -23.5 -16 -41.5s-6 -41.667 -6 -71zM41 531c0 34 2.5 61.333 7.5 82s11.833 36.5 20.5 47.5s18.667 18.333 30 22s23.333 5.5 36 5.5s24.667 -1.83301 36 -5.5
s21.333 -11 30 -22s15.5 -26.833 20.5 -47.5s7.5 -48 7.5 -82c0 -36.667 -2.5 -66.167 -7.5 -88.5s-11.833 -39.5 -20.5 -51.5s-18.667 -20 -30 -24s-23.333 -6 -36 -6s-24.667 2 -36 6s-21.333 12 -30 24s-15.5 29.167 -20.5 51.5s-7.5 51.833 -7.5 88.5z" />
    <glyph glyph-name="guillemotright" unicode="&#xbb;" horiz-adv-x="450" 
d="M204 581l229 -289l-229 -289l-15 12l219 277l-219 277zM51 581l229 -289l-229 -289l-15 12l219 277l-219 277z" />
    <glyph glyph-name="onequarter" unicode="&#xbc;" horiz-adv-x="455" 
d="M397 362v-287h36v-18h-36v-59h-19v59h-119v18l52 292l19 -5l-52 -287h100v287h19zM91 689v-365h-19v311l-31 -86l-17 6l48 134h19zM368 689l-306 -689l-22 1l306 688h22z" />
    <glyph glyph-name="onehalf" unicode="&#xbd;" horiz-adv-x="469" 
d="M261 0c0.666992 23.333 4.83496 43.168 12.502 59.501s17.167 30.833 28.5 43.5s23.666 24.667 36.999 36s25.666 23 36.999 35s20.666 25.5 27.999 40.5s11 33.167 11 54.5c0 30 -6.33301 50.167 -19 60.5s-27.667 15.5 -45 15.5
c-8.66699 0 -16.834 -1.33301 -24.501 -4s-14.334 -7.5 -20.001 -14.5s-10.167 -16.667 -13.5 -29s-5 -27.833 -5 -46.5h-20c0 22.667 2.33301 41.5 7 56.5s10.667 26.667 18 35s16 14.166 26 17.499s20.667 5 32 5s22 -1.5 32 -4.5s18.833 -8 26.5 -15
s13.834 -16.833 18.501 -29.5s7 -28.334 7 -47.001c0 -32 -7.16699 -58 -21.5 -78s-30.666 -38.167 -48.999 -54.5s-35.666 -33.166 -51.999 -50.499s-26.5 -39.333 -30.5 -66h155v-20h-176zM91.001 689.002v-365h-19v311l-31 -86l-17 6l48 134h19zM371.001 689.002
l-306 -689l-22 1l306 688h22z" />
    <glyph glyph-name="threequarters" unicode="&#xbe;" horiz-adv-x="500" 
d="M35 690h176.001v-20l-91 -129c26.667 -2.66699 48 -12.667 64 -30s24 -45 24 -83c0 -21.333 -2.33301 -38.833 -7 -52.5s-11 -24.5 -19 -32.5s-17.333 -13.5 -28 -16.5s-22 -4.5 -34 -4.5s-23.333 1.66699 -34 5s-20 9.5 -28 18.5s-14.333 21.333 -19 37s-7 35.5 -7 59.5
h20c0 -20 1.83301 -36.5 5.5 -49.5s8.5 -23.167 14.5 -30.5s13.167 -12.5 21.5 -15.5s17.166 -4.5 26.499 -4.5c18.667 0 34.667 5.83301 48 17.5s20 34.5 20 68.5s-7.5 58 -22.5 72s-34.833 21.333 -59.5 22l-16 12l96 136h-151v20zM439.001 362v-287h36v-18h-36v-59h-19
v59h-119v18l52 292l19 -5l-52 -287h100v287h19zM440.001 689l-306 -689l-22 1l306 688h22z" />
    <glyph glyph-name="questiondown" unicode="&#xbf;" horiz-adv-x="389" 
d="M231 555c0 -33.333 -4.50195 -60.998 -13.502 -82.998s-20.333 -41 -34 -57s-28.334 -30.5 -44.001 -43.5s-30.334 -27.667 -44.001 -44s-25 -35.833 -34 -58.5s-13.5 -51.334 -13.5 -86.001c0 -34 4 -62.167 12 -84.5s18.667 -40 32 -53s28.833 -22 46.5 -27
s36.5 -7.5 56.5 -7.5s38.833 3 56.5 9s33.167 16.833 46.5 32.5s24 36.834 32 63.501s12 61 12 103h21c0 -46.667 -4.5 -84.834 -13.5 -114.501s-21.167 -53 -36.5 -70s-33.166 -28.667 -53.499 -35s-41.833 -9.5 -64.5 -9.5s-44.167 2.83301 -64.5 8.5
s-38.166 15.834 -53.499 30.501s-27.5 34.667 -36.5 60s-13.5 57.333 -13.5 96c0 36 4.5 66 13.5 90s20.333 44.667 34 62s28.334 32.666 44.001 45.999s30.334 27.666 44.001 42.999s25 33 34 53s13.5 45.333 13.5 76h21zM238.998 670.002c0 -5.33301 -2 -10 -6 -14
s-8.66699 -6 -14 -6s-10 2 -14 6s-6 8.66699 -6 14s2 10 6 14s8.66699 6 14 6s10 -2 14 -6s6 -8.66699 6 -14z" />
    <glyph glyph-name="Agrave" unicode="&#xc0;" horiz-adv-x="325" 
d="M176 507l134 -507h-19l-59 219h-139l-57 -219h-20l133 507h27zM98 238h129l-65 244zM170 556l-16 -13l-104 136l16 12z" />
    <glyph glyph-name="Aacute" unicode="&#xc1;" horiz-adv-x="325" 
d="M176 507l134 -507h-19l-59 219h-139l-57 -219h-20l133 507h27zM98 238h129l-65 244zM259 691l16 -12l-104 -136l-16 13z" />
    <glyph glyph-name="Acircumflex" unicode="&#xc2;" horiz-adv-x="325" 
d="M176 507l134 -507h-19l-59 219h-139l-57 -219h-20l133 507h27zM98 238h129l-65 244zM147 691h26l92 -117l-16 -13l-88 114l-88 -114l-16 13z" />
    <glyph glyph-name="Atilde" unicode="&#xc3;" horiz-adv-x="325" 
d="M177 600l135 -600h-19l-59 259h-141l-57 -259h-20l134 600h27zM98 279h131l-66 290zM42 650c4 7.33301 9.33594 13.999 16.0029 19.999c5.33301 5.33301 12.166 10 20.499 14s18.166 6 29.499 6c12 0 23 -1.83301 33 -5.5s19.5 -7.66699 28.5 -12s18 -8.33301 27 -12
s18.5 -5.5 28.5 -5.5c8 0 14.5 1.66699 19.5 5s9.16699 7.33301 12.5 12c3.33301 5.33301 6 11.333 8 18l19 -6c-2.66699 -9.33301 -6.33398 -17.666 -11.001 -24.999c-4.66699 -6 -10.667 -11.5 -18 -16.5s-17.333 -7.5 -30 -7.5c-11.333 0 -22 1.83301 -32 5.5
s-19.667 7.66699 -29 12s-18.5 8.33301 -27.5 12s-18.5 5.5 -28.5 5.5c-8.66699 0 -16 -1.83301 -22 -5.5s-11.333 -7.5 -16 -11.5c-5.33301 -5.33301 -10 -11 -14 -17z" />
    <glyph glyph-name="Adieresis" unicode="&#xc4;" horiz-adv-x="325" 
d="M177 600l135 -600h-19l-59 259h-141l-57 -259h-20l134 600h27zM98 279h131l-66 290zM67 670c0 5.33301 2 10 6 14s8.66699 6 14 6s10 -2 14 -6s6 -8.66699 6 -14s-2 -10 -6 -14s-8.66699 -6 -14 -6s-10 2 -14 6s-6 8.66699 -6 14zM218 670c0 5.33301 2 10 6 14
s8.66699 6 14 6s10 -2 14 -6s6 -8.66699 6 -14s-2 -10 -6 -14s-8.66699 -6 -14 -6s-10 2 -14 6s-6 8.66699 -6 14z" />
    <glyph glyph-name="Aring" unicode="&#xc5;" horiz-adv-x="325" 
d="M176 507l134 -507h-19l-59 219h-139l-57 -219h-20l133 507h27zM98 238h129l-65 244zM98 623c0 17.333 6.66699 32.5 20 45.5s28.666 19.5 45.999 19.5s32.5 -6.5 45.5 -19.5s19.5 -28.167 19.5 -45.5s-6.5 -32.666 -19.5 -45.999s-28.167 -20 -45.5 -20
s-32.666 6.66699 -45.999 20s-20 28.666 -20 45.999zM118 623c0 -12.667 4.5 -23.5 13.5 -32.5s19.833 -13.5 32.5 -13.5s23.334 4.5 32.001 13.5s13 19.833 13 32.5s-4.33301 23.334 -13 32.001s-19.334 13 -32.001 13s-23.5 -4.33301 -32.5 -13
s-13.5 -19.334 -13.5 -32.001z" />
    <glyph glyph-name="AE" unicode="&#xc6;" horiz-adv-x="585" 
d="M177 689l88.001 -449c2.66699 20.667 6.83398 38.334 12.501 53.001s12.334 27.167 20.001 37.5s15.667 18.666 24 24.999s16.5 11.833 24.5 16.5c-8 6 -16.833 13.5 -26.5 22.5s-18.834 19.5 -27.501 31.5s-15.834 25.833 -21.501 41.5s-8.5 33.5 -8.5 53.5
c0 34 4.66699 61.833 14 83.5s21.833 38.667 37.5 51s34 21 55 26s43.167 7.5 66.5 7.5c40 0 71.667 -11 95 -33s35 -51 35 -87c0 -25.333 -6.83301 -46.833 -20.5 -64.5s-32.5 -26.5 -56.5 -26.5c-20.667 0 -36.834 6.5 -48.501 19.5s-17.5 26.833 -17.5 41.5h18
c0 -11.333 4.33301 -21 13 -29s20.334 -12 35.001 -12c18 0 32 6.83301 42 20.5s15 30.5 15 50.5c0 30 -9.83301 54 -29.5 72s-46.5 27 -80.5 27c-20.667 0 -40.167 -2 -58.5 -6s-34.5 -11.5 -48.5 -22.5s-25 -26 -33 -45s-12 -43.167 -12 -72.5
c0 -20 3.66699 -38.5 11 -55.5s16.333 -31.5 27 -43.5s21.834 -21.5 33.501 -28.5s22.167 -10.5 31.5 -10.5h111v-20h-114c-8.66699 0 -18.834 -3.16699 -30.501 -9.5s-22.667 -16.5 -33 -30.5s-19 -32.333 -26 -55s-10.5 -50 -10.5 -82c0 -34.667 4 -63.167 12 -85.5
s19 -39.833 33 -52.5s30.167 -21.5 48.5 -26.5s37.833 -7.5 58.5 -7.5c31.333 0 55.833 6.66699 73.5 20s26.5 31 26.5 53h20c0 -28 -10.667 -50.667 -32 -68s-50.666 -26 -87.999 -26c-19.333 0 -37.833 1.83301 -55.5 5.5s-33.834 10 -48.501 19
s-27.334 21.333 -38.001 37s-18.667 35.5 -24 59.5l-36 182h-139v2l-58 -299h-21l133 689h29zM97.001 316h132l-67 337z" />
    <glyph glyph-name="Ccedilla" unicode="&#xc7;" horiz-adv-x="360" 
d="M194 -5c-22 1.33301 -42.501 6.00195 -61.501 14.002s-35.667 21.5 -50 40.5s-25.666 44.667 -33.999 77s-12.5 73.833 -12.5 124.5v185c0 53.333 4.66699 96.5 14 129.5s21.833 58.667 37.5 77s34 30.666 55 36.999s43.167 9.5 66.5 9.5c40 0 71.667 -11 95 -33
s35 -51 35 -87c0 -25.333 -6.83301 -46.833 -20.5 -64.5s-32.5 -26.5 -56.5 -26.5c-20.667 0 -36.834 6.5 -48.501 19.5s-17.5 26.833 -17.5 41.5h18c0 -11.333 4.33301 -21 13 -29s20.334 -12 35.001 -12c18 0 32 6.83301 42 20.5s15 30.5 15 50.5
c0 30 -9.83301 54 -29.5 72s-46.5 27 -80.5 27c-20.667 0 -40.167 -3 -58.5 -9s-34.5 -17.333 -48.5 -34s-25 -40.167 -33 -70.5s-12 -69.833 -12 -118.5v-185c0 -48.667 4 -88.334 12 -119.001s19 -54.667 33 -72s30.167 -29.166 48.5 -35.499s37.833 -9.5 58.5 -9.5
c31.333 0 55.833 7 73.5 21s26.5 31.333 26.5 52h20c0 -26 -10.167 -47.833 -30.5 -65.5s-48.5 -27.167 -84.5 -28.5v-36c6 -2 13.167 -5 21.5 -9s16.333 -9.16699 24 -15.5s14.167 -14 19.5 -23s8 -19.5 8 -31.5c0 -25.333 -10 -45.5 -30 -60.5s-48.333 -22.5 -85 -22.5v20
c30.667 0 54.167 5.66699 70.5 17s24.5 26.666 24.5 45.999c0 11.333 -3.83301 21 -11.5 29s-16.167 14.667 -25.5 20c-10.667 6 -22.667 10.667 -36 14v53z" />
    <glyph glyph-name="Egrave" unicode="&#xc8;" horiz-adv-x="305" 
d="M54 385c0 -15.333 3.16895 -28.998 9.50195 -40.998s14 -22.5 23 -31.5s18.333 -15.833 28 -20.5s18.167 -7 25.5 -7h76v-19h-78c-7.33301 0 -15.666 -2 -24.999 -6s-18.5 -10.833 -27.5 -20.5s-16.5 -22.834 -22.5 -39.501s-9 -37.334 -9 -62.001
c0 -22.667 3.16699 -41.667 9.5 -57s15 -27.833 26 -37.5s23.833 -16.5 38.5 -20.5s30.334 -6 47.001 -6c24 0 42.833 4.16699 56.5 12.5s20.5 20.166 20.5 35.499h21c0 -20.667 -8.66699 -37.334 -26 -50.001s-41.333 -19 -72 -19c-19.333 0 -37.5 2.5 -54.5 7.5
s-32 13.167 -45 24.5s-23.333 26 -31 44s-11.5 40 -11.5 66c0 22.667 2.16699 41.834 6.5 57.501s9.83301 28.834 16.5 39.501s14 19 22 25s16 11 24 15c-6.66699 4 -14 9.33301 -22 16s-15.5 14.5 -22.5 23.5s-12.833 19.333 -17.5 31s-7 24.834 -7 39.501
c0 24.667 3.83301 45 11.5 61s18 28.667 31 38s28 15.833 45 19.5s35.167 5.5 54.5 5.5c33.333 0 59.333 -8.33301 78 -25s28 -38 28 -64c0 -18.667 -5.5 -34.5 -16.5 -47.5s-26.5 -19.5 -46.5 -19.5c-16.667 0 -29.834 4.66699 -39.501 14s-14.5 19.666 -14.5 30.999h18
c0 -6.66699 3.16699 -12.5 9.5 -17.5s15.166 -7.5 26.499 -7.5c13.333 0 23.666 4.5 30.999 13.5s11 20.167 11 33.5c0 21.333 -7.16699 38 -21.5 50s-35.5 18 -63.5 18c-16.667 0 -32.334 -1.33301 -47.001 -4s-27.5 -7.83398 -38.5 -15.501s-19.667 -18.167 -26 -31.5
s-9.5 -30.666 -9.5 -51.999zM187.002 555.002l-16 -13l-104 136l16 12z" />
    <glyph glyph-name="Eacute" unicode="&#xc9;" horiz-adv-x="305" 
d="M54 385c0 -15.333 3.16895 -28.998 9.50195 -40.998s14 -22.5 23 -31.5s18.333 -15.833 28 -20.5s18.167 -7 25.5 -7h76v-19h-78c-7.33301 0 -15.666 -2 -24.999 -6s-18.5 -10.833 -27.5 -20.5s-16.5 -22.834 -22.5 -39.501s-9 -37.334 -9 -62.001
c0 -22.667 3.16699 -41.667 9.5 -57s15 -27.833 26 -37.5s23.833 -16.5 38.5 -20.5s30.334 -6 47.001 -6c24 0 42.833 4.16699 56.5 12.5s20.5 20.166 20.5 35.499h21c0 -20.667 -8.66699 -37.334 -26 -50.001s-41.333 -19 -72 -19c-19.333 0 -37.5 2.5 -54.5 7.5
s-32 13.167 -45 24.5s-23.333 26 -31 44s-11.5 40 -11.5 66c0 22.667 2.16699 41.834 6.5 57.501s9.83301 28.834 16.5 39.501s14 19 22 25s16 11 24 15c-6.66699 4 -14 9.33301 -22 16s-15.5 14.5 -22.5 23.5s-12.833 19.333 -17.5 31s-7 24.834 -7 39.501
c0 24.667 3.83301 45 11.5 61s18 28.667 31 38s28 15.833 45 19.5s35.167 5.5 54.5 5.5c33.333 0 59.333 -8.33301 78 -25s28 -38 28 -64c0 -18.667 -5.5 -34.5 -16.5 -47.5s-26.5 -19.5 -46.5 -19.5c-16.667 0 -29.834 4.66699 -39.501 14s-14.5 19.666 -14.5 30.999h18
c0 -6.66699 3.16699 -12.5 9.5 -17.5s15.166 -7.5 26.499 -7.5c13.333 0 23.666 4.5 30.999 13.5s11 20.167 11 33.5c0 21.333 -7.16699 38 -21.5 50s-35.5 18 -63.5 18c-16.667 0 -32.334 -1.33301 -47.001 -4s-27.5 -7.83398 -38.5 -15.501s-19.667 -18.167 -26 -31.5
s-9.5 -30.666 -9.5 -51.999zM259.002 691.002l16 -12l-104 -136l-16 13z" />
    <glyph glyph-name="Ecircumflex" unicode="&#xca;" horiz-adv-x="305" 
d="M54 385c0 -15.333 3.16895 -28.998 9.50195 -40.998s14 -22.5 23 -31.5s18.333 -15.833 28 -20.5s18.167 -7 25.5 -7h76v-19h-78c-7.33301 0 -15.666 -2 -24.999 -6s-18.5 -10.833 -27.5 -20.5s-16.5 -22.834 -22.5 -39.501s-9 -37.334 -9 -62.001
c0 -22.667 3.16699 -41.667 9.5 -57s15 -27.833 26 -37.5s23.833 -16.5 38.5 -20.5s30.334 -6 47.001 -6c24 0 42.833 4.16699 56.5 12.5s20.5 20.166 20.5 35.499h21c0 -20.667 -8.66699 -37.334 -26 -50.001s-41.333 -19 -72 -19c-19.333 0 -37.5 2.5 -54.5 7.5
s-32 13.167 -45 24.5s-23.333 26 -31 44s-11.5 40 -11.5 66c0 22.667 2.16699 41.834 6.5 57.501s9.83301 28.834 16.5 39.501s14 19 22 25s16 11 24 15c-6.66699 4 -14 9.33301 -22 16s-15.5 14.5 -22.5 23.5s-12.833 19.333 -17.5 31s-7 24.834 -7 39.501
c0 24.667 3.83301 45 11.5 61s18 28.667 31 38s28 15.833 45 19.5s35.167 5.5 54.5 5.5c33.333 0 59.333 -8.33301 78 -25s28 -38 28 -64c0 -18.667 -5.5 -34.5 -16.5 -47.5s-26.5 -19.5 -46.5 -19.5c-16.667 0 -29.834 4.66699 -39.501 14s-14.5 19.666 -14.5 30.999h18
c0 -6.66699 3.16699 -12.5 9.5 -17.5s15.166 -7.5 26.499 -7.5c13.333 0 23.666 4.5 30.999 13.5s11 20.167 11 33.5c0 21.333 -7.16699 38 -21.5 50s-35.5 18 -63.5 18c-16.667 0 -32.334 -1.33301 -47.001 -4s-27.5 -7.83398 -38.5 -15.501s-19.667 -18.167 -26 -31.5
s-9.5 -30.666 -9.5 -51.999zM159.002 691.002h26l92 -117l-16 -13l-88 114l-88 -114l-16 13z" />
    <glyph glyph-name="Edieresis" unicode="&#xcb;" horiz-adv-x="305" 
d="M60 457c0 -18 3.5 -34.502 10.5 -49.502s15.5 -28 25.5 -39s20.667 -19.5 32 -25.5s21 -9 29 -9h101v-20h-104c-8.66699 0 -18.667 -2.83301 -30 -8.5s-22.166 -14.5 -32.499 -26.5s-19.166 -27.667 -26.499 -47s-11 -42.666 -11 -69.999c0 -30 3.83301 -54.5 11.5 -73.5
s17.667 -34 30 -45s26.833 -18.5 43.5 -22.5s34 -6 52 -6c31.333 0 56 6.66699 74 20s27 31 27 53h20c0 -28 -10.667 -50.667 -32 -68s-51 -26 -89 -26c-21.333 0 -41.5 2.5 -60.5 7.5s-35.667 13.667 -50 26s-25.833 29.333 -34.5 51s-13 49.5 -13 83.5
c0 27.333 2.66699 50.333 8 69s12.166 34 20.499 46s17.5 21.5 27.5 28.5s19.667 12.5 29 16.5c-8 5.33301 -16.5 12 -25.5 20s-17.5 17.5 -25.5 28.5s-14.667 23.667 -20 38s-8 30.166 -8 47.499c0 30 4.16699 54.5 12.5 73.5s19.5 34 33.5 45s30.167 18.667 48.5 23
s37.5 6.5 57.5 6.5c40 0 71.667 -11 95 -33s35 -51 35 -87c0 -20.667 -5.83301 -38.5 -17.5 -53.5s-28.167 -22.5 -49.5 -22.5c-20.667 0 -36.834 6.5 -48.501 19.5s-17.5 26.833 -17.5 41.5h19c0 -11.333 4.33301 -21 13 -29s20 -12 34 -12c15.333 0 27 5.5 35 16.5
s12 24.167 12 39.5c0 30 -9.83301 54 -29.5 72s-46.5 27 -80.5 27c-17.333 0 -33.833 -1.83301 -49.5 -5.5s-29.5 -10.167 -41.5 -19.5s-21.667 -22.166 -29 -38.499s-11 -37.166 -11 -62.499zM93 669.998c0 5.33301 2 10 6 14s8.66699 6 14 6c6 0 10.833 -2 14.5 -6
s5.5 -8.66699 5.5 -14s-1.83301 -10 -5.5 -14s-8.5 -6 -14.5 -6c-5.33301 0 -10 2 -14 6s-6 8.66699 -6 14zM245 669.998c0 5.33301 1.83301 10 5.5 14s8.5 6 14.5 6c5.33301 0 10 -2 14 -6s6 -8.66699 6 -14s-2 -10 -6 -14s-8.66699 -6 -14 -6c-6 0 -10.833 2 -14.5 6
s-5.5 8.66699 -5.5 14z" />
    <glyph glyph-name="Igrave" unicode="&#xcc;" horiz-adv-x="111" 
d="M66 508v-508h-21v508h21zM62 560l-16 -13l-104 136l16 12z" />
    <glyph glyph-name="Iacute" unicode="&#xcd;" horiz-adv-x="111" 
d="M66 508v-508h-21v508h21zM147 690l16 -12l-104 -136l-16 13z" />
    <glyph glyph-name="Icircumflex" unicode="&#xce;" horiz-adv-x="111" 
d="M66 508v-508h-21v508h21zM40 689h26l92 -117l-16 -13l-88 114l-88 -114l-16 13z" />
    <glyph glyph-name="Idieresis" unicode="&#xcf;" horiz-adv-x="117" 
d="M69 596v-596h-21v596h21zM-38 673c0 5.33301 2 10 6 14s8.66699 6 14 6s10 -2 14 -6s6 -8.66699 6 -14s-2 -10 -6 -14s-8.66699 -6 -14 -6s-10 2 -14 6s-6 8.66699 -6 14zM113 673c0 5.33301 2 10 6 14s8.66699 6 14 6s10 -2 14 -6s6 -8.66699 6 -14s-2 -10 -6 -14
s-8.66699 -6 -14 -6s-10 2 -14 6s-6 8.66699 -6 14z" />
    <glyph glyph-name="Eth" unicode="&#xd0;" horiz-adv-x="367" 
d="M56 689l17 -0.000976562c36 0 69.667 -3.16699 101 -9.5s58.666 -18.5 81.999 -36.5s41.666 -43.333 54.999 -76s20 -75.667 20 -129v-185c0 -53.333 -6.66699 -96.5 -20 -129.5s-31.666 -58.667 -54.999 -77s-50.666 -30.666 -81.999 -36.999s-65 -9.5 -101 -9.5h-17
v363h-45v20h45v306zM231 362.999h-154v-342c32.667 0 63.167 3 91.5 9s53 17.5 74 34.5s37.5 40.667 49.5 71s18 69.5 18 117.5v185c0 48 -6 87 -18 117s-28.5 53.333 -49.5 70s-45.667 28 -74 34s-58.833 9 -91.5 9v-285h154v-20z" />
    <glyph glyph-name="Ntilde" unicode="&#xd1;" horiz-adv-x="365" 
d="M317 597v-597h-21l-227 542v-542h-21v597h21l227 -544v544h21zM64 650c4 7.33301 9.33594 13.999 16.0029 19.999c5.33301 5.33301 12.166 10 20.499 14s18.166 6 29.499 6c12 0 23 -1.83301 33 -5.5s19.5 -7.66699 28.5 -12s18 -8.33301 27 -12s18.5 -5.5 28.5 -5.5
c8 0 14.5 1.66699 19.5 5s9.16699 7.33301 12.5 12c3.33301 5.33301 6 11.333 8 18l19 -6c-2.66699 -9.33301 -6.33398 -17.666 -11.001 -24.999c-4.66699 -6 -10.667 -11.5 -18 -16.5s-17.333 -7.5 -30 -7.5c-11.333 0 -22 1.83301 -32 5.5s-19.667 7.66699 -29 12
s-18.5 8.33301 -27.5 12s-18.5 5.5 -28.5 5.5c-8.66699 0 -16 -1.83301 -22 -5.5s-11.333 -7.5 -16 -11.5c-5.33301 -5.33301 -10 -11 -14 -17z" />
    <glyph glyph-name="Ograve" unicode="&#xd2;" 
d="M34 317c0 40 3.83301 72.667 11.5 98s17.834 45.5 30.501 60.5s27.334 25.333 44.001 31s34 8.5 52 8.5c18.667 0 36.667 -2.83301 54 -8.5s32.5 -16 45.5 -31s23.5 -35.167 31.5 -60.5s12 -58 12 -98v-125c0 -38.667 -4 -70.667 -12 -96s-18.5 -45.5 -31.5 -60.5
s-28.167 -25.5 -45.5 -31.5s-35.333 -9 -54 -9c-18 0 -35.333 3 -52 9s-31.334 16.5 -44.001 31.5s-22.834 35.167 -30.501 60.5s-11.5 57.333 -11.5 96v125zM294 317c0 35.333 -3.33301 64.333 -10 87s-15.667 40.667 -27 54s-24.333 22.666 -39 27.999s-30 8 -46 8
c-15.333 0 -30 -2.66699 -44 -8s-26.5 -14.666 -37.5 -27.999s-19.667 -31.333 -26 -54s-9.5 -51.667 -9.5 -87v-125c0 -34 3.16699 -62.333 9.5 -85s15 -40.834 26 -54.501s23.5 -23.167 37.5 -28.5s28.667 -8 44 -8c16 0 31.333 2.66699 46 8s27.667 14.833 39 28.5
s20.333 31.834 27 54.501s10 51 10 85v125zM194 555l-16 -13l-104 136l16 12z" />
    <glyph glyph-name="Oacute" unicode="&#xd3;" 
d="M34 317c0 40 3.83301 72.667 11.5 98s17.834 45.5 30.501 60.5s27.334 25.333 44.001 31s34 8.5 52 8.5c18.667 0 36.667 -2.83301 54 -8.5s32.5 -16 45.5 -31s23.5 -35.167 31.5 -60.5s12 -58 12 -98v-125c0 -38.667 -4 -70.667 -12 -96s-18.5 -45.5 -31.5 -60.5
s-28.167 -25.5 -45.5 -31.5s-35.333 -9 -54 -9c-18 0 -35.333 3 -52 9s-31.334 16.5 -44.001 31.5s-22.834 35.167 -30.501 60.5s-11.5 57.333 -11.5 96v125zM294 317c0 35.333 -3.33301 64.333 -10 87s-15.667 40.667 -27 54s-24.333 22.666 -39 27.999s-30 8 -46 8
c-15.333 0 -30 -2.66699 -44 -8s-26.5 -14.666 -37.5 -27.999s-19.667 -31.333 -26 -54s-9.5 -51.667 -9.5 -87v-125c0 -34 3.16699 -62.333 9.5 -85s15 -40.834 26 -54.501s23.5 -23.167 37.5 -28.5s28.667 -8 44 -8c16 0 31.333 2.66699 46 8s27.667 14.833 39 28.5
s20.333 31.834 27 54.501s10 51 10 85v125zM267 692l16 -12l-104 -136l-16 13z" />
    <glyph glyph-name="Ocircumflex" unicode="&#xd4;" 
d="M34 317c0 40 3.83301 72.667 11.5 98s17.834 45.5 30.501 60.5s27.334 25.333 44.001 31s34 8.5 52 8.5c18.667 0 36.667 -2.83301 54 -8.5s32.5 -16 45.5 -31s23.5 -35.167 31.5 -60.5s12 -58 12 -98v-125c0 -38.667 -4 -70.667 -12 -96s-18.5 -45.5 -31.5 -60.5
s-28.167 -25.5 -45.5 -31.5s-35.333 -9 -54 -9c-18 0 -35.333 3 -52 9s-31.334 16.5 -44.001 31.5s-22.834 35.167 -30.501 60.5s-11.5 57.333 -11.5 96v125zM294 317c0 35.333 -3.33301 64.333 -10 87s-15.667 40.667 -27 54s-24.333 22.666 -39 27.999s-30 8 -46 8
c-15.333 0 -30 -2.66699 -44 -8s-26.5 -14.666 -37.5 -27.999s-19.667 -31.333 -26 -54s-9.5 -51.667 -9.5 -87v-125c0 -34 3.16699 -62.333 9.5 -85s15 -40.834 26 -54.501s23.5 -23.167 37.5 -28.5s28.667 -8 44 -8c16 0 31.333 2.66699 46 8s27.667 14.833 39 28.5
s20.333 31.834 27 54.501s10 51 10 85v125zM158 691h26l92 -117l-16 -13l-88 114l-88 -114l-16 13z" />
    <glyph glyph-name="Otilde" unicode="&#xd5;" 
d="M34 373c0 48 4.33301 87 13 117s20.167 53.167 34.5 69.5s31 27.333 50 33s39.167 8.5 60.5 8.5c20.667 0 40.667 -2.83301 60 -8.5s36.166 -16.667 50.499 -33s25.833 -39.5 34.5 -69.5s13 -69 13 -117v-147c0 -48 -4.33301 -87.167 -13 -117.5s-20.167 -54 -34.5 -71
s-31.166 -28.5 -50.499 -34.5s-39.333 -9 -60 -9c-21.333 0 -41.5 3 -60.5 9s-35.667 17.5 -50 34.5s-25.833 40.667 -34.5 71s-13 69.5 -13 117.5v147zM329 373c0 44 -3.66699 79.5 -11 106.5s-17.333 48 -30 63s-27.334 25 -44.001 30s-34 7.5 -52 7.5
s-35.333 -2.5 -52 -7.5s-31.334 -15 -44.001 -30s-22.667 -36 -30 -63s-11 -62.5 -11 -106.5v-147c0 -44 3.66699 -79.667 11 -107s17.333 -48.666 30 -63.999s27.334 -25.833 44.001 -31.5s34 -8.5 52 -8.5s35.333 2.83301 52 8.5s31.334 16.167 44.001 31.5
s22.667 36.666 30 63.999s11 63 11 107v147zM69 650c4 7.33301 9.33594 13.999 16.0029 19.999c5.33301 5.33301 12.166 10 20.499 14s18.166 6 29.499 6c12 0 23 -1.83301 33 -5.5s19.5 -7.66699 28.5 -12s18 -8.33301 27 -12s18.5 -5.5 28.5 -5.5c8 0 14.5 1.66699 19.5 5
s9.16699 7.33301 12.5 12c3.33301 5.33301 6 11.333 8 18l19 -6c-2.66699 -9.33301 -6.33398 -17.666 -11.001 -24.999c-4.66699 -6 -10.667 -11.5 -18 -16.5s-17.333 -7.5 -30 -7.5c-11.333 0 -22 1.83301 -32 5.5s-19.667 7.66699 -29 12s-18.5 8.33301 -27.5 12
s-18.5 5.5 -28.5 5.5c-8.66699 0 -16 -1.83301 -22 -5.5s-11.333 -7.5 -16 -11.5c-5.33301 -5.33301 -10 -11 -14 -17z" />
    <glyph glyph-name="Odieresis" unicode="&#xd6;" 
d="M34 373c0 48 4.33301 87 13 117s20.167 53.167 34.5 69.5s31 27.333 50 33s39.167 8.5 60.5 8.5c20.667 0 40.667 -2.83301 60 -8.5s36.166 -16.667 50.499 -33s25.833 -39.5 34.5 -69.5s13 -69 13 -117v-147c0 -48 -4.33301 -87.167 -13 -117.5s-20.167 -54 -34.5 -71
s-31.166 -28.5 -50.499 -34.5s-39.333 -9 -60 -9c-21.333 0 -41.5 3 -60.5 9s-35.667 17.5 -50 34.5s-25.833 40.667 -34.5 71s-13 69.5 -13 117.5v147zM329 373c0 44 -3.66699 79.5 -11 106.5s-17.333 48 -30 63s-27.334 25 -44.001 30s-34 7.5 -52 7.5
s-35.333 -2.5 -52 -7.5s-31.334 -15 -44.001 -30s-22.667 -36 -30 -63s-11 -62.5 -11 -106.5v-147c0 -44 3.66699 -79.667 11 -107s17.333 -48.666 30 -63.999s27.334 -25.833 44.001 -31.5s34 -8.5 52 -8.5s35.333 2.83301 52 8.5s31.334 16.167 44.001 31.5
s22.667 36.666 30 63.999s11 63 11 107v147zM100 669c0 5.33301 2 10 6 14s8.66699 6 14 6s10 -2 14 -6s6 -8.66699 6 -14s-2 -10 -6 -14s-8.66699 -6 -14 -6s-10 2 -14 6s-6 8.66699 -6 14zM251 669c0 5.33301 2 10 6 14s8.66699 6 14 6s10 -2 14 -6s6 -8.66699 6 -14
s-2 -10 -6 -14s-8.66699 -6 -14 -6s-10 2 -14 6s-6 8.66699 -6 14z" />
    <glyph glyph-name="multiply" unicode="&#xd7;" horiz-adv-x="356" 
d="M291 201l-113 113l-113 -113l-14 14l113 113l-113 113l14 14l113 -113l113 113l14 -14l-113 -113l113 -113z" />
    <glyph glyph-name="Oslash" unicode="&#xd8;" horiz-adv-x="419" 
d="M375 689l-32 -71.001c10.667 -19.333 19 -43.666 25 -72.999s9 -65.666 9 -108.999v-185c0 -53.333 -4.5 -96.666 -13.5 -129.999s-21.167 -59.5 -36.5 -78.5s-33.166 -31.833 -53.499 -38.5s-41.833 -10 -64.5 -10c-23.333 0 -45.333 3.5 -66 10.5
s-38.667 20.5 -54 40.5l-20 -45l-22 1l28 64c-10.667 19.333 -19 44.166 -25 74.499s-9 67.5 -9 111.5v185c0 53.333 4.5 96.5 13.5 129.5s21.167 58.667 36.5 77s33.166 30.666 53.499 36.999s41.833 9.5 64.5 9.5c23.333 0 45.5 -3.5 66.5 -10.5s39.167 -20.5 54.5 -40.5
l23 51h22zM209 667.999c-20 0 -38.834 -2.99902 -56.501 -8.99902s-33.167 -17.333 -46.5 -34s-24 -40.167 -32 -70.5s-12 -69.833 -12 -118.5v-185c0 -36.667 2.16699 -68 6.5 -94s10.5 -48 18.5 -66l233 523c-14 21.333 -30.667 35.666 -50 42.999s-39.666 11 -60.999 11z
M355.999 436c0 36 -2.16797 66.667 -6.50098 92s-10.166 46.666 -17.499 63.999l-233 -523c14 -21.333 30.5 -35.666 49.5 -42.999s39.167 -11 60.5 -11c20 0 38.833 3.16699 56.5 9.5s33.167 18.166 46.5 35.499s24 41.333 32 72s12 70.334 12 119.001v185z" />
    <glyph glyph-name="Ugrave" unicode="&#xd9;" horiz-adv-x="365" 
d="M327 512l0.00195312 -321c0 -38.667 -4 -70.667 -12 -96s-18.5 -45.5 -31.5 -60.5s-28.167 -25.5 -45.5 -31.5s-35.333 -9 -54 -9c-18 0 -35.333 3 -52 9s-31.334 16.5 -44.001 31.5s-22.834 35.167 -30.501 60.5s-11.5 57.333 -11.5 96v321h21v-321
c0 -34 3.16699 -62.333 9.5 -85s15 -40.834 26 -54.501s23.5 -23.167 37.5 -28.5s28.667 -8 44 -8c16 0 31.333 2.66699 46 8s27.667 14.833 39 28.5s20.333 31.834 27 54.501s10 51 10 85v321h21zM209.002 554l-16 -13l-104 136l16 12z" />
    <glyph glyph-name="Uacute" unicode="&#xda;" horiz-adv-x="365" 
d="M327 512l0.00195312 -321c0 -38.667 -4 -70.667 -12 -96s-18.5 -45.5 -31.5 -60.5s-28.167 -25.5 -45.5 -31.5s-35.333 -9 -54 -9c-18 0 -35.333 3 -52 9s-31.334 16.5 -44.001 31.5s-22.834 35.167 -30.501 60.5s-11.5 57.333 -11.5 96v321h21v-321
c0 -34 3.16699 -62.333 9.5 -85s15 -40.834 26 -54.501s23.5 -23.167 37.5 -28.5s28.667 -8 44 -8c16 0 31.333 2.66699 46 8s27.667 14.833 39 28.5s20.333 31.834 27 54.501s10 51 10 85v321h21zM281.002 691l16 -12l-104 -136l-16 13z" />
    <glyph glyph-name="Ucircumflex" unicode="&#xdb;" horiz-adv-x="422" 
d="M327 512l0.00195312 -321c0 -38.667 -4 -70.667 -12 -96s-18.5 -45.5 -31.5 -60.5s-28.167 -25.5 -45.5 -31.5s-35.333 -9 -54 -9c-18 0 -35.333 3 -52 9s-31.334 16.5 -44.001 31.5s-22.834 35.167 -30.501 60.5s-11.5 57.333 -11.5 96v321h21v-321
c0 -34 3.16699 -62.333 9.5 -85s15 -40.834 26 -54.501s23.5 -23.167 37.5 -28.5s28.667 -8 44 -8c16 0 31.333 2.66699 46 8s27.667 14.833 39 28.5s20.333 31.834 27 54.501s10 51 10 85v321h21zM169.002 690h26l92 -117l-16 -13l-88 114l-88 -114l-16 13z" />
    <glyph glyph-name="Udieresis" unicode="&#xdc;" horiz-adv-x="422" 
d="M362 595l-0.00292969 -369c0 -48 -4.33301 -87.167 -13 -117.5s-20.167 -54 -34.5 -71s-31.166 -28.5 -50.499 -34.5s-39.333 -9 -60 -9c-21.333 0 -41.5 3 -60.5 9s-35.667 17.5 -50 34.5s-25.833 40.667 -34.5 71s-13 69.5 -13 117.5v369h21v-369
c0 -44 3.66699 -79.667 11 -107s17.333 -48.666 30 -63.999s27.334 -25.833 44.001 -31.5s34 -8.5 52 -8.5s35.333 2.83301 52 8.5s31.334 16.167 44.001 31.5s22.667 36.666 30 63.999s11 63 11 107v369h21zM108.997 671c0 5.33301 2 10 6 14s8.66699 6 14 6s10 -2 14 -6
s6 -8.66699 6 -14s-2 -10 -6 -14s-8.66699 -6 -14 -6s-10 2 -14 6s-6 8.66699 -6 14zM259.997 671c0 5.33301 2 10 6 14s8.66699 6 14 6s10 -2 14 -6s6 -8.66699 6 -14s-2 -10 -6 -14s-8.66699 -6 -14 -6s-10 2 -14 6s-6 8.66699 -6 14z" />
    <glyph glyph-name="Yacute" unicode="&#xdd;" horiz-adv-x="324" 
d="M30 509l128 -285l136 285h22l-148 -312v-197h-21v197l-138 312h21zM252 692l16 -12l-104 -136l-16 13z" />
    <glyph glyph-name="Thorn" unicode="&#xde;" horiz-adv-x="315" 
d="M70 689v-180.001c37.333 0 70.5 -2 99.5 -6s53.5 -11.667 73.5 -23s35.167 -27.333 45.5 -48s15.5 -48 15.5 -82c0 -33.333 -5 -60.666 -15 -81.999s-25 -38 -45 -50s-44.5 -20.5 -73.5 -25.5s-62.5 -7.5 -100.5 -7.5v-185h-21v689h21zM283 349.999
c0 29.333 -4.66895 52.9971 -14.002 70.9971s-23 31.833 -41 41.5s-40.333 16.334 -67 20.001s-57 5.5 -91 5.5v-281c36 0 67.333 1.83301 94 5.5s48.834 10.834 66.501 21.501s30.834 25.334 39.501 44.001s13 42.667 13 72z" />
    <glyph glyph-name="germandbls" unicode="&#xdf;" horiz-adv-x="391" 
d="M44 0l1.00098 437.001c0 54 4.5 97.5 13.5 130.5s20.667 58.5 35 76.5s30.5 30 48.5 36s36 9 54 9c31.333 0 56.666 -10.167 75.999 -30.5s29 -46.833 29 -79.5c0 -24 -4 -44.5 -12 -61.5s-16.667 -32.333 -26 -46l-26 -39.5c-8 -12.667 -12 -27 -12 -43
s3.83301 -30.333 11.5 -43s17.167 -24.667 28.5 -36s23.833 -22.666 37.5 -33.999s26.167 -23.833 37.5 -37.5s20.833 -29.334 28.5 -47.001s11.5 -38.5 11.5 -62.5c0 -37.333 -11.5 -68.166 -34.5 -92.499s-55.833 -36.5 -98.5 -36.5v18c35.333 0 63 10.667 83 32
s30 47.666 30 78.999c0 22 -3.83301 41 -11.5 57s-17.167 30.5 -28.5 43.5s-23.833 25 -37.5 36s-26.167 22.5 -37.5 34.5s-20.833 25 -28.5 39s-11.5 30.667 -11.5 50c0 18 4 33.667 12 47s16.667 26.666 26 39.999s18 28 26 44s12 35.667 12 59c0 28 -8.16699 50 -24.5 66
s-36.5 24 -60.5 24c-15.333 0 -30.833 -2.83301 -46.5 -8.5s-29.667 -16.834 -42 -33.501s-22.5 -40.167 -30.5 -70.5s-12 -70.166 -12 -119.499l-1 -437h-20z" />
    <glyph glyph-name="agrave" unicode="&#xe0;" horiz-adv-x="337" 
d="M135 489c-26.667 0 -47.665 -6.50391 -62.998 -19.5039s-23 -29.833 -23 -50.5h-18c0 26.667 9.16699 48.334 27.5 65.001s43.833 25 76.5 25c28.667 0 52 -4 70 -12s32 -20.167 42 -36.5s16.667 -36.666 20 -60.999s5 -52.5 5 -84.5v-205c0 -34 5 -57.833 15 -71.5
s28 -20.5 54 -20.5v-18c-28.667 0 -49.834 5.66699 -63.501 17s-21.834 32 -24.501 62c-4 -10 -9.16699 -20 -15.5 -30s-14.166 -19.167 -23.499 -27.5s-20.333 -15.166 -33 -20.499s-27.334 -8 -44.001 -8c-30.667 0 -56.334 10 -77.001 30s-31 50.667 -31 92
c0 29.333 6.83301 54.666 20.5 75.999s31.167 39 52.5 53s45.333 24.333 72 31s52.667 10 78 10v30c0 28.667 -1.5 53.834 -4.5 75.501s-8.66699 39.834 -17 54.501s-20.166 25.667 -35.499 33s-35.333 11 -60 11zM137.002 12.9961c23.333 0 42.3311 5.5 56.998 16.5
s26.334 23.5 35.001 37.5s14.5 27.167 17.5 39.5l5.5 22.5v136c-24 0 -48.167 -3 -72.5 -9s-46.166 -15 -65.499 -27s-35 -27.5 -47 -46.5s-18 -41.5 -18 -67.5c0 -34 8.33301 -59.5 25 -76.5s37.667 -25.5 63 -25.5zM180 554.996l-16 -13l-104 136l16 12z" />
    <glyph glyph-name="aacute" unicode="&#xe1;" horiz-adv-x="337" 
d="M135 489c-26.667 0 -47.665 -6.50391 -62.998 -19.5039s-23 -29.833 -23 -50.5h-18c0 26.667 9.16699 48.334 27.5 65.001s43.833 25 76.5 25c28.667 0 52 -4 70 -12s32 -20.167 42 -36.5s16.667 -36.666 20 -60.999s5 -52.5 5 -84.5v-205c0 -34 5 -57.833 15 -71.5
s28 -20.5 54 -20.5v-18c-28.667 0 -49.834 5.66699 -63.501 17s-21.834 32 -24.501 62c-4 -10 -9.16699 -20 -15.5 -30s-14.166 -19.167 -23.499 -27.5s-20.333 -15.166 -33 -20.499s-27.334 -8 -44.001 -8c-30.667 0 -56.334 10 -77.001 30s-31 50.667 -31 92
c0 29.333 6.83301 54.666 20.5 75.999s31.167 39 52.5 53s45.333 24.333 72 31s52.667 10 78 10v30c0 28.667 -1.5 53.834 -4.5 75.501s-8.66699 39.834 -17 54.501s-20.166 25.667 -35.499 33s-35.333 11 -60 11zM137.002 12.9961c23.333 0 42.3311 5.5 56.998 16.5
s26.334 23.5 35.001 37.5s14.5 27.167 17.5 39.5l5.5 22.5v136c-24 0 -48.167 -3 -72.5 -9s-46.166 -15 -65.499 -27s-35 -27.5 -47 -46.5s-18 -41.5 -18 -67.5c0 -34 8.33301 -59.5 25 -76.5s37.667 -25.5 63 -25.5zM236 690.996l16 -12l-104 -136l-16 13z" />
    <glyph glyph-name="acircumflex" unicode="&#xe2;" horiz-adv-x="337" 
d="M135 489c-26.667 0 -47.665 -6.50391 -62.998 -19.5039s-23 -29.833 -23 -50.5h-18c0 26.667 9.16699 48.334 27.5 65.001s43.833 25 76.5 25c28.667 0 52 -4 70 -12s32 -20.167 42 -36.5s16.667 -36.666 20 -60.999s5 -52.5 5 -84.5v-205c0 -34 5 -57.833 15 -71.5
s28 -20.5 54 -20.5v-18c-28.667 0 -49.834 5.66699 -63.501 17s-21.834 32 -24.501 62c-4 -10 -9.16699 -20 -15.5 -30s-14.166 -19.167 -23.499 -27.5s-20.333 -15.166 -33 -20.499s-27.334 -8 -44.001 -8c-30.667 0 -56.334 10 -77.001 30s-31 50.667 -31 92
c0 29.333 6.83301 54.666 20.5 75.999s31.167 39 52.5 53s45.333 24.333 72 31s52.667 10 78 10v30c0 28.667 -1.5 53.834 -4.5 75.501s-8.66699 39.834 -17 54.501s-20.166 25.667 -35.499 33s-35.333 11 -60 11zM137.002 12.9961c23.333 0 42.3311 5.5 56.998 16.5
s26.334 23.5 35.001 37.5s14.5 27.167 17.5 39.5l5.5 22.5v136c-24 0 -48.167 -3 -72.5 -9s-46.166 -15 -65.499 -27s-35 -27.5 -47 -46.5s-18 -41.5 -18 -67.5c0 -34 8.33301 -59.5 25 -76.5s37.667 -25.5 63 -25.5zM150 690.996h26l92 -117l-16 -13l-88 114l-88 -114
l-16 13z" />
    <glyph glyph-name="atilde" unicode="&#xe3;" horiz-adv-x="337" 
d="M145 579c-30 0 -53.498 -6.50293 -70.498 -19.5029s-25.5 -29.833 -25.5 -50.5h-18c0 26.667 10 48.334 30 65.001s48 25 84 25c30 0 54.167 -3.66699 72.5 -11s32.666 -18.666 42.999 -33.999s17.333 -35.333 21 -60s5.5 -54.334 5.5 -89.001v-295
c0 -34 5 -57.833 15 -71.5s28 -20.5 54 -20.5v-18c-28.667 0 -49.834 5.66699 -63.501 17s-21.834 32 -24.501 62c-4 -10 -9.16699 -20 -15.5 -30s-14.166 -19.167 -23.499 -27.5s-20.333 -15.166 -33 -20.499s-27.334 -8 -44.001 -8c-35.333 0 -64.666 11.833 -87.999 35.5
s-35 59.167 -35 106.5c0 36.667 7.33301 68.5 22 95.5s33.5 49.333 56.5 67s48.5 30.834 76.5 39.501s55.667 13 83 13v55c0 31.333 -1.5 58 -4.5 80s-9 40 -18 54s-21.333 24.167 -37 30.5s-36.5 9.5 -62.5 9.5zM152.002 12.9971c23.333 0 42.332 5.49902 56.999 16.499
s26.334 23.5 35.001 37.5s14.5 27.167 17.5 39.5l5.5 22.5v201c-26 0 -51.833 -4 -77.5 -12s-49 -20 -70 -36s-38 -36.167 -51 -60.5s-19.5 -53.166 -19.5 -86.499c0 -40 9.66699 -70.333 29 -91s44 -31 74 -31zM42.001 651.996c4 7.33301 9.33594 13.999 16.0029 19.999
c5.33301 5.33301 12.166 10 20.499 14s18.166 6 29.499 6c12 0 23 -1.83301 33 -5.5s19.5 -7.66699 28.5 -12s18 -8.33301 27 -12s18.5 -5.5 28.5 -5.5c8 0 14.5 1.66699 19.5 5s9.16699 7.33301 12.5 12c3.33301 5.33301 6 11.333 8 18l19 -6
c-2.66699 -9.33301 -6.33398 -17.666 -11.001 -24.999c-4.66699 -6 -10.667 -11.5 -18 -16.5s-17.333 -7.5 -30 -7.5c-11.333 0 -22 1.83301 -32 5.5s-19.667 7.66699 -29 12s-18.5 8.33301 -27.5 12s-18.5 5.5 -28.5 5.5c-8.66699 0 -16 -1.83301 -22 -5.5
s-11.333 -7.5 -16 -11.5c-5.33301 -5.33301 -10 -11 -14 -17z" />
    <glyph glyph-name="adieresis" unicode="&#xe4;" horiz-adv-x="350" 
d="M145 579c-30 0 -53.498 -6.50293 -70.498 -19.5029s-25.5 -29.833 -25.5 -50.5h-18c0 26.667 10 48.334 30 65.001s48 25 84 25c30 0 54.167 -3.66699 72.5 -11s32.666 -18.666 42.999 -33.999s17.333 -35.333 21 -60s5.5 -54.334 5.5 -89.001v-295
c0 -34 5 -57.833 15 -71.5s28 -20.5 54 -20.5v-18c-28.667 0 -49.834 5.66699 -63.501 17s-21.834 32 -24.501 62c-4 -10 -9.16699 -20 -15.5 -30s-14.166 -19.167 -23.499 -27.5s-20.333 -15.166 -33 -20.499s-27.334 -8 -44.001 -8c-35.333 0 -64.666 11.833 -87.999 35.5
s-35 59.167 -35 106.5c0 36.667 7.33301 68.5 22 95.5s33.5 49.333 56.5 67s48.5 30.834 76.5 39.501s55.667 13 83 13v55c0 31.333 -1.5 58 -4.5 80s-9 40 -18 54s-21.333 24.167 -37 30.5s-36.5 9.5 -62.5 9.5zM152.002 12.9971c23.333 0 42.332 5.49902 56.999 16.499
s26.334 23.5 35.001 37.5s14.5 27.167 17.5 39.5l5.5 22.5v201c-26 0 -51.833 -4 -77.5 -12s-49 -20 -70 -36s-38 -36.167 -51 -60.5s-19.5 -53.166 -19.5 -86.499c0 -40 9.66699 -70.333 29 -91s44 -31 74 -31zM68.001 668.996c0 5.33301 2 10 6 14s8.66699 6 14 6
s10 -2 14 -6s6 -8.66699 6 -14s-2 -10 -6 -14s-8.66699 -6 -14 -6s-10 2 -14 6s-6 8.66699 -6 14zM219.001 668.996c0 5.33301 2 10 6 14s8.66699 6 14 6s10 -2 14 -6s6 -8.66699 6 -14s-2 -10 -6 -14s-8.66699 -6 -14 -6s-10 2 -14 6s-6 8.66699 -6 14z" />
    <glyph glyph-name="aring" unicode="&#xe5;" horiz-adv-x="337" 
d="M135 489c-26.667 0 -47.665 -6.50391 -62.998 -19.5039s-23 -29.833 -23 -50.5h-18c0 26.667 9.16699 48.334 27.5 65.001s43.833 25 76.5 25c28.667 0 52 -4 70 -12s32 -20.167 42 -36.5s16.667 -36.666 20 -60.999s5 -52.5 5 -84.5v-205c0 -34 5 -57.833 15 -71.5
s28 -20.5 54 -20.5v-18c-28.667 0 -49.834 5.66699 -63.501 17s-21.834 32 -24.501 62c-4 -10 -9.16699 -20 -15.5 -30s-14.166 -19.167 -23.499 -27.5s-20.333 -15.166 -33 -20.499s-27.334 -8 -44.001 -8c-30.667 0 -56.334 10 -77.001 30s-31 50.667 -31 92
c0 29.333 6.83301 54.666 20.5 75.999s31.167 39 52.5 53s45.333 24.333 72 31s52.667 10 78 10v30c0 28.667 -1.5 53.834 -4.5 75.501s-8.66699 39.834 -17 54.501s-20.166 25.667 -35.499 33s-35.333 11 -60 11zM137.002 12.9961c23.333 0 42.3311 5.5 56.998 16.5
s26.334 23.5 35.001 37.5s14.5 27.167 17.5 39.5l5.5 22.5v136c-24 0 -48.167 -3 -72.5 -9s-46.166 -15 -65.499 -27s-35 -27.5 -47 -46.5s-18 -41.5 -18 -67.5c0 -34 8.33301 -59.5 25 -76.5s37.667 -25.5 63 -25.5zM82 625.996c0 17.333 6.66699 32.5 20 45.5
s28.666 19.5 45.999 19.5s32.5 -6.5 45.5 -19.5s19.5 -28.167 19.5 -45.5s-6.5 -32.666 -19.5 -45.999s-28.167 -20 -45.5 -20s-32.666 6.66699 -45.999 20s-20 28.666 -20 45.999zM102 625.996c0 -12.667 4.5 -23.5 13.5 -32.5s19.833 -13.5 32.5 -13.5
s23.334 4.5 32.001 13.5s13 19.833 13 32.5s-4.33301 23.334 -13 32.001s-19.334 13 -32.001 13s-23.5 -4.33301 -32.5 -13s-13.5 -19.334 -13.5 -32.001z" />
    <glyph glyph-name="ae" unicode="&#xe6;" horiz-adv-x="576" 
d="M149 670c-31.333 0 -56.0039 -6.50293 -74.0039 -19.5029s-27 -29.833 -27 -50.5h-18c0 26.667 10.5 48.334 31.5 65.001s50.167 25 87.5 25c43.333 0 75.166 -8.83301 95.499 -26.5s33.833 -46.5 40.5 -86.5c6 22.667 13.333 41.334 22 56.001
s18.334 26.167 29.001 34.5s22.167 14 34.5 17s25.166 4.5 38.499 4.5c28 0 50.833 -7.33301 68.5 -22s31.334 -35.334 41.001 -62.001s16.334 -58.667 20.001 -96s5.5 -78.666 5.5 -123.999v-18h-253v-117c0 -48.667 3.83301 -88 11.5 -118s17.834 -53.5 30.501 -70.5
s27.334 -28.5 44.001 -34.5s34 -9 52 -9c30 0 53.333 6.5 70 19.5s25 29.833 25 50.5h20c0 -26.667 -10.167 -48.334 -30.5 -65.001s-48.5 -25 -84.5 -25c-16 0 -31.667 1.83301 -47 5.5s-29.5 10.334 -42.5 20.001s-24.333 23 -34 40s-17.5 39.167 -23.5 66.5
c-3.33301 -16 -8.16602 -32 -14.499 -48s-14.5 -30.667 -24.5 -44s-22 -24.166 -36 -32.499s-31 -12.5 -51 -12.5c-36.667 0 -67.167 14.167 -91.5 42.5s-36.5 69.833 -36.5 124.5c0 38 7.5 71.167 22.5 99.5s34.167 51.833 57.5 70.5s49.5 32.5 78.5 41.5
s57.167 13.5 84.5 13.5v86c0 36 -1.5 66.667 -4.5 92s-9 46 -18 62s-21.333 27.5 -37 34.5s-36.5 10.5 -62.5 10.5zM271.996 364.997c-26 0 -52.3311 -4.16797 -78.998 -12.501s-50.834 -21 -72.501 -38s-39.167 -38.333 -52.5 -64s-20 -55.834 -20 -90.501
c0 -47.333 10 -83.666 30 -108.999s46 -38 78 -38c25.333 0 45.666 8.16699 60.999 24.5s27 35.5 35 57.5s13.333 43.833 16 65.5s4 37.834 4 48.501v156zM523.998 384.996c0 42.667 -1.33301 81.333 -4 116s-8 64.5 -16 89.5s-19.667 44.333 -35 58s-35.333 20.5 -60 20.5
c-15.333 0 -30 -3 -44 -9s-26.5 -17.5 -37.5 -34.5s-19.833 -40.667 -26.5 -71s-10 -69.833 -10 -118.5v-51h233z" />
    <glyph glyph-name="ccedilla" unicode="&#xe7;" horiz-adv-x="353" 
d="M199 -2c-22 0.666992 -42.998 4.66699 -62.998 12s-37.333 20.166 -52 38.499s-26.334 43.833 -35.001 76.5s-13 74.667 -13 126v185c0 53.333 4.66699 96.5 14 129.5s21.833 58.667 37.5 77s34 30.666 55 36.999s43.167 9.5 66.5 9.5
c37.333 0 66.666 -8.33301 87.999 -25s32 -38.334 32 -65.001c0 -17.333 -5 -32.666 -15 -45.999s-24 -20 -42 -20c-17.333 0 -31 6 -41 18s-15 24.667 -15 38h18c0 -9.33301 3.5 -17.666 10.5 -24.999s16.167 -11 27.5 -11c12 0 21.167 4.5 27.5 13.5s9.5 19.833 9.5 32.5
c0 20.667 -8.83301 37.5 -26.5 50.5s-42.167 19.5 -73.5 19.5c-20.667 0 -40.167 -3 -58.5 -9s-34.5 -17.5 -48.5 -34.5s-25.167 -40.667 -33.5 -71s-12.5 -69.833 -12.5 -118.5v-185c0 -48.667 4.16699 -88.167 12.5 -118.5s19.5 -54 33.5 -71s30.167 -28.5 48.5 -34.5
s37.833 -9 58.5 -9c31.333 0 55.833 6.5 73.5 19.5s26.5 29.833 26.5 50.5c0 12.667 -3.16699 23.5 -9.5 32.5s-15.5 13.5 -27.5 13.5c-11.333 0 -20.5 -3.66699 -27.5 -11s-10.5 -15.666 -10.5 -24.999h-18c0 13.333 5 26 15 38s23.667 18 41 18c18 0 32 -6.66699 42 -20
s15 -28.666 15 -45.999c0 -25.333 -9.83301 -46.333 -29.5 -63s-46.5 -25.667 -80.5 -27v-40c6 -2 13.167 -5 21.5 -9s16.333 -9.16699 24 -15.5s14.167 -14 19.5 -23s8 -19.5 8 -31.5c0 -25.333 -10 -45.5 -30 -60.5s-48.333 -22.5 -85 -22.5v20
c30.667 0 54.167 5.66699 70.5 17s24.5 26.666 24.5 45.999c0 11.333 -3.83301 21 -11.5 29s-16.167 14.667 -25.5 20c-10.667 6 -22.667 10.667 -36 14v56z" />
    <glyph glyph-name="egrave" unicode="&#xe8;" horiz-adv-x="343" 
d="M53 201c0 -38.667 3.50098 -69.999 10.501 -93.999s16.5 -42.5 28.5 -55.5s25.667 -21.833 41 -26.5s31.333 -7 48 -7c26.667 0 47.5 6.5 62.5 19.5s22.5 29.833 22.5 50.5h20c0 -26.667 -9.33301 -48.334 -28 -65.001s-44.334 -25 -77.001 -25
c-19.333 0 -38 2.5 -56 7.5s-33.833 14.667 -47.5 29s-24.5 34.833 -32.5 61.5s-12 61.667 -12 105v108c0 43.333 3.5 78.333 10.5 105s16.5 47.167 28.5 61.5s25.667 24 41 29s31.333 7.5 48 7.5c26 0 47.167 -5.66699 63.5 -17s29 -27.5 38 -48.5
s15.167 -46.167 18.5 -75.5s5 -62 5 -98v-18h-233v-54zM266.001 273.001c0 32.667 -1.16797 62.5 -3.50098 89.5s-7.16602 50 -14.499 69s-18 33.833 -32 44.5s-32.333 16 -55 16c-14 0 -27.5 -2 -40.5 -6s-24.5 -12.5 -34.5 -25.5s-18 -31.5 -24 -55.5s-9 -56 -9 -96v-36
h213zM176 555.001l-16 -13l-104 136l16 12z" />
    <glyph glyph-name="eacute" unicode="&#xe9;" horiz-adv-x="343" 
d="M53 201c0 -38.667 3.50098 -69.999 10.501 -93.999s16.5 -42.5 28.5 -55.5s25.667 -21.833 41 -26.5s31.333 -7 48 -7c26.667 0 47.5 6.5 62.5 19.5s22.5 29.833 22.5 50.5h20c0 -26.667 -9.33301 -48.334 -28 -65.001s-44.334 -25 -77.001 -25
c-19.333 0 -38 2.5 -56 7.5s-33.833 14.667 -47.5 29s-24.5 34.833 -32.5 61.5s-12 61.667 -12 105v108c0 43.333 3.5 78.333 10.5 105s16.5 47.167 28.5 61.5s25.667 24 41 29s31.333 7.5 48 7.5c26 0 47.167 -5.66699 63.5 -17s29 -27.5 38 -48.5
s15.167 -46.167 18.5 -75.5s5 -62 5 -98v-18h-233v-54zM266.001 273.001c0 32.667 -1.16797 62.5 -3.50098 89.5s-7.16602 50 -14.499 69s-18 33.833 -32 44.5s-32.333 16 -55 16c-14 0 -27.5 -2 -40.5 -6s-24.5 -12.5 -34.5 -25.5s-18 -31.5 -24 -55.5s-9 -56 -9 -96v-36
h213zM243 692.001l16 -12l-104 -136l-16 13z" />
    <glyph glyph-name="ecircumflex" unicode="&#xea;" horiz-adv-x="343" 
d="M53 201c0 -38.667 3.50098 -69.999 10.501 -93.999s16.5 -42.5 28.5 -55.5s25.667 -21.833 41 -26.5s31.333 -7 48 -7c26.667 0 47.5 6.5 62.5 19.5s22.5 29.833 22.5 50.5h20c0 -26.667 -9.33301 -48.334 -28 -65.001s-44.334 -25 -77.001 -25
c-19.333 0 -38 2.5 -56 7.5s-33.833 14.667 -47.5 29s-24.5 34.833 -32.5 61.5s-12 61.667 -12 105v108c0 43.333 3.5 78.333 10.5 105s16.5 47.167 28.5 61.5s25.667 24 41 29s31.333 7.5 48 7.5c26 0 47.167 -5.66699 63.5 -17s29 -27.5 38 -48.5
s15.167 -46.167 18.5 -75.5s5 -62 5 -98v-18h-233v-54zM266.001 273.001c0 32.667 -1.16797 62.5 -3.50098 89.5s-7.16602 50 -14.499 69s-18 33.833 -32 44.5s-32.333 16 -55 16c-14 0 -27.5 -2 -40.5 -6s-24.5 -12.5 -34.5 -25.5s-18 -31.5 -24 -55.5s-9 -56 -9 -96v-36
h213zM148 690.001h26l92 -117l-16 -13l-88 114l-88 -114l-16 13z" />
    <glyph glyph-name="edieresis" unicode="&#xeb;" horiz-adv-x="343" 
d="M296 310h-242.998v-84c0 -44 3.66699 -79.5 11 -106.5s17.166 -48 29.499 -63s26.5 -25.167 42.5 -30.5s32.667 -8 50 -8c28 0 50 6.5 66 19.5s24 29.833 24 50.5h20c0 -26.667 -9.83301 -48.334 -29.5 -65.001s-46.5 -25 -80.5 -25c-20 0 -39.333 2.83301 -58 8.5
s-35 16.667 -49 33s-25.167 39.5 -33.5 69.5s-12.5 69 -12.5 117v155c0 46 3.66699 83.333 11 112s17.166 50.834 29.499 66.501s26.5 26.167 42.5 31.5s32.667 8 50 8c26.667 0 48.5 -6.5 65.5 -19.5s30.333 -31.5 40 -55.5s16.167 -52.667 19.5 -86s5 -70 5 -110v-18z
M276.002 328c0 37.333 -1.16699 71.333 -3.5 102s-7.5 57 -15.5 79s-19.167 39.167 -33.5 51.5s-33.5 18.5 -57.5 18.5c-14.667 0 -28.834 -2.5 -42.501 -7.5s-25.667 -14.667 -36 -29s-18.666 -34.333 -24.999 -60s-9.5 -59.5 -9.5 -101.5v-53h223zM73.002 670
c0 5.33301 2 10 6 14s8.66699 6 14 6s10 -2 14 -6s6 -8.66699 6 -14s-2 -10 -6 -14s-8.66699 -6 -14 -6s-10 2 -14 6s-6 8.66699 -6 14zM224.002 670c0 5.33301 2 10 6 14s8.66699 6 14 6s10 -2 14 -6s6 -8.66699 6 -14s-2 -10 -6 -14s-8.66699 -6 -14 -6s-10 2 -14 6
s-6 8.66699 -6 14z" />
    <glyph glyph-name="igrave" unicode="&#xec;" horiz-adv-x="111" 
d="M66 508v-508h-21v508h21zM65 554l-16 -13l-104 136l16 12z" />
    <glyph glyph-name="iacute" unicode="&#xed;" horiz-adv-x="111" 
d="M66 508v-508h-21v508h21zM152 690l16 -12l-104 -136l-16 13z" />
    <glyph glyph-name="icircumflex" unicode="&#xee;" horiz-adv-x="111" 
d="M66 508v-508h-21v508h21zM41 690h26l92 -117l-16 -13l-88 114l-88 -114l-16 13z" />
    <glyph glyph-name="idieresis" unicode="&#xef;" horiz-adv-x="117" 
d="M69 596v-596h-21v596h21zM-36 670c0 5.33301 2 10 6 14s8.66699 6 14 6s10 -2 14 -6s6 -8.66699 6 -14s-2 -10 -6 -14s-8.66699 -6 -14 -6s-10 2 -14 6s-6 8.66699 -6 14zM115 670c0 5.33301 2 10 6 14s8.66699 6 14 6s10 -2 14 -6s6 -8.66699 6 -14s-2 -10 -6 -14
s-8.66699 -6 -14 -6s-10 2 -14 6s-6 8.66699 -6 14z" />
    <glyph glyph-name="eth" unicode="&#xf0;" horiz-adv-x="406" 
d="M119 687c32.667 0 62.3301 -7 88.9971 -21s50.667 -33.667 72 -59l42 55l16 -12l-45 -59c26.667 -38 47 -85.167 61 -141.5s21 -119.833 21 -190.5c0 -50 -4.5 -92 -13.5 -126s-21.167 -61.333 -36.5 -82s-33.166 -35.334 -53.499 -44.001s-41.833 -13 -64.5 -13
s-44 3.16699 -64 9.5s-37.667 18 -53 35s-27.666 40 -36.999 69s-14 66.5 -14 112.5c0 63.333 13.667 110.166 41 140.499s63 45.5 107 45.5c22 0 42 -3.66699 60 -11s34 -17 48 -29s25.833 -25.667 35.5 -41s17.5 -31.333 23.5 -48
c-1.33301 62.667 -8.33301 118.834 -21 168.501s-30.667 91.834 -54 126.501l-45 -58l-16 13l48 63c-19.333 24 -41.166 42.667 -65.499 56s-51.5 20 -81.5 20v21zM59.9961 220c0 -41.333 4 -75.168 12 -101.501s18.667 -47.166 32 -62.499s28.833 -26 46.5 -32
s36.5 -9 56.5 -9c18 0 35 3.33301 51 10s30.5 17.5 43.5 32.5s23.833 34.5 32.5 58.5s14.667 53.667 18 89c-0.666992 20 -4.66699 40.667 -12 62s-18 40.833 -32 58.5s-31.167 32.167 -51.5 43.5s-43.5 17 -69.5 17c-38 0 -68.667 -13.5 -92 -40.5s-35 -68.833 -35 -125.5z
" />
    <glyph glyph-name="ntilde" unicode="&#xf1;" horiz-adv-x="354" 
d="M308 0l-19.999 -0.000976562v434c0 12.667 -0.333008 27.167 -1 43.5s-3.5 31.833 -8.5 46.5s-13 26.834 -24 36.501s-26.833 14.5 -47.5 14.5c-16 0 -31.333 -2.33301 -46 -7s-28.167 -10 -40.5 -16s-23 -12.167 -32 -18.5s-15.833 -11.5 -20.5 -15.5v-518h-20v595h20
v-57c4.66699 4 11.5 9.33301 20.5 16s19.5 13 31.5 19s25.667 11.167 41 15.5s31.666 6.5 48.999 6.5c23.333 0 41.5 -5.16699 54.5 -15.5s22.833 -23.333 29.5 -39s10.667 -33 12 -52s2 -36.833 2 -53.5v-435zM58.001 649.999c4 7.33301 9.33594 13.999 16.0029 19.999
c5.33301 5.33301 12.166 10 20.499 14s18.166 6 29.499 6c12 0 23 -1.83301 33 -5.5s19.5 -7.66699 28.5 -12s18 -8.33301 27 -12s18.5 -5.5 28.5 -5.5c8 0 14.5 1.66699 19.5 5s9.16699 7.33301 12.5 12c3.33301 5.33301 6 11.333 8 18l19 -6
c-2.66699 -9.33301 -6.33398 -17.666 -11.001 -24.999c-4.66699 -6 -10.667 -11.5 -18 -16.5s-17.333 -7.5 -30 -7.5c-11.333 0 -22 1.83301 -32 5.5s-19.667 7.66699 -29 12s-18.5 8.33301 -27.5 12s-18.5 5.5 -28.5 5.5c-8.66699 0 -16 -1.83301 -22 -5.5
s-11.333 -7.5 -16 -11.5c-5.33301 -5.33301 -10 -11 -14 -17z" />
    <glyph glyph-name="ograve" unicode="&#xf2;" horiz-adv-x="403" 
d="M34 306c0 40.667 3.99902 74.165 11.999 100.498s18.5 47 31.5 62s28.167 25.5 45.5 31.5s35.333 9 54 9s36.5 -3 53.5 -9s32 -16.667 45 -32s23.5 -36 31.5 -62s12 -59.333 12 -100v-55c19.333 6.66699 34.5 16.834 45.5 30.501s16.5 30.5 16.5 50.5
c0 14 -2.33301 26 -7 36s-11.667 15 -21 15v20c15.333 0 27 -7 35 -21s12 -30.667 12 -50c0 -24 -7.16699 -44.667 -21.5 -62s-34.166 -29.666 -59.499 -36.999v-37c0 -40.667 -4 -74.167 -12 -100.5s-18.5 -47 -31.5 -62s-28.167 -25.5 -45.5 -31.5s-35.333 -9 -54 -9
s-36.667 3 -54 9s-32.5 16.667 -45.5 32s-23.333 36 -31 62s-11.5 59.333 -11.5 100v110zM53.999 305.998l-0.000976562 -110.003c0 -37.333 3.33301 -67.833 10 -91.5s15.834 -42.167 27.501 -55.5s24.834 -22.666 39.501 -27.999s30 -8 46 -8s31.333 2.66699 46 8
s27.667 14.833 39 28.5s20.333 32.334 27 56.001s10 53.834 10 90.501v33c-4.66699 -1.33301 -9.33398 -2 -14.001 -2h-15c-23.333 0 -45.833 3.5 -67.5 10.5s-41 18.833 -58 35.5s-31.167 38.667 -42.5 66s-18 61.333 -20 102c-8.66699 -14 -15.5 -32 -20.5 -54
s-7.5 -49 -7.5 -81zM269.998 244.995l15.002 0.00390625c4.66699 0 9.33398 0.666992 14.001 2v59c0 36.667 -3.33301 67 -10 91s-15.834 42.667 -27.501 56s-24.834 22.666 -39.501 27.999s-30 8 -46 8c-14.667 -0.666992 -28.5 -2.83398 -41.5 -6.50098
s-24.833 -10.834 -35.5 -21.501c0 -41.333 5 -75.833 15 -103.5s23 -49.834 39 -66.501s34.167 -28.5 54.5 -35.5s41.166 -10.5 62.499 -10.5zM185 555.999l-16 -13l-104 136l16 12z" />
    <glyph glyph-name="oacute" unicode="&#xf3;" horiz-adv-x="403" 
d="M34 306c0 40.667 3.99902 74.165 11.999 100.498s18.5 47 31.5 62s28.167 25.5 45.5 31.5s35.333 9 54 9s36.5 -3 53.5 -9s32 -16.667 45 -32s23.5 -36 31.5 -62s12 -59.333 12 -100v-55c19.333 6.66699 34.5 16.834 45.5 30.501s16.5 30.5 16.5 50.5
c0 14 -2.33301 26 -7 36s-11.667 15 -21 15v20c15.333 0 27 -7 35 -21s12 -30.667 12 -50c0 -24 -7.16699 -44.667 -21.5 -62s-34.166 -29.666 -59.499 -36.999v-37c0 -40.667 -4 -74.167 -12 -100.5s-18.5 -47 -31.5 -62s-28.167 -25.5 -45.5 -31.5s-35.333 -9 -54 -9
s-36.667 3 -54 9s-32.5 16.667 -45.5 32s-23.333 36 -31 62s-11.5 59.333 -11.5 100v110zM53.999 195.998c0 -37.333 3.33203 -67.8359 9.99902 -91.5029s15.834 -42.167 27.501 -55.5s24.834 -22.666 39.501 -27.999s30 -8 46 -8s31.333 2.66699 46 8
s27.667 14.833 39 28.5s20.333 32.334 27 56.001s10 53.834 10 90.501v33c-4.66699 -1.33301 -9.33398 -2 -14.001 -2h-15c-23.333 0 -45.833 3.5 -67.5 10.5s-41 18.833 -58 35.5s-31.167 38.667 -42.5 66s-18 61.333 -20 102c-8.66699 -14 -15.5 -32 -20.5 -54
s-7.5 -49 -7.5 -81v-110zM269.998 244.995l15.002 0.00390625c4.66699 0 9.33398 0.666992 14.001 2v59c0 36.667 -3.33301 67 -10 91s-15.834 42.667 -27.501 56s-24.834 22.666 -39.501 27.999s-30 8 -46 8c-14.667 -0.666992 -28.5 -2.83398 -41.5 -6.50098
s-24.833 -10.834 -35.5 -21.501c0 -41.333 5 -75.833 15 -103.5s23 -49.834 39 -66.501s34.167 -28.5 54.5 -35.5s41.166 -10.5 62.499 -10.5zM281 689.999l16 -12l-104 -136l-16 13z" />
    <glyph glyph-name="ocircumflex" unicode="&#xf4;" horiz-adv-x="403" 
d="M34 306c0 40.667 3.99902 74.165 11.999 100.498s18.5 47 31.5 62s28.167 25.5 45.5 31.5s35.333 9 54 9s36.5 -3 53.5 -9s32 -16.667 45 -32s23.5 -36 31.5 -62s12 -59.333 12 -100v-55c19.333 6.66699 34.5 16.834 45.5 30.501s16.5 30.5 16.5 50.5
c0 14 -2.33301 26 -7 36s-11.667 15 -21 15v20c15.333 0 27 -7 35 -21s12 -30.667 12 -50c0 -24 -7.16699 -44.667 -21.5 -62s-34.166 -29.666 -59.499 -36.999v-37c0 -40.667 -4 -74.167 -12 -100.5s-18.5 -47 -31.5 -62s-28.167 -25.5 -45.5 -31.5s-35.333 -9 -54 -9
s-36.667 3 -54 9s-32.5 16.667 -45.5 32s-23.333 36 -31 62s-11.5 59.333 -11.5 100v110zM53.999 195.998c0 -37.333 3.33203 -67.8359 9.99902 -91.5029s15.834 -42.167 27.501 -55.5s24.834 -22.666 39.501 -27.999s30 -8 46 -8s31.333 2.66699 46 8
s27.667 14.833 39 28.5s20.333 32.334 27 56.001s10 53.834 10 90.501v33c-4.66699 -1.33301 -9.33398 -2 -14.001 -2h-15c-23.333 0 -45.833 3.5 -67.5 10.5s-41 18.833 -58 35.5s-31.167 38.667 -42.5 66s-18 61.333 -20 102c-8.66699 -14 -15.5 -32 -20.5 -54
s-7.5 -49 -7.5 -81v-110zM269.998 244.995l15.002 0.00390625c4.66699 0 9.33398 0.666992 14.001 2v59c0 36.667 -3.33301 67 -10 91s-15.834 42.667 -27.501 56s-24.834 22.666 -39.501 27.999s-30 8 -46 8c-14.667 -0.666992 -28.5 -2.83398 -41.5 -6.50098
s-24.833 -10.834 -35.5 -21.501c0 -41.333 5 -75.833 15 -103.5s23 -49.834 39 -66.501s34.167 -28.5 54.5 -35.5s41.166 -10.5 62.499 -10.5zM160 689.999h26l92 -117l-16 -13l-88 114l-88 -114l-16 13z" />
    <glyph glyph-name="otilde" unicode="&#xf5;" horiz-adv-x="403" 
d="M34 359c0 50 3.99805 90.6641 11.998 121.997s18.833 55.5 32.5 72.5s29.5 28.5 47.5 34.5s36.667 9 56 9s37.833 -3.16699 55.5 -9.5s33.334 -18 47.001 -35s24.5 -41 32.5 -72s12 -71.5 12 -121.5v-24c19.333 6.66699 34.5 17.167 45.5 31.5s16.5 32.166 16.5 53.499
c0 12.667 -2.33301 23.5 -7 32.5s-11.667 13.5 -21 13.5v20c15.333 0 27 -6.66699 35 -20s12 -28.666 12 -45.999c0 -25.333 -7.16699 -47.166 -21.5 -65.499s-34.166 -31.166 -59.499 -38.499v-90c0 -49.333 -4 -89.166 -12 -119.499s-18.833 -54 -32.5 -71
s-29.5 -28.333 -47.5 -34s-36.667 -8.5 -56 -8.5s-38 3 -56 9s-33.667 17.5 -47 34.5s-24 40.5 -32 70.5s-12 69.667 -12 119v133zM53.998 225.997c0 -44.667 3.49902 -80.8359 10.499 -108.503s16.5 -49.334 28.5 -65.001s25.667 -26.167 41 -31.5s31.333 -8 48 -8
s32.667 2.66699 48 8s28.833 15.833 40.5 31.5s21 37.334 28 65.001s10.5 63.834 10.5 108.501v86c-4.66699 -1.33301 -9.33398 -2 -14.001 -2h-15c-24.667 0 -48.334 3.33301 -71.001 10s-43.167 17.834 -61.5 33.501s-33.666 36.334 -45.999 62.001
s-20.166 57.5 -23.499 95.5c-7.33301 -16.667 -13.166 -37.167 -17.499 -61.5s-6.5 -54.5 -6.5 -90.5v-133zM279.997 327.995l14.998 -0.000976562c4.66699 0 9.33398 0.666992 14.001 2v29c0 46 -3.5 83.167 -10.5 111.5s-16.5 50.333 -28.5 66s-25.667 26.334 -41 32.001
s-31.333 8.5 -48 8.5c-16.667 -0.666992 -32.5 -3.5 -47.5 -8.5s-28.167 -15.167 -39.5 -30.5c0.666992 -40 6.33398 -73.5 17.001 -100.5s24.667 -48.667 42 -65s37 -27.833 59 -34.5s44.667 -10 68 -10zM54.9951 649.994c4 7.33301 9.33594 13.999 16.0029 19.999
c5.33301 5.33301 12.166 10 20.499 14s18.166 6 29.499 6c12 0 23 -1.83301 33 -5.5s19.5 -7.66699 28.5 -12s18 -8.33301 27 -12s18.5 -5.5 28.5 -5.5c8 0 14.5 1.66699 19.5 5s9.16699 7.33301 12.5 12c3.33301 5.33301 6 11.333 8 18l19 -6
c-2.66699 -9.33301 -6.33398 -17.666 -11.001 -24.999c-4.66699 -6 -10.667 -11.5 -18 -16.5s-17.333 -7.5 -30 -7.5c-11.333 0 -22 1.83301 -32 5.5s-19.667 7.66699 -29 12s-18.5 8.33301 -27.5 12s-18.5 5.5 -28.5 5.5c-8.66699 0 -16 -1.83301 -22 -5.5
s-11.333 -7.5 -16 -11.5c-5.33301 -5.33301 -10 -11 -14 -17z" />
    <glyph glyph-name="odieresis" unicode="&#xf6;" horiz-adv-x="403" 
d="M34 226l-0.00195312 132.997c0 50 4 90.667 12 122s18.833 55.5 32.5 72.5s29.5 28.5 47.5 34.5s36.667 9 56 9s37.833 -3.16699 55.5 -9.5s33.334 -18 47.001 -35s24.5 -41 32.5 -72s12 -71.5 12 -121.5v-24c19.333 6.66699 34.5 17.167 45.5 31.5
s16.5 32.166 16.5 53.499c0 12.667 -2.33301 23.5 -7 32.5s-11.667 13.5 -21 13.5v20c15.333 0 27 -6.66699 35 -20s12 -28.666 12 -45.999c0 -25.333 -7.16699 -47.166 -21.5 -65.499s-34.166 -31.166 -59.499 -38.499v-90c0 -49.333 -4 -89.166 -12 -119.499
s-18.833 -54 -32.5 -71s-29.5 -28.333 -47.5 -34s-36.667 -8.5 -56 -8.5s-38 3 -56 9s-33.667 17.5 -47 34.5s-24 40.5 -32 70.5s-12 69.667 -12 119zM53.998 358.997l-0.000976562 -133.002c0 -44.667 3.5 -80.834 10.5 -108.501s16.5 -49.334 28.5 -65.001
s25.667 -26.167 41 -31.5s31.333 -8 48 -8s32.667 2.66699 48 8s28.833 15.833 40.5 31.5s21 37.334 28 65.001s10.5 63.834 10.5 108.501v86c-4.66699 -1.33301 -9.33398 -2 -14.001 -2h-15c-24.667 0 -48.334 3.33301 -71.001 10s-43.167 17.834 -61.5 33.501
s-33.666 36.334 -45.999 62.001s-20.166 57.5 -23.499 95.5c-7.33301 -16.667 -13.166 -37.167 -17.499 -61.5s-6.5 -54.5 -6.5 -90.5zM279.997 327.995c5.33301 0 10.3311 0.166016 14.998 0.499023s9.33398 0.833008 14.001 1.5v29c0 46 -3.5 83.167 -10.5 111.5
s-16.5 50.333 -28.5 66s-25.667 26.334 -41 32.001s-31.333 8.5 -48 8.5c-16.667 -0.666992 -32.5 -3.5 -47.5 -8.5s-28.167 -15.167 -39.5 -30.5c0.666992 -40 6.33398 -73.5 17.001 -100.5s24.667 -48.667 42 -65s37 -27.833 59 -34.5s44.667 -10 68 -10zM83.9951 670.994
c0 5.33301 2 10 6 14s8.66699 6 14 6s10 -2 14 -6s6 -8.66699 6 -14s-2 -10 -6 -14s-8.66699 -6 -14 -6s-10 2 -14 6s-6 8.66699 -6 14zM234.995 670.994c0 5.33301 2 10 6 14s8.66699 6 14 6s10 -2 14 -6s6 -8.66699 6 -14s-2 -10 -6 -14s-8.66699 -6 -14 -6s-10 2 -14 6
s-6 8.66699 -6 14z" />
    <glyph glyph-name="divide" unicode="&#xf7;" horiz-adv-x="445" 
d="M393 298h-340v20h340v-20zM200 460c0 7.33301 2.5 13.5 7.5 18.5s11.167 7.5 18.5 7.5s13.5 -2.5 18.5 -7.5s7.5 -11.167 7.5 -18.5s-2.5 -13.5 -7.5 -18.5s-11.167 -7.5 -18.5 -7.5s-13.5 2.5 -18.5 7.5s-7.5 11.167 -7.5 18.5zM201 146c0 7.33301 2.5 13.5 7.5 18.5
s11.167 7.5 18.5 7.5s13.5 -2.5 18.5 -7.5s7.5 -11.167 7.5 -18.5s-2.5 -13.5 -7.5 -18.5s-11.167 -7.5 -18.5 -7.5s-13.5 2.5 -18.5 7.5s-7.5 11.167 -7.5 18.5z" />
    <glyph glyph-name="oslash" unicode="&#xf8;" horiz-adv-x="386" 
d="M345 689l-33.002 -73.001c9.33301 -19.333 16.833 -43.666 22.5 -72.999s8.5 -65 8.5 -107v-190c0 -53.333 -4.16699 -96.5 -12.5 -129.5s-19.5 -58.667 -33.5 -77s-30.333 -30.666 -49 -36.999s-38 -9.5 -58 -9.5c-24.667 0.666992 -47.667 5.66699 -69 15
s-39 28.333 -53 57l-29 -65l-22 1l40 91c-6 18.667 -10.667 40.5 -14 65.5s-5 54.5 -5 88.5v190c0 53.333 4.16699 96.5 12.5 129.5s19.5 58.667 33.5 77s30.333 30.666 49 36.999s38 9.5 58 9.5c20.667 -0.666992 40.334 -4.5 59.001 -11.5s35.334 -20.5 50.001 -40.5
l23 52h22zM322.998 435.999c0 35.333 -1.83496 65.499 -5.50195 90.499s-9.16699 46.167 -16.5 63.5l-222 -499c12.667 -31.333 28.834 -52.166 48.501 -62.499s40.834 -15.5 63.501 -15.5c17.333 0 34 3 50 9s30 17.5 42 34.5s21.667 40.667 29 71s11 69.833 11 118.5v190z
M189.996 668.998c-17.333 0 -34.001 -3.16699 -50.001 -9.5s-30 -18 -42 -35s-21.667 -40.5 -29 -70.5s-11 -69.333 -11 -118v-190c0 -51.333 4 -93 12 -125l220 493c-12.667 21.333 -27.667 35.833 -45 43.5s-35.666 11.5 -54.999 11.5z" />
    <glyph glyph-name="ugrave" unicode="&#xf9;" 
d="M288 0v50.002l-21 -15.5c-8.66699 -6.33301 -19.167 -12.5 -31.5 -18.5s-26 -11.167 -41 -15.5s-31.167 -6.5 -48.5 -6.5c-23.333 0 -41.5 5.16699 -54.5 15.5s-22.833 23.333 -29.5 39s-10.667 32.834 -12 51.501s-2 36.667 -2 54v358h20v-357
c0 -13.333 0.333008 -28 1 -44s3.5 -31.333 8.5 -46s13 -26.834 24 -36.501s26.833 -14.5 47.5 -14.5c16 0 31.333 2.16699 46 6.5s28 9.66602 40 15.999s22.667 12.666 32 18.999s16.333 11.5 21 15.5v441h20v-512h-20zM187 555.002l-16 -13l-104 136l16 12z" />
    <glyph glyph-name="uacute" unicode="&#xfa;" 
d="M283 0v50.002l-21 -15.5c-8.66699 -6.33301 -19.167 -12.5 -31.5 -18.5s-26 -11.167 -41 -15.5s-31.167 -6.5 -48.5 -6.5c-23.333 0 -41.5 5.16699 -54.5 15.5s-22.833 23.333 -29.5 39s-10.667 32.834 -12 51.501s-2 36.667 -2 54v358h20v-357
c0 -13.333 0.333008 -28 1 -44s3.5 -31.333 8.5 -46s13 -26.834 24 -36.501s26.833 -14.5 47.5 -14.5c16 0 31.333 2.16699 46 6.5s28 9.66602 40 15.999s22.667 12.666 32 18.999s16.333 11.5 21 15.5v441h20v-512h-20zM267 691.002l16 -12l-104 -136l-16 13z" />
    <glyph glyph-name="ucircumflex" unicode="&#xfb;" horiz-adv-x="357" 
d="M288 0v50.002l-21 -15.5c-8.66699 -6.33301 -19.167 -12.5 -31.5 -18.5s-26 -11.167 -41 -15.5s-31.167 -6.5 -48.5 -6.5c-23.333 0 -41.5 5.16699 -54.5 15.5s-22.833 23.333 -29.5 39s-10.667 32.834 -12 51.501s-2 36.667 -2 54v358h20v-357
c0 -13.333 0.333008 -28 1 -44s3.5 -31.333 8.5 -46s13 -26.834 24 -36.501s26.833 -14.5 47.5 -14.5c16 0 31.333 2.16699 46 6.5s28 9.66602 40 15.999s22.667 12.666 32 18.999s16.333 11.5 21 15.5v441h20v-512h-20zM164 690.002h26l92 -117l-16 -13l-88 114l-88 -114
l-16 13z" />
    <glyph glyph-name="udieresis" unicode="&#xfc;" horiz-adv-x="354" 
d="M286 0v50.002l-21 -15.5c-8.66699 -6.33301 -19.167 -12.5 -31.5 -18.5s-26 -11.167 -41 -15.5s-31.167 -6.5 -48.5 -6.5c-23.333 0 -41.5 5.16699 -54.5 15.5s-22.833 23.333 -29.5 39s-10.667 32.834 -12 51.501s-2 36.667 -2 54v445h20v-444
c0 -13.333 0.333008 -28 1 -44s3.5 -31.333 8.5 -46s13 -26.834 24 -36.501s26.833 -14.5 47.5 -14.5c16 0 31.333 2.16699 46 6.5s28 9.66602 40 15.999s22.667 12.666 32 18.999s16.333 11.5 21 15.5v528h20v-599h-20zM85 669.002c0 5.33301 2 10 6 14s8.66699 6 14 6
s10 -2 14 -6s6 -8.66699 6 -14s-2 -10 -6 -14s-8.66699 -6 -14 -6s-10 2 -14 6s-6 8.66699 -6 14zM236 669.002c0 5.33301 2 10 6 14s8.66699 6 14 6s10 -2 14 -6s6 -8.66699 6 -14s-2 -10 -6 -14s-8.66699 -6 -14 -6s-10 2 -14 6s-6 8.66699 -6 14z" />
    <glyph glyph-name="yacute" unicode="&#xfd;" horiz-adv-x="316" 
d="M273 146c0 -20 -1.33203 -39.1719 -3.99902 -57.5049s-8 -34.5 -16 -48.5s-19.167 -25.167 -33.5 -33.5s-32.833 -12.5 -55.5 -12.5c-30.667 0 -56.334 8.66699 -77.001 26s-31 44.333 -31 81c0 30.667 7.5 54.834 22.5 72.501s34.167 26.5 57.5 26.5
c17.333 0 32.666 -5 45.999 -15s20 -24 20 -42c0 -17.333 -6 -31 -18 -41s-24.667 -15 -38 -15v18c9.33301 0 17.666 3.5 24.999 10.5s11 16.167 11 27.5c0 12 -4.5 21.167 -13.5 27.5s-19.833 9.5 -32.5 9.5c-17.333 0 -31.666 -7 -42.999 -21s-17 -33.333 -17 -58
c0 -29.333 8.33301 -51.166 25 -65.499s37.667 -21.5 63 -21.5c20.667 0 36.834 4.16699 48.501 12.5s20.5 18.833 26.5 31.5s9.83301 26.834 11.5 42.501s2.5 31.167 2.5 46.5v142c-4 -4 -10 -9.16699 -18 -15.5s-17.5 -12.666 -28.5 -18.999s-23.5 -11.666 -37.5 -15.999
s-29 -6.5 -45 -6.5c-23.333 0 -41.5 4.33301 -54.5 13s-22.833 19.667 -29.5 33s-10.667 27.833 -12 43.5s-2 30.834 -2 45.501v142h20v-141c0 -10.667 0.333008 -22.667 1 -36s3.5 -26 8.5 -38s13 -22 24 -30s26.833 -12 47.5 -12c14 0 27.833 2.33301 41.5 7
s26 10.167 37 16.5s20.667 12.666 29 18.999s14.5 11.5 18.5 15.5v199h20v-363zM243.001 688.995l16 -12l-104 -136l-16 13z" />
    <glyph glyph-name="thorn" unicode="&#xfe;" horiz-adv-x="323" 
d="M70 689l-0.00292969 -249.001c10.667 23.333 24.334 38.833 41.001 46.5s34.667 11.5 54 11.5c15.333 0 30 -2.5 44 -7.5s26.333 -14.333 37 -28s19.167 -32.667 25.5 -57s9.5 -56.166 9.5 -95.499v-63c0 -39.333 -3.16699 -71.166 -9.5 -95.499
s-14.833 -43.333 -25.5 -57s-23.167 -22.834 -37.5 -27.501s-29.166 -7 -44.499 -7c-19.333 0 -37.166 3.83301 -53.499 11.5s-29.833 22.167 -40.5 43.5v-210h-21v784h21zM69.9971 203.999c2 -25.333 5.83496 -46 11.502 -62s12.667 -28.5 21 -37.5
s17.833 -15.333 28.5 -19s21.667 -5.5 33 -5.5c12.667 0 25 2.16699 37 6.5s22.333 12.5 31 24.5s15.667 28.833 21 50.5s8 50.167 8 85.5v63c0 35.333 -2.66699 63.833 -8 85.5s-12.333 38.667 -21 51s-18.834 20.666 -30.501 24.999s-23.834 6.5 -36.501 6.5
c-11.333 0 -22 -1.5 -32 -4.5s-19.167 -8.5 -27.5 -16.5s-15.5 -19.167 -21.5 -33.5s-10.333 -33.166 -13 -56.499l-1 1v-164z" />
    <glyph glyph-name="ydieresis" unicode="&#xff;" horiz-adv-x="337" 
d="M291 141c0 -19.333 -1.49414 -37.8359 -4.49414 -55.5029s-8.5 -33.167 -16.5 -46.5s-19.5 -24.166 -34.5 -32.499s-34.5 -12.5 -58.5 -12.5c-34 0 -62.167 9.16699 -84.5 27.5s-33.5 46.5 -33.5 84.5c0 32 8.5 57.333 25.5 76s38.5 28 64.5 28
c17.333 0 32.666 -5 45.999 -15s20 -24 20 -42c0 -17.333 -6 -31 -18 -41s-24.667 -15 -38 -15v18c9.33301 0 17.666 3.5 24.999 10.5s11 16.167 11 27.5c0 12 -4.5 21.167 -13.5 27.5s-19.833 9.5 -32.5 9.5c-20 0 -36.667 -7.5 -50 -22.5s-20 -35.5 -20 -61.5
c0 -30.667 9.16699 -53.667 27.5 -69s41.833 -23 70.5 -23c22 0 39.167 4 51.5 12s21.666 18.167 27.999 30.5s10.333 26 12 41s2.5 29.833 2.5 44.5v183c-4.66699 -4 -11.334 -9.33301 -20.001 -16s-19.167 -13 -31.5 -19s-26.333 -11.333 -42 -16s-32.5 -7 -50.5 -7
c-23.333 0 -41.5 5.16699 -54.5 15.5s-22.833 23.333 -29.5 39s-10.667 32.834 -12 51.501s-2 36.667 -2 54v170h20v-169c0 -13.333 0.333008 -28 1 -44s3.5 -31.333 8.5 -46s13 -26.834 24 -36.501s26.833 -14.5 47.5 -14.5c16 0 31.667 2.33301 47 7
s29.166 10.334 41.499 17.001s23.166 13.334 32.499 20.001s16 11.667 20 15v251h20v-456zM68.0059 669.997c0 5.33301 2 10 6 14s8.66699 6 14 6s10 -2 14 -6s6 -8.66699 6 -14s-2 -10 -6 -14s-8.66699 -6 -14 -6s-10 2 -14 6s-6 8.66699 -6 14zM219.006 669.997
c0 5.33301 2 10 6 14s8.66699 6 14 6s10 -2 14 -6s6 -8.66699 6 -14s-2 -10 -6 -14s-8.66699 -6 -14 -6s-10 2 -14 6s-6 8.66699 -6 14z" />
    <glyph glyph-name="Amacron" unicode="&#x100;" horiz-adv-x="327" 
d="M177 600l135 -600h-19l-59 259h-141l-57 -259h-20l134 600h27zM98 279h131l-66 290zM284 669h-244v20h244v-20z" />
    <glyph glyph-name="amacron" unicode="&#x101;" horiz-adv-x="350" 
d="M145 579c-30 0 -53.498 -6.50293 -70.498 -19.5029s-25.5 -29.833 -25.5 -50.5h-18c0 26.667 10 48.334 30 65.001s48 25 84 25c30 0 54.167 -3.66699 72.5 -11s32.666 -18.666 42.999 -33.999s17.333 -35.333 21 -60s5.5 -54.334 5.5 -89.001v-295
c0 -34 5 -57.833 15 -71.5s28 -20.5 54 -20.5v-18c-28.667 0 -49.834 5.66699 -63.501 17s-21.834 32 -24.501 62c-4 -10 -9.16699 -20 -15.5 -30s-14.166 -19.167 -23.499 -27.5s-20.333 -15.166 -33 -20.499s-27.334 -8 -44.001 -8c-35.333 0 -64.666 11.833 -87.999 35.5
s-35 59.167 -35 106.5c0 36.667 7.33301 68.5 22 95.5s33.5 49.333 56.5 67s48.5 30.834 76.5 39.501s55.667 13 83 13v55c0 31.333 -1.5 58 -4.5 80s-9 40 -18 54s-21.333 24.167 -37 30.5s-36.5 9.5 -62.5 9.5zM152.002 12.9971c23.333 0 42.332 5.49902 56.999 16.499
s26.334 23.5 35.001 37.5s14.5 27.167 17.5 39.5l5.5 22.5v201c-26 0 -51.833 -4 -77.5 -12s-49 -20 -70 -36s-38 -36.167 -51 -60.5s-19.5 -53.166 -19.5 -86.499c0 -40 9.66699 -70.333 29 -91s44 -31 74 -31zM281.001 671.996h-244v20h244v-20z" />
    <glyph glyph-name="Abreve" unicode="&#x102;" horiz-adv-x="325" 
d="M176 543l134 -543h-19l-55 219h-147l-53 -219h-20l133 543h27zM94 238h137l-69 278zM235 688c0 -20.667 -6.83301 -38.5 -20.5 -53.5s-30.167 -22.5 -49.5 -22.5s-36 7.5 -50 22.5s-21 32.833 -21 53.5h20c0 -15.333 5 -28.5 15 -39.5s22 -16.5 36 -16.5
s25.833 5.5 35.5 16.5s14.5 24.167 14.5 39.5h20z" />
    <glyph glyph-name="abreve" unicode="&#x103;" horiz-adv-x="337" 
d="M150 534c-31.333 0 -56 -6.50195 -74 -19.502s-27 -29.833 -27 -50.5h-18c0 26.667 10.5 48.334 31.5 65.001s50.167 25 87.5 25c28.667 0 52 -4 70 -12s32 -20.167 42 -36.5s16.667 -36.666 20 -60.999s5 -52.5 5 -84.5v-250c0 -34 5 -57.833 15 -71.5
s28 -20.5 54 -20.5v-18c-28.667 0 -49.834 5.66699 -63.501 17s-21.834 32 -24.501 62c-4 -10 -9.16699 -20 -15.5 -30s-14.166 -19.167 -23.499 -27.5s-20.333 -15.166 -33 -20.499s-27.334 -8 -44.001 -8c-35.333 0 -64.666 11 -87.999 33s-35 55 -35 99
c0 31.333 7.33301 58.666 22 81.999s33.5 42.666 56.5 57.999s48.5 26.666 76.5 33.999s55.667 11 83 11v50c0 28.667 -1.5 53.834 -4.5 75.501s-8.66699 39.834 -17 54.501s-20.166 25.667 -35.499 33s-35.333 11 -60 11zM152 12.998c23.333 0 42.332 5.5 56.999 16.5
s26.334 23.5 35.001 37.5s14.5 27.167 17.5 39.5l5.5 22.5v161c-26 0 -51.833 -3.33301 -77.5 -10s-49 -16.667 -70 -30s-38 -30.5 -51 -51.5s-19.5 -45.5 -19.5 -73.5c0 -36.667 9.66699 -64.5 29 -83.5s44 -28.5 74 -28.5zM240.999 689.998
c0 -20.667 -6.83301 -38.5 -20.5 -53.5s-30.167 -22.5 -49.5 -22.5s-36 7.5 -50 22.5s-21 32.833 -21 53.5h20c0 -15.333 5 -28.5 15 -39.5s22 -16.5 36 -16.5s25.833 5.5 35.5 16.5s14.5 24.167 14.5 39.5h20z" />
    <glyph glyph-name="Aogonek" unicode="&#x104;" horiz-adv-x="346" 
d="M187 689l145 -689.004h-1l1 -1c-12 -4 -22.667 -9.33301 -32 -16c-8 -6 -15.167 -13.667 -21.5 -23s-9.5 -20.666 -9.5 -33.999c0 -19.333 8.16699 -34.666 24.5 -45.999s39.833 -17 70.5 -17v-20c-36.667 0 -65 7.5 -85 22.5s-30 35.167 -30 60.5c0 12 2 22.667 6 32
s9 17.333 15 24s12.5 12.334 19.5 17.001s13.5 8.33398 19.5 11.001l-61 287h-150l-62 -297h-21l143 689h29zM102 315.996h142l-72 338z" />
    <glyph glyph-name="aogonek" unicode="&#x105;" horiz-adv-x="353" 
d="M149 669c-31.333 0 -55.998 -6.50293 -73.998 -19.5029s-27 -29.833 -27 -50.5h-18c0 26.667 10.5 48.334 31.5 65.001s50.167 25 87.5 25c30 0 54.167 -4 72.5 -12s32.666 -20.667 42.999 -38s17.333 -39.833 21 -67.5s5.5 -61.5 5.5 -101.5v-360
c0 -33.333 4.66699 -56.833 14 -70.5s25.666 -20.834 48.999 -21.501h6v-18c-12 -4 -22.667 -9.33301 -32 -16c-8 -6 -15.167 -13.667 -21.5 -23s-9.5 -20.666 -9.5 -33.999c0 -19.333 8.16699 -34.666 24.5 -45.999s39.833 -17 70.5 -17v-20c-36.667 0 -65 7.5 -85 22.5
s-30 35.167 -30 60.5c0 20 5 36 15 48s20.333 21.333 31 28c-16 4 -28 11.833 -36 23.5s-13 29.167 -15 52.5c-4 -10 -9.16699 -20 -15.5 -30s-14.166 -19.167 -23.499 -27.5s-20.333 -15.166 -33 -20.499s-27.334 -8 -44.001 -8c-36.667 0 -67.167 14.167 -91.5 42.5
s-36.5 69.833 -36.5 124.5c0 38 7.5 71.167 22.5 99.5s34.167 51.833 57.5 70.5s49.5 32.5 78.5 41.5s57.167 13.5 84.5 13.5v85c0 36 -1.5 66.667 -4.5 92s-9 46 -18 62s-21.333 27.5 -37 34.5s-36.5 10.5 -62.5 10.5zM156.002 12.9971c24.667 0 44.666 6 59.999 18
s27 25.333 35 40c9.33301 17.333 16 37 20 59v235c-26 0 -52.333 -4.16699 -79 -12.5s-50.667 -21 -72 -38s-38.666 -38.333 -51.999 -64s-20 -55.834 -20 -90.501c0 -47.333 10 -83.666 30 -108.999s46 -38 78 -38z" />
    <glyph glyph-name="Cacute" unicode="&#x106;" horiz-adv-x="340" 
d="M54 201c0 -38.667 3.83398 -70.168 11.501 -94.501s18 -43.166 31 -56.499s28 -22.5 45 -27.5s35.167 -7.5 54.5 -7.5c28 0 50 7 66 21s24 31.333 24 52h20c0 -26.667 -9.83301 -49 -29.5 -67s-46.5 -27 -80.5 -27c-22 0 -42.833 2.66699 -62.5 8s-37 15.5 -52 30.5
s-26.833 36 -35.5 63s-13 62.167 -13 105.5v105c0 43.333 4.33301 78.333 13 105s20.5 47.167 35.5 61.5s32.333 24 52 29s40.5 7.5 62.5 7.5c37.333 0 66.666 -11 87.999 -33s32 -51 32 -87c0 -25.333 -6.83301 -46.833 -20.5 -64.5s-32.5 -26.5 -56.5 -26.5
c-20.667 0 -36.834 6.5 -48.501 19.5s-17.5 26.833 -17.5 41.5h18c0 -11.333 4.33301 -21 13 -29s20.334 -12 35.001 -12c18 0 32 6.83301 42 20.5s15 30.5 15 50.5c0 30 -8.83301 54 -26.5 72s-42.167 27 -73.5 27c-19.333 0 -37.5 -2.16699 -54.5 -6.5s-32 -13 -45 -26
s-23.333 -31.5 -31 -55.5s-11.5 -55.333 -11.5 -94v-105zM274.001 690.999l16 -12l-104 -136l-16 13z" />
    <glyph glyph-name="cacute" unicode="&#x107;" horiz-adv-x="317" 
d="M52 221c0 -42.667 3.5 -77.334 10.5 -104.001s16.5 -47.334 28.5 -62.001s25.667 -24.5 41 -29.5s31.333 -7.5 48 -7.5c28 0 50 6.5 66 19.5s24 29.833 24 50.5c0 12.667 -3.16699 23.5 -9.5 32.5s-15.5 13.5 -27.5 13.5c-11.333 0 -20.5 -3.66699 -27.5 -11
s-10.5 -15.666 -10.5 -24.999h-18c0 13.333 5 26 15 38s23.667 18 41 18c18 0 32 -6.66699 42 -20s15 -28.666 15 -45.999c0 -26.667 -9.83301 -48.334 -29.5 -65.001s-46.5 -25 -80.5 -25c-19.333 0 -38 2.83301 -56 8.5s-33.833 16.5 -47.5 32.5s-24.5 38.5 -32.5 67.5
s-12 67.167 -12 114.5v65c0 48 4 87 12 117s18.833 53.167 32.5 69.5s29.5 27.333 47.5 33s36.667 8.5 56 8.5c34 0 60.833 -8.33301 80.5 -25s29.5 -38.334 29.5 -65.001c0 -17.333 -5 -32.666 -15 -45.999s-24 -20 -42 -20c-17.333 0 -31 6 -41 18s-15 24.667 -15 38h18
c0 -9.33301 3.5 -17.666 10.5 -24.999s16.167 -11 27.5 -11c12 0 21.167 4.5 27.5 13.5s9.5 19.833 9.5 32.5c0 20.667 -8 37.5 -24 50.5s-38 19.5 -66 19.5c-16.667 0 -32.667 -2.66699 -48 -8s-29 -15.5 -41 -30.5s-21.5 -36 -28.5 -63s-10.5 -62.5 -10.5 -106.5v-65z
M269 692l16 -12l-104 -136l-16 13z" />
    <glyph glyph-name="Ccircumflex" unicode="&#x108;" horiz-adv-x="340" 
d="M54 201c0 -38.667 3.83398 -70.168 11.501 -94.501s18 -43.166 31 -56.499s28 -22.5 45 -27.5s35.167 -7.5 54.5 -7.5c28 0 50 7 66 21s24 31.333 24 52h20c0 -26.667 -9.83301 -49 -29.5 -67s-46.5 -27 -80.5 -27c-22 0 -42.833 2.66699 -62.5 8s-37 15.5 -52 30.5
s-26.833 36 -35.5 63s-13 62.167 -13 105.5v105c0 43.333 4.33301 78.333 13 105s20.5 47.167 35.5 61.5s32.333 24 52 29s40.5 7.5 62.5 7.5c37.333 0 66.666 -11 87.999 -33s32 -51 32 -87c0 -25.333 -6.83301 -46.833 -20.5 -64.5s-32.5 -26.5 -56.5 -26.5
c-20.667 0 -36.834 6.5 -48.501 19.5s-17.5 26.833 -17.5 41.5h18c0 -11.333 4.33301 -21 13 -29s20.334 -12 35.001 -12c18 0 32 6.83301 42 20.5s15 30.5 15 50.5c0 30 -8.83301 54 -26.5 72s-42.167 27 -73.5 27c-19.333 0 -37.5 -2.16699 -54.5 -6.5s-32 -13 -45 -26
s-23.333 -31.5 -31 -55.5s-11.5 -55.333 -11.5 -94v-105zM188.001 690.999h26l92 -117l-16 -13l-88 114l-88 -114l-16 13z" />
    <glyph glyph-name="ccircumflex" unicode="&#x109;" horiz-adv-x="317" 
d="M52 221c0 -42.667 3.5 -77.334 10.5 -104.001s16.5 -47.334 28.5 -62.001s25.667 -24.5 41 -29.5s31.333 -7.5 48 -7.5c28 0 50 6.5 66 19.5s24 29.833 24 50.5c0 12.667 -3.16699 23.5 -9.5 32.5s-15.5 13.5 -27.5 13.5c-11.333 0 -20.5 -3.66699 -27.5 -11
s-10.5 -15.666 -10.5 -24.999h-18c0 13.333 5 26 15 38s23.667 18 41 18c18 0 32 -6.66699 42 -20s15 -28.666 15 -45.999c0 -26.667 -9.83301 -48.334 -29.5 -65.001s-46.5 -25 -80.5 -25c-19.333 0 -38 2.83301 -56 8.5s-33.833 16.5 -47.5 32.5s-24.5 38.5 -32.5 67.5
s-12 67.167 -12 114.5v65c0 48 4 87 12 117s18.833 53.167 32.5 69.5s29.5 27.333 47.5 33s36.667 8.5 56 8.5c34 0 60.833 -8.33301 80.5 -25s29.5 -38.334 29.5 -65.001c0 -17.333 -5 -32.666 -15 -45.999s-24 -20 -42 -20c-17.333 0 -31 6 -41 18s-15 24.667 -15 38h18
c0 -9.33301 3.5 -17.666 10.5 -24.999s16.167 -11 27.5 -11c12 0 21.167 4.5 27.5 13.5s9.5 19.833 9.5 32.5c0 20.667 -8 37.5 -24 50.5s-38 19.5 -66 19.5c-16.667 0 -32.667 -2.66699 -48 -8s-29 -15.5 -41 -30.5s-21.5 -36 -28.5 -63s-10.5 -62.5 -10.5 -106.5v-65z
M162 692h26l92 -117l-16 -13l-88 114l-88 -114l-16 13z" />
    <glyph glyph-name="Cdotaccent" unicode="&#x10a;" horiz-adv-x="350" 
d="M55 221c0 -42.667 3.83203 -77.5 11.499 -104.5s18 -48 31 -63s28 -25.167 45 -30.5s35.167 -8 54.5 -8c31.333 0 55.833 7 73.5 21s26.5 31.333 26.5 52h20c0 -26.667 -10.667 -49 -32 -67s-50.666 -27 -87.999 -27c-22 0 -42.833 3 -62.5 9s-37 17.167 -52 33.5
s-26.833 39.333 -35.5 69s-13 68.167 -13 115.5v136c0 47.333 4.33301 85.5 13 114.5s20.5 51.5 35.5 67.5s32.333 26.833 52 32.5s40.5 8.5 62.5 8.5c40 0 71.667 -11 95 -33s35 -51 35 -87c0 -25.333 -6.83301 -46.833 -20.5 -64.5s-32.5 -26.5 -56.5 -26.5
c-20.667 0 -36.834 6.5 -48.501 19.5s-17.5 26.833 -17.5 41.5h18c0 -11.333 4.33301 -21 13 -29s20.334 -12 35.001 -12c18 0 32 6.83301 42 20.5s15 30.5 15 50.5c0 30 -9.83301 54 -29.5 72s-46.5 27 -80.5 27c-19.333 0 -37.5 -2.5 -54.5 -7.5s-32 -14.833 -45 -29.5
s-23.333 -35.167 -31 -61.5s-11.5 -60.833 -11.5 -103.5v-136zM159.999 656c0 10 3.66699 18.667 11 26s16 11 26 11s18.667 -3.66699 26 -11s11 -16 11 -26s-3.66699 -18.667 -11 -26s-16 -11 -26 -11s-18.667 3.66699 -26 11s-11 16 -11 26z" />
    <glyph glyph-name="cdotaccent" unicode="&#x10b;" horiz-adv-x="332" 
d="M53 221c0 -42.667 3.83301 -77.335 11.5 -104.002s18.167 -47.334 31.5 -62.001s28.5 -24.5 45.5 -29.5s35.167 -7.5 54.5 -7.5c28 0 50 6.5 66 19.5s24 29.833 24 50.5c0 12.667 -3.16699 23.5 -9.5 32.5s-15.5 13.5 -27.5 13.5c-11.333 0 -20.5 -3.66699 -27.5 -11
s-10.5 -15.666 -10.5 -24.999h-18c0 13.333 5 26 15 38s23.667 18 41 18c18 0 32 -6.66699 42 -20s15 -28.666 15 -45.999c0 -26.667 -9.83301 -48.334 -29.5 -65.001s-46.5 -25 -80.5 -25c-22 0 -42.833 2.83301 -62.5 8.5s-37 16.5 -52 32.5s-26.833 38.5 -35.5 67.5
s-13 67.167 -13 114.5v115c0 51.333 4.33301 92.833 13 124.5s20.5 56.334 35.5 74.001s32.333 29.5 52 35.5s40.5 9 62.5 9c34 0 60.833 -8.33301 80.5 -25s29.5 -38.334 29.5 -65.001c0 -17.333 -5 -32.666 -15 -45.999s-24 -20 -42 -20c-17.333 0 -31 6 -41 18
s-15 24.667 -15 38h18c0 -9.33301 3.5 -17.666 10.5 -24.999s16.167 -11 27.5 -11c12 0 21.167 4.5 27.5 13.5s9.5 19.833 9.5 32.5c0 20.667 -8 37.5 -24 50.5s-38 19.5 -66 19.5c-19.333 0 -37.5 -2.83301 -54.5 -8.5s-32.167 -16.667 -45.5 -33s-23.833 -39 -31.5 -68
s-11.5 -66.833 -11.5 -113.5v-115zM154 654.999c0 10 3.66699 18.667 11 26s16 11 26 11s18.667 -3.66699 26 -11s11 -16 11 -26s-3.66699 -18.667 -11 -26s-16 -11 -26 -11s-18.667 3.66699 -26 11s-11 16 -11 26z" />
    <glyph glyph-name="Ccaron" unicode="&#x10c;" horiz-adv-x="340" 
d="M54 201c0 -38.667 3.83398 -70.168 11.501 -94.501s18 -43.166 31 -56.499s28 -22.5 45 -27.5s35.167 -7.5 54.5 -7.5c28 0 50 7 66 21s24 31.333 24 52h20c0 -26.667 -9.83301 -49 -29.5 -67s-46.5 -27 -80.5 -27c-22 0 -42.833 2.66699 -62.5 8s-37 15.5 -52 30.5
s-26.833 36 -35.5 63s-13 62.167 -13 105.5v105c0 43.333 4.33301 78.333 13 105s20.5 47.167 35.5 61.5s32.333 24 52 29s40.5 7.5 62.5 7.5c37.333 0 66.666 -11 87.999 -33s32 -51 32 -87c0 -25.333 -6.83301 -46.833 -20.5 -64.5s-32.5 -26.5 -56.5 -26.5
c-20.667 0 -36.834 6.5 -48.501 19.5s-17.5 26.833 -17.5 41.5h18c0 -11.333 4.33301 -21 13 -29s20.334 -12 35.001 -12c18 0 32 6.83301 42 20.5s15 30.5 15 50.5c0 30 -8.83301 54 -26.5 72s-42.167 27 -73.5 27c-19.333 0 -37.5 -2.16699 -54.5 -6.5s-32 -13 -45 -26
s-23.333 -31.5 -31 -55.5s-11.5 -55.333 -11.5 -94v-105zM89.001 677.999l16 13l88 -115l88 115l16 -13l-92 -117h-26z" />
    <glyph glyph-name="ccaron" unicode="&#x10d;" horiz-adv-x="317" 
d="M52 221c0 -42.667 3.5 -77.334 10.5 -104.001s16.5 -47.334 28.5 -62.001s25.667 -24.5 41 -29.5s31.333 -7.5 48 -7.5c28 0 50 6.5 66 19.5s24 29.833 24 50.5c0 12.667 -3.16699 23.5 -9.5 32.5s-15.5 13.5 -27.5 13.5c-11.333 0 -20.5 -3.66699 -27.5 -11
s-10.5 -15.666 -10.5 -24.999h-18c0 13.333 5 26 15 38s23.667 18 41 18c18 0 32 -6.66699 42 -20s15 -28.666 15 -45.999c0 -26.667 -9.83301 -48.334 -29.5 -65.001s-46.5 -25 -80.5 -25c-19.333 0 -38 2.83301 -56 8.5s-33.833 16.5 -47.5 32.5s-24.5 38.5 -32.5 67.5
s-12 67.167 -12 114.5v65c0 48 4 87 12 117s18.833 53.167 32.5 69.5s29.5 27.333 47.5 33s36.667 8.5 56 8.5c34 0 60.833 -8.33301 80.5 -25s29.5 -38.334 29.5 -65.001c0 -17.333 -5 -32.666 -15 -45.999s-24 -20 -42 -20c-17.333 0 -31 6 -41 18s-15 24.667 -15 38h18
c0 -9.33301 3.5 -17.666 10.5 -24.999s16.167 -11 27.5 -11c12 0 21.167 4.5 27.5 13.5s9.5 19.833 9.5 32.5c0 20.667 -8 37.5 -24 50.5s-38 19.5 -66 19.5c-16.667 0 -32.667 -2.66699 -48 -8s-29 -15.5 -41 -30.5s-21.5 -36 -28.5 -63s-10.5 -62.5 -10.5 -106.5v-65z
M71 678l16 13l88 -115l88 115l16 -13l-92 -117h-26z" />
    <glyph glyph-name="Dcaron" unicode="&#x10e;" horiz-adv-x="337" 
d="M62 510c34 0 65.667 -2.83301 95 -8.5s55 -16 77 -31s39.333 -35.5 52 -61.5s19 -59.333 19 -100v-106c0 -40.667 -6.33301 -74.167 -19 -100.5s-30 -47 -52 -62s-47.667 -25.5 -77 -31.5s-61 -9 -95 -9h-17v510h17zM284 309c0 36 -5.66699 65.6689 -17 89.002
s-26.833 41.666 -46.5 54.999s-42.667 22.666 -69 27.999s-54.833 8 -85.5 8v-468c30.667 0 59.167 2.66699 85.5 8s49.333 14.833 69 28.5s35.167 32.167 46.5 55.5s17 53.333 17 90v106zM42 677.002l16 13l88 -115l88 115l16 -13l-92 -117h-26z" />
    <glyph glyph-name="dcaron" unicode="&#x10f;" horiz-adv-x="387" 
d="M21 185c0 44 7.49707 82.499 22.4971 115.499s34.167 60.5 57.5 82.5s49.333 38.667 78 50s56.667 17 84 17v240h20v-580c0 -34 5 -57.833 15 -71.5s28 -20.5 54 -20.5v-18c-28.667 0 -49.667 5.5 -63 16.5s-21.666 31.167 -24.999 60.5c-4 -10 -9.16699 -20 -15.5 -30
s-14.166 -19 -23.499 -27s-20.166 -14.5 -32.499 -19.5s-26.833 -7.5 -43.5 -7.5c-36.667 0 -67.167 16.333 -91.5 49s-36.5 80.334 -36.5 143.001zM148.997 12.999c21.333 0 39.168 4.66699 53.501 14s25.666 20.333 33.999 33s14.5 25 18.5 37s6.66699 21 8 27v306
c-26 0 -52.333 -5.16699 -79 -15.5s-50.5 -25.833 -71.5 -46.5s-38.167 -46.167 -51.5 -76.5s-20 -65.833 -20 -106.5c0 -54.667 10 -97 30 -127s46 -45 78 -45zM336.999 660.999c0 7.33301 2.5 13.5 7.5 18.5s11.167 7.5 18.5 7.5s13.5 -2.5 18.5 -7.5
s7.5 -11.167 7.5 -18.5c0 -17.333 -2.5 -33 -7.5 -47s-10.167 -25.667 -15.5 -35c-6.66699 -11.333 -14 -21.333 -22 -30l-9 11c4.66699 6 9 12.667 13 20c3.33301 6.66699 6.83301 14.5 10.5 23.5s6.5 19.5 8.5 31.5h-4c-7.33301 0 -13.5 2.5 -18.5 7.5
s-7.5 11.167 -7.5 18.5z" />
    <glyph glyph-name="Dcroat" unicode="&#x110;" horiz-adv-x="365" 
d="M75 689c35.333 0 68.498 -3.33301 99.498 -10s58 -19 81 -37s41 -43.333 54 -76s19.5 -75.334 19.5 -128.001v-185c0 -53.333 -6.66699 -96.5 -20 -129.5s-31.666 -58.667 -54.999 -77s-50.666 -30.666 -81.999 -36.999s-65 -9.5 -101 -9.5h-17v332h-32v20h32v337h21z
M307.998 438c0 48 -6 87 -18 117s-28.5 53.333 -49.5 70s-45.667 28 -74 34s-58.833 9 -91.5 9v-316h191v-20h-191v-311c32.667 0 63.167 3 91.5 9s53 17.5 74 34.5s37.5 40.667 49.5 71s18 69.5 18 117.5v185z" />
    <glyph glyph-name="dcroat" unicode="&#x111;" horiz-adv-x="349" 
d="M22 185c0 44 7.49707 82.499 22.4971 115.499s34.167 60.5 57.5 82.5s49.333 38.667 78 50s56.667 17 84 17v53h-172v20h172v167h20v-167h28v-20h-28v-393c0 -34 5 -57.833 15 -71.5s28 -20.5 54 -20.5v-18c-28.667 0 -49.667 5.5 -63 16.5s-21.666 31.167 -24.999 60.5
c-4 -10 -9.16699 -20 -15.5 -30s-14.166 -19 -23.499 -27s-20.166 -14.5 -32.499 -19.5s-26.833 -7.5 -43.5 -7.5c-36.667 0 -67.167 16.333 -91.5 49s-36.5 80.334 -36.5 143.001zM149.997 12.999c21.333 0 39.168 4.66699 53.501 14s25.666 20.333 33.999 33
s14.5 25 18.5 37s6.66699 21 8 27v306c-26 0 -52.333 -5.16699 -79 -15.5s-50.5 -25.833 -71.5 -46.5s-38.167 -46.167 -51.5 -76.5s-20 -65.833 -20 -106.5c0 -54.667 10 -97 30 -127s46 -45 78 -45z" />
    <glyph glyph-name="Emacron" unicode="&#x112;" horiz-adv-x="341" 
d="M57 457c0 -18 3.49805 -34.502 10.498 -49.502s15.5 -28 25.5 -39s20.667 -19.5 32 -25.5s21.333 -9 30 -9h101v-20h-104c-8.66699 0 -18.834 -2.83301 -30.501 -8.5s-22.667 -14.5 -33 -26.5s-19 -27.667 -26 -47s-10.5 -42.666 -10.5 -69.999
c0 -30 3.66699 -54.5 11 -73.5s17.333 -34 30 -45s27.334 -18.5 44.001 -22.5s34 -6 52 -6c31.333 0 55.833 6.66699 73.5 20s26.5 31 26.5 53h20c0 -28 -10.667 -50.667 -32 -68s-50.666 -26 -87.999 -26c-21.333 0 -41.5 2.5 -60.5 7.5s-35.667 13.667 -50 26
s-25.833 29.333 -34.5 51s-13 49.5 -13 83.5c0 27.333 2.66699 50.333 8 69s12 34 20 46s17 21.5 27 28.5s19.667 12.5 29 16.5c-7.33301 5.33301 -15.666 12 -24.999 20s-18 17.5 -26 28.5s-14.667 23.667 -20 38s-8 30.166 -8 47.499c0 30 4.16699 54.5 12.5 73.5
s19.5 34 33.5 45s30.333 18.667 49 23s38 6.5 58 6.5c40 0 71.667 -11 95 -33s35 -51 35 -87c0 -20.667 -5.83301 -38.5 -17.5 -53.5s-28.167 -22.5 -49.5 -22.5c-20.667 0 -36.834 6.5 -48.501 19.5s-17.5 26.833 -17.5 41.5h18c0 -11.333 4.33301 -21 13 -29
s20.334 -12 35.001 -12c15.333 0 27 5.5 35 16.5s12 24.167 12 39.5c0 30 -9.83301 54 -29.5 72s-46.5 27 -80.5 27c-17.333 0 -34 -1.83301 -50 -5.5s-30 -10.167 -42 -19.5s-21.667 -22.166 -29 -38.499s-11 -37.166 -11 -62.499zM312.998 670.998h-244v20h244v-20z" />
    <glyph glyph-name="emacron" unicode="&#x113;" horiz-adv-x="332" 
d="M300 310h-242.998v-84c0 -44 3.66699 -79.5 11 -106.5s17.166 -48 29.499 -63s26.5 -25.167 42.5 -30.5s32.667 -8 50 -8c28 0 50 6.5 66 19.5s24 29.833 24 50.5h20c0 -26.667 -9.83301 -48.334 -29.5 -65.001s-46.5 -25 -80.5 -25c-20 0 -39.333 2.83301 -58 8.5
s-35 16.667 -49 33s-25.167 39.5 -33.5 69.5s-12.5 69 -12.5 117v155c0 46 3.66699 83.333 11 112s17.166 50.834 29.499 66.501s26.5 26.167 42.5 31.5s32.667 8 50 8c26.667 0 48.5 -6.5 65.5 -19.5s30.333 -31.5 40 -55.5s16.167 -52.667 19.5 -86s5 -70 5 -110v-18z
M280.002 328c0 37.333 -1.16699 71.333 -3.5 102s-7.5 57 -15.5 79s-19.167 39.167 -33.5 51.5s-33.5 18.5 -57.5 18.5c-14.667 0 -28.834 -2.5 -42.501 -7.5s-25.667 -14.667 -36 -29s-18.666 -34.333 -24.999 -60s-9.5 -59.5 -9.5 -101.5v-53h223zM292.002 670h-244v20
h244v-20z" />
    <glyph glyph-name="Ebreve" unicode="&#x114;" horiz-adv-x="303" 
d="M54 420c0 -16 3.16895 -30.3311 9.50195 -42.998s14 -23.667 23 -33s18.333 -16.5 28 -21.5s18.167 -7.5 25.5 -7.5h76v-19h-78c-7.33301 0 -15.666 -2.16699 -24.999 -6.5s-18.5 -12 -27.5 -23s-16.5 -25.667 -22.5 -44s-9 -41.5 -9 -69.5
c0 -26 3.16699 -47.667 9.5 -65s15 -31.166 26 -41.499s23.833 -17.833 38.5 -22.5s30.334 -7 47.001 -7c24 0 42.833 4.16699 56.5 12.5s20.5 20.166 20.5 35.499h21c0 -20.667 -8.66699 -37.334 -26 -50.001s-41.333 -19 -72 -19c-19.333 0 -37.5 2.66699 -54.5 8
s-32 14.333 -45 27s-23.333 28.834 -31 48.501s-11.5 44.167 -11.5 73.5c0 25.333 2.16699 46.5 6.5 63.5s9.83301 31.333 16.5 43s14 21 22 28s16 12.833 24 17.5c-6.66699 4.66699 -14 10.334 -22 17.001s-15.5 14.667 -22.5 24s-12.833 20.166 -17.5 32.499
s-7 26.166 -7 41.499c0 26.667 3.83301 48.667 11.5 66s18 31 31 41s28 17 45 21s35.167 6 54.5 6c33.333 0 59.333 -8.33301 78 -25s28 -38 28 -64c0 -18.667 -5.5 -34.5 -16.5 -47.5s-26.5 -19.5 -46.5 -19.5c-16.667 0 -29.834 4.66699 -39.501 14
s-14.5 19.666 -14.5 30.999h18c0 -6.66699 3.16699 -12.5 9.5 -17.5s15.166 -7.5 26.499 -7.5c13.333 0 23.666 4.5 30.999 13.5s11 20.167 11 33.5c0 21.333 -7.16699 38 -21.5 50s-35.5 18 -63.5 18c-16.667 0 -32.334 -1.5 -47.001 -4.5s-27.5 -8.66699 -38.5 -17
s-19.667 -19.833 -26 -34.5s-9.5 -33.667 -9.5 -57zM235.002 690.002c0 -20.667 -6.83301 -38.5 -20.5 -53.5s-30.167 -22.5 -49.5 -22.5s-36 7.5 -50 22.5s-21 32.833 -21 53.5h20c0 -15.333 5 -28.5 15 -39.5s22 -16.5 36 -16.5s25.833 5.5 35.5 16.5
s14.5 24.167 14.5 39.5h20z" />
    <glyph glyph-name="ebreve" unicode="&#x115;" horiz-adv-x="334" 
d="M54 211c0 -40.667 3.8291 -73.666 11.4961 -98.999s17.834 -45 30.501 -59s27.334 -23.333 44.001 -28s34 -7 52 -7c28 0 50 6.5 66 19.5s24 29.833 24 50.5h20c0 -26.667 -9.83301 -48.334 -29.5 -65.001s-46.5 -25 -80.5 -25c-21.333 0 -41.5 2.66699 -60.5 8
s-35.667 15.666 -50 30.999s-25.833 36.833 -34.5 64.5s-13 64.167 -13 109.5v133c0 46 3.83301 83.333 11.5 112s17.834 50.834 30.501 66.501s27.334 26.167 44.001 31.5s34 8 52 8c26.667 0 48.5 -6.16699 65.5 -18.5s30.333 -29.5 40 -51.5s16.167 -48.667 19.5 -80
s5 -66 5 -104v-18h-248v-79zM281.996 308.001c0 34.667 -1.16699 66.501 -3.5 95.501s-7.5 53.667 -15.5 74s-19.167 36.166 -33.5 47.499s-33.5 17 -57.5 17c-15.333 0 -30 -2.33301 -44 -7s-26.5 -14 -37.5 -28s-19.833 -34 -26.5 -60s-10 -60.333 -10 -103v-36h228z
M241.996 689.002c0 -20.667 -6.83301 -38.5 -20.5 -53.5s-30.167 -22.5 -49.5 -22.5s-36 7.5 -50 22.5s-21 32.833 -21 53.5h20c0 -15.333 5 -28.5 15 -39.5s22 -16.5 36 -16.5s25.833 5.5 35.5 16.5s14.5 24.167 14.5 39.5h20z" />
    <glyph glyph-name="Edotaccent" unicode="&#x116;" horiz-adv-x="303" 
d="M54 420c0 -16 3.16895 -30.3311 9.50195 -42.998s14 -23.667 23 -33s18.333 -16.5 28 -21.5s18.167 -7.5 25.5 -7.5h76v-19h-78c-7.33301 0 -15.666 -2.16699 -24.999 -6.5s-18.5 -12 -27.5 -23s-16.5 -25.667 -22.5 -44s-9 -41.5 -9 -69.5
c0 -26 3.16699 -47.667 9.5 -65s15 -31.166 26 -41.499s23.833 -17.833 38.5 -22.5s30.334 -7 47.001 -7c24 0 42.833 4.16699 56.5 12.5s20.5 20.166 20.5 35.499h21c0 -20.667 -8.66699 -37.334 -26 -50.001s-41.333 -19 -72 -19c-19.333 0 -37.5 2.66699 -54.5 8
s-32 14.333 -45 27s-23.333 28.834 -31 48.501s-11.5 44.167 -11.5 73.5c0 25.333 2.16699 46.5 6.5 63.5s9.83301 31.333 16.5 43s14 21 22 28s16 12.833 24 17.5c-6.66699 4.66699 -14 10.334 -22 17.001s-15.5 14.667 -22.5 24s-12.833 20.166 -17.5 32.499
s-7 26.166 -7 41.499c0 26.667 3.83301 48.667 11.5 66s18 31 31 41s28 17 45 21s35.167 6 54.5 6c33.333 0 59.333 -8.33301 78 -25s28 -38 28 -64c0 -18.667 -5.5 -34.5 -16.5 -47.5s-26.5 -19.5 -46.5 -19.5c-16.667 0 -29.834 4.66699 -39.501 14
s-14.5 19.666 -14.5 30.999h18c0 -6.66699 3.16699 -12.5 9.5 -17.5s15.166 -7.5 26.499 -7.5c13.333 0 23.666 4.5 30.999 13.5s11 20.167 11 33.5c0 21.333 -7.16699 38 -21.5 50s-35.5 18 -63.5 18c-16.667 0 -32.334 -1.5 -47.001 -4.5s-27.5 -8.66699 -38.5 -17
s-19.667 -19.833 -26 -34.5s-9.5 -33.667 -9.5 -57zM119.002 656.002c0 10 3.66699 18.667 11 26s16 11 26 11s18.667 -3.66699 26 -11s11 -16 11 -26s-3.66699 -18.667 -11 -26s-16 -11 -26 -11s-18.667 3.66699 -26 11s-11 16 -11 26z" />
    <glyph glyph-name="edotaccent" unicode="&#x117;" horiz-adv-x="335" 
d="M55 211c0 -40.667 3.8291 -73.6631 11.4961 -98.9961s17.834 -45 30.501 -59s27.334 -23.333 44.001 -28s34 -7 52 -7c28 0 50 6.5 66 19.5s24 29.833 24 50.5h20c0 -26.667 -9.83301 -48.334 -29.5 -65.001s-46.5 -25 -80.5 -25c-21.333 0 -41.5 2.66699 -60.5 8
s-35.667 15.666 -50 30.999s-25.833 36.833 -34.5 64.5s-13 64.167 -13 109.5v128c0 45.333 3.83301 81.833 11.5 109.5s17.834 49.167 30.501 64.5s27.334 25.666 44.001 30.999s34 8 52 8c26.667 0 48.5 -6 65.5 -18s30.333 -28.833 40 -50.5s16.167 -47.834 19.5 -78.501
s5 -64.667 5 -102v-18h-248v-74zM282.996 303.004c0 34 -1.16699 65.167 -3.5 93.5s-7.5 52.5 -15.5 72.5s-19.167 35.5 -33.5 46.5s-33.5 16.5 -57.5 16.5c-15.333 0 -30 -2.16699 -44 -6.5s-26.5 -13.333 -37.5 -27s-19.833 -33.167 -26.5 -58.5s-10 -59 -10 -101v-36h228
zM129.996 652.004c0 10 3.66699 18.667 11 26s16 11 26 11s18.667 -3.66699 26 -11s11 -16 11 -26s-3.66699 -18.667 -11 -26s-16 -11 -26 -11s-18.667 3.66699 -26 11s-11 16 -11 26z" />
    <glyph glyph-name="Eogonek" unicode="&#x118;" horiz-adv-x="356" 
d="M54 522c0 -20 3.66895 -38.5 11.002 -55.5s16.333 -31.5 27 -43.5s21.834 -21.5 33.501 -28.5s22.167 -10.5 31.5 -10.5h111v-20h-114c-8.66699 0 -18.834 -3.16699 -30.501 -9.5s-22.667 -16.5 -33 -30.5s-19 -32.333 -26 -55s-10.5 -50 -10.5 -82
c0 -34.667 4 -63.167 12 -85.5s19 -39.833 33 -52.5s30.167 -21.5 48.5 -26.5s37.833 -7.5 58.5 -7.5c31.333 0 55.833 6.66699 73.5 20s26.5 31 26.5 53h20c0 -27.333 -10 -49.5 -30 -66.5s-47.333 -26.167 -82 -27.5c-0.666992 0 -4.33398 -1.33301 -11.001 -4
s-13.667 -7 -21 -13s-14.166 -13.5 -20.499 -22.5s-9.5 -20.167 -9.5 -33.5c0 -19.333 8.16699 -34.666 24.5 -45.999s39.833 -17 70.5 -17v-20c-36.667 0 -65 7.5 -85 22.5s-30 35.167 -30 60.5c0 19.333 4.5 34.833 13.5 46.5s18.833 21.167 29.5 28.5
c-20 2 -38.5 6.66699 -55.5 14s-32 18.333 -45 33s-23.167 33.667 -30.5 57s-11 52.333 -11 87c0 30.667 2.66699 56.667 8 78s12 39 20 53s17 25.167 27 33.5s19.667 15.166 29 20.499c-8 6 -16.833 13.5 -26.5 22.5s-18.834 19.5 -27.501 31.5
s-15.834 25.833 -21.501 41.5s-8.5 33.5 -8.5 53.5c0 34 4.66699 61.833 14 83.5s21.833 38.667 37.5 51s34 21 55 26s43.167 7.5 66.5 7.5c40 0 71.667 -11 95 -33s35 -51 35 -87c0 -25.333 -6.83301 -46.833 -20.5 -64.5s-32.5 -26.5 -56.5 -26.5
c-20.667 0 -36.834 6.5 -48.501 19.5s-17.5 26.833 -17.5 41.5h18c0 -11.333 4.33301 -21 13 -29s20.334 -12 35.001 -12c18 0 32 6.83301 42 20.5s15 30.5 15 50.5c0 30 -9.83301 54 -29.5 72s-46.5 27 -80.5 27c-20.667 0 -40.167 -2 -58.5 -6s-34.5 -11.5 -48.5 -22.5
s-25 -26 -33 -45s-12 -43.167 -12 -72.5z" />
    <glyph glyph-name="eogonek" unicode="&#x119;" horiz-adv-x="343" 
d="M38 436c0 53.333 3.82715 96.5 11.4941 129.5s17.834 58.667 30.501 77s27.334 30.666 44.001 36.999s34 9.5 52 9.5c28 0 50.833 -7.33301 68.5 -22s31.334 -35.334 41.001 -62.001s16.334 -58.667 20.001 -96s5.5 -78.666 5.5 -123.999v-18h-253v-116
c0 -48.667 3.83301 -88.167 11.5 -118.5s17.834 -54 30.501 -71s27.334 -28.5 44.001 -34.5s34 -9 52 -9c30 0 53.333 6.5 70 19.5s25 29.833 25 50.5h20c0 -25.333 -9.5 -46.333 -28.5 -63s-45.167 -25.667 -78.5 -27c-0.666992 0 -4.33398 -1.33301 -11.001 -4
s-13.667 -7 -21 -13s-14.166 -13.5 -20.499 -22.5s-9.5 -20.167 -9.5 -33.5c0 -19.333 8.16699 -34.666 24.5 -45.999s39.833 -17 70.5 -17v-20c-36.667 0 -65 7.5 -85 22.5s-30 35.167 -30 60.5c0 19.333 4.5 35 13.5 47s18.833 21.333 29.5 28
c-17.333 2.66699 -33.833 8.5 -49.5 17.5s-29.167 23 -40.5 42s-20.333 44 -27 75s-10 69.833 -10 116.5v185zM57.9941 385l233 -0.000976562c0 42.667 -1.33301 81.334 -4 116.001s-8 64.5 -16 89.5s-19.667 44.333 -35 58s-35.333 20.5 -60 20.5c-15.333 0 -30 -3 -44 -9
s-26.5 -17.5 -37.5 -34.5s-19.833 -40.667 -26.5 -71s-10 -69.833 -10 -118.5v-51z" />
    <glyph glyph-name="Ecaron" unicode="&#x11a;" horiz-adv-x="305" 
d="M54 385c0 -15.333 3.16895 -28.998 9.50195 -40.998s14 -22.5 23 -31.5s18.333 -15.833 28 -20.5s18.167 -7 25.5 -7h76v-19h-78c-7.33301 0 -15.666 -2 -24.999 -6s-18.5 -10.833 -27.5 -20.5s-16.5 -22.834 -22.5 -39.501s-9 -37.334 -9 -62.001
c0 -22.667 3.16699 -41.667 9.5 -57s15 -27.833 26 -37.5s23.833 -16.5 38.5 -20.5s30.334 -6 47.001 -6c24 0 42.833 4.16699 56.5 12.5s20.5 20.166 20.5 35.499h21c0 -20.667 -8.66699 -37.334 -26 -50.001s-41.333 -19 -72 -19c-19.333 0 -37.5 2.5 -54.5 7.5
s-32 13.167 -45 24.5s-23.333 26 -31 44s-11.5 40 -11.5 66c0 22.667 2.16699 41.834 6.5 57.501s9.83301 28.834 16.5 39.501s14 19 22 25s16 11 24 15c-6.66699 4 -14 9.33301 -22 16s-15.5 14.5 -22.5 23.5s-12.833 19.333 -17.5 31s-7 24.834 -7 39.501
c0 24.667 3.83301 45 11.5 61s18 28.667 31 38s28 15.833 45 19.5s35.167 5.5 54.5 5.5c33.333 0 59.333 -8.33301 78 -25s28 -38 28 -64c0 -18.667 -5.5 -34.5 -16.5 -47.5s-26.5 -19.5 -46.5 -19.5c-16.667 0 -29.834 4.66699 -39.501 14s-14.5 19.666 -14.5 30.999h18
c0 -6.66699 3.16699 -12.5 9.5 -17.5s15.166 -7.5 26.499 -7.5c13.333 0 23.666 4.5 30.999 13.5s11 20.167 11 33.5c0 21.333 -7.16699 38 -21.5 50s-35.5 18 -63.5 18c-16.667 0 -32.334 -1.33301 -47.001 -4s-27.5 -7.83398 -38.5 -15.501s-19.667 -18.167 -26 -31.5
s-9.5 -30.666 -9.5 -51.999zM58.002 679.002l16 13l88 -115l88 115l16 -13l-92 -117h-26z" />
    <glyph glyph-name="ecaron" unicode="&#x11b;" horiz-adv-x="317" 
d="M53 201c0 -38.667 3.50098 -69.999 10.501 -93.999s16.5 -42.5 28.5 -55.5s25.667 -21.833 41 -26.5s31.333 -7 48 -7c26.667 0 47.5 6.5 62.5 19.5s22.5 29.833 22.5 50.5h20c0 -26.667 -9.33301 -48.334 -28 -65.001s-44.334 -25 -77.001 -25
c-19.333 0 -38 2.5 -56 7.5s-33.833 14.667 -47.5 29s-24.5 34.833 -32.5 61.5s-12 61.667 -12 105v108c0 43.333 3.5 78.333 10.5 105s16.5 47.167 28.5 61.5s25.667 24 41 29s31.333 7.5 48 7.5c26 0 47.167 -5.66699 63.5 -17s29 -27.5 38 -48.5
s15.167 -46.167 18.5 -75.5s5 -62 5 -98v-18h-233v-54zM266.001 273.001c0 32.667 -1.16797 62.5 -3.50098 89.5s-7.16602 50 -14.499 69s-18 33.833 -32 44.5s-32.333 16 -55 16c-14 0 -27.5 -2 -40.5 -6s-24.5 -12.5 -34.5 -25.5s-18 -31.5 -24 -55.5s-9 -56 -9 -96v-36
h213zM58 677.001l16 13l88 -115l88 115l16 -13l-92 -117h-26z" />
    <glyph glyph-name="Gcircumflex" unicode="&#x11c;" horiz-adv-x="340" 
d="M54 193c0 -36.667 3.66797 -66.499 11.001 -89.499s17.166 -40.833 29.499 -53.5s26.833 -21.334 43.5 -26.001s34.334 -7 53.001 -7c12 0 24 2.33301 36 7s22.833 12.167 32.5 22.5s17.5 23.666 23.5 39.999s9 35.833 9 58.5v51c0 34.667 -4 57.667 -12 69
s-19.667 17 -35 17c-13.333 0 -23.833 -4 -31.5 -12s-11.5 -17.667 -11.5 -29h-18c0 14.667 5.33301 28.5 16 41.5s25.667 19.5 45 19.5c20.667 0 37.167 -7.83301 49.5 -23.5s18.166 -43.167 17.499 -82.5l-1 -57c-0.666992 -26 -4.66699 -48 -12 -66
s-16.833 -32.667 -28.5 -44s-24.5 -19.666 -38.5 -24.999s-27.667 -8 -41 -8c-21.333 0 -41.5 2.5 -60.5 7.5s-35.667 14.667 -50 29s-25.833 34.333 -34.5 60s-13 59.167 -13 100.5v95c0 48 4.16699 87 12.5 117s19.5 53.167 33.5 69.5s30.333 27.333 49 33s38 8.5 58 8.5
c36 0 64.167 -8.33301 84.5 -25s30.5 -38.334 30.5 -65.001h-20c0 20.667 -8.33301 37.334 -25 50.001s-40 19 -70 19c-18 0 -35 -2.5 -51 -7.5s-30 -15 -42 -30s-21.5 -36 -28.5 -63s-10.5 -62.5 -10.5 -106.5v-95zM163.001 688.001h26l92 -117l-16 -13l-88 114l-88 -114
l-16 13z" />
    <glyph glyph-name="gcircumflex" unicode="&#x11d;" horiz-adv-x="307" 
d="M264 141c0 -20.667 -1.49902 -39.833 -4.49902 -57.5s-8.5 -33.167 -16.5 -46.5s-19.5 -23.833 -34.5 -31.5s-34.5 -11.5 -58.5 -11.5c-30.667 0 -56.334 9.16699 -77.001 27.5s-31 46.5 -31 84.5c0 29.333 7.5 52.333 22.5 69s34.167 25 57.5 25
c17.333 0 32.666 -5 45.999 -15s20 -24 20 -42c0 -17.333 -6 -31 -18 -41s-24.667 -15 -38 -15v18c9.33301 0 17.666 3.5 24.999 10.5s11 16.167 11 27.5c0 12 -4.5 21.167 -13.5 27.5s-19.833 9.5 -32.5 9.5c-17.333 0 -31.666 -6.5 -42.999 -19.5s-17 -31.167 -17 -54.5
c0 -30.667 8.33301 -53.667 25 -69s37.667 -23 63 -23c22 0 39.167 3.5 51.5 10.5s21.666 16.5 27.999 28.5s10.333 25.667 12 41s2.5 31.333 2.5 48v122c-36.667 0 -68.667 1.5 -96 4.5s-50.166 9 -68.499 18s-32.166 22 -41.499 39s-14 39.5 -14 67.5
c0 33.333 4.83301 60 14.5 80s23.834 35.333 42.501 46s41.667 17.667 69 21s58.666 5 93.999 5h20v-404zM44.001 393.001c0 -24.667 4.16699 -44.167 12.5 -58.5s21 -25.333 38 -33s37.833 -12.5 62.5 -14.5s53.667 -3 87 -3v241c-32 0 -60.5 -1.33301 -85.5 -4
s-46 -8.5 -63 -17.5s-29.833 -22.167 -38.5 -39.5s-13 -41 -13 -71zM147.001 691.001h26l92 -117l-16 -13l-88 114l-88 -114l-16 13z" />
    <glyph glyph-name="Gbreve" unicode="&#x11e;" 
d="M56 196c0 -38 3.66895 -68.667 11.002 -92s17.166 -41.666 29.499 -54.999s26.833 -22.333 43.5 -27s34.334 -7 53.001 -7c12 0 24.333 2.5 37 7.5s24.167 12.833 34.5 23.5s18.666 24.334 24.999 41.001s9.5 37 9.5 61v71c0 57.333 -15.667 86 -47 86
c-14.667 0 -26.334 -4 -35.001 -12s-13 -17.667 -13 -29h-18c0 14.667 5.83301 28.5 17.5 41.5s27.834 19.5 48.501 19.5c21.333 0 38 -9 50 -27s17.667 -44.333 17 -79l-1 -77c0 -26.667 -4 -49.334 -12 -68.001s-18 -34 -30 -46s-25.333 -20.667 -40 -26s-29 -8 -43 -8
c-21.333 0 -41.5 2.66699 -60.5 8s-35.667 15.333 -50 30s-25.833 35.167 -34.5 61.5s-13 60.5 -13 102.5v135c0 49.333 4.16699 89.166 12.5 119.499s19.5 54 33.5 71s30.333 28.333 49 34s38 8.5 58 8.5c37.333 0 66.666 -8.33301 87.999 -25s32 -38.334 32 -65.001h-20
c0 20.667 -8.66699 37.334 -26 50.001s-42 19 -74 19c-18 0 -35 -2.66699 -51 -8s-30 -15.666 -42 -30.999s-21.5 -36.833 -28.5 -64.5s-10.5 -63.834 -10.5 -108.501v-135zM256.002 690c0 -20.667 -6.83301 -38.5 -20.5 -53.5s-30.167 -22.5 -49.5 -22.5s-36 7.5 -50 22.5
s-21 32.833 -21 53.5h20c0 -15.333 5 -28.5 15 -39.5s22 -16.5 36 -16.5s25.833 5.5 35.5 16.5s14.5 24.167 14.5 39.5h20z" />
    <glyph glyph-name="gbreve" unicode="&#x11f;" horiz-adv-x="322" 
d="M276 136c0 -20 -1.49707 -38.498 -4.49707 -55.498s-8.5 -32 -16.5 -45s-19.5 -23.167 -34.5 -30.5s-34.5 -11 -58.5 -11c-33.333 0 -61.333 9.66699 -84 29s-34 48.666 -34 87.999c0 32 8.5 57.333 25.5 76s38.5 28 64.5 28c17.333 0 32.666 -5 45.999 -15
s20 -24 20 -42c0 -17.333 -6 -31 -18 -41s-24.667 -15 -38 -15v18c9.33301 0 17.666 3.5 24.999 10.5s11 16.167 11 27.5c0 12 -4.5 21.167 -13.5 27.5s-19.833 9.5 -32.5 9.5c-20 0 -36.667 -7.5 -50 -22.5s-20 -35.5 -20 -61.5c0 -32 9.16699 -56.167 27.5 -72.5
s41.833 -24.5 70.5 -24.5c22 0 39.167 3.66699 51.5 11s21.666 16.666 27.999 27.999s10.333 24.333 12 39s2.5 29.667 2.5 45v142c-38 0 -71.333 1.66699 -100 5s-52.667 10.333 -72 21s-33.833 26.167 -43.5 46.5s-14.5 47.5 -14.5 81.5c0 36.667 5.33301 65.667 16 87
s26 37.5 46 48.5s44.833 18.167 74.5 21.5s63.5 5 101.5 5h12v-459zM46.0029 433.002c0 -31.333 4.5 -55.833 13.5 -73.5s22.333 -31 40 -40s39.5 -14.667 65.5 -17s56.333 -3.5 91 -3.5v276c-34 0 -64 -1.5 -90 -4.5s-47.833 -9.16699 -65.5 -18.5
s-31.167 -23.5 -40.5 -42.5s-14 -44.5 -14 -76.5zM258.003 688.002c0 -20.667 -6.83301 -38.5 -20.5 -53.5s-30.167 -22.5 -49.5 -22.5s-36 7.5 -50 22.5s-21 32.833 -21 53.5h20c0 -15.333 5 -28.5 15 -39.5s22 -16.5 36 -16.5s25.833 5.5 35.5 16.5s14.5 24.167 14.5 39.5
h20z" />
    <glyph glyph-name="Gdotaccent" unicode="&#x120;" 
d="M56 196c0 -38 3.66895 -68.667 11.002 -92s17.166 -41.666 29.499 -54.999s26.833 -22.333 43.5 -27s34.334 -7 53.001 -7c12 0 24.333 2.5 37 7.5s24.167 12.833 34.5 23.5s18.666 24.334 24.999 41.001s9.5 37 9.5 61v71c0 57.333 -15.667 86 -47 86
c-14.667 0 -26.334 -4 -35.001 -12s-13 -17.667 -13 -29h-18c0 14.667 5.83301 28.5 17.5 41.5s27.834 19.5 48.501 19.5c21.333 0 38 -9 50 -27s17.667 -44.333 17 -79l-1 -77c0 -26.667 -4 -49.334 -12 -68.001s-18 -34 -30 -46s-25.333 -20.667 -40 -26s-29 -8 -43 -8
c-21.333 0 -41.5 2.66699 -60.5 8s-35.667 15.333 -50 30s-25.833 35.167 -34.5 61.5s-13 60.5 -13 102.5v135c0 49.333 4.16699 89.166 12.5 119.499s19.5 54 33.5 71s30.333 28.333 49 34s38 8.5 58 8.5c37.333 0 66.666 -8.33301 87.999 -25s32 -38.334 32 -65.001h-20
c0 20.667 -8.66699 37.334 -26 50.001s-42 19 -74 19c-18 0 -35 -2.66699 -51 -8s-30 -15.666 -42 -30.999s-21.5 -36.833 -28.5 -64.5s-10.5 -63.834 -10.5 -108.501v-135zM144.002 653c0 10 3.66699 18.667 11 26s16 11 26 11s18.667 -3.66699 26 -11s11 -16 11 -26
s-3.66699 -18.667 -11 -26s-16 -11 -26 -11s-18.667 3.66699 -26 11s-11 16 -11 26z" />
    <glyph glyph-name="gdotaccent" unicode="&#x121;" horiz-adv-x="322" 
d="M276 136c0 -20 -1.49707 -38.498 -4.49707 -55.498s-8.5 -32 -16.5 -45s-19.5 -23.167 -34.5 -30.5s-34.5 -11 -58.5 -11c-33.333 0 -61.333 9.66699 -84 29s-34 48.666 -34 87.999c0 32 8.5 57.333 25.5 76s38.5 28 64.5 28c17.333 0 32.666 -5 45.999 -15
s20 -24 20 -42c0 -17.333 -6 -31 -18 -41s-24.667 -15 -38 -15v18c9.33301 0 17.666 3.5 24.999 10.5s11 16.167 11 27.5c0 12 -4.5 21.167 -13.5 27.5s-19.833 9.5 -32.5 9.5c-20 0 -36.667 -7.5 -50 -22.5s-20 -35.5 -20 -61.5c0 -32 9.16699 -56.167 27.5 -72.5
s41.833 -24.5 70.5 -24.5c22 0 39.167 3.66699 51.5 11s21.666 16.666 27.999 27.999s10.333 24.333 12 39s2.5 29.667 2.5 45v142c-38 0 -71.333 1.66699 -100 5s-52.667 10.333 -72 21s-33.833 26.167 -43.5 46.5s-14.5 47.5 -14.5 81.5c0 36.667 5.33301 65.667 16 87
s26 37.5 46 48.5s44.833 18.167 74.5 21.5s63.5 5 101.5 5h12v-459zM46.0029 433.002c0 -31.333 4.5 -55.833 13.5 -73.5s22.333 -31 40 -40s39.5 -14.667 65.5 -17s56.333 -3.5 91 -3.5v276c-34 0 -64 -1.5 -90 -4.5s-47.833 -9.16699 -65.5 -18.5
s-31.167 -23.5 -40.5 -42.5s-14 -44.5 -14 -76.5zM141.003 656.002c0 10 3.66699 18.667 11 26s16 11 26 11s18.667 -3.66699 26 -11s11 -16 11 -26s-3.66699 -18.667 -11 -26s-16 -11 -26 -11s-18.667 3.66699 -26 11s-11 16 -11 26z" />
    <glyph glyph-name="Gcommaaccent" unicode="&#x122;" horiz-adv-x="370" 
d="M57 251c0 -48.667 3.99902 -88.3311 11.999 -118.998s19 -54.667 33 -72s30.167 -29.166 48.5 -35.499s37.833 -9.5 58.5 -9.5c12 0 24.5 3 37.5 9s25 15.5 36 28.5s20 29.833 27 50.5s10.5 45.667 10.5 75v101c0 30 -5 51.833 -15 65.5s-24 20.5 -42 20.5
c-14.667 0 -26.334 -4 -35.001 -12s-13 -17.667 -13 -29h-18c0 14.667 5.83301 28.5 17.5 41.5s27.834 19.5 48.501 19.5c24 0 43 -9 57 -27s20.667 -44.333 20 -79l-1 -107c0 -32.667 -4.16699 -60.334 -12.5 -83.001s-18.666 -41 -30.999 -55
s-26.166 -24.167 -41.499 -30.5s-30.333 -9.5 -45 -9.5c-23.333 0 -45.5 3.33301 -66.5 10s-39.333 19.5 -55 38.5s-28.167 45.167 -37.5 78.5s-14 76.666 -14 129.999v185c0 53.333 4.66699 96.5 14 129.5s21.833 58.667 37.5 77s34 30.666 55 36.999s43.167 9.5 66.5 9.5
c37.333 0 66.666 -8.33301 87.999 -25s32 -38.334 32 -65.001h-20c0 20.667 -8.83301 37.334 -26.5 50.001s-42.167 19 -73.5 19c-20.667 0 -40.167 -3 -58.5 -9s-34.5 -17.333 -48.5 -34s-25 -40.167 -33 -70.5s-12 -69.833 -12 -118.5v-185zM177.999 -61.9971
c0 7.33301 2.5 13.5 7.5 18.5s11.167 7.5 18.5 7.5s13.5 -2.5 18.5 -7.5s7.5 -11.167 7.5 -18.5c0 -17.333 -2.5 -33 -7.5 -47s-10.167 -25.667 -15.5 -35c-6.66699 -11.333 -14 -21.333 -22 -30l-9 11c4.66699 6 9 12.667 13 20c3.33301 6.66699 6.83301 14.5 10.5 23.5
s6.5 19.5 8.5 31.5h-4c-7.33301 0 -13.5 2.5 -18.5 7.5s-7.5 11.167 -7.5 18.5z" />
    <glyph glyph-name="gcommaaccent" unicode="&#x123;" horiz-adv-x="320" 
d="M275 121c0 -17.333 -1.49707 -33.833 -4.49707 -49.5s-8.5 -29.167 -16.5 -40.5s-19.5 -20.333 -34.5 -27s-34.5 -10 -58.5 -10c-34 0 -62.167 9.16699 -84.5 27.5s-33.5 46.5 -33.5 84.5c0 29.333 8.5 52.333 25.5 69s38.5 25 64.5 25c17.333 0 32.666 -5 45.999 -15
s20 -24 20 -42c0 -17.333 -6 -31 -18 -41s-24.667 -15 -38 -15v18c9.33301 0 17.666 3.5 24.999 10.5s11 16.167 11 27.5c0 12 -4.5 21.167 -13.5 27.5s-19.833 9.5 -32.5 9.5c-20 0 -36.667 -6.5 -50 -19.5s-20 -31.167 -20 -54.5c0 -30.667 9.16699 -53.667 27.5 -69
s41.833 -23 70.5 -23c22 0 39.167 3.16699 51.5 9.5s21.666 14.5 27.999 24.5s10.333 21.5 12 34.5s2.5 26.167 2.5 39.5v142c-38 0 -71.333 1.5 -100 4.5s-52.667 9.16699 -72 18.5s-33.833 22.833 -43.5 40.5s-14.5 41.167 -14.5 70.5c0 34.667 5.16699 62.167 15.5 82.5
s25.166 36 44.499 47s43.333 18.333 72 22s61.334 5.5 98.001 5.5h20v-434zM45.0029 398c0 -26 4.5 -46.501 13.5 -61.501s22.333 -26.5 40 -34.5s39.5 -13 65.5 -15s56.333 -3 91 -3v251c-34 0 -64 -1.33301 -90 -4s-47.833 -8.66699 -65.5 -18
s-31.167 -23.166 -40.5 -41.499s-14 -42.833 -14 -73.5zM231.003 608.999c0 -7.33301 -2.50098 -13.501 -7.50098 -18.501s-11.167 -7.5 -18.5 -7.5s-13.5 2.5 -18.5 7.5s-7.5 11.167 -7.5 18.5c0 17.333 2.33301 33 7 47s9.66699 25.667 15 35
c6.66699 11.333 14.334 21.333 23.001 30l9 -11c-4.66699 -6 -9 -12.667 -13 -20c-3.33301 -6.66699 -7 -14.667 -11 -24s-6.66699 -19.666 -8 -30.999h4c7.33301 0 13.5 -2.5 18.5 -7.5s7.5 -11.167 7.5 -18.5z" />
    <glyph glyph-name="Hcircumflex" unicode="&#x124;" horiz-adv-x="357" 
d="M308 689v-689h-21v297h-217v-297h-21v689h21v-373h217v373h21zM164 902h26l92 -117l-16 -13l-88 114l-88 -114l-16 13z" />
    <glyph glyph-name="hcircumflex" unicode="&#x125;" horiz-adv-x="326" 
d="M297 0l-20.001 -0.000976562v209c0 12.667 -0.333008 27.167 -1 43.5s-3.33398 31.833 -8.00098 46.5s-12.167 26.834 -22.5 36.501s-25.166 14.5 -44.499 14.5c-15.333 0 -30 -2.33301 -44 -7s-27 -10 -39 -16s-22.333 -12.167 -31 -18.5s-15.334 -11.5 -20.001 -15.5
v-293h-20v550h20v-236c4.66699 4 11.334 9.16699 20.001 15.5s18.834 12.5 30.501 18.5s24.834 11.167 39.501 15.5s30.334 6.5 47.001 6.5c22 0 39.167 -5.16699 51.5 -15.5s21.666 -23.333 27.999 -39s10.166 -33 11.499 -52s2 -36.833 2 -53.5v-210zM179.999 689.999h26
l92 -117l-16 -13l-88 114l-88 -114l-16 13z" />
    <glyph glyph-name="Hbar" unicode="&#x126;" horiz-adv-x="363" 
d="M311 689v-202h32v-20h-32v-467h-21v297h-217v-297h-21v467h-33v20h33v202h21v-202h217v202h21zM290 316v151h-217v-151h217z" />
    <glyph glyph-name="hbar" unicode="&#x127;" horiz-adv-x="349" 
d="M267 540l-193.999 -0.000976562v-87c4.66699 4 11.5 9.33301 20.5 16s19.5 13 31.5 19s25.667 11.167 41 15.5s31.666 6.5 48.999 6.5c23.333 0 41.5 -5.16699 54.5 -15.5s22.833 -23.333 29.5 -39s10.667 -33 12 -52s2 -36.833 2 -53.5v-350h-20v349
c0 12.667 -0.333008 27.167 -1 43.5s-3.5 31.833 -8.5 46.5s-13 26.834 -24 36.501s-26.833 14.5 -47.5 14.5c-16 0 -31.333 -2.33301 -46 -7s-28.167 -10 -40.5 -16s-23 -12.167 -32 -18.5s-15.833 -11.5 -20.5 -15.5v-433h-20v540h-30v20h30v130h20v-130h194v-20z" />
    <glyph glyph-name="Itilde" unicode="&#x128;" horiz-adv-x="117" 
d="M69 599v-599h-21v599h21zM-63 659c4 7.33301 9.33594 13.999 16.0029 19.999c5.33301 5.33301 12.166 10 20.499 14s18.166 6 29.499 6c12 0 23 -1.83301 33 -5.5s19.5 -7.66699 28.5 -12s18 -8.33301 27 -12s18.5 -5.5 28.5 -5.5c8 0 14.5 1.66699 19.5 5
s9.16699 7.33301 12.5 12c3.33301 5.33301 6 11.333 8 18l19 -6c-2.66699 -9.33301 -6.33398 -17.666 -11.001 -24.999c-4.66699 -6 -10.667 -11.5 -18 -16.5s-17.333 -7.5 -30 -7.5c-11.333 0 -22 1.83301 -32 5.5s-19.667 7.66699 -29 12s-18.5 8.33301 -27.5 12
s-18.5 5.5 -28.5 5.5c-8.66699 0 -16 -1.83301 -22 -5.5s-11.333 -7.5 -16 -11.5c-5.33301 -5.33301 -10 -11 -14 -17z" />
    <glyph glyph-name="itilde" unicode="&#x129;" horiz-adv-x="159" 
d="M89 597v-597h-21v597h21zM-42 649c4 7.33301 9.33496 13.999 16.002 19.999c5.33301 5.33301 12 10 20 14s17.667 6 29 6c12 0 23.167 -1.83301 33.5 -5.5s20 -7.66699 29 -12s18 -8.33301 27 -12s18.5 -5.5 28.5 -5.5c7.33301 0 13.666 1.66699 18.999 5
s9.66602 7.33301 12.999 12c3.33301 5.33301 6 11.333 8 18l19 -6c-2 -9.33301 -5.66699 -17.666 -11 -24.999c-4.66699 -6 -10.834 -11.5 -18.501 -16.5s-17.5 -7.5 -29.5 -7.5c-11.333 0 -22 1.83301 -32 5.5s-19.833 7.66699 -29.5 12l-28 12
c-9 3.66699 -18.5 5.5 -28.5 5.5c-8 0 -15.167 -1.83301 -21.5 -5.5s-11.833 -7.5 -16.5 -11.5c-5.33301 -5.33301 -9.66602 -11 -12.999 -17z" />
    <glyph glyph-name="Imacron" unicode="&#x12a;" horiz-adv-x="117" 
d="M69 597v-597h-21v597h21zM181 670h-244v20h244v-20z" />
    <glyph glyph-name="imacron" unicode="&#x12b;" horiz-adv-x="117" 
d="M69 597v-597h-21v597h21zM181 670h-244v20h244v-20z" />
    <glyph glyph-name="Ibreve" unicode="&#x12c;" horiz-adv-x="111" 
d="M66 508v-508h-21v508h21zM126 686c0 -20.667 -6.83301 -38.5 -20.5 -53.5s-30.167 -22.5 -49.5 -22.5s-36 7.5 -50 22.5s-21 32.833 -21 53.5h20c0 -15.333 5 -28.5 15 -39.5s22 -16.5 36 -16.5s25.833 5.5 35.5 16.5s14.5 24.167 14.5 39.5h20z" />
    <glyph glyph-name="ibreve" unicode="&#x12d;" horiz-adv-x="179" 
d="M152 689c0 -20.667 -6.83301 -38.5 -20.5 -53.5s-30.167 -22.5 -49.5 -22.5s-36 7.5 -50 22.5s-21 32.833 -21 53.5h20c0 -15.333 5 -28.5 15 -39.5s22 -16.5 36 -16.5s25.833 5.5 35.5 16.5s14.5 24.167 14.5 39.5h20zM72 564h20v-454c0 -34 5 -57.833 15 -71.5
s28 -20.5 54 -20.5v-18c-33.333 -0 -56.5 7.83301 -69.5 23.5s-19.5 44.5 -19.5 86.5v454z" />
    <glyph glyph-name="Iogonek" unicode="&#x12e;" horiz-adv-x="120" 
d="M71 689l0.000976562 -689.001h-1c-0.666992 0 -4.33398 -1.33301 -11.001 -4s-13.667 -7 -21 -13s-14.166 -13.5 -20.499 -22.5s-9.5 -20.167 -9.5 -33.5c0 -19.333 8.16699 -34.666 24.5 -45.999s39.833 -17 70.5 -17v-20c-36.667 0 -65 7.5 -85 22.5
s-30 35.167 -30 60.5c0 12.667 2.16699 23.667 6.5 33s9.66602 17.5 15.999 24.5s13 12.667 20 17s13.5 7.83301 19.5 10.5v677h21z" />
    <glyph glyph-name="iogonek" unicode="&#x12f;" horiz-adv-x="160" 
d="M58 564l20 -0.000976562v-454c0 -34 5 -57.833 15 -71.5s28 -20.5 54 -20.5v-18h-1c-0.666992 0 -4.33398 -1.33301 -11.001 -4s-13.667 -7 -21 -13s-14.166 -13.5 -20.499 -22.5s-9.5 -20.167 -9.5 -33.5c0 -19.333 8.16699 -34.666 24.5 -45.999s39.833 -17 70.5 -17
v-20c-36.667 0 -65 7.5 -85 22.5s-30 35.167 -30 60.5c0 20 5 36.167 15 48.5s20.333 21.833 31 28.5c-19.333 5.33301 -32.833 16 -40.5 32s-11.5 40.667 -11.5 74v454zM48 669.999c0 5.33301 2 10 6 14s8.66699 6 14 6s10 -2 14 -6s6 -8.66699 6 -14s-2 -10 -6 -14
s-8.66699 -6 -14 -6s-10 2 -14 6s-6 8.66699 -6 14z" />
    <glyph glyph-name="Idotaccent" unicode="&#x130;" horiz-adv-x="113" 
d="M67 557v-557h-21v557h21zM20 653c0 10 3.66699 18.667 11 26s16 11 26 11s18.667 -3.66699 26 -11s11 -16 11 -26s-3.66699 -18.667 -11 -26s-16 -11 -26 -11s-18.667 3.66699 -26 11s-11 16 -11 26z" />
    <glyph glyph-name="dotlessi" unicode="&#x131;" horiz-adv-x="160" 
d="M58 564h20v-454c0 -34 5 -57.833 15 -71.5s28 -20.5 54 -20.5v-18c-33.333 -0 -56.5 7.83301 -69.5 23.5s-19.5 44.5 -19.5 86.5v454z" />
    <glyph glyph-name="IJ" unicode="&#x132;" horiz-adv-x="442" 
d="M70 689v-689h-21v689h21zM108 147c0 48 11.0029 85.8311 33.0029 113.498s51 41.5 87 41.5c25.333 0 46.833 -6.83301 64.5 -20.5s26.5 -32.5 26.5 -56.5c0 -20.667 -6.5 -36.834 -19.5 -48.501s-26.833 -17.5 -41.5 -17.5v18c11.333 0 21 4.33301 29 13
s12 20.334 12 35.001c0 18 -6.83301 32 -20.5 42s-30.5 15 -50.5 15c-28.667 0 -52.334 -11.5 -71.001 -34.5s-28 -54.5 -28 -94.5c0 -25.333 3.83301 -46.666 11.5 -63.999s17.167 -31.5 28.5 -42.5s24 -19 38 -24s27.667 -7.5 41 -7.5c16.667 0 32.667 3.16699 48 9.5
s28.833 18.166 40.5 35.499s21 41.333 28 72s10.5 70.334 10.5 119.001v438h21v-438c0 -53.333 -4 -96.666 -12 -129.999s-18.833 -59.5 -32.5 -78.5s-29.5 -31.833 -47.5 -38.5s-36.667 -10 -56 -10c-15.333 0 -31.333 2.83301 -48 8.5s-31.834 14.5 -45.501 26.5
s-24.834 27.667 -33.501 47s-13 43 -13 71z" />
    <glyph glyph-name="ij" unicode="&#x133;" horiz-adv-x="447" 
d="M57 564h20v-454c0 -34 5 -57.833 15 -71.5s28 -20.5 54 -20.5v-18c-33.333 -0 -56.5 7.83301 -69.5 23.5s-19.5 44.5 -19.5 86.5v454zM47 670c0 5.33301 2 10 6 14s8.66699 6 14 6s10 -2 14 -6s6 -8.66699 6 -14s-2 -10 -6 -14s-8.66699 -6 -14 -6s-10 2 -14 6
s-6 8.66699 -6 14zM408 669c0 -5.33301 -2 -10 -6 -14s-8.66699 -6 -14 -6s-10 2 -14 6s-6 8.66699 -6 14s2 10 6 14s8.66699 6 14 6s10 -2 14 -6s6 -8.66699 6 -14zM400 161c0 -23.333 -1.49707 -45.166 -4.49707 -65.499s-8.5 -38 -16.5 -53s-19.5 -26.833 -34.5 -35.5
s-34.5 -13 -58.5 -13c-34 0 -62.167 11 -84.5 33s-33.5 55 -33.5 99c0 35.333 8.5 63.166 25.5 83.499s38.5 30.5 64.5 30.5c17.333 0 32.666 -5 45.999 -15s20 -24 20 -42c0 -17.333 -6 -31 -18 -41s-24.667 -15 -38 -15v18c9.33301 0 17.666 3.5 24.999 10.5
s11 16.167 11 27.5c0 12 -4.5 21.167 -13.5 27.5s-19.833 9.5 -32.5 9.5c-20 0 -36.667 -8.33301 -50 -25s-20 -39.667 -20 -69c0 -36.667 9.16699 -64.5 27.5 -83.5s41.833 -28.5 70.5 -28.5c22 0 39.167 4.5 51.5 13.5s21.666 20.5 27.999 34.5s10.333 29.833 12 47.5
s2.5 35.167 2.5 52.5v401h20v-402z" />
    <glyph glyph-name="Jcircumflex" unicode="&#x134;" horiz-adv-x="345" 
d="M18 147c0 48 11.0029 85.8311 33.0029 113.498s51 41.5 87 41.5c25.333 0 46.833 -6.83301 64.5 -20.5s26.5 -32.5 26.5 -56.5c0 -20.667 -6.5 -36.834 -19.5 -48.501s-26.833 -17.5 -41.5 -17.5v18c11.333 0 21 4.33301 29 13s12 20.334 12 35.001
c0 18 -6.83301 32 -20.5 42s-30.5 15 -50.5 15c-28.667 0 -52.334 -11.5 -71.001 -34.5s-28 -54.5 -28 -94.5c0 -25.333 3.83301 -46.666 11.5 -63.999s17.167 -31.5 28.5 -42.5s24 -19 38 -24s27.667 -7.5 41 -7.5c16.667 0 32.667 3.16699 48 9.5
s28.833 18.166 40.5 35.499s21 41.333 28 72s10.5 70.334 10.5 119.001v262h21v-262c0 -53.333 -4 -96.666 -12 -129.999s-18.833 -59.5 -32.5 -78.5s-29.5 -31.833 -47.5 -38.5s-36.667 -10 -56 -10c-15.333 0 -31.333 2.83301 -48 8.5s-31.834 14.5 -45.501 26.5
s-24.834 27.667 -33.501 47s-13 43 -13 71zM280.003 689.998h26l92 -117l-16 -13l-88 114l-88 -114l-16 13z" />
    <glyph glyph-name="jcircumflex" unicode="&#x135;" horiz-adv-x="290" 
d="M249 161c0 -23.333 -1.49707 -45.166 -4.49707 -65.499s-8.5 -38 -16.5 -53s-19.5 -26.833 -34.5 -35.5s-34.5 -13 -58.5 -13c-34 0 -62.167 11 -84.5 33s-33.5 55 -33.5 99c0 35.333 8.5 63.166 25.5 83.499s38.5 30.5 64.5 30.5c17.333 0 32.666 -5 45.999 -15
s20 -24 20 -42c0 -17.333 -6 -31 -18 -41s-24.667 -15 -38 -15v18c9.33301 0 17.666 3.5 24.999 10.5s11 16.167 11 27.5c0 12 -4.5 21.167 -13.5 27.5s-19.833 9.5 -32.5 9.5c-20 0 -36.667 -8.33301 -50 -25s-20 -39.667 -20 -69c0 -36.667 9.16699 -64.5 27.5 -83.5
s41.833 -28.5 70.5 -28.5c22 0 39.167 4.5 51.5 13.5s21.666 20.5 27.999 34.5s10.333 29.833 12 47.5s2.5 35.167 2.5 52.5l-4 347h20zM222.003 689h26l92 -117l-16 -13l-88 114l-88 -114l-16 13z" />
    <glyph glyph-name="Kcommaaccent" unicode="&#x136;" horiz-adv-x="342" 
d="M70 689v-367l238 366h24l-164 -254l166 -434h-22l-159 412l-83 -128v-284h-21v689h21zM127 -62c0 7.33301 2.5 13.5 7.5 18.5s11.167 7.5 18.5 7.5s13.5 -2.5 18.5 -7.5s7.5 -11.167 7.5 -18.5c0 -17.333 -2.5 -33 -7.5 -47s-10.167 -25.667 -15.5 -35
c-6.66699 -11.333 -14 -21.333 -22 -30l-9 11c4.66699 6 9 12.667 13 20c3.33301 6.66699 6.83301 14.5 10.5 23.5s6.5 19.5 8.5 31.5h-4c-7.33301 0 -13.5 2.5 -18.5 7.5s-7.5 11.167 -7.5 18.5z" />
    <glyph glyph-name="kcommaaccent" unicode="&#x137;" horiz-adv-x="340" 
d="M289 694c0 -50.667 -2.1709 -94.834 -6.50391 -132.501s-10.666 -69.667 -18.999 -96s-18.833 -48 -31.5 -65s-27.334 -30.5 -44.001 -40.5c15.333 -4 27.833 -11.5 37.5 -22.5s17.334 -24.5 23.001 -40.5s9.66699 -34.333 12 -55s3.5 -42.334 3.5 -65.001
c0 -19.333 0.833008 -38.666 2.5 -57.999s5 -36.5 10 -51.5s12.5 -27.167 22.5 -36.5s23 -14 39 -14v-17c-21.333 0 -38.166 5.16699 -50.499 15.5s-21.666 23.833 -27.999 40.5s-10.5 35.5 -12.5 56.5s-3 42.167 -3 63.5c0 23.333 -1.33301 45.333 -4 66
s-7.16699 38.834 -13.5 54.501s-14.833 28.167 -25.5 37.5s-24 14 -40 14c-26 -8.66699 -56.667 -13 -92 -13v-329h-20v690h20v-341c32.667 0 61.5 4.16699 86.5 12.5s45.833 24.833 62.5 49.5s29.334 59 38.001 103s13 102 13 174h20zM126.996 -62
c0 7.33301 2.5 13.5 7.5 18.5s11.167 7.5 18.5 7.5s13.5 -2.5 18.5 -7.5s7.5 -11.167 7.5 -18.5c0 -17.333 -2.5 -33 -7.5 -47s-10.167 -25.667 -15.5 -35c-6.66699 -11.333 -14 -21.333 -22 -30l-9 11c4.66699 6 9 12.667 13 20c3.33301 6.66699 6.83301 14.5 10.5 23.5
s6.5 19.5 8.5 31.5h-4c-7.33301 0 -13.5 2.5 -18.5 7.5s-7.5 11.167 -7.5 18.5z" />
    <glyph glyph-name="kgreenlandic" unicode="&#x138;" horiz-adv-x="340" 
d="M289 694c0 -50.667 -2.1709 -94.834 -6.50391 -132.501s-10.666 -69.667 -18.999 -96s-18.833 -48 -31.5 -65s-27.334 -30.5 -44.001 -40.5c15.333 -4 27.833 -11.5 37.5 -22.5s17.334 -24.5 23.001 -40.5s9.66699 -34.333 12 -55s3.5 -42.334 3.5 -65.001
c0 -19.333 0.833008 -38.666 2.5 -57.999s5 -36.5 10 -51.5s12.5 -27.167 22.5 -36.5s23 -14 39 -14v-17c-21.333 0 -38.166 5.16699 -50.499 15.5s-21.666 23.833 -27.999 40.5s-10.5 35.5 -12.5 56.5s-3 42.167 -3 63.5c0 23.333 -1.33301 45.333 -4 66
s-7.16699 38.834 -13.5 54.501s-14.833 28.167 -25.5 37.5s-24 14 -40 14c-26 -8.66699 -56.667 -13 -92 -13v-329h-20v690h20v-341c32.667 0 61.5 4.16699 86.5 12.5s45.833 24.833 62.5 49.5s29.334 59 38.001 103s13 102 13 174h20z" />
    <glyph glyph-name="Lacute" unicode="&#x139;" horiz-adv-x="254" 
d="M66 508v-488h167v-20h-188v508h21zM147 691l16 -12l-104 -136l-16 13z" />
    <glyph glyph-name="lacute" unicode="&#x13a;" horiz-adv-x="149" 
d="M64 110c0 -34 5 -57.833 15 -71.5s28 -20.5 54 -20.5v-18c-33.333 -0 -56.5 7.83301 -69.5 23.5s-19.5 44.5 -19.5 86.5v398h20v-398zM151 690l16 -12l-104 -136l-16 13z" />
    <glyph glyph-name="Lcommaaccent" unicode="&#x13b;" horiz-adv-x="254" 
d="M70 689v-669h167v-20h-188v689h21zM112 -62c0 7.33301 2.5 13.5 7.5 18.5s11.167 7.5 18.5 7.5s13.5 -2.5 18.5 -7.5s7.5 -11.167 7.5 -18.5c0 -17.333 -2.5 -33 -7.5 -47s-10.167 -25.667 -15.5 -35c-6.66699 -11.333 -14 -21.333 -22 -30l-9 11
c4.66699 6 9 12.667 13 20c3.33301 6.66699 6.83301 14.5 10.5 23.5s6.5 19.5 8.5 31.5h-4c-7.33301 0 -13.5 2.5 -18.5 7.5s-7.5 11.167 -7.5 18.5z" />
    <glyph glyph-name="lcommaaccent" unicode="&#x13c;" horiz-adv-x="146" 
d="M76 110c0 -34 5 -57.833 15 -71.5s28 -20.5 54 -20.5v-18c-33.333 -0 -56.5 7.83301 -69.5 23.5s-19.5 44.5 -19.5 86.5v579h20v-579zM98 -62c0 7.33301 2.5 13.5 7.5 18.5s11.167 7.5 18.5 7.5s13.5 -2.5 18.5 -7.5s7.5 -11.167 7.5 -18.5c0 -17.333 -2.5 -33 -7.5 -47
s-10.167 -25.667 -15.5 -35c-6.66699 -11.333 -14 -21.333 -22 -30l-9 11c4.66699 6 9 12.667 13 20c3.33301 6.66699 6.83301 14.5 10.5 23.5s6.5 19.5 8.5 31.5h-4c-7.33301 0 -13.5 2.5 -18.5 7.5s-7.5 11.167 -7.5 18.5z" />
    <glyph glyph-name="Lcaron" unicode="&#x13d;" horiz-adv-x="257" 
d="M70 689v-669h167v-20h-188v689h21zM117 661c0 7.33301 2.5 13.5 7.5 18.5s11.167 7.5 18.5 7.5s13.5 -2.5 18.5 -7.5s7.5 -11.167 7.5 -18.5c0 -17.333 -2.5 -33 -7.5 -47s-10.167 -25.667 -15.5 -35c-6.66699 -11.333 -14 -21.333 -22 -30l-9 11
c4.66699 6 9 12.667 13 20c3.33301 6.66699 6.83301 14.5 10.5 23.5s6.5 19.5 8.5 31.5h-4c-7.33301 0 -13.5 2.5 -18.5 7.5s-7.5 11.167 -7.5 18.5z" />
    <glyph glyph-name="lcaron" unicode="&#x13e;" horiz-adv-x="239" 
d="M76 110c0 -34 5 -57.833 15 -71.5s28 -20.5 54 -20.5v-18c-33.333 -0 -56.5 7.83301 -69.5 23.5s-19.5 44.5 -19.5 86.5v579h20v-579zM188 661c0 7.33301 2.5 13.5 7.5 18.5s11.167 7.5 18.5 7.5s13.5 -2.5 18.5 -7.5s7.5 -11.167 7.5 -18.5c0 -17.333 -2.5 -33 -7.5 -47
s-10.167 -25.667 -15.5 -35c-6.66699 -11.333 -14 -21.333 -22 -30l-9 11c4.66699 6 9 12.667 13 20c3.33301 6.66699 6.83301 14.5 10.5 23.5s6.5 19.5 8.5 31.5h-4c-7.33301 0 -13.5 2.5 -18.5 7.5s-7.5 11.167 -7.5 18.5z" />
    <glyph glyph-name="Ldot" unicode="&#x13f;" horiz-adv-x="264" 
d="M70 689v-669h167v-20h-188v689h21zM124 352c0 14 5.16699 26.167 15.5 36.5s22.5 15.5 36.5 15.5s26.167 -5.16699 36.5 -15.5s15.5 -22.5 15.5 -36.5s-5.16699 -26.167 -15.5 -36.5s-22.5 -15.5 -36.5 -15.5s-26.167 5.16699 -36.5 15.5s-15.5 22.5 -15.5 36.5z" />
    <glyph glyph-name="ldot" unicode="&#x140;" horiz-adv-x="281" 
d="M76 110c0 -34 5 -57.833 15 -71.5s28 -20.5 54 -20.5v-18c-33.333 -0 -56.5 7.83301 -69.5 23.5s-19.5 44.5 -19.5 86.5v579h20v-579zM174 352c0 14 5.16699 26.167 15.5 36.5s22.5 15.5 36.5 15.5s26.167 -5.16699 36.5 -15.5s15.5 -22.5 15.5 -36.5
s-5.16699 -26.167 -15.5 -36.5s-22.5 -15.5 -36.5 -15.5s-26.167 5.16699 -36.5 15.5s-15.5 22.5 -15.5 36.5z" />
    <glyph glyph-name="Lslash" unicode="&#x141;" horiz-adv-x="276" 
d="M92 689v-335l114 100l12 -15l-126 -111v-308h167v-20h-188v310l-71 -62l-12 15l83 72v354h21z" />
    <glyph glyph-name="lslash" unicode="&#x142;" horiz-adv-x="226" 
d="M100 354l114 100l12 -15l-126 -111v-218c0 -34 5 -57.833 15 -71.5s28 -20.5 54 -20.5v-18c-33.333 -0 -56.5 7.83301 -69.5 23.5s-19.5 44.5 -19.5 86.5v201l-72 -63l-12 15l84 73v353h20v-335z" />
    <glyph glyph-name="Nacute" unicode="&#x143;" horiz-adv-x="359" 
d="M314 510v-510h-21l-227 462v-462h-21v510h21l227 -463v463h21zM286 691l16 -12l-104 -136l-16 13z" />
    <glyph glyph-name="nacute" unicode="&#x144;" 
d="M305 0l-19.999 -0.000976562v350c0 12.667 -0.333008 27.167 -1 43.5s-3.5 31.833 -8.5 46.5s-13 26.834 -24 36.501s-26.833 14.5 -47.5 14.5c-16 0 -31.333 -2.33301 -46 -7s-28.167 -10 -40.5 -16s-23 -12.167 -32 -18.5s-15.833 -11.5 -20.5 -15.5v-434h-20v511h20
v-57c4.66699 4 11.5 9.33301 20.5 16s19.5 13 31.5 19s25.667 11.167 41 15.5s31.666 6.5 48.999 6.5c23.333 0 41.5 -5.16699 54.5 -15.5s22.833 -23.333 29.5 -39s10.667 -33 12 -52s2 -36.833 2 -53.5v-351zM260.001 689.999l16 -12l-104 -136l-16 13z" />
    <glyph glyph-name="Ncommaaccent" unicode="&#x145;" horiz-adv-x="367" 
d="M318 689v-689h-21l-227 627v-627h-21v689h21l227 -629v629h21zM159 -62c0 7.33301 2.5 13.5 7.5 18.5s11.167 7.5 18.5 7.5s13.5 -2.5 18.5 -7.5s7.5 -11.167 7.5 -18.5c0 -17.333 -2.5 -33 -7.5 -47s-10.167 -25.667 -15.5 -35c-6.66699 -11.333 -14 -21.333 -22 -30
l-9 11c4.66699 6 9 12.667 13 20c3.33301 6.66699 6.83301 14.5 10.5 23.5s6.5 19.5 8.5 31.5h-4c-7.33301 0 -13.5 2.5 -18.5 7.5s-7.5 11.167 -7.5 18.5z" />
    <glyph glyph-name="ncommaaccent" unicode="&#x146;" horiz-adv-x="356" 
d="M309 0l-19.999 -0.000976562v529c0 12.667 -0.333008 27.167 -1 43.5s-3.5 31.833 -8.5 46.5s-13 26.834 -24 36.501s-26.833 14.5 -47.5 14.5c-16 0 -31.333 -2.33301 -46 -7s-28.167 -10 -40.5 -16s-23 -12.167 -32 -18.5s-15.833 -11.5 -20.5 -15.5v-613h-20v690h20
v-57c4.66699 4 11.5 9.33301 20.5 16s19.5 13 31.5 19s25.667 11.167 41 15.5s31.666 6.5 48.999 6.5c23.333 0 41.5 -5.16699 54.5 -15.5s22.833 -23.333 29.5 -39s10.667 -33 12 -52s2 -36.833 2 -53.5v-530zM152.001 -62.001c0 7.33301 2.5 13.5 7.5 18.5
s11.167 7.5 18.5 7.5s13.5 -2.5 18.5 -7.5s7.5 -11.167 7.5 -18.5c0 -17.333 -2.5 -33 -7.5 -47s-10.167 -25.667 -15.5 -35c-6.66699 -11.333 -14 -21.333 -22 -30l-9 11c4.66699 6 9 12.667 13 20c3.33301 6.66699 6.83301 14.5 10.5 23.5s6.5 19.5 8.5 31.5h-4
c-7.33301 0 -13.5 2.5 -18.5 7.5s-7.5 11.167 -7.5 18.5z" />
    <glyph glyph-name="Ncaron" unicode="&#x147;" horiz-adv-x="359" 
d="M314 510v-510h-21l-227 462v-462h-21v510h21l227 -463v463h21zM90 678l16 13l88 -115l88 115l16 -13l-92 -117h-26z" />
    <glyph glyph-name="ncaron" unicode="&#x148;" 
d="M305 351l0.000976562 -351.001h-20v350c0 12.667 -0.333008 27.167 -1 43.5s-3.5 31.833 -8.5 46.5s-13 26.834 -24 36.501s-26.833 14.5 -47.5 14.5c-16 0 -31.333 -2.33301 -46 -7s-28.167 -10 -40.5 -16s-23 -12.167 -32 -18.5s-15.833 -11.5 -20.5 -15.5v-434h-20
v511h20v-57c4.66699 4 11.5 9.33301 20.5 16s19.5 13 31.5 19s25.667 11.167 41 15.5s31.666 6.5 48.999 6.5c23.333 0 41.5 -5.16699 54.5 -15.5s22.833 -23.333 29.5 -39s10.667 -33 12 -52s2 -36.833 2 -53.5zM72.001 675.999l16 13l88 -115l88 115l16 -13l-92 -117h-26z
" />
    <glyph glyph-name="napostrophe" unicode="&#x149;" horiz-adv-x="405" 
d="M358 0l-19.999 -0.000976562v529c0 12.667 -0.333008 27.167 -1 43.5s-3.5 31.833 -8.5 46.5s-13 26.834 -24 36.501s-26.833 14.5 -47.5 14.5c-16 0 -31.333 -2.33301 -46 -7s-28.167 -10 -40.5 -16s-23 -12.167 -32 -18.5s-15.833 -11.5 -20.5 -15.5v-613h-20v690h20
v-57c4.66699 4 11.5 9.33301 20.5 16s19.5 13 31.5 19s25.667 11.167 41 15.5s31.666 6.5 48.999 6.5c23.333 0 41.5 -5.16699 54.5 -15.5s22.833 -23.333 29.5 -39s10.667 -33 12 -52s2 -36.833 2 -53.5v-530zM6.00098 658.999c0 7.33301 2.5 13.5 7.5 18.5
s11.167 7.5 18.5 7.5s13.5 -2.5 18.5 -7.5s7.5 -11.167 7.5 -18.5c0 -17.333 -2.5 -33 -7.5 -47s-10.167 -25.667 -15.5 -35c-6.66699 -11.333 -14 -21.333 -22 -30l-9 11c4.66699 6 9 12.667 13 20c3.33301 6.66699 6.83301 14.5 10.5 23.5s6.5 19.5 8.5 31.5h-4
c-7.33301 0 -13.5 2.5 -18.5 7.5s-7.5 11.167 -7.5 18.5z" />
    <glyph glyph-name="Eng" unicode="&#x14a;" horiz-adv-x="367" 
d="M318 689l-0.00195312 -764.999c0 -50 -4 -90.833 -12 -122.5s-18.833 -56.334 -32.5 -74.001s-29.5 -29.667 -47.5 -36s-36.667 -9.5 -56 -9.5c-14.667 0 -29.667 2.5 -45 7.5s-29.333 13 -42 24s-23 25.333 -31 43s-12 38.834 -12 63.501c0 48 10.167 85.833 30.5 113.5
s46.833 41.5 79.5 41.5c25.333 0 46.833 -6.83301 64.5 -20.5s26.5 -32.5 26.5 -56.5c0 -20.667 -6.5 -36.834 -19.5 -48.501s-26.833 -17.5 -41.5 -17.5v18c11.333 0 21 4.33301 29 13s12 20.334 12 35.001c0 18 -6.83301 32 -20.5 42s-30.5 15 -50.5 15
c-25.333 0 -46.166 -11.5 -62.499 -34.5s-25.166 -54.5 -26.499 -94.5c-0.666992 -23.333 2.5 -42.833 9.5 -58.5s15.833 -28.334 26.5 -38.001s22.5 -16.5 35.5 -20.5s25.5 -6 37.5 -6c16.667 0 32.667 3 48 9s28.833 17 40.5 33s21 38.333 28 67s10.5 66 10.5 112v76
l-227 627v-627h-21v689h21l227 -629v629h21z" />
    <glyph glyph-name="eng" unicode="&#x14b;" horiz-adv-x="356" 
d="M309 -83c0 -23.333 -1.49609 -45.167 -4.49609 -65.5s-8.5 -38 -16.5 -53s-19.5 -26.833 -34.5 -35.5s-34.5 -13 -58.5 -13c-34 0 -62.167 11 -84.5 33s-33.5 55 -33.5 99c0 35.333 8.5 63.166 25.5 83.499s38.5 30.5 64.5 30.5c17.333 0 32.666 -5 45.999 -15
s20 -24 20 -42c0 -17.333 -6 -31 -18 -41s-24.667 -15 -38 -15v18c9.33301 0 17.666 3.5 24.999 10.5s11 16.167 11 27.5c0 12 -4.5 21.167 -13.5 27.5s-19.833 9.5 -32.5 9.5c-20 0 -36.667 -8.33301 -50 -25s-20 -39.667 -20 -69c0 -36.667 9.16699 -64.5 27.5 -83.5
s41.833 -28.5 70.5 -28.5c22 0 39.167 4.5 51.5 13.5s21.666 20.5 27.999 34.5s10.333 29.833 12 47.5s2.5 35.167 2.5 52.5v611c0 12.667 -0.333008 27.167 -1 43.5s-3.5 31.833 -8.5 46.5s-13 26.834 -24 36.501s-26.833 14.5 -47.5 14.5c-16 0 -31.333 -2.33301 -46 -7
s-28.167 -10 -40.5 -16s-23 -12.167 -32 -18.5s-15.833 -11.5 -20.5 -15.5v-613h-20v690h20v-57c4.66699 4 11.5 9.33301 20.5 16s19.5 13 31.5 19s25.667 11.167 41 15.5s31.666 6.5 48.999 6.5c23.333 0 41.5 -5.16699 54.5 -15.5s22.833 -23.333 29.5 -39
s10.667 -33 12 -52s2 -36.833 2 -53.5v-613z" />
    <glyph glyph-name="Omacron" unicode="&#x14c;" horiz-adv-x="388" 
d="M36 373c0 48 4.33301 87 13 117s20.167 53.167 34.5 69.5s31 27.333 50 33s39.167 8.5 60.5 8.5c20.667 0 40.667 -2.83301 60 -8.5s36.166 -16.667 50.499 -33s25.833 -39.5 34.5 -69.5s13 -69 13 -117v-147c0 -48 -4.33301 -87.167 -13 -117.5s-20.167 -54 -34.5 -71
s-31.166 -28.5 -50.499 -34.5s-39.333 -9 -60 -9c-21.333 0 -41.5 3 -60.5 9s-35.667 17.5 -50 34.5s-25.833 40.667 -34.5 71s-13 69.5 -13 117.5v147zM331 373c0 44 -3.66699 79.5 -11 106.5s-17.333 48 -30 63s-27.334 25 -44.001 30s-34 7.5 -52 7.5
s-35.333 -2.5 -52 -7.5s-31.334 -15 -44.001 -30s-22.667 -36 -30 -63s-11 -62.5 -11 -106.5v-147c0 -44 3.66699 -79.667 11 -107s17.333 -48.666 30 -63.999s27.334 -25.833 44.001 -31.5s34 -8.5 52 -8.5s35.333 2.83301 52 8.5s31.334 16.167 44.001 31.5
s22.667 36.666 30 63.999s11 63 11 107v147zM317 669h-244v20h244v-20z" />
    <glyph glyph-name="omacron" unicode="&#x14d;" horiz-adv-x="423" 
d="M38 359c0 50 3.99805 90.6641 11.998 121.997s18.833 55.5 32.5 72.5s29.5 28.5 47.5 34.5s36.667 9 56 9s37.833 -3.16699 55.5 -9.5s33.334 -18 47.001 -35s24.5 -41 32.5 -72s12 -71.5 12 -121.5v-24c19.333 6.66699 34.5 17.167 45.5 31.5s16.5 32.166 16.5 53.499
c0 12.667 -2.33301 23.5 -7 32.5s-11.667 13.5 -21 13.5v20c15.333 0 27 -6.66699 35 -20s12 -28.666 12 -45.999c0 -25.333 -7.16699 -47.166 -21.5 -65.499s-34.166 -31.166 -59.499 -38.499v-90c0 -49.333 -4 -89.166 -12 -119.499s-18.833 -54 -32.5 -71
s-29.5 -28.333 -47.5 -34s-36.667 -8.5 -56 -8.5s-38 3 -56 9s-33.667 17.5 -47 34.5s-24 40.5 -32 70.5s-12 69.667 -12 119v133zM57.998 225.997c0 -44.667 3.49902 -80.8359 10.499 -108.503s16.5 -49.334 28.5 -65.001s25.667 -26.167 41 -31.5s31.333 -8 48 -8
s32.667 2.66699 48 8s28.833 15.833 40.5 31.5s21 37.334 28 65.001s10.5 63.834 10.5 108.501v86c-4.66699 -1.33301 -9.33398 -2 -14.001 -2h-15c-24.667 0 -48.334 3.33301 -71.001 10s-43.167 17.834 -61.5 33.501s-33.666 36.334 -45.999 62.001
s-20.166 57.5 -23.499 95.5c-7.33301 -16.667 -13.166 -37.167 -17.499 -61.5s-6.5 -54.5 -6.5 -90.5v-133zM283.997 327.995l14.998 -0.000976562c4.66699 0 9.33398 0.666992 14.001 2v29c0 46 -3.5 83.167 -10.5 111.5s-16.5 50.333 -28.5 66s-25.667 26.334 -41 32.001
s-31.333 8.5 -48 8.5c-16.667 -0.666992 -32.5 -3.5 -47.5 -8.5s-28.167 -15.167 -39.5 -30.5c0.666992 -40 6.33398 -73.5 17.001 -100.5s24.667 -48.667 42 -65s37 -27.833 59 -34.5s44.667 -10 68 -10zM307.995 668.994h-244v20h244v-20z" />
    <glyph glyph-name="Obreve" unicode="&#x14e;" horiz-adv-x="381" 
d="M35 353c0 46 4.33301 83.333 13 112s20.167 50.834 34.5 66.501s31 26.167 50 31.5s39.167 8 60.5 8c20 0 39.333 -2.66699 58 -8s35 -15.833 49 -31.5s25.167 -37.834 33.5 -66.501s12.5 -66 12.5 -112v-137c0 -46 -4.16699 -83.5 -12.5 -112.5s-19.5 -51.667 -33.5 -68
s-30.333 -27.333 -49 -33s-38 -8.5 -58 -8.5c-21.333 0 -41.5 2.83301 -60.5 8.5s-35.667 16.667 -50 33s-25.833 39 -34.5 68s-13 66.5 -13 112.5v137zM325 353c0 42 -3.66699 75.833 -11 101.5s-17 45.5 -29 59.5s-26 23.5 -42 28.5s-32.667 7.5 -50 7.5
c-18 0 -35.333 -2.5 -52 -7.5s-31.334 -14.5 -44.001 -28.5s-22.667 -33.833 -30 -59.5s-11 -59.5 -11 -101.5v-137c0 -42 3.66699 -76 11 -102s17.333 -46.333 30 -61s27.334 -24.667 44.001 -30s34 -8 52 -8c17.333 0 34 2.66699 50 8s30 15.333 42 30s21.667 35 29 61
s11 60 11 102v137zM266 691c0 -20.667 -6.83301 -38.5 -20.5 -53.5s-30.167 -22.5 -49.5 -22.5s-36 7.5 -50 22.5s-21 32.833 -21 53.5h20c0 -15.333 5 -28.5 15 -39.5s22 -16.5 36 -16.5s25.833 5.5 35.5 16.5s14.5 24.167 14.5 39.5h20z" />
    <glyph glyph-name="obreve" unicode="&#x14f;" horiz-adv-x="412" 
d="M35 221l-0.00195312 112.998c0 48 3.83301 87 11.5 117s18.167 53.667 31.5 71v1h1c13.333 17.333 29 29 47 35s37 9 57 9c19.333 0 37.833 -3 55.5 -9s33.334 -17.5 47.001 -34.5s24.5 -40.667 32.5 -71s12 -69.833 12 -118.5v-24c19.333 6.66699 34.5 17.167 45.5 31.5
s16.5 32.166 16.5 53.499c0 12.667 -2.33301 23.5 -7 32.5s-11.667 13.5 -21 13.5v20c15.333 0 27 -6.66699 35 -20s12 -28.666 12 -45.999c0 -25.333 -7.16699 -47.166 -21.5 -65.499s-34.166 -31.166 -59.499 -38.499v-70c0 -48 -4 -87 -12 -117
s-18.833 -53.167 -32.5 -69.5s-29.5 -27.333 -47.5 -33s-36.667 -8.5 -56 -8.5s-38 3 -56 9s-33.667 17.167 -47 33.5s-24 39.333 -32 69s-12 68.5 -12 116.5zM54.998 333.998l-0.00195312 -112.997c0 -44 3.5 -79.5 10.5 -106.5s16.5 -48 28.5 -63s25.667 -25.167 41 -30.5
s31.333 -8 48 -8s32.667 2.66699 48 8s28.833 15.5 40.5 30.5s21 36.167 28 63.5s10.5 62.666 10.5 105.999v66c-4.66699 -1.33301 -9.33398 -2 -14.001 -2h-15c-24 0 -47.5 3.33301 -70.5 10s-43.667 17.667 -62 33s-33.666 35.666 -45.999 60.999
s-20.166 56.666 -23.499 93.999c-7.33301 -16 -13.166 -36.167 -17.499 -60.5s-6.5 -53.833 -6.5 -88.5zM280.996 303.001l14.999 -0.00292969c4.66699 0 9.33398 0.666992 14.001 2v29c0 44.667 -3.5 80.834 -10.5 108.501s-16.5 49.334 -28.5 65.001
s-25.667 26.167 -41 31.5s-31.333 8 -48 8c-16.667 -0.666992 -32.5 -3.5 -47.5 -8.5s-28.167 -14.833 -39.5 -29.5c1.33301 -39.333 7.33301 -72.166 18 -98.499s24.667 -47.5 42 -63.5s36.833 -27.333 58.5 -34s44.167 -10 67.5 -10zM256.995 688.998
c0 -20.667 -6.83301 -38.5 -20.5 -53.5s-30.167 -22.5 -49.5 -22.5s-36 7.5 -50 22.5s-21 32.833 -21 53.5h20c0 -15.333 5 -28.5 15 -39.5s22 -16.5 36 -16.5s25.833 5.5 35.5 16.5s14.5 24.167 14.5 39.5h20z" />
    <glyph glyph-name="Ohungarumlaut" unicode="&#x150;" 
d="M34 317c0 40 3.83301 72.667 11.5 98s17.834 45.5 30.501 60.5s27.334 25.333 44.001 31s34 8.5 52 8.5c18.667 0 36.667 -2.83301 54 -8.5s32.5 -16 45.5 -31s23.5 -35.167 31.5 -60.5s12 -58 12 -98v-125c0 -38.667 -4 -70.667 -12 -96s-18.5 -45.5 -31.5 -60.5
s-28.167 -25.5 -45.5 -31.5s-35.333 -9 -54 -9c-18 0 -35.333 3 -52 9s-31.334 16.5 -44.001 31.5s-22.834 35.167 -30.501 60.5s-11.5 57.333 -11.5 96v125zM294 317c0 35.333 -3.33301 64.333 -10 87s-15.667 40.667 -27 54s-24.333 22.666 -39 27.999s-30 8 -46 8
c-15.333 0 -30 -2.66699 -44 -8s-26.5 -14.666 -37.5 -27.999s-19.667 -31.333 -26 -54s-9.5 -51.667 -9.5 -87v-125c0 -34 3.16699 -62.333 9.5 -85s15 -40.834 26 -54.501s23.5 -23.167 37.5 -28.5s28.667 -8 44 -8c16 0 31.333 2.66699 46 8s27.667 14.833 39 28.5
s20.333 31.834 27 54.501s10 51 10 85v125zM231 689l16 -12l-104 -136l-16 13zM306 689l16 -12l-104 -136l-16 13z" />
    <glyph glyph-name="ohungarumlaut" unicode="&#x151;" horiz-adv-x="403" 
d="M34 306c0 40.667 3.99902 74.165 11.999 100.498s18.5 47 31.5 62s28.167 25.5 45.5 31.5s35.333 9 54 9s36.5 -3 53.5 -9s32 -16.667 45 -32s23.5 -36 31.5 -62s12 -59.333 12 -100v-55c19.333 6.66699 34.5 16.834 45.5 30.501s16.5 30.5 16.5 50.5
c0 14 -2.33301 26 -7 36s-11.667 15 -21 15v20c15.333 0 27 -7 35 -21s12 -30.667 12 -50c0 -24 -7.16699 -44.667 -21.5 -62s-34.166 -29.666 -59.499 -36.999v-37c0 -40.667 -4 -74.167 -12 -100.5s-18.5 -47 -31.5 -62s-28.167 -25.5 -45.5 -31.5s-35.333 -9 -54 -9
s-36.667 3 -54 9s-32.5 16.667 -45.5 32s-23.333 36 -31 62s-11.5 59.333 -11.5 100v110zM53.999 195.998c0 -37.333 3.33203 -67.8359 9.99902 -91.5029s15.834 -42.167 27.501 -55.5s24.834 -22.666 39.501 -27.999s30 -8 46 -8s31.333 2.66699 46 8
s27.667 14.833 39 28.5s20.333 32.334 27 56.001s10 53.834 10 90.501v33c-4.66699 -1.33301 -9.33398 -2 -14.001 -2h-15c-23.333 0 -45.833 3.5 -67.5 10.5s-41 18.833 -58 35.5s-31.167 38.667 -42.5 66s-18 61.333 -20 102c-8.66699 -14 -15.5 -32 -20.5 -54
s-7.5 -49 -7.5 -81v-110zM269.998 244.995l15.002 0.00390625c4.66699 0 9.33398 0.666992 14.001 2v59c0 36.667 -3.33301 67 -10 91s-15.834 42.667 -27.501 56s-24.834 22.666 -39.501 27.999s-30 8 -46 8c-14.667 -0.666992 -28.5 -2.83398 -41.5 -6.50098
s-24.833 -10.834 -35.5 -21.501c0 -41.333 5 -75.833 15 -103.5s23 -49.834 39 -66.501s34.167 -28.5 54.5 -35.5s41.166 -10.5 62.499 -10.5zM245 688.999l16 -12l-104 -136l-16 13zM320 688.999l16 -12l-104 -136l-16 13z" />
    </font>
</defs>
</svg>
