<?xml version="1.0" standalone="no"?>
<!DOCTYPE svg PUBLIC "-//W3C//DTD SVG 1.1//EN" "http://www.w3.org/Graphics/SVG/1.1/DTD/svg11.dtd" >
<svg>
<metadata>
Created by FontForge 20090914 at Thu Oct 17 11:53:19 2013
 By www-data
Generated in 2010 by FontLab Studio. Copyright info pending.
</metadata>
<defs>
<font id="VNFOhMaiMai" horiz-adv-x="613" >
  <font-face 
    font-family="VNF Oh Mai Mai"
    font-weight="400"
    font-stretch="squinchy"
    units-per-em="1000"
    panose-1="2 0 0 0 0 0 0 0 0 0"
    ascent="750"
    descent="-250"
    x-height="448.498"
    cap-height="621"
    bbox="-189 -229.999 845 1055.36"
    underline-thickness="50"
    underline-position="-50"
    unicode-range="U+000D-U+FB02"
  />
<missing-glyph horiz-adv-x="500" 
 />
    <glyph glyph-name=".notdef" horiz-adv-x="500" 
 />
    <glyph glyph-name=".null" horiz-adv-x="0" 
 />
    <glyph glyph-name=".null" horiz-adv-x="0" 
 />
    <glyph glyph-name="nonmarkingreturn" unicode="&#xd;" horiz-adv-x="500" 
 />
    <glyph glyph-name="space" unicode=" " horiz-adv-x="214" 
 />
    <glyph glyph-name="exclam" unicode="!" horiz-adv-x="210" 
d="M103 161c-18 0 -32.501 7.16406 -43.501 21.4971s-19.333 32.833 -25 55.5s-9.5 48.334 -11.5 77.001s-3 57.667 -3 87c0 28.667 1 59 3 91s5.83301 61.333 11.5 88s14 48.834 25 66.501s25.5 26.5 43.5 26.5c20.667 0 36.834 -8.66699 48.501 -26s20 -39.166 25 -65.499
s8 -54.833 9 -85.5s1.5 -59.334 1.5 -86.001c0 -23.333 -2.33301 -49.5 -7 -78.5s-11 -56.167 -19 -81.5s-17 -46.666 -27 -63.999s-20.333 -26 -31 -26zM137.999 120.997c11.333 -10 18.833 -21.166 22.5 -33.499s5.5 -26.166 5.5 -41.499
c-2.66699 -13.333 -8.66699 -23.833 -18 -31.5s-19.833 -12.834 -31.5 -15.501s-23.5 -2.83398 -35.5 -0.500977s-22 7.5 -30 15.5c-10 16 -15.667 32.167 -17 48.5s5.66699 32.833 21 49.5c6 7.33301 12.833 12.333 20.5 15s15.167 4 22.5 4s14.5 -1 21.5 -3
s13.167 -4.33301 18.5 -7z" />
    <glyph glyph-name="quotedbl" unicode="&#x22;" horiz-adv-x="312" 
d="M80 634c10.667 0 19.833 -4.16699 27.5 -12.5s13.667 -19 18 -32s7.5 -27.333 9.5 -43s3 -30.834 3 -45.501c0 -11.333 -0.333008 -23.833 -1 -37.5s-3.33398 -26.5 -8.00098 -38.5s-12 -22 -22 -30s-24.333 -12 -43 -12c-11.333 0 -19.833 4.83301 -25.5 14.5
s-10 21.5 -13 35.5s-4.66699 28.5 -5 43.5s-0.5 28.167 -0.5 39.5c0 10.667 1 22.834 3 36.501s5.33301 26.5 10 38.5s10.834 22.167 18.501 30.5s17.167 12.5 28.5 12.5zM240.999 383c-14.667 0 -25.835 3.5 -33.502 10.5s-13.334 16 -17.001 27
s-5.83398 23.5 -6.50098 37.5s-1 28.333 -1 43s0.333008 29.834 1 45.501s2.83398 30 6.50098 43s9.33398 23.667 17.001 32s18.834 12.5 33.501 12.5s25.334 -4.16699 32.001 -12.5s11 -19 13 -32s2.66699 -27.333 2 -43s-1 -30.834 -1 -45.501
c0 -11.333 -1 -23.833 -3 -37.5s-5 -26.5 -9 -38.5s-8.83301 -22 -14.5 -30s-12.167 -12 -19.5 -12z" />
    <glyph glyph-name="numbersign" unicode="#" horiz-adv-x="607" 
d="M209 604c8 0 15.3359 -4.83398 22.0029 -14.501s13.834 -19.334 21.501 -29.001s16.667 -17.334 27 -23.001s23.5 -4.5 39.5 3.5c12 8 21.333 17.167 28 27.5s12.5 20 17.5 29s9.83301 15.833 14.5 20.5s11 5 19 1c4 0 7.83301 -3.5 11.5 -10.5s7.5 -16 11.5 -27
l12.5 -35.5l12.5 -37c0 -15.333 4 -27.666 12 -36.999s19.667 -17.666 35 -24.999c12 -4 23.5 -8.16699 34.5 -12.5s21 -9.5 30 -15.5s16.167 -13.167 21.5 -21.5s8 -18.5 8 -30.5c-4 -8 -11.833 -13.5 -23.5 -16.5l-35.5 -9c-12 -3 -21.833 -7 -29.5 -12
s-9.5 -13.5 -5.5 -25.5c0 -8 4.83301 -15 14.5 -21s20.5 -12 32.5 -18s22.833 -12 32.5 -18s14.5 -13 14.5 -21s-2.66699 -15 -8 -21s-11.833 -11 -19.5 -15s-16 -7 -25 -9s-17.5 -3 -25.5 -3c-16 -7.33301 -28.5 -15.666 -37.5 -24.999s-17.5 -22 -25.5 -38
c0 -12 -0.166992 -24.333 -0.5 -37s-1.5 -24.5 -3.5 -35.5s-5.33301 -20 -10 -27s-11 -10.5 -19 -10.5c-8 -4 -16.667 -0.5 -26 10.5s-18.833 23.833 -28.5 38.5s-19.334 28.5 -29.001 41.5s-18.5 19.5 -26.5 19.5c-12 0 -23 -6.5 -33 -19.5s-19.833 -26.833 -29.5 -41.5
s-19.5 -27.5 -29.5 -38.5s-21 -14.5 -33 -10.5c-8 0 -13.333 3.5 -16 10.5s-4 16 -4 27s0.666992 22.833 2 35.5s2 25 2 37c-4 4 -6.5 9.5 -7.5 16.5s-2.5 14 -4.5 21s-5.5 13 -10.5 18s-13.5 7.5 -25.5 7.5c-8 4 -17.333 7.16699 -28 9.5s-20.834 5 -30.501 8
s-18 6.83301 -25 11.5s-10.5 11 -10.5 19c-4 8 -1.5 15 7.5 21s19.5 12 31.5 18s22.5 12 31.5 18s11.5 13 7.5 21c0 12 -4.83301 20.5 -14.5 25.5s-19.834 9 -30.501 12s-19.834 6 -27.501 9s-9.5 8.5 -5.5 16.5c0 12 3.33301 21.167 10 27.5s14.5 11 23.5 14
s17.667 4.66699 26 5s14.5 0.5 18.5 0.5c8 3.33301 15.667 7.33301 23 12c6 4 11.5 9 16.5 15s7.5 13 7.5 21c4 8 7.5 18.333 10.5 31s6.5 26 10.5 40s9.16699 27.333 15.5 40s15.5 23 27.5 31z" />
    <glyph glyph-name="dollar" unicode="$" horiz-adv-x="479" 
d="M116 589c8 5.33301 15.1631 8.67285 21.4961 10.0059s13.166 4.66602 20.499 9.99902c6.66699 2.66699 11.834 8 15.501 16s7.83398 16.5 12.501 25.5s10.5 17.167 17.5 24.5s17.167 11.666 30.5 12.999c9.33301 -1.33301 16.166 -6.33301 20.499 -15s8 -18.5 11 -29.5
s6.5 -21.667 10.5 -32s10.667 -17.5 20 -21.5c21.333 -9.33301 42.5 -20.166 63.5 -32.499s39.5 -24.833 55.5 -37.5s28 -25 36 -37s9.66699 -22.333 5 -31c-4 -12.667 -10.167 -22.334 -18.5 -29.001s-17.833 -11.5 -28.5 -14.5s-21.167 -5 -31.5 -6
s-19.5 -2.16699 -27.5 -3.5s-13.833 -3.5 -17.5 -6.5s-3.5 -8.16699 0.5 -15.5c5.33301 -6.66699 13.5 -16.334 24.5 -29.001s22.333 -27.334 34 -44.001s22.334 -34.5 32.001 -53.5s15.667 -38.5 18 -58.5s-0.166992 -40.167 -7.5 -60.5s-22 -39.5 -44 -57.5
c-14 -11.333 -27.5 -19.666 -40.5 -24.999s-26.833 -10.333 -41.5 -15c-6.66699 -2 -11.334 -8.33301 -14.001 -19s-5.16699 -21.834 -7.5 -33.501s-5.66602 -22.167 -9.99902 -31.5s-11.166 -13.333 -20.499 -12c-12.667 2 -22.167 7.5 -28.5 16.5s-11.5 19 -15.5 30
l-12 32c-4 10.333 -10.333 17.833 -19 22.5c-18 9.33301 -37.667 21.833 -59 37.5s-40 34.167 -56 55.5c-16 24.667 -27.5 44.5 -34.5 59.5s-11.167 27 -12.5 36s-0.5 16.333 2.5 22s6.5 11.5 10.5 17.5c2.66699 1.33301 7.5 2.16602 14.5 2.49902
s14.833 0.666016 23.5 0.999023s17.334 1 26.001 2s15.667 2.66699 21 5s8.16602 5.83301 8.49902 10.5s-3.16699 11 -10.5 19c-5.33301 6.66699 -11.666 16.167 -18.999 28.5s-14.166 26.166 -20.499 41.499s-11.5 31.833 -15.5 49.5s-5 35.834 -3 54.501
s7.5 37.167 16.5 55.5s23.167 35.833 42.5 52.5z" />
    <glyph glyph-name="percent" unicode="%" horiz-adv-x="525" 
d="M45 6c-13.333 8.66699 -20.666 21.3311 -21.999 37.998s1.66699 35.834 9 57.501s17.666 44.667 30.999 69s27.833 48.333 43.5 72s31.334 46 47.001 67l40.5 53.5c11.333 14.667 24.333 32.834 39 54.501l46.5 66.5c16.333 22.667 33 44.667 50 66
s33.667 39.666 50 54.999s31.833 26 46.5 32s27.667 5.33301 39 -2c14.667 -11.333 22.334 -26.666 23.001 -45.999s-3.33301 -40.833 -12 -64.5s-20.834 -48.667 -36.501 -75s-32.334 -52 -50.001 -77s-35 -48.333 -52 -70l-42.5 -54.5l-29 -45
c-12 -18.667 -25.333 -38.167 -40 -58.5s-30.167 -40.333 -46.5 -60s-32.5 -36.5 -48.5 -50.5s-31.5 -24 -46.5 -30s-28.167 -5.33301 -39.5 2zM83 608.997c21.333 9.33301 42.166 14.333 62.499 15s36.5 -4.33301 48.5 -15c12.667 -11.333 22.334 -25.5 29.001 -42.5
s9.83398 -34 9.50098 -51s-4.33301 -32.5 -12 -46.5s-19.834 -23.333 -36.501 -28c-38.667 -11.333 -70.167 -12 -94.5 -2s-40.166 32 -47.499 66c-2.66699 12 -3.33398 23.667 -2.00098 35s4 21.5 8 30.5s9 16.833 15 23.5s12.667 11.667 20 15zM340 181.997
c21.333 9.33301 42.166 14.333 62.499 15s36.5 -4.33301 48.5 -15c12.667 -11.333 22.334 -25.5 29.001 -42.5s9.83398 -34 9.50098 -51s-4.33301 -32.5 -12 -46.5s-19.834 -23.333 -36.501 -28c-38.667 -11.333 -70.167 -12 -94.5 -2s-40.166 32 -47.499 66
c-2.66699 12 -3.33398 23.667 -2.00098 35s4 21.5 8 30.5s9 16.833 15 23.5s12.667 11.667 20 15z" />
    <glyph glyph-name="ampersand" unicode="&#x26;" horiz-adv-x="541" 
d="M265 627c42.667 -5.33301 77.833 -13.999 105.5 -25.999s49.667 -25.833 66 -41.5s27.833 -32.5 34.5 -50.5s9.66699 -35.833 9 -53.5s-4 -34.167 -10 -49.5s-13 -28.333 -21 -39c-9.33301 -16.667 -13.5 -30.5 -12.5 -41.5s4.33301 -19.833 10 -26.5
s12.334 -11.667 20.001 -15s13.167 -5.66602 16.5 -6.99902c8 1.33301 15.5 3.16602 22.5 5.49902s12 2.33301 15 0s4 -8.83301 3 -19.5s-5.5 -28 -13.5 -52c-10.667 -21.333 -17.834 -37.333 -21.501 -48s-5.33398 -20.5 -5.00098 -29.5s1.66602 -18.667 3.99902 -29
s4.5 -25.5 6.5 -45.5c0.666992 -20 -2 -32.833 -8 -38.5s-14.167 -7.83398 -24.5 -6.50098s-21.666 4.16602 -33.999 8.49902s-24.166 6.16602 -35.499 5.49902c-14.667 4 -25.834 4.5 -33.501 1.5s-15.667 -7 -24 -12s-19.333 -10 -33 -15s-34.167 -7.16699 -61.5 -6.5
s-52.666 3.16699 -75.999 7.5s-44.5 12 -63.5 23s-35.167 25.833 -48.5 44.5s-23 42.667 -29 72c-4.66699 19.333 -6.16699 35.833 -4.5 49.5s4.66699 25.834 9 36.501s9.33301 20.5 15 29.5s10.667 18.333 15 28s7 20.667 8 33s-1.16699 26.833 -6.5 43.5
c-5.33301 17.333 -8 36.5 -8 57.5s2.66699 42 8 63s13.5 41 24.5 60s25 35.333 42 49s37 23.834 60 30.501s49.5 8 79.5 4z" />
    <glyph glyph-name="quotesingle" unicode="'" horiz-adv-x="152" 
d="M65 627c14.667 0 25.999 -3.33398 33.999 -10.001s13.833 -15.667 17.5 -27s5.83398 -24.166 6.50098 -38.499s1 -28.833 1 -43.5s-0.333008 -30 -1 -46s-2.83398 -30.5 -6.50098 -43.5s-9.5 -23.667 -17.5 -32s-19.333 -12.5 -34 -12.5c-11.333 0 -20 4.16699 -26 12.5
s-10.5 19 -13.5 32s-4.66699 27.5 -5 43.5s-0.5 31.333 -0.5 46c0 11.333 1 23.833 3 37.5s4.83301 26.5 8.5 38.5s8.33398 22.167 14.001 30.5s12.167 12.5 19.5 12.5z" />
    <glyph glyph-name="parenleft" unicode="(" horiz-adv-x="272" 
d="M213 623c8.66699 -7.33301 12.5029 -17.6699 11.5029 -31.0029s-4.83301 -29.333 -11.5 -48s-15.167 -39.667 -25.5 -63s-20.333 -48.5 -30 -75.5s-17.834 -55.5 -24.501 -85.5s-9.66699 -61 -9 -93c0.666992 -35.333 4.66699 -68.333 12 -99s16.166 -58.667 26.499 -84
s21.166 -48.333 32.499 -69s21 -39.167 29 -55.5s13.667 -30.166 17 -41.499s2 -20.666 -4 -27.999c-5.33301 -7.33301 -14.333 -9 -27 -5s-26.667 13 -42 27s-31.166 32.333 -47.499 55s-31.333 48.667 -45 78s-25.167 61.5 -34.5 96.5s-14.333 72.167 -15 111.5
c-1.33301 58.667 5.33398 113.834 20.001 165.501s32.167 96.5 52.5 134.5s41.166 67 62.499 87s38.666 27.667 51.999 23z" />
    <glyph glyph-name="parenright" unicode=")" horiz-adv-x="262" 
d="M48 -166c-9.33301 7.33301 -13.334 17.6689 -12.001 31.002s5.33301 29.333 12 48s15.167 39.667 25.5 63s20.333 48.5 30 75.5s17.834 55.5 24.501 85.5s9.66699 61 9 93c-0.666992 35.333 -4.66699 68.333 -12 99s-16.166 58.667 -26.499 84s-21.166 48.333 -32.499 69
s-21 39.167 -29 55.5s-13.667 30.166 -17 41.499s-2 20.666 4 27.999c5.33301 7.33301 14.333 9 27 5s26.667 -13 42 -27s31.166 -32.333 47.499 -55s31.333 -48.667 45 -78s25.167 -61.666 34.5 -96.999s14.333 -72.333 15 -111s-2.33301 -76.334 -9 -113.001
s-15.5 -70.667 -26.5 -102s-23.333 -59.833 -37 -85.5s-27.667 -47.167 -42 -64.5s-27.833 -30 -40.5 -38s-23.334 -10.333 -32.001 -7z" />
    <glyph glyph-name="asterisk" unicode="*" horiz-adv-x="342" 
d="M323 543c2 -7.33301 1.17188 -14.166 -2.49512 -20.499s-8.16699 -12.833 -13.5 -19.5s-10.5 -13.667 -15.5 -21s-7.5 -16 -7.5 -26c-2.66699 -7.33301 -1.83398 -15.5 2.49902 -24.5s9.33301 -18.167 15 -27.5s10.167 -18 13.5 -26s2.66602 -14.667 -2.00098 -20
c-2.66699 -7.33301 -6.83398 -11 -12.501 -11s-12.334 1 -20.001 3s-15.5 3.5 -23.5 4.5s-15.667 -0.833008 -23 -5.5c-7.33301 -7.33301 -12.666 -15 -15.999 -23s-6.83301 -15.333 -10.5 -22s-8.33398 -12.167 -14.001 -16.5s-14.5 -6.5 -26.5 -6.5
s-20.5 2.16699 -25.5 6.5s-8.66699 9.83301 -11 16.5s-4.66602 14 -6.99902 22s-7.16602 15.667 -14.499 23c-8 4.66699 -16 6.83398 -24 6.50098s-15.667 -1 -23 -2s-13.833 -1.66699 -19.5 -2s-9.83398 1.83398 -12.501 6.50098c-4.66699 8 -5.83398 16.167 -3.50098 24.5
s6 16.666 11 24.999l14.5 25c4.66699 8.33301 7 16.166 7 23.499c0 10 -3 18.667 -9 26l-18 21c-6 6.66699 -10.667 13.167 -14 19.5s-2.66602 13.166 2.00098 20.499c4.66699 8 10.167 12.167 16.5 12.5s12.833 -0.166992 19.5 -1.5s13.667 -1.83301 21 -1.5
s14.666 4.16602 21.999 11.499s12.666 16 15.999 26s6.83301 19.5 10.5 28.5s8.5 16.667 14.5 23s15 9.5 27 9.5c14.667 0 25 -3.16699 31 -9.5s10.833 -14 14.5 -23s7.33398 -18.5 11.001 -28.5s10.5 -18.667 20.5 -26c7.33301 -7.33301 14.666 -11.166 21.999 -11.499
s14.333 0.166992 21 1.5s13 1.83301 19 1.5s11.667 -4.5 17 -12.5z" />
    <glyph glyph-name="plus" unicode="+" horiz-adv-x="473" 
d="M232 107c-13.333 0 -23.668 5.1709 -31.001 15.5039s-13.666 22.666 -18.999 36.999s-10.333 29.166 -15 44.499s-10.667 28.333 -18 39c-10.667 8 -23.167 14.333 -37.5 19s-28 9.66699 -41 15s-24.167 11.666 -33.5 18.999s-14 17.666 -14 30.999
c0 10 4.66699 18 14 24s20.5 11.667 33.5 17l41 17c14.333 6 26.833 14.333 37.5 25c10 10.667 18 22.667 24 36l17 38c5.33301 12 11 22 17 30s14.333 12 25 12c12.667 0 21.834 -4 27.501 -12s10.167 -18 13.5 -30l11 -38c4 -13.333 11 -25.333 21 -36
c13.333 -12.667 29 -21.834 47 -27.501s34.833 -10.667 50.5 -15s28.5 -10 38.5 -17s13.667 -18.5 11 -34.5c0 -13.333 -5.66699 -23.166 -17 -29.499s-24.5 -11.833 -39.5 -16.5l-45 -14.5c-15 -5 -26.5 -12.5 -34.5 -22.5c-8 -10.667 -14.5 -23.167 -19.5 -37.5l-15 -41
c-5 -13 -11.333 -24.167 -19 -33.5s-17.834 -14 -30.501 -14z" />
    <glyph glyph-name="comma" unicode="," horiz-adv-x="172" 
d="M40 -87c-4 4.66699 -5.5 9.00293 -4.5 13.0029s3 7.83301 6 11.5l9 10.5c3 3.33301 4.5 7 4.5 11c4 8 3.66699 16.667 -1 26s-10.334 19.166 -17.001 29.499s-12.5 21.166 -17.5 32.499s-5.83301 23 -2.5 35c4.66699 16 11.834 28.333 21.501 37s20.167 14.167 31.5 16.5
s22.833 1.5 34.5 -2.5s21.667 -11 30 -21s14.5 -22.667 18.5 -38s4 -33 0 -53c-4 -23.333 -11.5 -43.5 -22.5 -60.5s-22.5 -30.333 -34.5 -40s-23.333 -15.334 -34 -17.001s-18 1.5 -22 9.5z" />
    <glyph glyph-name="hyphen" unicode="-" horiz-adv-x="397" 
d="M16 262c0 14.667 5.66406 26.165 16.9971 34.498s25.833 14.333 43.5 18s37.334 5.83398 59.001 6.50098s42.5 1 62.5 1s40.667 -0.333008 62 -1s40.833 -2.83398 58.5 -6.50098s32.167 -9.66699 43.5 -18s17 -19.833 17 -34.5c0 -15.333 -6.16699 -26.666 -18.5 -33.999
s-27.666 -12.166 -45.999 -14.499s-38 -3.33301 -59 -3s-40.167 0.5 -57.5 0.5c-18 0 -37.5 1.16699 -58.5 3.5s-40.667 5.83301 -59 10.5s-33.666 10 -45.999 16s-18.5 13 -18.5 21z" />
    <glyph glyph-name="period" unicode="." horiz-adv-x="202" 
d="M56 153c13.333 10 29.501 13.499 48.501 10.499s35.5 -12.5 49.5 -28.5c12 -13.333 20 -26.666 24 -39.999s4.66699 -25.833 2 -37.5s-8.5 -22.167 -17.5 -31.5s-20.5 -16.333 -34.5 -21c-28 -9.33301 -51.5 -9.33301 -70.5 0s-32.167 28 -39.5 56
c-2.66699 10 -3.33398 19.667 -2.00098 29s4 18 8 26s8.83301 15.167 14.5 21.5s11.5 11.5 17.5 15.5z" />
    <glyph glyph-name="slash" unicode="/" horiz-adv-x="389" 
d="M357 632c8 -6.66699 11.835 -17.6699 11.502 -33.0029s-5.5 -36.833 -15.5 -64.5s-25.333 -62.334 -46 -104.001l-79 -152.5l-61.5 -116.5c-19.667 -38.333 -38 -71.666 -55 -99.999s-32.167 -49.166 -45.5 -62.499s-24 -14.666 -32 -3.99902
c-10.667 10.667 -14.834 25.834 -12.501 45.501s9.66602 44.667 21.999 75s28.833 65.833 49.5 106.5l71 140c53.333 106.667 94.833 182 124.5 226s52.5 58.667 68.5 44z" />
    <glyph glyph-name="zero" unicode="0" horiz-adv-x="511" 
d="M161 604c24.667 14 53.001 21.0029 85.001 21.0029c30 0 60.833 -7.83301 92.5 -23.5s61.5 -41.834 89.5 -78.501c24 -32 41.5 -65.5 52.5 -100.5s16.5 -69.833 16.5 -104.5c0 -33.333 -4.5 -65.5 -13.5 -96.5s-21.667 -59.833 -38 -86.5
s-35.666 -50.334 -57.999 -71.001s-46.833 -36.667 -73.5 -48c-26 -10.667 -52 -16 -78 -16c-28.667 0 -55.334 6.66699 -80.001 20s-46.334 32.333 -65.001 57s-34.167 54 -46.5 88s-20.5 72 -24.5 114c-2 20 -3 39 -3 57c0 38.667 4.16699 73 12.5 103s19.333 56 33 78
s29 40.167 46 54.5s34.5 25.166 52.5 32.499z" />
    <glyph glyph-name="one" unicode="1" horiz-adv-x="387" 
d="M213 9c-18 11.333 -31.667 26.668 -41 46.001s-16.166 40.166 -20.499 62.499s-6.83301 45.333 -7.5 69s-1.33398 46 -2.00098 67s-2 39.333 -4 55s-6.33301 26.834 -13 33.501c-7.33301 7.33301 -16.666 13.666 -27.999 18.999l-33 16
c-10.667 5.33301 -20.334 11.333 -29.001 18s-14.334 15 -17.001 25v4c0 8 3.83301 18.333 11.5 31s17.834 26.5 30.501 41.5s27.167 30.167 43.5 45.5s33.166 29.166 50.499 41.499s34.666 22.5 51.999 30.5s33 12 47 12c19.333 0 36.333 -7.83301 51 -23.5
s26.834 -36 36.501 -61s17 -53.167 22 -84.5s7.5 -62.666 7.5 -93.999c0 -19.333 -1.16699 -41.666 -3.5 -66.999s-5.66602 -51.5 -9.99902 -78.5s-10 -53.5 -17 -79.5s-15.167 -49.333 -24.5 -70s-20 -37.334 -32 -50.001s-25 -19 -39 -19c-10 0 -20.333 3.33301 -31 10z
" />
    <glyph glyph-name="two" unicode="2" horiz-adv-x="509" 
d="M17 431c-2 4 -3.00195 8.99902 -3.00195 14.999c0 11.333 4.66699 24.5 14 39.5s23.833 30.167 43.5 45.5s44.5 29.833 74.5 43.5s66 25.167 108 34.5c13.333 4 26.333 6.83301 39 8.5s24.667 2.5 36 2.5c24.667 0 46.667 -3.83301 66 -11.5s35.333 -17.834 48 -30.501
s22.334 -27.334 29.001 -44.001s10 -33.667 10 -51c0 -18.667 -3.33301 -36 -10 -52c-19.333 -49.333 -36.166 -89.666 -50.499 -120.999s-24.166 -57 -29.499 -77c-1.33301 -2.66699 -2 -4.66699 -2 -6c0 -6 5.33301 -11.833 16 -17.5l35 -19
c12.667 -7 24.334 -15.667 35.001 -26s16 -23.5 16 -39.5c0 -10 -6.33301 -22 -19 -36s-29.5 -27.333 -50.5 -40s-45.333 -23.5 -73 -32.5s-56.5 -13.5 -86.5 -13.5c-13.333 0 -26.5 0.833008 -39.5 2.5s-26.167 4.5 -39.5 8.5c-32 10 -57.833 21 -77.5 33
s-35 24.333 -46 37s-18.333 25.667 -22 39s-5.5 27 -5.5 41c0 13.333 1 26.666 3 39.999c2 16 7.5 30.5 16.5 43.5s18.167 24.667 27.5 35s17.833 19.333 25.5 27s11.5 14.167 11.5 19.5c0 0.666992 -0.166992 1.33398 -0.5 2.00098s-0.5 1.33398 -0.5 2.00098
c-2.66699 6.66699 -8.83398 14.334 -18.501 23.001s-20 17.334 -31 26.001l-31 25.5c-9.66699 8.33301 -15.834 16.166 -18.501 23.499z" />
    <glyph glyph-name="three" unicode="3" horiz-adv-x="455" 
d="M438 334c0 -62.667 -8.16797 -116 -24.501 -160s-38.5 -79.5 -66.5 -106.5s-60.833 -45.667 -98.5 -56s-77.834 -12.833 -120.501 -7.5c-32.667 2.66699 -56.5 9.5 -71.5 20.5s-23.667 23.833 -26 38.5s0.166992 29.334 7.5 44.001s17.333 27 30 37
c14.667 20.667 25.834 40 33.501 58s6.16699 32.333 -4.5 43c-7.33301 4.66699 -14 9.16699 -20 13.5s-11.167 9.33301 -15.5 15s-7.66602 12.5 -9.99902 20.5s-3.5 18.333 -3.5 31c0 14.667 2.5 26.667 7.5 36s10.667 17.5 17 24.5l17 19c5 5.66699 7.5 12.167 7.5 19.5
c-2 7.33301 -7.83301 16 -17.5 26l-29.5 32c-10 11.333 -18.5 23.166 -25.5 35.499s-9.16699 24.833 -6.5 37.5c5.33301 12 14 23.333 26 34s26.5 19.5 43.5 26.5s35.833 11.5 56.5 13.5s42 0.666992 64 -4c30 -8 59 -20 87 -36s52.5 -36.333 73.5 -61
s37.833 -53.167 50.5 -85.5s19 -68.5 19 -108.5z" />
    <glyph glyph-name="four" unicode="4" horiz-adv-x="457" 
d="M308 624c14.667 2.66699 31.168 -5.83008 49.501 -25.4971s34.333 -47.334 48 -83.001s23.167 -77.834 28.5 -126.501s3 -100.334 -7 -155.001c-9.33301 -52.667 -19.5 -93.834 -30.5 -123.501s-22.167 -52 -33.5 -67s-22.5 -24.667 -33.5 -29
s-21.167 -7.83301 -30.5 -10.5c-10 0 -18.667 5.83301 -26 17.5s-14.5 25.334 -21.5 41.001s-14.667 31.334 -23 47.001s-18.5 27.167 -30.5 34.5c-12.667 10 -29.667 20.333 -51 31s-42 22.167 -62 34.5s-36.833 26.166 -50.5 41.499s-19.167 33 -16.5 53
c0 13.333 4.16699 30.333 12.5 51s19.666 42.5 33.999 65.5s31 46.333 50 70s39.167 45 60.5 64s43.333 34.833 66 47.5s45 20 67 22z" />
    <glyph glyph-name="five" unicode="5" horiz-adv-x="495" 
d="M96 598c22 13.333 46.8271 21.6719 74.4941 25.0049s55.667 2.66602 84 -2.00098s55.833 -12.334 82.5 -23.001s50 -23 70 -37s35.333 -29 46 -45s14.334 -31.667 11.001 -47c-2 -14.667 -6.66699 -25.834 -14 -33.501s-15.833 -13.334 -25.5 -17.001s-19.667 -6 -30 -7
s-19.166 -2 -26.499 -3s-12.5 -2.66699 -15.5 -5s-1.83301 -6.83301 3.5 -13.5l28.5 -29.5c12.333 -13 24.833 -28.333 37.5 -46s24.334 -37 35.001 -58s17.5 -42.667 20.5 -65s0.833008 -44.5 -6.5 -66.5s-22.666 -42.667 -45.999 -62
c-35.333 -28 -70.166 -46.5 -104.499 -55.5s-67 -11 -98 -6s-59.833 15.667 -86.5 32s-49.667 35.833 -69 58.5c-15.333 14.667 -26.5 27.667 -33.5 39s-11.5 21.666 -13.5 30.999s-2 18 0 26s4.33301 16 7 24c2 9.33301 6.16699 16.666 12.5 21.999s13.333 9.5 21 12.5
s15.167 5.16699 22.5 6.5s12.833 3 16.5 5s4.83398 4.66699 3.50098 8s-6.66602 8.33301 -15.999 15c-8 6.66699 -16.833 16.834 -26.5 30.501s-18.334 29.5 -26.001 47.5s-13.5 37.5 -17.5 58.5s-4.16699 42.167 -0.5 63.5s11.667 42 24 62s30.833 38.333 55.5 55z" />
    <glyph glyph-name="six" unicode="6" horiz-adv-x="555" 
d="M102 75c-20 17.333 -36.666 35.167 -49.999 53.5s-23.5 39 -30.5 62s-10.333 49.167 -10 78.5s4.16602 64 11.499 104c7.33301 42 21.833 78.5 43.5 109.5s46.5 56.833 74.5 77.5s57.167 36 87.5 46s57.833 15 82.5 15c22 2.66699 41.5 2.33398 58.5 -0.999023
s30.167 -8.83301 39.5 -16.5s14.333 -16.834 15 -27.501s-4 -22.334 -14 -35.001c-6.66699 -6.66699 -14.167 -12.667 -22.5 -18s-15.333 -11 -21 -17s-9.16699 -12.833 -10.5 -20.5s1.66699 -17 9 -28s20 -24.167 38 -39.5s43.667 -33.666 77 -54.999
c23.333 -16.667 39.5 -35.667 48.5 -57s13.167 -43.333 12.5 -66s-5.66699 -45.5 -15 -68.5s-20.833 -44.167 -34.5 -63.5s-28.667 -36.333 -45 -51s-31.833 -25.334 -46.5 -32.001c-20 -7.33301 -43.333 -12.666 -70 -15.999s-54 -3.5 -82 -0.5s-55 9.83301 -81 20.5
s-47.667 26 -65 46z" />
    <glyph glyph-name="seven" unicode="7" horiz-adv-x="515" 
d="M495 387c-3.33301 -22.667 -7.66504 -47.8301 -12.998 -75.4971s-11.666 -55.667 -18.999 -84s-15.5 -55.833 -24.5 -82.5s-18.667 -50.334 -29 -71.001s-21.5 -37.167 -33.5 -49.5s-24.667 -18.5 -38 -18.5c-12 0 -21.833 7 -29.5 21s-14.334 31.333 -20.001 52
s-10.5 43 -14.5 67s-8.33301 45.667 -13 65c-2.66699 19.333 -4.83398 39.5 -6.50098 60.5s-5.83398 41 -12.501 60s-17.5 36.167 -32.5 51.5s-37.167 26.666 -66.5 33.999c-34 10 -61.667 22.833 -83 38.5s-34.5 32.167 -39.5 49.5s-0.833008 33.833 12.5 49.5
s37 28.5 71 38.5c24 8 51 15.167 81 21.5s60 9.66602 90 9.99902s59 -3 87 -10s52.333 -19.333 73 -37s36.667 -42 48 -73s15.333 -70.167 12 -117.5z" />
    <glyph glyph-name="eight" unicode="8" horiz-adv-x="481" 
d="M195 618c24.667 5.33301 50.165 6.83203 76.498 4.49902s50.666 -8 72.999 -17s41.5 -21.5 57.5 -37.5s26.333 -35 31 -57c5.33301 -25.333 5.83301 -49.5 1.5 -72.5s-11.166 -42.167 -20.499 -57.5c-7.33301 -15.333 -11.333 -27.666 -12 -36.999s0.833008 -18 4.5 -26
s8.83398 -16.167 15.501 -24.5s13.667 -18.833 21 -31.5c5.33301 -8 10.166 -19.667 14.499 -35s6.83301 -32.333 7.5 -51s-1.66602 -37.834 -6.99902 -57.501s-15.333 -37.667 -30 -54s-35.167 -30 -61.5 -41s-60.166 -17.5 -101.499 -19.5
c-42.667 -1.33301 -78.5 3 -107.5 13s-52.333 23.5 -70 40.5s-30.5 36.167 -38.5 57.5s-12.5 42.166 -13.5 62.499s0.5 39 4.5 56s9.33301 29.5 16 37.5c12.667 14.667 17.834 26.667 15.501 36s-7.5 19.333 -15.5 30s-16.5 23.834 -25.5 39.501s-13.5 37.167 -13.5 64.5
c-2.66699 20 -1.33398 39.5 3.99902 58.5s15 36.5 29 52.5s33 29.833 57 41.5s53.333 19.834 88 24.501z" />
    <glyph glyph-name="nine" unicode="9" horiz-adv-x="443" 
d="M419 387c0 -22.667 -1.33203 -48.166 -3.99902 -76.499s-6.5 -56.666 -11.5 -84.999s-11 -56 -18 -83s-14.833 -51 -23.5 -72s-18.334 -37.833 -29.001 -50.5s-21.667 -19 -33 -19c-20 0 -35.5 5 -46.5 15s-19.833 22.5 -26.5 37.5s-12.5 31.167 -17.5 48.5
s-11.167 33.333 -18.5 48c-7.33301 17.333 -13.5 29.833 -18.5 37.5s-10.5 14 -16.5 19s-13.833 10.167 -23.5 15.5s-22.834 14.333 -39.501 27c-10 7.33301 -19.833 16.5 -29.5 27.5s-18.167 23 -25.5 36s-13.333 26.667 -18 41s-7 28.833 -7 43.5
c-2.66699 20 -1 40.333 5 61s15.5 40.167 28.5 58.5s29.167 35.166 48.5 50.499s41.333 28 66 38c8 3.33301 20.333 7.16602 37 11.499s34.834 6.66602 54.501 6.99902s39.667 -2.5 60 -8.5s38.666 -17.5 54.999 -34.5s29.333 -41.167 39 -72.5
s13.834 -71.666 12.501 -120.999z" />
    <glyph glyph-name="colon" unicode=":" horiz-adv-x="182" 
d="M45 448c8.66699 8.66699 20.502 13.0029 35.502 13.0029s31.167 -4.33301 48.5 -13c12.667 -8.66699 21.167 -20.334 25.5 -35.001s4.83301 -29.334 1.5 -44.001s-10.333 -27.667 -21 -39s-24 -17.666 -40 -18.999c-16.667 -1.33301 -33.334 2.66699 -50.001 12
s-26.334 23.333 -29.001 42c-2 12.667 -2.33301 23.167 -1 31.5s3.5 15.666 6.5 21.999s6.5 11.666 10.5 15.999zM21.002 104.003c7.33301 19.333 16.498 31.501 27.498 36.501s25.5 7.5 43.5 7.5s32.333 -3 43 -9s18.5 -13.5 23.5 -22.5s7.66699 -19.333 8 -31
s-0.5 -22.834 -2.5 -33.501c-4.66699 -20.667 -15.5 -35.334 -32.5 -44.001s-36.167 -9.66699 -57.5 -3c-27.333 8.66699 -45.166 22.834 -53.499 42.501s-8.16602 38.5 0.500977 56.5z" />
    <glyph glyph-name="semicolon" unicode=";" horiz-adv-x="196" 
d="M48 451c8.66699 9.33301 20.835 14.002 36.502 14.002s32.167 -4.66699 49.5 -14c12.667 -8.66699 21.167 -19.834 25.5 -33.501s5 -27.5 2 -41.5s-9.83301 -26.833 -20.5 -38.5s-24.334 -19.5 -41.001 -23.5c-17.333 0 -33.833 4.33301 -49.5 13
s-27.834 21.667 -36.501 39c0 25.333 3.5 43.666 10.5 54.999s14.833 21.333 23.5 30zM48.001 -81.998c-4.66699 4.66699 -6.49805 9.16895 -5.49805 13.502s3.16699 8.5 6.5 12.5l10.5 12c3.66699 4 5.5 8.33301 5.5 13c4 8.66699 3.5 18.167 -1.5 28.5
s-11.167 21.166 -18.5 32.499s-13.833 23.333 -19.5 36s-6.5 25.667 -2.5 39c5.33301 17.333 13.166 31 23.499 41s21.833 16.167 34.5 18.5s25.5 1.33301 38.5 -3s24.167 -12 33.5 -23s16.166 -25 20.499 -42s4.5 -36.833 0.5 -59.5c-5.33301 -25.333 -14 -47.5 -26 -66.5
s-24.667 -33.833 -38 -44.5s-26 -16.834 -38 -18.501s-20 1.83301 -24 10.5z" />
    <glyph glyph-name="less" unicode="&#x3c;" horiz-adv-x="435" 
d="M16 353c4 25.333 16.166 49.165 36.499 71.498s44 42 71 59s54.833 31.333 83.5 43s53 19.5 73 23.5c24.667 4.66699 46.834 7 66.501 7s35.667 -3.16699 48 -9.5s20.5 -15.666 24.5 -27.999s2.66699 -28.5 -4 -48.5c-6.66699 -15.333 -13.5 -34 -20.5 -56
s-12 -46.667 -15 -74s-3 -56.833 0 -88.5s11.167 -64.834 24.5 -99.501c4.66699 -23.333 4 -40.666 -2 -51.999s-15.5 -18.5 -28.5 -21.5s-28.333 -2.66699 -46 1s-36 8.83398 -55 15.501s-37.667 14.167 -56 22.5s-34.166 15.833 -47.499 22.5
c-20 10 -39.833 22.667 -59.5 38s-36.834 32.5 -51.501 51.5s-26.167 39 -34.5 60s-10.833 41.833 -7.5 62.5z" />
    <glyph glyph-name="equal" unicode="=" horiz-adv-x="473" 
d="M456 421c0 -14 -7 -24.666 -21 -31.999s-31.833 -12.666 -53.5 -15.999s-45.667 -5.33301 -72 -6s-51.833 -1 -76.5 -1c-24 0 -49.167 0.333008 -75.5 1s-50.333 3.16699 -72 7.5s-39.5 11.166 -53.5 20.499s-21 22.666 -21 39.999s7 30 21 38s31.833 13.333 53.5 16
s45.667 3.66699 72 3s51.5 -1 75.5 -1c20.667 0 44 -1 70 -3s50.333 -5.66699 73 -11s41.667 -12.5 57 -21.5s23 -20.5 23 -34.5zM25 255.001c0 14 6.33691 25.3311 19.0039 33.998s29 15.667 49 21s42.333 9 67 11s49 3 73 3c24.667 0 50.167 -0.333008 76.5 -1
s50.333 -3.16699 72 -7.5s39.5 -11.166 53.5 -20.499s21 -22.666 21 -39.999s-7 -30.833 -21 -40.5s-31.333 -16.667 -52 -21s-43.334 -6.83301 -68.001 -7.5s-47.334 -1 -68.001 -1s-44.5 1 -71.5 3s-52.333 5.66699 -76 11s-42.834 12.5 -57.501 21.5
s-20.334 20.5 -17.001 34.5z" />
    <glyph glyph-name="greater" unicode="&#x3e;" horiz-adv-x="427" 
d="M409 288c-4 -25.333 -15.666 -49.666 -34.999 -72.999s-41.5 -44.333 -66.5 -63s-51.167 -34.334 -78.5 -47.001s-51 -21 -71 -25c-24.667 -5.33301 -46.834 -7.83301 -66.501 -7.5s-35.667 3.66602 -48 9.99902s-20.5 15.666 -24.5 27.999s-2.66699 28.5 4 48.5
c6.66699 14.667 12.834 32.834 18.501 54.501s9.16699 45.834 10.5 72.501s0 55.5 -4 86.5s-12.667 63.833 -26 98.5c-4.66699 23.333 -3.5 40.5 3.5 51.5s17.667 17.833 32 20.5s31.166 2 50.499 -2s39 -9.66699 59 -17s39.5 -15.333 58.5 -24l49.5 -23
c20 -10 39 -20.833 57 -32.5s33.5 -25 46.5 -40s22.333 -32 28 -51s6.5 -40.833 2.5 -65.5z" />
    <glyph glyph-name="question" unicode="?" horiz-adv-x="413" 
d="M214 120c12.667 -6 21.9961 -15 27.9961 -27s9 -24.333 9 -37c-3.33301 -13.333 -9.16602 -24 -17.499 -32s-17.666 -13.5 -27.999 -16.5s-20.666 -3.66699 -30.999 -2s-18.5 5.5 -24.5 11.5c-12.667 13.333 -19 28.5 -19 45.5s6.33301 32.167 19 45.5
c6 6 12.167 10 18.5 12s12.333 3 18 3s10.834 -0.5 15.501 -1.5s8.66699 -1.5 12 -1.5zM173.996 154c-10.667 4.66699 -17.166 10.501 -19.499 17.501s-3 15 -2 24s2.83301 19.5 5.5 31.5s4 25.667 4 41c2.66699 18 4.16699 33.833 4.5 47.5s-2.16699 26.5 -7.5 38.5
s-15 24.167 -29 36.5s-34 26.5 -60 42.5c-24 18 -40.167 37.667 -48.5 59s-9.83301 42.5 -4.5 63.5s16.833 40.833 34.5 59.5s41.167 34.667 70.5 48c28.667 16 58.5 25.167 89.5 27.5s59.5 -2.33398 85.5 -14.001s48 -30.667 66 -57s28.667 -60.5 32 -102.5
c3.33301 -28 1.16602 -56.667 -6.50098 -86s-18.5 -57.833 -32.5 -85.5s-30.167 -53.5 -48.5 -77.5s-36.166 -44.833 -53.499 -62.5s-33.333 -31.167 -48 -40.5s-25.334 -13 -32.001 -11z" />
    <glyph glyph-name="at" unicode="@" horiz-adv-x="749" 
d="M523 198c5.33301 -8.66699 11.668 -12.666 19.001 -11.999c6.66699 0.666992 15.167 5.66699 25.5 15s22.833 28.333 37.5 57c10.667 21.333 14.667 45 12 71s-10.5 51.5 -23.5 76.5s-30.5 48 -52.5 69s-46.5 37.5 -73.5 49.5s-55.667 17.833 -86 17.5
s-60.833 -9.16602 -91.5 -26.499c-42 -27.333 -76.833 -62.5 -104.5 -105.5s-46.834 -88.333 -57.501 -136s-12.334 -94.834 -5.00098 -141.501s25 -87 53 -121c18.667 -23.333 29 -40 31 -50s-1.5 -14.667 -10.5 -14s-21.5 6 -37.5 16s-32.333 23.333 -49 40s-32 36 -46 58
s-23.333 45.667 -28 71c-10.667 34.667 -15 74 -13 118s11 88 27 132s39 85.833 69 125.5s67.667 72.834 113 99.501c35.333 20.667 75.5 31.334 120.5 32.001s89.333 -6.66602 133 -21.999s84.5 -37.833 122.5 -67.5s67.5 -64.834 88.5 -105.501s31 -85.834 30 -135.501
s-18.167 -101.834 -51.5 -156.501c-20.667 -34 -38.167 -59.333 -52.5 -76s-26.666 -27.834 -36.999 -33.501s-19.833 -7 -28.5 -4s-17.5 7 -26.5 12s-19.333 9.5 -31 13.5s-25.834 4.66699 -42.501 2c-25.333 -8 -50.5 -16.667 -75.5 -26s-49.333 -14.666 -73 -15.999
s-46.334 4 -68.001 16s-41.167 35.333 -58.5 70c-9.33301 22.667 -12.833 47.167 -10.5 73.5s8.66602 52.166 18.999 77.499s23.833 49.333 40.5 72s34.5 42 53.5 58s38.333 27.667 58 35s37.834 8.33301 54.501 3c28 -8 50.333 -19.167 67 -33.5s29.334 -29.5 38.001 -45.5
s14.334 -32 17.001 -48s4 -29.667 4 -41v-63v0z" />
    <glyph glyph-name="A" unicode="A" 
d="M338 628c18.667 0 37.8389 -9.83398 57.5059 -29.501s38.834 -45.167 57.501 -76.5s36 -66.333 52 -105s30 -76.667 42 -114s21 -72 27 -104s8 -57.333 6 -76c-9.33301 -56.667 -29 -94.667 -59 -114s-67.667 -15.333 -113 12l-47 29
c-11.333 7.33301 -20.833 12.833 -28.5 16.5s-15 5.83398 -22 6.50098s-16.5 1 -28.5 1c-22.667 -0.666992 -44.834 -7.66699 -66.501 -21l-70.5 -43c-10 -7.33301 -22.833 -11.666 -38.5 -12.999s-30.167 1.83398 -43.5 9.50098s-23.333 20.667 -30 39
s-6.33398 44.166 0.999023 77.499c3.33301 23.333 10.166 52 20.499 86s23.166 69.667 38.499 107s32.666 74.666 51.999 111.999s39.666 70.833 60.999 100.5s43.166 53.667 65.499 72s44.5 27.5 66.5 27.5z" />
    <glyph glyph-name="B" unicode="B" horiz-adv-x="559" 
d="M122 626c22 10.667 46.667 16 74 16s55.166 -3.33301 83.499 -10s56.166 -16.334 83.499 -29.001s52.166 -26.5 74.499 -41.5s41 -30.333 56 -46s24.5 -30.5 28.5 -44.5c8.66699 -20.667 10 -37.834 4 -51.501s-14.333 -26 -25 -37l-31 -31.5
c-10 -10 -15 -21.333 -15 -34s1.83301 -22.334 5.5 -29.001s8.33398 -13.334 14.001 -20.001s11.667 -14.667 18 -24s12.5 -23 18.5 -41c8.66699 -23.333 7 -45.666 -5 -66.999s-29.667 -40.666 -53 -57.999s-50.666 -32.166 -81.999 -44.499s-62.333 -20.833 -93 -25.5
c-28 -5.33301 -54.5 -8.5 -79.5 -9.5s-47.167 0.333008 -66.5 4s-35.666 10 -48.999 19s-22.666 21.167 -27.999 36.5c-6 16 -10.833 38.167 -14.5 66.5s-6.33398 58.5 -8.00098 90.5s-2.5 63.333 -2.5 94s0.333008 56 1 76c1.33301 18 2.5 38.667 3.5 62
s4.16699 46.5 9.5 69.5s14 44.333 26 64s29.333 34.834 52 45.501z" />
    <glyph glyph-name="C" unicode="C" horiz-adv-x="555" 
d="M27 347c2.66699 32 7.83398 60.8311 15.501 86.498s18.5 49 32.5 70s31 40.333 51 58s43.333 34.167 70 49.5c26 13.333 55.5 21.5 88.5 24.5s64.333 1.66699 94 -4s55 -15.667 76 -30s32.833 -31.833 35.5 -52.5c0 -24 -2.66699 -45.5 -8 -64.5
s-11.666 -36.5 -18.999 -52.5s-14.5 -30.833 -21.5 -44.5s-11.833 -27.167 -14.5 -40.5c-5.33301 -12.667 -7 -25.167 -5 -37.5s6.66699 -25 14 -38s16.833 -27 28.5 -42l37.5 -49.5c12.667 -18.667 20 -38.667 22 -60s-2.83301 -41.166 -14.5 -59.499
s-31.167 -34.166 -58.5 -47.499s-63.333 -21.333 -108 -24s-87.334 5.16602 -128.001 23.499s-75.667 43.833 -105 76.5s-51.833 71.334 -67.5 116.001s-20.834 92 -15.501 142z" />
    <glyph glyph-name="D" unicode="D" horiz-adv-x="561" 
d="M530 322c0 -43.333 -8.33203 -84.4971 -24.999 -123.497s-39.834 -73.333 -69.501 -103s-64.834 -53.334 -105.501 -71.001s-85 -26.5 -133 -26.5c-33.333 0 -60.333 4.66699 -81 14s-36.667 21.666 -48 36.999s-19 32.833 -23 52.5s-6 40.167 -6 61.5
s0.833008 42.166 2.5 62.499s2.5 39.166 2.5 56.499c0 16.667 -1.16699 36.834 -3.5 60.501s-4 48.167 -5 73.5s-0.166992 50.5 2.5 75.5s8.83398 47.333 18.501 67s24 35.667 43 48s44.5 18.5 76.5 18.5c48 0 93.5 -6.33301 136.5 -19s80.667 -31.667 113 -57
s57.833 -57 76.5 -95s28 -82 28 -132z" />
    <glyph glyph-name="E" unicode="E" horiz-adv-x="481" 
d="M30 271c-3.33301 26.667 -3.66504 54.333 -0.998047 83s8.16699 56.667 16.5 84s19.833 53 34.5 77s32.167 45 52.5 63s43.666 31.833 69.999 41.5s55.5 13.834 87.5 12.501c37.333 -2.66699 65.5 -9.66699 84.5 -21s31 -24.5 36 -39.5s4.5 -30.667 -1.5 -47
s-15 -30.5 -27 -42.5c-10 -12.667 -17.667 -23.167 -23 -31.5s-8.33301 -15.666 -9 -21.999s0.833008 -12.333 4.5 -18s9.5 -11.834 17.5 -18.501c6.66699 -5.33301 13.667 -10.333 21 -15s13.666 -9.66699 18.999 -15s9.83301 -12 13.5 -20s5.5 -18.333 5.5 -31
c2 -15.333 0.166992 -28.333 -5.5 -39s-12.167 -20 -19.5 -28l-19.5 -22c-5.66699 -6.66699 -7.16699 -13.334 -4.5 -20.001c2 -7.33301 7.33301 -14.5 16 -21.5s17.334 -14.667 26.001 -23s16 -17.833 22 -28.5s7.66699 -23.667 5 -39
c-2.66699 -14.667 -8.33398 -28.5 -17.001 -41.5s-20.167 -23.833 -34.5 -32.5s-31.5 -14.667 -51.5 -18s-42.667 -2.33301 -68 3c-30 5.33301 -59.5 14.333 -88.5 27s-55 30 -78 52s-42.167 48.667 -57.5 80s-24 68.333 -26 111z" />
    <glyph glyph-name="F" unicode="F" horiz-adv-x="477" 
d="M36 407c2.66699 20 9.50195 43.499 20.502 70.499s26 52.333 45 76s41.833 43.334 68.5 59.001s57 22.167 91 19.5c28 0 54.167 -4 78.5 -12s45.5 -18 63.5 -30s31.833 -25.333 41.5 -40s13.167 -28.667 10.5 -42c0 -15.333 -6.16699 -28.333 -18.5 -39
s-26.166 -20.667 -41.499 -30l-44.5 -28c-14.333 -9.33301 -23.833 -20.333 -28.5 -33c-8 -10.667 -10.333 -19.167 -7 -25.5s8.5 -13 15.5 -20s14.167 -15.667 21.5 -26s11 -24.5 11 -42.5c0 -17.333 -4.83301 -30.166 -14.5 -38.499s-20.334 -15.333 -32.001 -21
s-22.334 -11.834 -32.001 -18.501s-14.5 -17.334 -14.5 -32.001c0 -16 -1.83301 -32.667 -5.5 -50s-8.83398 -33.333 -15.501 -48s-15.167 -27.167 -25.5 -37.5s-21.833 -16.833 -34.5 -19.5s-25.167 -1 -37.5 5s-24.166 15.333 -35.499 28s-22 28.334 -32 47.001
s-18.667 40 -26 64c-8 20 -14.667 38.667 -20 56s-9 35.833 -11 55.5s-2.33301 41.5 -1 65.5s4.66602 53 9.99902 87z" />
    <glyph glyph-name="G" unicode="G" horiz-adv-x="605" 
d="M120 47c-22.667 17.333 -41.166 36.1689 -55.499 56.502s-25.166 43 -32.499 68s-11.833 52.667 -13.5 83s-1.16699 64.166 1.5 101.499c1.33301 24.667 7.16602 48.334 17.499 71.001s23.166 43.834 38.499 63.501s32.833 37.667 52.5 54s39.5 30.333 59.5 42
s39.5 20.667 58.5 27s36.167 9.5 51.5 9.5c22.667 0 43 -2.33301 61 -7s32.167 -11 42.5 -19s16.5 -17.5 18.5 -28.5s-2 -22.5 -12 -34.5c-7.33301 -6.66699 -15.5 -13.667 -24.5 -21s-16.667 -14.833 -23 -22.5s-10.166 -15.667 -11.499 -24s2 -17 10 -26
s22 -18.167 42 -27.5s48.333 -18.666 85 -27.999c30 -8 52.167 -21.333 66.5 -40s23.166 -40 26.499 -64s2.5 -49.333 -2.5 -76s-12.167 -52.167 -21.5 -76.5s-19.5 -46.333 -30.5 -66s-20.833 -34.167 -29.5 -43.5c-14 -12.667 -24.833 -19.834 -32.5 -21.501
s-14.834 -0.833984 -21.501 2.49902l-24 12c-9.33301 4.66699 -22.666 7 -39.999 7c-14.667 -2.66699 -32.167 -6.83398 -52.5 -12.501s-42 -9.33398 -65 -11.001s-46.5 1 -70.5 8s-47 21.5 -69 43.5z" />
    <glyph glyph-name="H" unicode="H" horiz-adv-x="631" 
d="M317 553c20 0 36.999 3.66504 50.999 10.998s27 15.5 39 24.5s24.167 17.333 36.5 25s27.5 11.5 45.5 11.5c24.667 0 45 -10.167 61 -30.5s28.333 -45.5 37 -75.5s14.667 -62.667 18 -98s5 -68 5 -98c0 -33.333 -2.5 -68.333 -7.5 -105s-13.167 -70.334 -24.5 -101.001
s-26 -56.167 -44 -76.5s-39.667 -30.5 -65 -30.5c-22.667 0 -40.5 2.5 -53.5 7.5s-24.333 10.667 -34 17s-19 12 -28 17s-21.167 7.5 -36.5 7.5c-17.333 0 -31.833 -3.16699 -43.5 -9.5s-23.167 -13.166 -34.5 -20.499s-24 -14.166 -38 -20.499s-32.333 -9.5 -55 -9.5
c-20.667 0 -38.5 9.66699 -53.5 29s-27.5 44.5 -37.5 75.5s-17.5 65.833 -22.5 104.5s-7.5 77 -7.5 115c0 37.333 2 73.666 6 108.999s10.5 66.833 19.5 94.5s20.333 50.334 34 68.001s30.5 27.834 50.5 30.501c22.667 2 40.334 -0.5 53.001 -7.5s24.334 -15.333 35.001 -25
s22.667 -18.667 36 -27s32.666 -12.5 57.999 -12.5z" />
    <glyph glyph-name="I" unicode="I" horiz-adv-x="314" 
d="M146 621c28 0 51 -9.00098 69 -27.001s32.5 -41 43.5 -69s18.667 -59.167 23 -93.5s6.5 -67.833 6.5 -100.5c0 -35.333 -1.16699 -72.5 -3.5 -111.5s-7.83301 -74.833 -16.5 -107.5s-21.667 -59.667 -39 -81s-41 -32 -71 -32c-22 0 -40.5 4.83301 -55.5 14.5
s-27.5 22.834 -37.5 39.501s-17.5 35.667 -22.5 57s-8.83301 43.5 -11.5 66.5s-4.16699 46.167 -4.5 69.5s-0.5 45 -0.5 65c-2.66699 30 -1.16699 63 4.5 99s14.167 69.667 25.5 101s24.833 57.5 40.5 78.5s32.167 31.5 49.5 31.5z" />
    <glyph glyph-name="J" unicode="J" horiz-adv-x="599" 
d="M271 623c42.667 2 82.1758 1.66797 118.509 -0.999023s67.666 -8.33398 93.999 -17.001s47.5 -20.667 63.5 -36s25.333 -34.333 28 -57c0 -13.333 -5.83301 -25.5 -17.5 -36.5s-24.834 -22.667 -39.501 -35s-28.334 -26.666 -41.001 -42.999
s-20.334 -35.833 -23.001 -58.5c-5.33301 -20.667 -9.33301 -42.167 -12 -64.5s-6.83398 -45.166 -12.501 -68.499s-14.334 -46.833 -26.001 -70.5s-28.834 -46.834 -51.501 -69.501c-25.333 -20.667 -53.333 -37.167 -84 -49.5s-59.834 -19.5 -87.501 -21.5
s-51.834 1.66699 -72.501 11s-33.334 25.333 -38.001 48c-4 14 -3 26.667 3 38s14 22.666 24 33.999s21 23 33 35s22.333 25.5 31 40.5s14.334 32 17.001 51s0 41.167 -8 66.5c-8.66699 25.333 -18.5 45.833 -29.5 61.5s-22 28.5 -33 38.5s-21.667 18.167 -32 24.5
s-19.333 12.833 -27 19.5s-13.5 14.334 -17.5 23.001s-5.33301 20.667 -4 36c0 20 8 36.667 24 50s36 23.666 60 30.999s50.333 12.5 79 15.5s55.667 4.5 81 4.5z" />
    <glyph glyph-name="K" unicode="K" horiz-adv-x="517" 
d="M29 321c0 42.667 0.500977 82.5029 1.50098 119.503s4 69.333 9 97s13 50 24 67s26.5 26.833 46.5 29.5s35.833 -1.33301 47.5 -12s22.167 -23.167 31.5 -37.5s19.166 -28.666 29.499 -42.999s24.166 -23.833 41.499 -28.5c20.667 -2.66699 42.5 -2.33398 65.5 0.999023
s44.833 5.83301 65.5 7.5s39.334 1 56.001 -2s28.667 -12.167 36 -27.5s5.66602 -30.5 -5.00098 -45.5s-24.167 -30.333 -40.5 -46l-48.5 -48c-16 -16.333 -25.333 -33.5 -28 -51.5c-1.33301 -12 0.833984 -24.667 6.50098 -38s13 -27 22 -41l28 -42
c9.66699 -14 17.834 -27.5 24.501 -40.5s10.5 -25.667 11.5 -38s-2.5 -23.5 -10.5 -33.5c-10 -17.333 -21.833 -26 -35.5 -26s-28.667 3.5 -45 10.5l-53 23.5c-19 8.66699 -38.5 13 -58.5 13c-20 -2.66699 -35.333 -8.83398 -46 -18.501s-20.5 -19.834 -29.5 -30.501
s-18.833 -20.334 -29.5 -29.001s-26.334 -13 -47.001 -13c-17.333 2.66699 -30.833 15.667 -40.5 39s-16.667 51.5 -21 84.5s-6.83301 67.5 -7.5 103.5s-1 68 -1 96z" />
    <glyph glyph-name="L" unicode="L" horiz-adv-x="479" 
d="M198 627c28.667 1.33301 51.3369 -3.49902 68.0039 -14.499s29.167 -26.167 37.5 -45.5s13.5 -41.5 15.5 -66.5s2.83301 -50.5 2.5 -76.5s-1.33301 -51.333 -3 -76s-1.5 -46.334 0.5 -65.001c1.33301 -18.667 5.83301 -33.834 13.5 -45.501s16.667 -21.5 27 -29.5
s21.166 -14.667 32.499 -20s21.5 -11 30.5 -17s16.167 -12.667 21.5 -20s7.33301 -17 6 -29c0 -28 -9.5 -51 -28.5 -69s-42.333 -31.333 -70 -40s-57.334 -13.167 -89.001 -13.5s-59.834 3.16699 -84.501 10.5c-55.333 15.333 -94.5 45.333 -117.5 90
s-34.5 102.334 -34.5 173.001c0 48 5.16699 93.5 15.5 136.5s23.666 80.5 39.999 112.5s34.833 57.5 55.5 76.5s41 28.5 61 28.5z" />
    <glyph glyph-name="M" unicode="M" horiz-adv-x="817" 
d="M741 28c-14 -5.33301 -28.5059 -6.66211 -43.5059 -3.99512s-29.833 7 -44.5 13s-29 12.5 -43 19.5s-27 11.833 -39 14.5c-12 6 -23.5 5.5 -34.5 -1.5s-22.5 -15.833 -34.5 -26.5s-25 -21 -39 -31s-29.667 -15 -47 -15c-14 0 -27.5 3.5 -40.5 10.5s-26 15 -39 24
s-26.167 17.5 -39.5 25.5s-27.333 13.333 -42 16c-12 3.33301 -24.667 2 -38 -4s-26.666 -13.333 -39.999 -22s-27 -17 -41 -25s-28 -12 -42 -12c-25.333 -5.33301 -44.166 7.16699 -56.499 37.5s-16.166 73.166 -11.499 128.499l12.5 66c5 26 11.167 53.667 18.5 83
s15.5 59 24.5 89s19 58.167 30 84.5s23.167 49.5 36.5 69.5s28 34.667 44 44c24 13.333 44.833 20.166 62.5 20.499s34.334 -2.33398 50.001 -8.00098s31.167 -12.334 46.5 -20.001s33 -12.834 53 -15.501c16.667 -6 32.334 -7.5 47.001 -4.5s29.334 7.5 44.001 13.5
s30 11.667 46 17s34 6.66602 54 3.99902c20 -2 38.667 -11.333 56 -28s33 -37.667 47 -63s26.5 -53.166 37.5 -83.499s20.5 -60.333 28.5 -90s14.333 -57.167 19 -82.5s8 -45.333 10 -60c4 -44 2.66699 -81.833 -4 -113.5s-22.667 -55.167 -48 -70.5z" />
    <glyph glyph-name="N" unicode="N" horiz-adv-x="745" 
d="M97 570c14.667 22 30.5 35.8271 47.5 41.4941s34.667 6.33398 53 2.00098s37.166 -12.166 56.499 -23.499s38.166 -23.5 56.499 -36.5l53 -36.5c17 -11.333 32.833 -19 47.5 -23c14.667 -3.33301 27.667 -2.16602 39 3.50098s21.5 13.667 30.5 24s17.5 22 25.5 35
s16.167 24.833 24.5 35.5s16.833 19.5 25.5 26.5s18.667 9.5 30 7.5c8.66699 0 19.834 -11.5 33.501 -34.5s27 -52.667 40 -89s24.333 -77 34 -122s15 -89.667 16 -134s-3.66699 -85.833 -14 -124.5s-29.166 -70 -56.499 -94c-21.333 -21.333 -43.166 -34 -65.499 -38
s-44.333 -2.66699 -66 4s-42.667 17.167 -63 31.5s-39.333 28.666 -57 42.999l-48 39c-14.333 11.667 -26.166 18.5 -35.499 20.5c-14 2.66699 -25.5 -2.5 -34.5 -15.5s-17.833 -27.833 -26.5 -44.5s-18.334 -31.5 -29.001 -44.5s-24.334 -18.167 -41.001 -15.5
c-10.667 0 -23.5 8.83301 -38.5 26.5s-29.5 41.334 -43.5 71.001s-26.333 63.834 -37 102.501s-17 78.834 -19 120.501s1.5 83.334 10.5 125.001s26.167 80.5 51.5 116.5z" />
    <glyph glyph-name="O" unicode="O" horiz-adv-x="653" 
d="M37 202c-7.33301 24.667 -11.9971 52.1689 -13.9971 82.502s0.166992 61 6.5 92s17.333 61.5 33 91.5s37.167 57.667 64.5 83c31.333 28 65.166 47.667 101.499 59s72.666 15.5 108.999 12.5s71.666 -12.333 105.999 -28s65 -36.334 92 -62.001s49.333 -55.667 67 -90
s28.167 -71.166 31.5 -110.499c2.66699 -44.667 -1.16602 -86.334 -11.499 -125.001s-27.333 -72.667 -51 -102s-54.334 -52.833 -92.001 -70.5s-82.5 -27.834 -134.5 -30.501c-44.667 -5.33301 -84 -3 -118 7s-63.5 24.667 -88.5 44s-45.667 41.833 -62 67.5
s-29.5 52.167 -39.5 79.5z" />
    <glyph glyph-name="P" unicode="P" horiz-adv-x="463" 
d="M21 363c-4.66699 42.667 -2.49707 79.834 6.50293 111.501s22.833 58.167 41.5 79.5s40.667 37.666 66 48.999s51.666 18.333 78.999 21s54.5 1.16699 81.5 -4.5s51.167 -14.834 72.5 -27.501c32 -17.333 53.333 -38.833 64 -64.5s14.334 -51.834 11.001 -78.501
s-11.5 -52.167 -24.5 -76.5s-26.833 -44.166 -41.5 -59.499l-40.5 -35c-9.66699 -8.66699 -17.167 -17 -22.5 -25s-9.83301 -17 -13.5 -27s-8.16699 -23.667 -13.5 -41l-22.5 -61.5c-7.66699 -21 -16.834 -40.167 -27.501 -57.5s-23 -31.666 -37 -42.999
s-30.667 -17 -50 -17c-12 -1.33301 -23.167 3 -33.5 13s-20 24.167 -29 42.5s-17.333 39.666 -25 63.999s-14.334 50 -20.001 77s-10.334 54.333 -14.001 82s-6.16699 53.834 -7.5 78.501z" />
    <glyph glyph-name="Q" unicode="Q" horiz-adv-x="659" 
d="M372 619c54.667 -10.667 95.832 -24.6699 123.499 -42.0029s46.167 -33.333 55.5 -48c25.333 -24.667 44.833 -56.167 58.5 -94.5s20.5 -80.166 20.5 -125.499c0 -20 -1.5 -37.167 -4.5 -51.5s-6 -27.666 -9 -39.999s-5.33301 -24.5 -7 -36.5s-1.16699 -25.333 1.5 -40
c2.66699 -7.33301 6.16699 -15.833 10.5 -25.5s8.33301 -19.5 12 -29.5s6.33398 -19.833 8.00098 -29.5s1.16699 -18.5 -1.5 -26.5c-5.33301 -14.667 -14.333 -24.5 -27 -29.5s-26.667 -4.83301 -42 0.5c-19.333 0 -35.333 2.16699 -48 6.5l-41 14.5c-15.333 4 -30 5 -44 3
s-26.333 -3 -37 -3c-29.333 -5.33301 -57.166 -9.66602 -83.499 -12.999s-54.5 -2.33301 -84.5 3c-42 10 -77.5 27.167 -106.5 51.5s-51.833 53 -68.5 86s-27.667 68.5 -33 106.5s-5.33301 75.667 0 113c7.33301 40 22.5 76.833 45.5 110.5s50.5 62 82.5 85
s67.167 39.667 105.5 50s76.166 11.833 113.499 4.5z" />
    <glyph glyph-name="R" unicode="R" horiz-adv-x="493" 
d="M24 316c-3.33301 53.333 0.333008 101.334 11 144.001c4.66699 18 11 36 19 54s18.5 34.333 31.5 49s28.667 27 47 37s40.5 16.333 66.5 19c54 7.33301 99.333 6 136 -4s65.834 -25.833 87.501 -47.5s36.167 -47.834 43.5 -78.501s8.66602 -63 3.99902 -97
c-2.66699 -29.333 -10 -52.666 -22 -69.999s-24.333 -31 -37 -41l-31.5 -24.5c-8.33301 -6.33301 -10.166 -13.166 -5.49902 -20.499c10 -12 21 -28.5 33 -49.5s22 -42 30 -63s13 -40.333 15 -58s-2 -28.834 -12 -33.501s-23.333 -3.66699 -40 3s-34.834 14.667 -54.501 24
s-39.667 18 -60 26s-38.833 11 -55.5 9c-17.333 -2.66699 -30.5 -9.33398 -39.5 -20.001s-16.5 -21.667 -22.5 -33s-12.167 -21 -18.5 -29s-15.5 -11 -27.5 -9c-22 2.66699 -39.5 12.667 -52.5 30s-22.833 40 -29.5 68s-11 60.5 -13 97.5s-3 76.167 -3 117.5z" />
    <glyph glyph-name="S" unicode="S" horiz-adv-x="523" 
d="M67 597c14.667 15.333 35.332 25.166 61.999 29.499s55.334 5 86.001 2s61.834 -9.16699 93.501 -18.5s60 -20.333 85 -33s45.167 -26.167 60.5 -40.5s22 -28.166 20 -41.499c-2 -15.333 -6.5 -27.5 -13.5 -36.5s-15.167 -16.167 -24.5 -21.5s-19 -9.33301 -29 -12
s-18.5 -5.16699 -25.5 -7.5s-11.833 -5.33301 -14.5 -9s-1.33398 -8.83398 3.99902 -15.501c6.66699 -6.66699 16.5 -15.834 29.5 -27.501s26.167 -25.167 39.5 -40.5s25.666 -32.5 36.999 -51.5s18.833 -39 22.5 -60s2.33398 -43 -3.99902 -66s-20.5 -46.167 -42.5 -69.5
c-30.667 -33.333 -63.167 -56 -97.5 -68s-68 -16 -101 -12s-64.167 14.167 -93.5 30.5s-54 36.166 -74 59.499c-20 22.667 -35 42 -45 58s-16.667 29.333 -20 40s-4.33301 19.334 -3 26.001s3.33301 12.667 6 18c2.66699 2.66699 10.167 5.33398 22.5 8.00098
s24 5.83398 35 9.50098s18.167 8.16699 21.5 13.5s-2.33398 12 -17.001 20c-12.667 10 -26.167 25.833 -40.5 47.5s-24.666 47 -30.999 76s-6.33301 60 0 93s23.5 66.167 51.5 99.5z" />
    <glyph glyph-name="T" unicode="T" horiz-adv-x="591" 
d="M267 628c52.667 0 98.6689 -4.00195 138.002 -12.002s71.666 -18.167 96.999 -30.5s43.833 -26.333 55.5 -42s16.167 -31.167 13.5 -46.5s-11 -29 -25 -41l-46 -38c-16.667 -13.333 -32 -28 -46 -44s-22.333 -35.333 -25 -58c-2 -15.333 -3.83301 -33.666 -5.5 -54.999
s-4.33398 -43.666 -8.00098 -66.999s-8.33398 -46.5 -14.001 -69.5s-13.167 -43.5 -22.5 -61.5s-20.5 -32.667 -33.5 -44s-28.833 -17 -47.5 -17c-17.333 -2 -32 4.16699 -44 18.5s-22.333 32.833 -31 55.5s-16.167 48.167 -22.5 76.5s-11.833 55.833 -16.5 82.5
s-9.16699 50.834 -13.5 72.501s-9.16602 37.5 -14.499 47.5c-10 15.333 -22.833 28.166 -38.5 38.499l-46.5 30.5c-15.333 10 -28.5 21.333 -39.5 34s-16.5 29 -16.5 49c2.66699 18 10.667 33.833 24 47.5s31 25.5 53 35.5s47.833 18.167 77.5 24.5s62.167 10.833 97.5 13.5
z" />
    <glyph glyph-name="U" unicode="U" horiz-adv-x="677" 
d="M345 555c31.333 -2.66699 56.668 -0.99707 76.001 5.00293s36.5 12.667 51.5 20s30.167 13.333 45.5 18s35 4.66699 59 0c15.333 -2 29.666 -13.833 42.999 -35.5s23.666 -49.167 30.999 -82.5s11 -70.5 11 -111.5s-5.33301 -81.833 -16 -122.5
s-27.5 -79.334 -50.5 -116.001s-53.833 -67.334 -92.5 -92.001c-42.667 -26.667 -84.667 -42.167 -126 -46.5s-80 -0.833008 -116 10.5s-68.667 28.666 -98 51.999s-53.333 49.666 -72 78.999c-8.66699 16 -18.167 37 -28.5 63s-19.5 54.5 -27.5 85.5
s-14.333 63.167 -19 96.5s-5.5 65 -2.5 95s10.5 56.833 22.5 80.5s30.333 41.5 55 53.5c18.667 10.667 36.834 14 54.501 10s36.5 -10.667 56.5 -20s41.5 -18.666 64.5 -27.999s49.167 -14 78.5 -14z" />
    <glyph glyph-name="V" unicode="V" horiz-adv-x="651" 
d="M333 0c-30.667 0 -61.667 11.167 -93 33.5s-60.833 51.333 -88.5 87s-52.5 75.334 -74.5 119.001s-38.333 86.834 -49 129.501s-14.834 82.5 -12.501 119.5s13.5 66.5 33.5 88.5c20 20 38.167 33 54.5 39s31.5 7.5 45.5 4.5s27.5 -9.16699 40.5 -18.5l39.5 -28.5
c13.333 -9.66699 27.5 -18.334 42.5 -26.001s31.833 -11.5 50.5 -11.5c18.667 -2 35.5 0 50.5 6s29.167 13.167 42.5 21.5s26.333 17.333 39 27s25.667 17.334 39 23.001s27.5 8.5 42.5 8.5s31.833 -5 50.5 -15c18.667 -8.66699 32.334 -24.167 41.001 -46.5
s13 -48.833 13 -79.5s-4 -64 -12 -100s-18.833 -72 -32.5 -108s-30.167 -70.667 -49.5 -104s-40.333 -62.833 -63 -88.5s-46.667 -45.834 -72 -60.501s-51.333 -21.334 -78 -20.001z" />
    <glyph glyph-name="W" unicode="W" horiz-adv-x="777" 
d="M65 599c14 5.33301 28.6699 5.99902 44.0029 1.99902s30.666 -9.66699 45.999 -17s30.166 -15.166 44.499 -23.499s27.5 -13.833 39.5 -16.5s23.167 0.5 33.5 9.5s20.833 19.333 31.5 31s22.334 22.667 35.001 33s27.667 15.5 45 15.5c14.667 0 28.167 -3.5 40.5 -10.5
s24.333 -14.833 36 -23.5l35 -26c11.667 -8.66699 23.5 -14.334 35.5 -17.001c14 -3.33301 28.333 -1.66602 43 5.00098s29.167 14.334 43.5 23.001s28.833 17 43.5 25s29.334 12 44.001 12c11.333 2.66699 21.166 0.166992 29.499 -7.5s15 -19.334 20 -35.001
s8.16699 -34.5 9.5 -56.5s1 -46 -1 -72c-2 -17.333 -6.33301 -40 -13 -68s-14.834 -57.833 -24.501 -89.5s-20.5 -64 -32.5 -97s-24.167 -63.167 -36.5 -90.5s-24.333 -50.5 -36 -69.5s-22.5 -30.167 -32.5 -33.5c-12 -6 -25.167 -8 -39.5 -6s-29.5 6 -45.5 12
s-32.333 13 -49 21s-33.334 15 -50.001 21c-17.333 2.66699 -33 1.16699 -47 -4.5s-28.333 -12.167 -43 -19.5s-30.334 -14 -47.001 -20s-36 -7.33301 -58 -4c-12.667 0 -26 7.66699 -40 23s-27.833 35.333 -41.5 60s-26.834 52.167 -39.501 82.5s-24 60.5 -34 90.5
s-18.333 57.833 -25 83.5s-11 46.5 -13 62.5c-5.33301 46 -4.66602 85.5 2.00098 118.5s22.334 58.5 47.001 76.5z" />
    <glyph glyph-name="X" unicode="X" horiz-adv-x="657" 
d="M35 610c7.33301 10 17.4971 14.3311 30.4971 12.998s27.333 -6.16602 43 -14.499s32 -18.666 49 -30.999l48.5 -36.5c14.667 -10 27.167 -19.667 37.5 -29s21.166 -16.5 32.499 -21.5s24.666 -7.16699 39.999 -6.5s35.666 6 60.999 16c22.667 12 44.667 26 66 42
s41.666 30.167 60.999 42.5s37.666 21.5 54.999 27.5s33.333 5.33301 48 -2c8.66699 -6.66699 13.667 -16.334 15 -29.001s0.333008 -26.834 -3 -42.501s-8.16602 -32 -14.499 -49s-13.166 -33.333 -20.499 -49l-20.5 -42.5l-14.5 -29l-16 -29
c-5.33301 -9.33301 -8.66602 -19.833 -9.99902 -31.5s0.333984 -24.834 5.00098 -39.501s14.334 -32 29.001 -52c15.333 -17.333 29 -36.666 41 -57.999s21.5 -42 28.5 -62s11 -38 12 -54s-2.16699 -27.667 -9.5 -35c-10 -8 -22.667 -11.5 -38 -10.5s-31.333 4.33301 -48 10
s-32.667 12.334 -48 20.001l-38 19.5c-10 4.66699 -20.167 10.334 -30.5 17.001s-21.5 12.834 -33.5 18.501s-25.167 10 -39.5 13s-30.5 3.16699 -48.5 0.5c-20 -2 -36.167 -4.83301 -48.5 -8.5s-22.666 -7.66699 -30.999 -12s-16.166 -9 -23.499 -14
s-16 -9.83301 -26 -14.5c-10 -8 -21.833 -16.5 -35.5 -25.5s-27.5 -16 -41.5 -21s-27.667 -6.83301 -41 -5.5s-25 8.33301 -35 21c-7.33301 8 -10.166 20 -8.49902 36s5.66699 33.167 12 51.5s14 36.166 23 53.499s17.167 31 24.5 41c5.33301 12.667 11.333 25.667 18 39
s12.167 27 16.5 41s6.5 27.667 6.5 41s-4 26.333 -12 39c-7.33301 12.667 -16.833 31 -28.5 55s-22.167 48.833 -31.5 74.5s-15.5 50 -18.5 73s0.5 39.5 10.5 49.5z" />
    <glyph glyph-name="Y" unicode="Y" horiz-adv-x="595" 
d="M278 -1c-20 0 -35.4951 9.66699 -46.4951 29s-19.833 42.666 -26.5 69.999s-12.334 56.333 -17.001 87s-10.667 57 -18 79c-3.33301 14.667 -10.333 31.5 -21 50.5s-22.834 39 -36.501 60l-41.5 64.5c-14 22 -26 43.333 -36 64s-16.5 39.834 -19.5 57.501
s-0.5 33.167 7.5 46.5c6.66699 11.333 17 18.5 31 21.5s29.833 3.5 47.5 1.5s36.5 -6 56.5 -12l58.5 -18l52.5 -16c16 -4.66699 29 -7 39 -7c9.33301 0 21.833 2.33301 37.5 7l50 15.5c17.667 5.66699 36 11 55 16s36.667 7.83301 53 8.5s30.666 -1.5 42.999 -6.5
s21.166 -14.833 26.499 -29.5c10 -22 10.667 -46 2 -72s-21.334 -54 -38.001 -84l-54.5 -96.5c-19.667 -34.333 -35.5 -71.166 -47.5 -110.499l-38.5 -101.5c-11 -28.333 -22 -51.833 -33 -70.5s-23 -32.334 -36 -41.001s-29.5 -13 -49.5 -13z" />
    <glyph glyph-name="Z" unicode="Z" horiz-adv-x="555" 
d="M24 440c-2.66699 12 0.669922 26.3271 10.0029 42.9941s25.333 33.5 48 50.5s52.5 33.333 89.5 49s82.167 28.834 135.5 39.501c50 7.33301 92.167 6.5 126.5 -2.5s60.5 -23 78.5 -42s28.333 -41.5 31 -67.5s-2.33301 -53 -15 -81
c-12.667 -25.333 -26.5 -48.666 -41.5 -69.999l-40.5 -58.5c-12 -17.667 -21.167 -33.5 -27.5 -47.5s-6.83301 -26 -1.5 -36c2.66699 -10 8.83398 -19.5 18.501 -28.5l29.5 -27c10 -9 18.5 -18 25.5 -27s9.16699 -18.833 6.5 -29.5c-2 -7.33301 -11.5 -17.666 -28.5 -30.999
s-40 -26 -69 -38s-63.333 -21.5 -103 -28.5s-83.5 -8.16699 -131.5 -3.5c-35.333 2.66699 -64 9.83398 -86 21.501s-38.333 26 -49 43s-16.334 35.833 -17.001 56.5s3 41 11 61c4.66699 20.667 12 40.334 22 59.001s19.667 35.834 29 51.501s17.166 29.5 23.499 41.5
s8.16602 22 5.49902 30c-2.66699 7.33301 -7.83398 13.333 -15.501 18s-16 9.16699 -25 13.5s-17.333 9.5 -25 15.5s-12.5 14.333 -14.5 25z" />
    <glyph glyph-name="bracketleft" unicode="[" horiz-adv-x="316" 
d="M276 604c-0.666992 -7.33301 -1.49902 -13.6641 -2.49902 -18.9971s-3.83301 -11 -8.5 -17s-11.834 -12.333 -21.501 -19s-23.5 -14.334 -41.5 -23.001c-10 -8.66699 -18.167 -24.834 -24.5 -48.501s-11.5 -51.334 -15.5 -83.001s-7 -65.5 -9 -101.5
s-3.16699 -70.667 -3.5 -104s0 -63.666 1 -90.999s2.16699 -48 3.5 -62c-1.33301 -17.333 5 -31.333 19 -42s29.5 -19.5 46.5 -26.5l46.5 -19c14 -5.66699 20.667 -11.834 20 -18.501c0 -6.66699 -4.16699 -13.334 -12.5 -20.001s-19.333 -12.167 -33 -16.5
s-29.834 -7.33301 -48.501 -9s-38.667 -1.16699 -60 1.5c-23.333 2.66699 -41.666 6.16699 -54.999 10.5s-23.333 12.5 -30 24.5s-10.834 29.833 -12.501 53.5s-2.5 56.5 -2.5 98.5c-0.666992 28 -1.16699 59.167 -1.5 93.5l-1 105.5
c-0.333008 36 -0.166016 71.5 0.500977 106.5s2 67 4 96s4.5 53.667 7.5 74s7.16699 33.833 12.5 40.5c8 10.667 19 19.167 33 25.5s29.333 10.833 46 13.5s33.5 3.83398 50.5 3.50098s32.5 -1.83301 46.5 -4.5s25.167 -6 33.5 -10s12.5 -8.33301 12.5 -13z" />
    <glyph glyph-name="backslash" unicode="\" horiz-adv-x="833" 
d="M164 644c8.66699 6.66699 18.667 6.16797 30 -1.49902s24.833 -23.334 40.5 -47.001s33.834 -55.667 54.501 -96l72 -147.5c60.667 -102 103.834 -184.5 129.501 -247.5s30.167 -102.167 13.5 -117.5c-10.667 -10.667 -23.5 -9 -38.5 5s-31.5 35.5 -49.5 64.5
s-37 63.333 -57 103l-62 119.5c-33.333 62 -60 114.5 -80 157.5s-34.833 78.667 -44.5 107s-14.834 50.333 -15.501 66s1.66602 27.167 6.99902 34.5z" />
    <glyph glyph-name="bracketright" unicode="]" horiz-adv-x="302" 
d="M35 -93c0.666992 6.66699 1.99902 12.334 3.99902 17.001s5.83301 9.16699 11.5 13.5s13.834 9.16602 24.501 14.499l43 22c10 8.66699 17.5 25 22.5 49s8.5 52.167 10.5 84.5s2.66699 66.666 2 102.999s-1.83398 71.5 -3.50098 105.5s-3.66699 64.833 -6 92.5
s-4.16602 48.5 -5.49902 62.5c1.33301 17.333 -4 31.5 -16 42.5s-25.333 20.333 -40 28s-28 14.334 -40 20.001s-17.667 12.167 -17 19.5c0 6.66699 4.16699 13.167 12.5 19.5s19.333 11.833 33 16.5s29.834 7.83398 48.501 9.50098s38.667 1.16699 60 -1.5
c23.333 -3.33301 41.666 -7 54.999 -11s23.333 -12 30 -24s10.834 -29.833 12.501 -53.5s2.5 -56.5 2.5 -98.5c0.666992 -28 1.16699 -59.167 1.5 -93.5l1 -105.5c0.333008 -36 0.166016 -71.5 -0.500977 -106.5s-2 -67 -4 -96s-4.5 -53.667 -7.5 -74
s-7.16699 -33.833 -12.5 -40.5c-8 -10.667 -19 -19.167 -33 -25.5s-29.333 -10.833 -46 -13.5s-33.5 -3.83398 -50.5 -3.50098s-32.5 1.83301 -46.5 4.5s-25.333 6 -34 10s-12.667 8.33301 -12 13z" />
    <glyph glyph-name="asciicircum" unicode="^" horiz-adv-x="833" 
d="M322 675c20.667 0 40.002 -5.00098 58.002 -15.001s34.667 -22.833 50 -38.5s29.166 -33.167 41.499 -52.5s23.333 -38.5 33 -57.5s18 -36.833 25 -53.5l16.5 -39c6 -14.667 9 -29 9 -43s-3.16699 -26 -9.5 -36s-15.833 -17.167 -28.5 -21.5
s-28.334 -3.83301 -47.001 1.5c-18 4.66699 -36.667 8.16699 -56 10.5s-40.666 3.5 -63.999 3.5s-49.5 -1.16699 -78.5 -3.5s-62.167 -5.83301 -99.5 -10.5c-24.667 -6.66699 -43.167 -6.66699 -55.5 0s-19.833 17 -22.5 31s-1.83398 30.833 2.49902 50.5
s10.833 39.334 19.5 59.001s18 38.167 28 55.5s19.333 31 28 41c12 14.667 23.167 29 33.5 43s21 26.5 32 37.5s23.167 20 36.5 27s29.333 10.5 48 10.5z" />
    <glyph glyph-name="underscore" unicode="_" horiz-adv-x="833" 
d="M611 -182c2 -8.66699 -0.830078 -15.333 -8.49707 -20s-21.834 -8.16699 -42.501 -10.5s-48.167 -4 -82.5 -5s-77.5 -1.83301 -129.5 -2.5c-46.667 -0.666992 -89.167 -1.16699 -127.5 -1.5s-71.333 0 -99 1s-49.667 3.5 -66 7.5s-25.833 10.333 -28.5 19
c-4 11.333 1.66699 19.833 17 25.5s36.5 9.66699 63.5 12s57.833 3.83301 92.5 4.5s70 1.66699 106 3c55.333 2 101.833 2.66699 139.5 2s68.167 -2.5 91.5 -5.5s40.666 -7 51.999 -12s18.666 -10.833 21.999 -17.5z" />
    <glyph glyph-name="grave" unicode="`" horiz-adv-x="833" 
d="M241 685c10.667 10.667 21.165 16.3359 31.498 17.0029s20.833 -1.5 31.5 -6.5s21.167 -12.333 31.5 -22l31.5 -30.5l32 -33.5c10.667 -11.667 19.334 -23.334 26.001 -35.001s10.167 -23.334 10.5 -35.001s-4.83398 -22.834 -15.501 -33.501
c-8 -8 -17.167 -11.167 -27.5 -9.5s-21.166 6.16699 -32.499 13.5s-22.666 16.5 -33.999 27.5l-33 31.5c-8 8 -16.167 17.5 -24.5 28.5s-15.333 22.167 -21 33.5s-9.5 21.833 -11.5 31.5s-0.333008 17.167 5 22.5z" />
    <glyph glyph-name="a" unicode="a" horiz-adv-x="469" 
d="M446 8c-6 -5.33301 -13.8271 -6.83008 -23.4941 -4.49707l-36 9c-14.333 3.66699 -31 6.5 -50 8.5s-40.167 0.666992 -63.5 -4c-24 -7.33301 -48.5 -11.833 -73.5 -13.5s-48.833 1.5 -71.5 9.5s-43.334 22 -62.001 42s-33.334 48.333 -44.001 85
c-7.33301 23.333 -9.5 47.666 -6.5 72.999s10.167 50 21.5 74s26.166 46.667 44.499 68s39 39.833 62 55.5s47.667 27.667 74 36s53.166 11.833 80.499 10.5c26.667 -2 48.167 -9.16699 64.5 -21.5s28.666 -27.833 36.999 -46.5s13.833 -39.334 16.5 -62.001
s4.16699 -45.334 4.5 -68.001s0.166016 -44.167 -0.500977 -64.5s0 -37.5 2 -51.5c4.66699 -20.667 10.167 -38.167 16.5 -52.5s11.5 -26.5 15.5 -36.5s5.83301 -18.5 5.5 -25.5s-4.83301 -13.833 -13.5 -20.5z" />
    <glyph glyph-name="b" unicode="b" horiz-adv-x="455" 
d="M120 636c12.667 7.33301 24.3311 4.83301 34.998 -7.5s20.834 -29 30.501 -50s19 -43.833 28 -68.5s18.5 -45.667 28.5 -63c7.33301 -20 19.333 -36.833 36 -50.5s34.5 -26.334 53.5 -38.001l55.5 -35.5c18 -12 32 -26.667 42 -44c4.66699 -12 7.66699 -26.833 9 -44.5
s0 -36.667 -4 -57s-11 -40.833 -21 -61.5s-23.833 -39.5 -41.5 -56.5s-39.667 -31.167 -66 -42.5s-57.833 -17.666 -94.5 -18.999c-30 -2 -55.667 1.33301 -77 10s-39.166 20.667 -53.499 36s-25.666 33.166 -33.999 53.499s-14.5 41.333 -18.5 63s-6.16699 43.5 -6.5 65.5
s0.166992 42.333 1.5 61s3.16602 39.5 5.49902 62.5s5.5 46.5 9.5 70.5s8.66699 47.833 14 71.5s11.333 45.334 18 65.001s14.167 36.5 22.5 50.5s17.5 23.667 27.5 29z" />
    <glyph glyph-name="c" unicode="c" horiz-adv-x="403" 
d="M23 238c-0.666992 26.667 1.66797 49.998 7.00098 69.998s13.166 37.833 23.499 53.5s23 29.834 38 42.501s32.167 24.667 51.5 36c18.667 9.33301 39.834 15.166 63.501 17.499s46.667 1.5 69 -2.5s42.166 -11.333 59.499 -22s29.666 -24 36.999 -40
c4 -16 3.16699 -30.5 -2.5 -43.5s-12.667 -25.167 -21 -36.5s-16.666 -22 -24.999 -32s-12.833 -20.333 -13.5 -31c-3.33301 -8 -4.33301 -16.167 -3 -24.5s4.5 -17.166 9.5 -26.499s11.5 -19.666 19.5 -30.999l26 -37c10 -11.333 15.667 -25 17 -41s-2.5 -31 -11.5 -45
s-23.167 -25.5 -42.5 -34.5s-45 -12.167 -77 -9.5c-36.667 0 -69 6 -97 18s-51.5 28.5 -70.5 49.5s-33.333 46 -43 75s-14.5 60.5 -14.5 94.5z" />
    <glyph glyph-name="d" unicode="d" horiz-adv-x="521" 
d="M445 629c12 -1.33301 21.6689 -9.16602 29.002 -23.499s12.833 -32.5 16.5 -54.5s5.83398 -46.5 6.50098 -73.5s0.5 -54.333 -0.5 -82s-2.5 -54.334 -4.5 -80.001s-4 -47.834 -6 -66.501s-4.66699 -38.5 -8 -59.5s-8.5 -41.5 -15.5 -61.5s-16.333 -38.833 -28 -56.5
s-26.667 -32.5 -45 -44.5s-40.666 -20.5 -66.999 -25.5s-57.5 -4.83301 -93.5 0.5c-36 6.66699 -66.833 17.5 -92.5 32.5s-46.834 32.167 -63.501 51.5s-29.334 40 -38.001 62s-14.167 43.5 -16.5 64.5s-2 40.667 1 59s8.16699 33.5 15.5 45.5
c10 15.333 21.833 27.5 35.5 36.5s28 16.167 43 21.5s30.333 9.66602 46 12.999s30.667 6.83301 45 10.5s27.666 8.33398 39.999 14.001s22.833 13.834 31.5 24.501c13.333 18 26.666 38.667 39.999 62s27 45 41 65s28.333 36.5 43 49.5s29.667 18.167 45 15.5z" />
    <glyph glyph-name="e" unicode="e" horiz-adv-x="467" 
d="M291 18c-2.66699 -6.66699 -10.335 -11.8301 -23.002 -15.4971s-28 -5 -46 -4s-37.5 4.66699 -58.5 11s-41 16 -60 29s-36 29.833 -51 50.5s-25.5 45.667 -31.5 75c-6.66699 30.667 -7 60.334 -1 89.001s16.667 55.167 32 79.5s34.166 45.666 56.499 63.999
s46.833 32.5 73.5 42.5s54.334 14.833 83.001 14.5s56.667 -6.83301 84 -19.5c36.667 -14.667 62.334 -35.334 77.001 -62.001s21.167 -53.834 19.5 -81.501s-10.5 -53.334 -26.5 -77.001s-36.333 -40.167 -61 -49.5c-47.333 -15.333 -77.5 -30 -90.5 -44
s-14.5 -25.667 -4.5 -35c6.66699 -12 12.834 -21.333 18.501 -28s10 -12.167 13 -16.5s4.33301 -8 4 -11s-2.83301 -6.83301 -7.5 -11.5z" />
    <glyph glyph-name="f" unicode="f" horiz-adv-x="465" 
d="M177 0c-8 -4.66699 -17.833 -2.99512 -29.5 5.00488s-23.667 20.5 -36 37.5s-24.333 37.667 -36 62s-21.834 50.166 -30.501 77.499s-15 55.5 -19 84.5s-4.33301 56.833 -1 83.5c4.66699 42.667 16.667 80.5 36 113.5s42.666 60.5 69.999 82.5s56.666 38.167 87.999 48.5
s61.333 14.5 90 12.5c26 -2.66699 50 -9 72 -19s38.667 -22.333 50 -37s15.5 -31.167 12.5 -49.5s-16.167 -37.166 -39.5 -56.499c-24 -18.667 -40.333 -34.167 -49 -46.5s-13 -22.333 -13 -30s2.83301 -13.5 8.5 -17.5s10.834 -7 15.501 -9
c4.66699 -4.66699 7.83398 -10.834 9.50098 -18.501s1.33398 -15.834 -0.999023 -24.501s-7.33301 -16.834 -15 -24.501s-18.5 -13.834 -32.5 -18.501l-53.5 -24c-14.333 -6.66699 -26.166 -13.834 -35.499 -21.501s-16.666 -16.667 -21.999 -27s-9 -23.833 -11 -40.5
c-2.66699 -14 -3.83398 -28.5 -3.50098 -43.5s0.166016 -29 -0.500977 -42s-2.5 -24.667 -5.5 -35s-9.16699 -17.833 -18.5 -22.5z" />
    <glyph glyph-name="g" unicode="g" horiz-adv-x="511" 
d="M179 -146c-5.33301 4.66699 -7.00195 10.832 -5.00195 18.499s5.83301 16.167 11.5 25.5l18.5 30c6.66699 10.667 12.667 21.334 18 32.001c5.33301 7.33301 9.16602 15.166 11.499 23.499s-0.166992 18.333 -7.5 30s-21.166 25.834 -41.499 42.501
s-50.166 37 -89.499 61c-24.667 16 -43.5 35.5 -56.5 58.5s-20.5 47.333 -22.5 73s1.5 51.834 10.5 78.501s23 51.5 42 74.5s43.167 43 72.5 60s63.333 28.833 102 35.5c36.667 5.33301 70 1.5 100 -11.5s55.5 -32.333 76.5 -58s37.833 -56 50.5 -91
s20.167 -71.833 22.5 -110.5s-0.5 -77.5 -8.5 -116.5s-21.667 -75.167 -41 -108.5c-28.667 -50 -57.5 -86.833 -86.5 -110.5s-55.667 -39.167 -80 -46.5s-45.166 -8.83301 -62.499 -4.5s-29 9.16602 -35 14.499z" />
    <glyph glyph-name="h" unicode="h" horiz-adv-x="523" 
d="M116 624c14.667 6.66699 25.168 4.49609 31.501 -6.50391s11.666 -26.333 15.999 -46l14.5 -64.5c5.33301 -23.333 14 -43.666 26 -60.999c8 -10 20.833 -17.333 38.5 -22s37.5 -9.16699 59.5 -13.5s44.667 -9.5 68 -15.5s44.5 -15 63.5 -27s34.667 -28 47 -48
s18.5 -46.333 18.5 -79c0 -49.333 -3.83301 -90.333 -11.5 -123s-17.667 -58.167 -30 -76.5s-26.166 -30.5 -41.499 -36.5s-30.333 -6.66699 -45 -2c-14.667 7.33301 -26.5 14 -35.5 20s-18.167 11 -27.5 15s-20.333 6.5 -33 7.5s-30 0.5 -52 -1.5
c-13.333 0 -25.833 -2.5 -37.5 -7.5s-23 -10.667 -34 -17l-31 -17.5c-9.66699 -5.33301 -18.834 -8.5 -27.501 -9.5s-16.834 1.33301 -24.501 7s-14.834 16.834 -21.501 33.501c-4.66699 16.667 -9.16699 41.334 -13.5 74.001s-7.16602 69.334 -8.49902 110.001
s-1.16602 82.834 0.500977 126.501s6 84.667 13 123s16.667 71.666 29 99.999s28.5 47.5 48.5 57.5z" />
    <glyph glyph-name="i" unicode="i" horiz-adv-x="252" 
d="M121 -1c-21.333 0 -38.332 6.66504 -50.999 19.998s-22.334 30.666 -29.001 51.999s-11 45.333 -13 72s-3 53.334 -3 80.001s0.833008 53.834 2.5 81.501s6 52.834 13 75.501s17.5 41.167 31.5 55.5s33 21.5 57 21.5c21.333 0 38.5 -7.16699 51.5 -21.5
s23 -32.5 30 -54.5s11.667 -46 14 -72s3.5 -51 3.5 -75s-3.16699 -49.667 -9.5 -77s-14.5 -52.833 -24.5 -76.5s-21.333 -43.167 -34 -58.5s-25.667 -23 -39 -23zM160.001 638.998c15.333 -5.33301 27.666 -14.835 36.999 -28.502s14 -28.167 14 -43.5
c2.66699 -18 1.16699 -33 -4.5 -45s-14 -20.833 -25 -26.5s-23.833 -8.66699 -38.5 -9s-29.667 2.16699 -45 7.5c-20.667 11.333 -33.667 28 -39 50s-2.66602 43.333 8.00098 64c15.333 20.667 30.833 32.334 46.5 35.001s31.167 1.33398 46.5 -3.99902z" />
    <glyph glyph-name="j" unicode="j" horiz-adv-x="252" 
d="M107 628c13.333 4.66699 27.6631 6.33105 42.9961 4.99805s29.666 -8.66602 42.999 -21.999c10.667 -12.667 17.334 -25.667 20.001 -39s1.83398 -25.833 -2.49902 -37.5s-11.666 -22 -21.999 -31s-22.833 -15.833 -37.5 -20.5c-11.333 -4 -22.166 -5.16699 -32.499 -3.5
s-19.5 5.83398 -27.5 12.501s-14.333 15.167 -19 25.5s-7 21.833 -7 34.5c-4 21.333 -1.16699 38.333 8.5 51s20.834 21 33.501 25zM-72.0029 -135.003c-4.66699 8.66699 -4.83301 16.501 -0.5 23.501s10.833 13.833 19.5 20.5s18.667 13.667 30 21s22.166 15.5 32.499 24.5
s19 19.333 26 31s10.5 25.167 10.5 40.5c1.33301 14 1.5 34.5 0.5 61.5s-1.83301 56.667 -2.5 89s-0.333984 65.166 0.999023 98.499s5.16602 63.5 11.499 90.5s16 49 29 66s30.833 25.167 53.5 24.5c19.333 -0.666992 34.833 -9.33398 46.5 -26.001
s20.5 -38.334 26.5 -65.001s9.16699 -57.167 9.5 -91.5s-1 -69.166 -4 -104.499s-7.66699 -69.833 -14 -103.5s-13.5 -63.5 -21.5 -89.5c-7.33301 -25.333 -18.166 -46.833 -32.499 -64.5s-30.333 -32 -48 -43s-35.667 -19 -54 -24s-35.666 -7.33301 -51.999 -7
s-30.666 2.83301 -42.999 7.5s-20.5 11.334 -24.5 20.001z" />
    <glyph glyph-name="k" unicode="k" horiz-adv-x="505" 
d="M23 222c-2 22 -2.49414 46.168 -1.49414 72.501s3.5 52.666 7.5 78.999s9.5 51.833 16.5 76.5s15.333 46.5 25 65.5s20.667 34.167 33 45.5s25.833 17 40.5 17c13.333 0 23.166 -3.5 29.499 -10.5s12.166 -15.333 17.499 -25s11.666 -19.667 18.999 -30
s18.166 -18.833 32.499 -25.5s34 -10.334 59 -11.001s57.833 3.66602 98.5 12.999c28 7.33301 47.833 9.33301 59.5 6s18 -10.333 19 -21s-2.33301 -24.167 -10 -40.5s-17 -33.5 -28 -51.5l-34 -54.5c-11.667 -18.333 -21.167 -34.833 -28.5 -49.5
c-9.33301 -13.333 -12.5 -26.666 -9.5 -39.999s8.83301 -26.666 17.5 -39.999s19 -26.5 31 -39.5s22.333 -25.667 31 -38s14.5 -23.833 17.5 -34.5s-0.166992 -20.667 -9.5 -30c-14 -11.333 -30.333 -16 -49 -14s-38 6.16699 -58 12.5l-60.5 18.5
c-20.333 6 -38.833 7.66699 -55.5 5c-16.667 0 -31.334 -4 -44.001 -12s-24.167 -17 -34.5 -27l-28.5 -27c-8.66699 -8 -17.334 -12 -26.001 -12c-8 2.66699 -16.167 10.167 -24.5 22.5s-16 28.166 -23 47.499s-13 41.833 -18 67.5s-8.83301 53.834 -11.5 84.501z" />
    <glyph glyph-name="l" unicode="l" horiz-adv-x="242" 
d="M125 627c12.667 0 24.499 -4.83008 35.499 -14.4971s20.667 -26.334 29 -50.001s14.833 -55.334 19.5 -95.001s7 -89.167 7 -148.5c-2.66699 -40 -4.66699 -79.167 -6 -117.5s-4.5 -72.333 -9.5 -102s-13.167 -53.667 -24.5 -72s-28.333 -27.5 -51 -27.5
c-20 0 -36.333 7.83301 -49 23.5s-22.667 37.667 -30 66s-12.5 62.666 -15.5 102.999s-4.5 85.5 -4.5 135.5c2.66699 52 5.66699 96.833 9 134.5s8.33301 68.667 15 93s15.834 42.333 27.501 54s27.5 17.5 47.5 17.5z" />
    <glyph glyph-name="m" unicode="m" horiz-adv-x="703" 
d="M364 450c38.667 2.66699 77.5029 -3.66699 116.503 -19s74 -37.5 105 -66.5s55.833 -63.5 74.5 -103.5s26.667 -83.333 24 -130c0 -38.667 -6.16699 -67.667 -18.5 -87s-27.333 -31.666 -45 -36.999s-36 -4.83301 -55 1.5s-34.833 16.166 -47.5 29.499
c-20.667 20.667 -36.834 34.834 -48.501 42.501s-22.834 3.5 -33.501 -12.5c-10 -15.333 -22.5 -27.666 -37.5 -36.999s-33.167 -14 -54.5 -14c-15.333 0 -28.5 3.16699 -39.5 9.5s-20.667 13 -29 20s-16 13 -23 18s-14.5 6.16699 -22.5 3.5s-17.5 -8.33398 -28.5 -17.001
s-23 -17.167 -36 -25.5s-26.5 -15 -40.5 -20s-27.667 -4.83301 -41 0.5c-12.667 2.66699 -23.834 11.834 -33.501 27.501s-16.667 34.5 -21 56.5s-5.5 45.667 -3.5 71s8 49.666 18 72.999c15.333 31.333 32.833 59.666 52.5 84.999s42.5 47.333 68.5 66s55.333 33.5 88 44.5
s69.667 17.833 111 20.5z" />
    <glyph glyph-name="n" unicode="n" horiz-adv-x="551" 
d="M113 3c-18 1.33301 -32.668 7.66602 -44.001 18.999s-20.333 25.666 -27 42.999s-11.667 36.5 -15 57.5s-5.5 41.833 -6.5 62.5s-1.66699 40.5 -2 59.5s-1.16602 35.167 -2.49902 48.5c0 20 1.83301 39 5.5 57s9.5 33.833 17.5 47.5s18 24.667 30 33s26.667 12.5 44 12.5
c10 0 18.5 -2.33301 25.5 -7s15.5 -9 25.5 -13s23.333 -6 40 -6s40 5 70 15c33.333 10 63 14.333 89 13s48.833 -6.83301 68.5 -16.5s36.5 -22.5 50.5 -38.5s25 -33.667 33 -53s13.5 -39.666 16.5 -60.999s3.83301 -42 2.5 -62c-5.33301 -60.667 -15.5 -109.667 -30.5 -147
s-35.167 -58.666 -60.5 -63.999c-12 0 -24.333 4.16699 -37 12.5s-25.5 17.5 -38.5 27.5s-26.333 19.167 -40 27.5s-27.834 12.5 -42.501 12.5c-25.333 -2 -45.5 -7.83301 -60.5 -17.5s-28.333 -19.5 -40 -29.5s-22.667 -18.5 -33 -25.5s-23.166 -9.5 -38.499 -7.5z" />
    <glyph glyph-name="o" unicode="o" horiz-adv-x="487" 
d="M166 434c17.333 7.33301 36.832 12.165 58.499 14.498s43.667 1 66 -4s44.666 -14 66.999 -27s42.5 -30.833 60.5 -53.5c24.667 -33.333 39.834 -68.166 45.501 -104.499s2.83398 -71 -8.49902 -104s-30.666 -62.5 -57.999 -88.5s-61.333 -45.333 -102 -58
c-38 -10 -73.167 -12.333 -105.5 -7s-60.5 16.833 -84.5 34.5s-43.167 40.667 -57.5 69s-22.5 60.5 -24.5 96.5c-2.66699 34.667 -0.5 65.334 6.5 92.001s17.167 49.5 30.5 68.5s29.166 34.333 47.499 46s37.833 20.167 58.5 25.5z" />
    <glyph glyph-name="p" unicode="p" horiz-adv-x="531" 
d="M19 188c-2 48.667 3.50098 90.332 16.501 124.999s30.667 63.167 53 85.5s48 38.833 77 49.5s59 16.5 90 17.5s61.333 -2.5 91 -10.5s56.167 -19.667 79.5 -35s41.333 -33.333 54 -54s21.334 -42.167 26.001 -64.5s5.5 -45.166 2.5 -68.499s-8.33301 -45.333 -16 -66
s-17.334 -39.5 -29.001 -56.5s-24.167 -30.167 -37.5 -39.5c-20.667 -17.333 -41 -30.5 -61 -39.5l-56 -25c-17.333 -7.66699 -32.833 -16.667 -46.5 -27s-24.5 -25.5 -32.5 -45.5c-4.66699 -11.333 -9.16699 -25.666 -13.5 -42.999s-9.83301 -34 -16.5 -50
s-14.834 -29.667 -24.501 -41s-21.834 -16.666 -36.501 -15.999c-20 0.666992 -37.167 14 -51.5 40s-26.166 58.667 -35.499 98s-16.5 82.666 -21.5 129.999s-8.83301 92.666 -11.5 135.999z" />
    <glyph glyph-name="q" unicode="q" horiz-adv-x="505" 
d="M484 188l-6.99805 -80.0039c-2.66699 -29.333 -6 -58.666 -10 -87.999s-8.83301 -58 -14.5 -86s-12.5 -52.833 -20.5 -74.5s-17.167 -39.167 -27.5 -52.5s-22.166 -20.333 -35.499 -21c-16 -1.33301 -28.667 4.83398 -38 18.501s-17 30.5 -23 50.5
s-11.667 41.167 -17 63.5s-12 41.833 -20 58.5c-5.33301 16.667 -15.333 30.334 -30 41.001s-31.5 20.334 -50.5 29.001l-60.5 27c-21.333 9.33301 -42 21.333 -62 36c-20 14 -34 34.5 -42 61.5s-9.5 55.833 -4.5 86.5s16.833 61 35.5 91s45 55 79 75
c22 14.667 46.333 24.834 73 30.501s53.167 6.66699 79.5 3s51.666 -12 75.999 -25s45.666 -30.833 63.999 -53.5s32.666 -49.834 42.999 -81.501s14.5 -68.167 12.5 -109.5z" />
    <glyph glyph-name="r" unicode="r" horiz-adv-x="471" 
d="M156 6c-16.667 4.66699 -32.3359 17.3359 -47.0029 38.0029s-27.667 45.167 -39 73.5s-21 58.833 -29 91.5s-14.167 63.5 -18.5 92.5s-6.5 54.5 -6.5 76.5s2.66699 36.333 8 43c8 10 15.833 15.5 23.5 16.5s15.667 0 24 -3s17 -7 26 -12s18.5 -8.83301 28.5 -11.5
c10 0 19.833 1.66699 29.5 5l32.5 11.5c12 4.33301 26 8.66602 42 12.999s35.333 7.83301 58 10.5s44.834 0.5 66.501 -6.5s40.5 -16.833 56.5 -29.5s27.667 -27.334 35 -44.001s8.66602 -34 3.99902 -52c-2.66699 -15.333 -11.167 -28 -25.5 -38
s-30.666 -20.333 -48.999 -31s-36.666 -23.167 -54.999 -37.5s-32.833 -32.833 -43.5 -55.5c-12.667 -28 -23.167 -52.5 -31.5 -73.5s-16.666 -38.167 -24.999 -51.5s-17.333 -22.333 -27 -27s-22.167 -4.33398 -37.5 0.999023z" />
    <glyph glyph-name="s" unicode="s" horiz-adv-x="425" 
d="M373 407c-2.66699 -7.33301 -6.82715 -12.834 -12.4941 -16.501s-11.334 -6.66699 -17.001 -9s-10.667 -5.33301 -15 -9s-6.5 -9.16699 -6.5 -16.5c0 -5.33301 3.83301 -12.166 11.5 -20.499s16.167 -19.666 25.5 -33.999s18.5 -32.166 27.5 -53.499
s14.833 -47.333 17.5 -78c3.33301 -29.333 -0.5 -54.166 -11.5 -74.499s-26.333 -37.166 -46 -50.499s-41.834 -23.5 -66.501 -30.5s-49.167 -11.667 -73.5 -14s-46.666 -2.83301 -66.999 -1.5s-35.5 3.66602 -45.5 6.99902c-15.333 7.33301 -29 15.333 -41 24
s-20.833 17.167 -26.5 25.5s-7.5 16.166 -5.5 23.499s9.33301 13.666 22 18.999c20.667 5.33301 32.667 19 36 41s-5 56.667 -25 104c-13.333 22.667 -19.833 43.834 -19.5 63.501s4.66602 37.5 12.999 53.5s19.666 30.5 33.999 43.5s29.166 24.5 44.499 34.5
c8.66699 5.33301 21 9.16602 37 11.499s33.5 3.5 52.5 3.5s38.167 -1.16699 57.5 -3.5s36.666 -5.5 51.999 -9.5s27.666 -8.83301 36.999 -14.5s13 -11.834 11 -18.501z" />
    <glyph glyph-name="t" unicode="t" horiz-adv-x="561" 
d="M284 -1c-23.333 0 -42.0029 7.82812 -56.0029 23.4951s-25 35.834 -33 60.501s-13.833 52 -17.5 82l-10.5 88c-3.33301 17.333 -9.5 31 -18.5 41s-19 18 -30 24s-22.5 11 -34.5 15s-23 8.83301 -33 14.5s-18.167 12.834 -24.5 21.501s-9.5 20.667 -9.5 36
c0 16.667 6.16699 28.834 18.5 36.501s26.833 14 43.5 19s33.334 10.667 50.001 17s29.334 16.833 38.001 31.5c6 17.333 13.167 31.333 21.5 42s17.333 18.834 27 24.501s19.334 9.5 29.001 11.5s18.5 3 26.5 3c24 0 46.5 -7.33301 67.5 -22s37.5 -30.334 49.5 -47.001
c3.33301 -10 9.5 -17.833 18.5 -23.5s19.167 -10.5 30.5 -14.5s23 -7.83301 35 -11.5s23 -8.16699 33 -13.5s18.167 -12.166 24.5 -20.499s9.5 -19.166 9.5 -32.499c-3.33301 -20 -11.333 -34.5 -24 -43.5s-26.5 -17.5 -41.5 -25.5s-29.5 -18.5 -43.5 -31.5
s-24 -33.833 -30 -62.5c-6 -32 -12.167 -62.5 -18.5 -91.5s-13.833 -54.833 -22.5 -77.5s-19 -40.667 -31 -54s-26.667 -20 -44 -20z" />
    <glyph glyph-name="u" unicode="u" horiz-adv-x="551" 
d="M286 415c22 0 40.333 2.66406 55 7.99707s28 10.666 40 15.999s23.833 9.33301 35.5 12s25.5 1.33398 41.5 -3.99902c12.667 -4 24 -14.167 34 -30.5s18 -36.5 24 -60.5s9 -50.667 9 -80s-3.66699 -58.333 -11 -87s-19 -56 -35 -82s-37.333 -47.667 -64 -65
c-29.333 -22 -59.5 -35.667 -90.5 -41s-60.667 -5.16602 -89 0.500977s-54 15.834 -77 30.501s-41.167 31.334 -54.5 50.001c-18.667 24.667 -33.834 54.167 -45.501 88.5s-18.167 68.666 -19.5 102.999s2.83398 66.333 12.501 96s26.5 52.5 50.5 68.5
c13.333 8.66699 26.5 12.334 39.5 11.001s26.667 -4.5 41 -9.5l46.5 -16c16.667 -5.66699 35.667 -8.5 57 -8.5z" />
    <glyph glyph-name="v" unicode="v" horiz-adv-x="531" 
d="M271 -1c-22.667 0 -45.835 8.16895 -69.502 24.502s-46.167 37.666 -67.5 63.999s-40.333 55.5 -57 87.5s-29.334 63.667 -38.001 95s-12.5 60.5 -11.5 87.5s8.5 48.5 22.5 64.5s27.5 26.5 40.5 31.5s25.667 6.66699 38 5s24.333 -5.5 36 -11.5
s23.334 -12.5 35.001 -19.5s23.334 -13.167 35.001 -18.5s23.834 -8 36.501 -8c21.333 0 39.333 4.16699 54 12.5l42 24.5c13.333 8 27.166 13.5 41.499 16.5s31.833 -0.833008 52.5 -11.5c19.333 -6.66699 31.833 -22.334 37.5 -47.001s6 -53.5 1 -86.5
s-14.833 -67.667 -29.5 -104s-32.167 -69.833 -52.5 -100.5s-43.166 -56 -68.499 -76s-51.333 -30 -78 -30z" />
    <glyph glyph-name="w" unicode="w" horiz-adv-x="729" 
d="M407 3c-47.333 -0.666992 -93.335 3.66602 -138.002 12.999s-84.667 24.833 -120 46.5s-64.5 50.334 -87.5 86.001s-36.5 79.167 -40.5 130.5c-3.33301 39.333 0.833984 72.166 12.501 98.499s26.334 46 44.001 59s36.5 19.667 56.5 20s37 -5.83398 51 -18.501l30 -29
c8.66699 -8.66699 16.5 -15.5 23.5 -20.5s13.333 -8 19 -9s11.167 1.16699 16.5 6.5l21.5 20.5c6.33301 6.33301 13 11.833 20 16.5s14.833 8.33398 23.5 11.001s20 4 34 4c16.667 2.66699 31 0.333984 43 -6.99902s22.5 -15.5 31.5 -24.5l25 -24
c7.66699 -7 15.5 -9.16699 23.5 -6.5s15.833 8.33398 23.5 17.001s16 17.5 25 26.5s19.167 16.667 30.5 23s25.333 8.16602 42 5.49902c14 -5.33301 27.333 -13.166 40 -23.499s23.167 -23.333 31.5 -39s14 -34 17 -55s1.5 -44.5 -4.5 -70.5
c-7.33301 -33.333 -18.166 -65.333 -32.499 -96s-33.333 -57.834 -57 -81.501s-52.334 -42.667 -86.001 -57s-73.167 -21.833 -118.5 -22.5z" />
    <glyph glyph-name="x" unicode="x" horiz-adv-x="515" 
d="M484 0c-8.66699 -6.66699 -18.668 -9.83984 -30.001 -9.50684s-23.333 2.83301 -36 7.5s-25.667 10.834 -39 18.501l-39 22c-12.667 7 -24.667 13 -36 18s-21.333 7.5 -30 7.5c-15.333 0 -34 -4.66699 -56 -14l-67.5 -28c-23 -9.33301 -44.833 -16.166 -65.5 -20.499
s-37.667 -1.16602 -51 9.50098s-18.5 24 -15.5 40s9.16699 33.167 18.5 51.5s19.333 36.833 30 55.5s17.334 36 20.001 52c3.33301 15.333 3.33301 30.5 0 45.5s-7.83301 29.667 -13.5 44s-11.834 28 -18.501 41s-11.667 25.333 -15 37s-4.33301 22.834 -3 33.501
s7.33301 20.334 18 29.001c6.66699 8.66699 15.167 13.334 25.5 14.001s21.333 -1 33 -5s24 -9.66699 37 -17l38 -22.5c12.333 -7.66699 24.166 -14.667 35.499 -21s21.333 -10.166 30 -11.499c15.333 0 33.5 5.66699 54.5 17l62.5 34c20.667 11.333 40.167 19.333 58.5 24
s32.833 0.666992 43.5 -12c10.667 -16 13.334 -31.5 8.00098 -46.5s-12.833 -31 -22.5 -48s-19.167 -35.667 -28.5 -56s-12.666 -43.5 -9.99902 -69.5c2.66699 -23.333 9.5 -46 20.5 -68l31 -61.5c9.66699 -19 16.667 -36.167 21 -51.5s1.5 -28.333 -8.5 -39z" />
    <glyph glyph-name="y" unicode="y" horiz-adv-x="571" 
d="M153 -161c-12 6 -18.9961 13.8252 -20.9961 23.4922s-1.5 20.5 1.5 32.5s7.83301 25.333 14.5 40l20 45.5c6.66699 15.667 12 31.834 16 48.501s5 33.334 3 50.001c0 14.667 -5.16699 31 -15.5 49s-22.833 36.5 -37.5 55.5l-46.5 57.5
c-16.333 19.333 -30.833 38.333 -43.5 57s-21.834 36.334 -27.501 53.001s-5.16699 31.667 1.5 45c8 16 16.167 26.667 24.5 32s19.666 7 33.999 5s32.833 -6.5 55.5 -13.5s52 -14.5 88 -22.5c30 -5.33301 59.667 -5.16602 89 0.500977s57.166 12.834 83.499 21.501l72 24
c21.667 7.33301 39.667 10 54 8s24.333 -10.667 30 -26s5.5 -41.333 -0.5 -78c-8.66699 -52 -22.667 -101.333 -42 -148s-41.833 -89.667 -67.5 -129s-52.834 -74.666 -81.501 -105.999s-56.334 -57.166 -83.001 -77.499s-50.667 -34.666 -72 -42.999
s-37.666 -9.83301 -48.999 -4.5z" />
    <glyph glyph-name="z" unicode="z" horiz-adv-x="467" 
d="M52 319c0 10.667 4.66797 23.998 14.001 39.998s23.666 31.667 42.999 47s43.5 28.833 72.5 40.5s63.5 19.167 103.5 22.5c42.667 0 76.334 -5 101.001 -15s42.5 -23 53.5 -39s15.667 -34.167 14 -54.5s-7.5 -41.166 -17.5 -62.499
c-13.333 -18.667 -26 -35.334 -38 -50.001l-31.5 -40c-9 -12 -16 -22.833 -21 -32.5s-7.5 -18.5 -7.5 -26.5c2.66699 -8 8.16699 -14.167 16.5 -18.5s16.833 -8.5 25.5 -12.5s16.334 -8.5 23.001 -13.5s10 -11.5 10 -19.5c-2.66699 -8 -13 -18.333 -31 -31
s-40.667 -24 -68 -34s-57.5 -16.833 -90.5 -20.5s-65.5 -0.166992 -97.5 10.5c-32 8 -56 17.333 -72 28s-26.833 22.334 -32.5 35.001s-7.16699 26.334 -4.5 41.001s6.66699 30 12 46c8 16 17 30.667 27 44l27 36c8 10.667 14.167 20 18.5 28s5.16602 14.667 2.49902 20
c0 5.33301 -2.16699 8.5 -6.5 9.5s-9.5 1.83301 -15.5 2.5s-11.833 2 -17.5 4s-9.83398 7 -12.501 15z" />
    <glyph glyph-name="bar" unicode="|" horiz-adv-x="833" 
d="M312 627c20.667 0 34.168 -24.498 40.501 -73.498s9.5 -120.5 9.5 -214.5c0 -16 -0.166992 -32.5 -0.5 -49.5s-0.5 -34.833 -0.5 -53.5c-0.666992 -60.667 -1.16699 -114.334 -1.5 -161.001s-1.83301 -86.334 -4.5 -119.001s-6.66699 -58.167 -12 -76.5
s-13.333 -28.833 -24 -31.5c-2 -0.666992 -4.33301 -1 -7 -1c-9.33301 0 -16.833 6.5 -22.5 19.5s-10 30.833 -13 53.5s-4.83301 48.667 -5.5 78s-1 60.666 -1 93.999v116c0 36.667 -0.5 70.834 -1.5 102.501s-1.5 60.834 -1.5 87.501c0 77.333 3.16699 134.666 9.5 171.999
s18.166 56.333 35.499 57z" />
    <glyph glyph-name="braceright" unicode="}" horiz-adv-x="833" 
 />
    <glyph glyph-name="asciitilde" unicode="~" horiz-adv-x="833" 
d="M184 288c-16.667 2.66699 -30.5078 7.33496 -41.5078 14.002s-17.833 14 -20.5 22s-0.333984 16 6.99902 24s21 14.333 41 19c16.667 4 33.334 4.16699 50.001 0.5s33.334 -8.33398 50.001 -14.001l50 -17c16.667 -5.66699 33.334 -8.5 50.001 -8.5
s32.834 2.16699 48.501 6.5l46.5 13.5c15.333 4.66699 30.833 8.5 46.5 11.5s31.834 2.83301 48.501 -0.5c20 -4 37.833 -8.33301 53.5 -13s27.834 -15.334 36.501 -32.001c5.33301 -11.333 2.83301 -19 -7.5 -23l-45.5 -17c-10 -6.66699 -19.333 -13.834 -28 -21.501
l-27 -23c-9.33301 -7.66699 -19.166 -14.667 -29.499 -21s-22.166 -11.166 -35.499 -14.499c-20.667 -6.66699 -39 -8.16699 -55 -4.5s-33.333 9.83398 -52 18.501c-19.333 8.66699 -36.666 17.167 -51.999 25.5l-44 23c-14 7 -28 13.167 -42 18.5s-30 9.66602 -48 12.999z
" />
    <glyph glyph-name="exclamdown" unicode="&#xa1;" horiz-adv-x="238" 
d="M119 567c20 0 36.001 -7.83301 48.001 -23.5s21.333 -36.167 28 -61.5s11 -53.833 13 -85.5s3 -63.5 3 -95.5s-1 -65.667 -3 -101s-6.33301 -67.833 -13 -97.5s-16 -54.167 -28 -73.5s-28 -29 -48 -29c-23.333 0 -41.333 9.66699 -54 29s-21.834 43.5 -27.501 72.5
s-9 60.333 -10 94s-1.5 65.167 -1.5 94.5c0 26 2.66699 55 8 87s12.333 62.167 21 90.5s18.5 52 29.5 71s22.5 28.5 34.5 28.5zM80.001 611c-11.333 11.333 -19.335 23.668 -24.002 37.001s-7 28.666 -7 45.999c2.66699 14.667 9.16699 26.334 19.5 35.001s22 14.5 35 17.5
s26.167 3 39.5 0s24.333 -8.83301 33 -17.5c11.333 -17.333 17.833 -35 19.5 -53s-5.83301 -36.333 -22.5 -55c-7.33301 -8 -15.166 -13.667 -23.499 -17s-16.666 -5 -24.999 -5s-16.333 1.16699 -24 3.5s-14.5 5.16602 -20.5 8.49902z" />
    <glyph glyph-name="cent" unicode="&#xa2;" horiz-adv-x="405" 
d="M21 233c3.33301 24 7.5 45.332 12.5 63.999s11.5 35.5 19.5 50.5s18.167 28.833 30.5 41.5s27.5 25 45.5 37c6.66699 0 13 2 19 6s12 6 18 6c2.66699 2.66699 5.66699 9.33398 9 20.001s7.33301 21.5 12 32.5s10.167 21 16.5 30s14.166 13.5 23.499 13.5
c8.66699 0 15.5 -3.83301 20.5 -11.5s9.33301 -16.334 13 -26.001l11 -28.5c3.66699 -9.33301 8.5 -15.333 14.5 -18c18 0 32.667 -5 44 -15s17 -21.333 17 -34c2.66699 -15.333 1.66699 -30.333 -3 -45s-10.667 -28.667 -18 -42s-15 -26 -23 -38s-13.667 -22.333 -17 -31
c-3.33301 -12 -3 -22.167 1 -30.5s9.66699 -16.666 17 -24.999s16 -17.5 26 -27.5s19.667 -22.333 29 -37c12 -12 20.5 -24.667 25.5 -38s4.83301 -26 -0.5 -38s-16.666 -23 -33.999 -33s-42.666 -18 -75.999 -24c-6 0 -10.167 -3.83301 -12.5 -11.5
s-4.66602 -16 -6.99902 -25s-5.33301 -17.333 -9 -25s-9.83398 -11.5 -18.501 -11.5c-6.66699 0 -11.834 3.83301 -15.501 11.5s-7 16.5 -10 26.5s-6.16699 19.5 -9.5 28.5s-8 15.167 -14 18.5c-48.667 18 -87 47.167 -115 87.5s-42 87.5 -42 141.5z" />
    <glyph glyph-name="yen" unicode="&#xa5;" 
d="M196 195c0 4 -4.00781 7.16797 -12.0078 9.50098s-16.667 4.5 -26 6.5s-18 4 -26 6s-12 5 -12 9c-4 10.667 -3.16699 19.334 2.5 26.001s12.334 12.834 20.001 18.501s14.334 11.834 20.001 18.501s6.5 15.667 2.5 27c-11.333 22.667 -26.833 47.5 -46.5 74.5
s-38 53.833 -55 80.5s-29.667 51.5 -38 74.5s-6.83301 42.167 4.5 57.5c7.33301 12.667 18 20.667 32 24s30 3.83301 48 1.5s37 -6.66602 57 -12.999l58 -19l52 -17c16 -5 29.333 -7.5 40 -7.5c10 0 22.833 2.5 38.5 7.5l51 16.5c18.333 6 37.166 11.833 56.499 17.5
s37.333 9.16699 54 10.5s31.334 -0.666992 44.001 -6s21.667 -15.333 27 -30c8 -18.667 9.83301 -37.834 5.5 -57.501s-12.166 -40.834 -23.499 -63.501s-25 -47.5 -41 -74.5s-31.667 -57.5 -47 -91.5c-8 -11.333 -10.833 -20 -8.5 -26s6.5 -11.333 12.5 -16l18 -14
c6 -4.66699 9 -11 9 -19c-4 -8 -10.167 -14.167 -18.5 -18.5s-17.166 -7.83301 -26.499 -10.5l-27 -7.5c-8.66699 -2.33301 -15 -5.5 -19 -9.5c0 -4 3 -7.83301 9 -11.5s12.333 -7.83398 19 -12.501s12.167 -9.83398 16.5 -15.501s4.5 -12.5 0.5 -20.5
c0 -4 -3.16699 -6.33301 -9.5 -7s-13.833 -1.5 -22.5 -2.5s-17 -2.83301 -25 -5.5s-14 -8 -18 -16l-21.5 -39c-6.33301 -11.333 -13.166 -20.666 -20.499 -27.999s-16.166 -13 -26.499 -17s-22.833 -6 -37.5 -6c-15.333 0 -29.166 7 -41.499 21s-18.5 32 -18.5 54
c-7.33301 7.33301 -11.666 12.333 -12.999 15s-2 8 -2 16c0 4 -3.16699 6.33301 -9.5 7s-13.333 1.5 -21 2.5s-14.667 2.83301 -21 5.5s-9.5 7.66699 -9.5 15c-3.33301 7.33301 -2.83301 13.166 1.5 17.499s9.83301 8.5 16.5 12.5s13 8.16699 19 12.5s9 10.166 9 17.499z
" />
    <glyph glyph-name="dieresis" unicode="&#xa8;" horiz-adv-x="385" 
d="M56 649c13.333 10 29.501 13.499 48.501 10.499s35.5 -12.5 49.5 -28.5c12 -13.333 20 -26.666 24 -39.999s4.66699 -25.833 2 -37.5s-8.5 -22.167 -17.5 -31.5s-20.5 -16.333 -34.5 -21c-28 -9.33301 -51.5 -9.33301 -70.5 0s-32.167 28 -39.5 56
c-2.66699 10 -3.33398 19.667 -2.00098 29s4 18 8 26s8.83301 15.167 14.5 21.5s11.5 11.5 17.5 15.5zM241.001 652.999c13.333 10 29.501 13.499 48.501 10.499s35.5 -12.5 49.5 -28.5c12 -13.333 20 -26.666 24 -39.999s4.66699 -25.833 2 -37.5s-8.5 -22.167 -17.5 -31.5
s-20.5 -16.333 -34.5 -21c-28 -9.33301 -51.5 -9.33301 -70.5 0s-32.167 28 -39.5 56c-2.66699 10 -3.33398 19.667 -2.00098 29s4 18 8 26s8.83301 15.167 14.5 21.5s11.5 11.5 17.5 15.5z" />
    <glyph glyph-name="copyright" unicode="&#xa9;" 
d="M153 362c5.33301 20.667 10.833 38.8291 16.5 54.4961s12.5 29.334 20.5 41.001s17.333 21.5 28 29.5s24 14.667 40 20c16 10.667 33.5 17.5 52.5 20.5s36.833 3.16699 53.5 0.5s30.667 -7.66699 42 -15s17 -16.333 17 -27c0 -15.333 -2.16699 -26.666 -6.5 -33.999
s-9.83301 -14.166 -16.5 -20.499s-13.5 -14.333 -20.5 -24s-13.167 -24.834 -18.5 -45.501c0 -16 2.33301 -27.333 7 -34s10.167 -12 16.5 -16l20 -12.5c7 -4.33301 13.167 -11.5 18.5 -21.5c21.333 -31.333 25.833 -57.166 13.5 -77.499s-44.5 -35.833 -96.5 -46.5
c-26 0 -50.333 5.83301 -73 17.5s-42.5 27.334 -59.5 47.001s-30.333 42 -40 67s-14.5 50.5 -14.5 76.5zM549 193.995c-16 -30.667 -38.6689 -57.1699 -68.002 -79.5029s-61.666 -38 -96.999 -47s-71.5 -10.5 -108.5 -4.5s-70.833 21.667 -101.5 47
c-42 32 -74.833 66.833 -98.5 104.5s-38.667 75.334 -45 113.001s-4.5 74 5.5 109s27.667 65.5 53 91.5c36.667 36 73.167 63.333 109.5 82s71.333 29.334 105 32.001s65.834 -2.16602 96.501 -14.499s59 -31.166 85 -56.499c36.667 -32 62.5 -64.667 77.5 -98
s23.333 -66.333 25 -99s-1.83301 -64.334 -10.5 -95.001s-18 -59 -28 -85zM194.998 153.992c26 -20.667 53.8311 -34.001 83.498 -40.001s58.834 -5.83301 87.501 0.5s55.334 18.166 80.001 35.499s45 39.333 61 66l17 68.5c6 25 9 50.5 9 76.5s-4.83301 51.667 -14.5 77
s-27.5 48.333 -53.5 69s-53.167 37.167 -81.5 49.5s-56.666 18.5 -84.999 18.5s-56.5 -7 -84.5 -21s-55 -36.667 -81 -68c-21.333 -20.667 -35.833 -45.667 -43.5 -75s-9 -59.666 -4 -90.999s16.667 -61.666 35 -90.999s43.166 -54.333 74.499 -75z" />
    <glyph glyph-name="guillemotleft" unicode="&#xab;" horiz-adv-x="543" 
d="M261 262c0.666992 18.667 6.99902 39.165 18.999 61.498s26.5 43.5 43.5 63.5s34.833 37.5 53.5 52.5s34.667 24.5 48 28.5c32.667 10 58 9.16699 76 -2.5s22.667 -37.167 14 -76.5c-10 -18.667 -19.167 -38.167 -27.5 -58.5s-14 -43 -17 -68s-1.83301 -53 3.5 -84
s16.666 -66.5 33.999 -106.5c10 -29.333 10.333 -48.833 1 -58.5s-22.666 -13 -39.999 -10s-35.833 10.333 -55.5 22s-35.167 23.834 -46.5 36.501c-11.333 12 -23.166 25.333 -35.499 40s-23.833 30.334 -34.5 47.001s-19.5 34.5 -26.5 53.5s-10.167 38.833 -9.5 59.5z
M19.999 261.998c0.666992 18.667 6.99902 39.165 18.999 61.498s26.5 43.5 43.5 63.5s34.833 37.5 53.5 52.5s34.667 24.5 48 28.5c32.667 10 58 9.16699 76 -2.5s22.667 -37.167 14 -76.5c-10 -18.667 -19.167 -38.167 -27.5 -58.5s-14 -43 -17 -68s-1.83301 -53 3.5 -84
s16.666 -66.5 33.999 -106.5c10 -29.333 10.333 -48.833 1 -58.5s-22.666 -13 -39.999 -10s-35.833 10.333 -55.5 22s-35.167 23.834 -46.5 36.501c-11.333 12 -23.166 25.333 -35.499 40s-23.833 30.334 -34.5 47.001s-19.5 34.5 -26.5 53.5s-10.167 38.833 -9.5 59.5z" />
    <glyph glyph-name="registered" unicode="&#xae;" horiz-adv-x="631" 
d="M186 345c-2.66699 34.667 -1.00293 65.6709 4.99707 93.0039c2.66699 11.333 6.33398 22.666 11.001 33.999s10.834 21.333 18.501 30s17.167 15.667 28.5 21s24.666 8 39.999 8c30.667 4.66699 56.5 3.66699 77.5 -3s38 -17 51 -31s22.333 -30.833 28 -50.5
s8.5 -39.5 8.5 -59.5c-5.33301 -15.333 -12.5 -28.333 -21.5 -39s-17.333 -19.334 -25 -26.001s-13.5 -11.334 -17.5 -14.001s-3.33301 -4 2 -4c4.66699 -10 10.5 -21 17.5 -33s13 -23 18 -33s8.33301 -18.5 10 -25.5s-0.166016 -10.5 -5.49902 -10.5
c-10 -5.33301 -20 -7.33301 -30 -6s-20.167 4 -30.5 8l-31 12c-10.333 4 -20.833 6 -31.5 6c-10 -5.33301 -18 -11.333 -24 -18s-10.833 -13.334 -14.5 -20.001s-7.16699 -12.167 -10.5 -16.5s-7.33301 -6.5 -12 -6.5c-15.333 0 -27.166 4.83301 -35.499 14.5
s-14.5 22.834 -18.5 39.501s-6.33301 36.167 -7 58.5s-1 46.166 -1 71.499zM577.997 448.004c14.667 -30.667 22.167 -64.167 22.5 -100.5s-6.5 -71.333 -20.5 -105s-35.167 -63.5 -63.5 -89.5s-63.166 -44.333 -104.499 -55c-46 -15.333 -89.167 -21 -129.5 -17
s-76.5 15 -108.5 33s-59.167 41.833 -81.5 71.5s-38.833 62.5 -49.5 98.5c-10 46 -12.833 87.167 -8.5 123.5s15 68 32 95s39.167 49.667 66.5 68s59 32.833 95 43.5c46 14.667 87.167 19.167 123.5 13.5s68.666 -17.5 96.999 -35.5s53 -40 74 -66s39.5 -52 55.5 -78z
M411.997 140.004c26 10 48.835 25.832 68.502 47.499s34.667 46 45 73s15.166 55.167 14.499 84.5s-9 57 -25 83c-10 15.333 -22.833 32.333 -38.5 51s-34.5 35.667 -56.5 51s-47.167 27.333 -75.5 36s-60.5 10.667 -96.5 6c-30.667 -10 -57.334 -23 -80.001 -39
s-40.5 -35.667 -53.5 -59s-20.667 -50.666 -23 -81.999s1.83398 -67.333 12.501 -108c5.33301 -30.667 16.666 -57.334 33.999 -80.001s39.5 -40.5 66.5 -53.5s58 -20.667 93 -23s73.167 1.83398 114.5 12.501z" />
    <glyph glyph-name="degree" unicode="&#xb0;" horiz-adv-x="288" 
d="M73 605c14.667 14.667 35 21.998 61 21.998s53.667 -7.33301 83 -22c14.667 -10 26 -22.5 34 -37.5s13 -31 15 -48s1 -34.167 -3 -51.5s-10.667 -33 -20 -47s-21 -25.833 -35 -35.5s-30.333 -15.167 -49 -16.5c-14 -0.666992 -28.667 0.833008 -44 4.5
s-29.333 9.5 -42 17.5s-23.667 17.833 -33 29.5s-15 25.5 -17 41.5c-3.33301 21.333 -4 39.333 -2 54s5.5 27.334 10.5 38.001s11.167 19.834 18.5 27.501z" />
    <glyph glyph-name="plusminus" unicode="&#xb1;" horiz-adv-x="485" 
d="M459 34c0.666992 -10 -2.49805 -17.6689 -9.49805 -23.002s-18 -9.16602 -33 -11.499s-34.167 -4 -57.5 -5l-83 -3.5c-44.667 0 -82.667 -0.333008 -114 -1s-57 -0.333984 -77 0.999023s-34.667 4.33301 -44 9s-14.333 12 -15 22c0.666992 10.667 5.16699 18.667 13.5 24
s21 9 38 11s38.333 3 64 3s56.5 0.666992 92.5 2c55.333 2 97.666 2.83301 126.999 2.5s50.666 -1.66602 63.999 -3.99902s21.5 -5.66602 24.5 -9.99902s6.16699 -9.83301 9.5 -16.5zM238.002 78.998c-13.333 0 -23.668 5.1709 -31.001 15.5039
s-13.666 22.666 -18.999 36.999s-10.333 29.166 -15 44.499s-10.667 28.333 -18 39c-10.667 8 -23.167 14.333 -37.5 19s-28 9.66699 -41 15s-24.167 11.666 -33.5 18.999s-14 17.666 -14 30.999c0 10 4.66699 18 14 24s20.5 11.667 33.5 17l41 17
c14.333 6 26.833 14.333 37.5 25c10 10.667 18 22.667 24 36l17 38c5.33301 12 11 22 17 30s14.333 12 25 12c12.667 0 21.834 -4 27.501 -12s10.167 -18 13.5 -30l11 -38c4 -13.333 11 -25.333 21 -36c13.333 -12.667 29 -21.834 47 -27.501s34.833 -10.667 50.5 -15
s28.5 -10 38.5 -17s13.667 -18.5 11 -34.5c0 -13.333 -5.66699 -23.166 -17 -29.499s-24.5 -11.833 -39.5 -16.5l-45 -14.5c-15 -5 -26.5 -12.5 -34.5 -22.5c-8 -10.667 -14.5 -23.167 -19.5 -37.5l-15 -41c-5 -13 -11.333 -24.167 -19 -33.5s-17.834 -14 -30.501 -14z" />
    <glyph glyph-name="twosuperior" unicode="&#xb2;" horiz-adv-x="322" 
d="M17 553c-3.33301 6 -2.99902 13.835 1.00098 23.502s11.833 19.834 23.5 30.501s27.334 20.667 47.001 30s43.5 17 71.5 23c26.667 8 49.667 9.66699 69 5s34.666 -12.834 45.999 -24.501s18.333 -25.5 21 -41.5s1 -31.333 -5 -46c-11.333 -30 -21.333 -54.333 -30 -73
s-14.334 -34 -17.001 -46c-3.33301 -4.66699 -2.16602 -8.66699 3.50098 -12l21 -12c8.33301 -4.66699 16.166 -10.167 23.499 -16.5s11 -14.5 11 -24.5c0 -7.33301 -5.5 -16.333 -16.5 -27s-25.167 -20.167 -42.5 -28.5s-37.166 -14 -59.499 -17s-44.5 -0.833008 -66.5 6.5
c-24 7.33301 -42.333 15.333 -55 24s-21.834 18 -27.501 28s-8.5 20.167 -8.5 30.5s0.666992 20.5 2 30.5c1.33301 10.667 4.83301 20.167 10.5 28.5s11.5 15.666 17.5 21.999l15.5 16c4.33301 4.33301 5.83301 8.16602 4.5 11.499c-1.33301 4 -5 8.66699 -11 14
s-12.333 10.5 -19 15.5s-13 10.167 -19 15.5s-9.66699 10 -11 14z" />
    <glyph glyph-name="threesuperior" unicode="&#xb3;" horiz-adv-x="292" 
d="M266 477c0 -35.333 -4.66504 -65.4971 -13.998 -90.4971s-22 -45.167 -38 -60.5s-34.833 -26 -56.5 -32s-44.834 -7.66699 -69.501 -5c-18.667 1.33301 -32.334 5.33301 -41.001 12s-13.667 14.167 -15 22.5s0 16.666 4 24.999s9.66699 15.5 17 21.5
c9.33301 11.333 16.166 22.166 20.499 32.499s3.5 18.5 -2.5 24.5c-9.33301 5.33301 -16.5 10.666 -21.5 15.999s-7.5 15 -7.5 29c0 8.66699 1.5 15.667 4.5 21s6.33301 10 10 14l10 11c3 3.33301 4.5 7.33301 4.5 12c-1.33301 4 -4.66602 8.83301 -9.99902 14.5l-16.5 18
c-5.66699 6.33301 -10.667 12.833 -15 19.5s-5.83301 13.667 -4.5 21c6 14.667 19.333 26.5 40 35.5s43.667 10.833 69 5.5c17.333 -4 34 -10.667 50 -20s30 -21 42 -35s21.667 -30.5 29 -49.5s11 -39.833 11 -62.5z" />
    <glyph glyph-name="acute" unicode="&#xb4;" horiz-adv-x="244" 
d="M77 489c-9.33301 8 -14.668 16.167 -16.001 24.5s-0.166016 16.833 3.50098 25.5s8.83398 17.5 15.501 26.5s14 18.167 22 27.5c7.33301 9.33301 15.333 18.666 24 27.999s17.5 17 26.5 23s18 9.66699 27 11s18.167 -1.66699 27.5 -9
c6.66699 -6 9.83398 -13.167 9.50098 -21.5s-3 -17.333 -8 -27s-11.333 -19.5 -19 -29.5s-15.5 -19.333 -23.5 -28c-6 -7.33301 -13 -14.666 -21 -21.999s-16.333 -13.833 -25 -19.5s-16.834 -9.66699 -24.501 -12s-13.834 -1.5 -18.501 2.5z" />
    <glyph glyph-name="uni00B5" unicode="&#xb5;" horiz-adv-x="556" 
d="M408 0v57c-36 -42 -83.333 -63 -142 -63c-26.667 0 -50.5 3.83301 -71.5 11.5s-39.5 18.834 -55.5 33.501v-269h-51v712h51v-299c0 -46.667 11.333 -82.334 34 -107.001s55.667 -37 99 -37s76.833 12.5 100.5 37.5s35.5 60.5 35.5 106.5v299h51v-482h-51z" />
    <glyph glyph-name="periodcentered" unicode="&#xb7;" horiz-adv-x="212" 
d="M61 385c13.333 10 29.501 13.499 48.501 10.499s35.5 -12.5 49.5 -28.5c12 -13.333 20 -26.666 24 -39.999s4.66699 -25.833 2 -37.5s-8.5 -22.167 -17.5 -31.5s-20.5 -16.333 -34.5 -21c-28 -9.33301 -51.5 -9.33301 -70.5 0s-32.167 28 -39.5 56
c-2.66699 10 -3.33398 19.667 -2.00098 29s4 18 8 26s8.83301 15.167 14.5 21.5s11.5 11.5 17.5 15.5z" />
    <glyph glyph-name="cedilla" unicode="&#xb8;" horiz-adv-x="500" 
d="M244 -220h-63l72 150h55z" />
    <glyph glyph-name="onesuperior" unicode="&#xb9;" horiz-adv-x="244" 
d="M130 302c-15.333 10 -25.6699 24.333 -31.0029 43s-8.5 38 -9.5 58s-1.66699 38.5 -2 55.5s-3.16602 28.167 -8.49902 33.5c-4 4 -9.16699 7.66699 -15.5 11s-12.666 6.5 -18.999 9.5s-12 6.33301 -17 10s-8.5 8.5 -10.5 14.5c-1.33301 5.33301 2.5 14.5 11.5 27.5
s20.5 26.167 34.5 39.5s29.167 25 45.5 35s30.833 15 43.5 15c10.667 0 20.334 -4.5 29.001 -13.5s15.667 -20.5 21 -34.5s9.5 -30 12.5 -48s4.5 -36 4.5 -54c0 -12 -0.833008 -26.333 -2.5 -43s-4 -33.5 -7 -50.5s-7 -33.5 -12 -49.5s-10.833 -29.5 -17.5 -40.5
s-14.167 -18.5 -22.5 -22.5s-17.5 -2.66699 -27.5 4z" />
    <glyph glyph-name="guillemotright" unicode="&#xbb;" horiz-adv-x="505" 
d="M266 228c-0.666992 -19.333 -6.33301 -40.6699 -17 -64.0029s-23.5 -45.666 -38.5 -66.999s-31.167 -40.166 -48.5 -56.499s-32.666 -26.5 -45.999 -30.5c-16 -5.33301 -30.833 -7.66602 -44.5 -6.99902s-24.5 4.16699 -32.5 10.5s-13 15.666 -15 27.999
s0.666992 27.833 8 46.5c10 18.667 18.833 38.334 26.5 59.001s12.5 43.5 14.5 68.5s0.166992 53 -5.5 84s-17.167 66.5 -34.5 106.5c-6.66699 19.333 -8.83398 34.333 -6.50098 45s7.5 17.667 15.5 21s18 4 30 2s24.333 -6 37 -12s24.834 -13.167 36.501 -21.5
s21.167 -16.5 28.5 -24.5l33 -38c11.333 -13.333 21.5 -27.666 30.5 -42.999s16.167 -31.833 21.5 -49.5s7.66602 -36.834 6.99902 -57.501zM481.001 223.996c-0.666992 -19.333 -5.83301 -40.5 -15.5 -63.5s-21.5 -45 -35.5 -66s-29.167 -39.333 -45.5 -55
s-31.166 -25.5 -44.499 -29.5c-16 -5.33301 -30.833 -8 -44.5 -8s-24.834 2.83301 -33.501 8.5s-14 14.167 -16 25.5s0.666992 26 8 44c10 18.667 19 38.667 27 60s13.167 45 15.5 71s0.666016 55 -5.00098 87s-17.167 68 -34.5 108
c-6.66699 19.333 -8.83398 34.333 -6.50098 45s7.5 17.667 15.5 21s18 4 30 2s24.333 -6 37 -12s24.834 -13.167 36.501 -21.5s21.167 -16.5 28.5 -24.5c10.667 -12 21.167 -24.833 31.5 -38.5s19.333 -28.5 27 -44.5s13.834 -33 18.501 -51s6.66699 -37.333 6 -58z" />
    <glyph glyph-name="onequarter" unicode="&#xbc;" horiz-adv-x="565" 
d="M461 632c8 -6.66699 11.835 -17.6699 11.502 -33.0029s-5.5 -36.833 -15.5 -64.5s-25.333 -62.334 -46 -104.001l-79 -152.5l-61.5 -116.5c-19.667 -38.333 -38 -71.666 -55 -99.999s-32.167 -49.166 -45.5 -62.499s-24 -14.666 -32 -3.99902
c-10.667 10.667 -14.834 25.834 -12.501 45.501s9.66602 44.667 21.999 75s28.833 65.833 49.5 106.5l71 140c53.333 106.667 94.833 182 124.5 226s52.5 58.667 68.5 44zM127.002 322.997c-15.333 10 -25.3359 24.335 -30.0029 43.002s-7.5 37.667 -8.5 57
s-1.66699 37.333 -2 54s-3.16602 27.667 -8.49902 33c-4 4 -9.16699 7.5 -15.5 10.5l-18.5 9c-6 3 -11.5 6.5 -16.5 10.5s-8.16699 8.66699 -9.5 14s2.33398 14.333 11.001 27s20 25.5 34 38.5s28.833 24.5 44.5 34.5s29.834 15 42.501 15
c10.667 0 20.167 -4.33301 28.5 -13s15.166 -20 20.499 -34s9.33301 -29.833 12 -47.5s4 -35.5 4 -53.5s-1.66699 -40.167 -5 -66.5s-8.66602 -50.833 -15.999 -73.5s-16.5 -40.334 -27.5 -53.001s-24.167 -14.334 -39.5 -5.00098zM472.999 344.999
c8.66699 1.33301 18 -3.33203 28 -13.999s18.833 -26 26.5 -46s13.167 -43.5 16.5 -70.5s2 -55.833 -4 -86.5c-5.33301 -29.333 -11 -52.166 -17 -68.499s-12.167 -28.666 -18.5 -36.999s-12.666 -13.833 -18.999 -16.5s-12.166 -4.66699 -17.499 -6
c-5.33301 0 -10 3.33301 -14 10s-8 14.334 -12 23.001s-8.33301 17.334 -13 26.001s-10.334 15 -17.001 19c-7.33301 5.33301 -16.833 11 -28.5 17s-23 12.5 -34 19.5s-20.333 14.667 -28 23s-10.834 18.166 -9.50098 29.499c0 11.333 5 26.666 15 45.999
s22.833 38.666 38.5 57.999s33 36.166 52 50.499s37.5 22.166 55.5 23.499z" />
    <glyph glyph-name="onehalf" unicode="&#xbd;" horiz-adv-x="571" 
d="M461 632c8 -6.66699 11.835 -17.6699 11.502 -33.0029s-5.5 -36.833 -15.5 -64.5s-25.333 -62.334 -46 -104.001l-79 -152.5l-61.5 -116.5c-19.667 -38.333 -38 -71.666 -55 -99.999s-32.167 -49.166 -45.5 -62.499s-24 -14.666 -32 -3.99902
c-10.667 10.667 -14.834 25.834 -12.501 45.501s9.66602 44.667 21.999 75s28.833 65.833 49.5 106.5l71 140c53.333 106.667 94.833 182 124.5 226s52.5 58.667 68.5 44zM127.002 322.997c-15.333 10 -25.3359 24.335 -30.0029 43.002s-7.5 37.667 -8.5 57
s-1.66699 37.333 -2 54s-3.16602 27.667 -8.49902 33c-4 4 -9.16699 7.5 -15.5 10.5l-18.5 9c-6 3 -11.5 6.5 -16.5 10.5s-8.16699 8.66699 -9.5 14s2.33398 14.333 11.001 27s20 25.5 34 38.5s28.833 24.5 44.5 34.5s29.834 15 42.501 15
c10.667 0 20.167 -4.33301 28.5 -13s15.166 -20 20.499 -34s9.33301 -29.833 12 -47.5s4 -35.5 4 -53.5s-1.66699 -40.167 -5 -66.5s-8.66602 -50.833 -15.999 -73.5s-16.5 -40.334 -27.5 -53.001s-24.167 -14.334 -39.5 -5.00098zM334.999 177.999
c0 1.33301 -0.171875 2.49707 -0.504883 3.49707s-0.5 2.16699 -0.5 3.5c0 10 8.33301 22.333 25 37s43.334 26 80.001 34c10 2.66699 20.667 4 32 4c22 0 38.667 -6 50 -18s17 -25.667 17 -41c0 -8 -1.33301 -15.667 -4 -23
c-8.66699 -21.333 -16.167 -38.666 -22.5 -51.999s-10.5 -24.666 -12.5 -33.999c-0.666992 -0.666992 -1 -1.33398 -1 -2.00098c0 -2.66699 2.33301 -5.16699 7 -7.5s9.66699 -5.16602 15 -8.49902s10.333 -7.33301 15 -12s7 -10.334 7 -17.001
c0 -4 -2.66699 -9.16699 -8 -15.5s-12.666 -12.166 -21.999 -17.499s-20 -10 -32 -14s-24.333 -6 -37 -6c-11.333 0 -23 1.66699 -35 5c-27.333 8.66699 -45.166 18.667 -53.499 30s-12.5 23 -12.5 35c0 3.33301 0.166992 6.33301 0.5 9s0.833008 5.66699 1.5 9
c0.666992 6.66699 3 12.834 7 18.501s8 10.667 12 15l11 11.5c3.33301 3.33301 5 6.33301 5 9v2c-1.33301 2.66699 -4.16602 5.83398 -8.49902 9.50098l-13.5 11.5c-4.66699 4 -9.16699 7.66699 -13.5 11s-7.16602 6.66602 -8.49902 9.99902z" />
    <glyph glyph-name="threequarters" unicode="&#xbe;" horiz-adv-x="541" 
d="M451 631c8 -6.66699 11.835 -17.6699 11.502 -33.0029s-5.5 -36.833 -15.5 -64.5s-25.333 -62.334 -46 -104.001l-79 -152.5l-61.5 -116.5c-19.667 -38.333 -38 -71.666 -55 -99.999s-32.167 -49.166 -45.5 -62.499s-24 -14.666 -32 -3.99902
c-10.667 10.667 -14.834 25.834 -12.501 45.501s9.66602 44.667 21.999 75s28.833 65.833 49.5 106.5l71 140c53.333 106.667 94.833 182 124.5 226s52.5 58.667 68.5 44zM455.002 339.997c8.66699 1.33301 18 -3.33203 28 -13.999s18.833 -26 26.5 -46
s13.167 -43.5 16.5 -70.5s2 -55.833 -4 -86.5c-5.33301 -29.333 -11 -52.166 -17 -68.499s-12.167 -28.666 -18.5 -36.999s-12.666 -13.833 -18.999 -16.5s-12.166 -4.66699 -17.499 -6c-5.33301 0 -10 3.33301 -14 10s-8 14.334 -12 23.001s-8.33301 17.334 -13 26.001
s-10.334 15 -17.001 19c-7.33301 5.33301 -16.833 11 -28.5 17s-23 12.5 -34 19.5s-20.333 14.667 -28 23s-10.834 18.166 -9.50098 29.499c0 11.333 5 26.666 15 45.999s22.833 38.666 38.5 57.999s33 36.166 52 50.499s37.5 22.166 55.5 23.499zM259.002 485.999
c0 -35.333 -4.66992 -65.4961 -14.0029 -90.4961s-22.166 -45.167 -38.499 -60.5s-35.333 -26 -57 -32s-44.5 -7.33301 -68.5 -4c-18 1.33301 -31.167 5.16602 -39.5 11.499s-13.166 13.5 -14.499 21.5s0 16.333 4 25s9.66699 15.667 17 21
c8.66699 11.333 15.167 22.166 19.5 32.499s3.5 18.5 -2.5 24.5c-8.66699 6 -15.667 11.667 -21 17s-8 15 -8 29c0 8 1.5 14.667 4.5 20s6.33301 10 10 14l10 11c3 3.33301 4.5 7.33301 4.5 12c-1.33301 4 -4.83301 8.83301 -10.5 14.5s-11.167 11.667 -16.5 18
s-10 12.833 -14 19.5s-5.33301 13.667 -4 21c2.66699 6.66699 7.5 13.167 14.5 19.5s15.167 11.5 24.5 15.5s19.833 6.66699 31.5 8s23.834 0.666016 36.501 -2.00098c17.333 -4 34 -10.667 50 -20s30 -21 42 -35s21.667 -30.333 29 -49s11 -39.334 11 -62.001z" />
    <glyph glyph-name="questiondown" unicode="&#xbf;" horiz-adv-x="397" 
d="M275 453c3.33301 -3.33301 7.33301 -7.83105 12 -13.498s9 -11.834 13 -18.501s6.66699 -13.667 8 -21s0 -15 -4 -23c-4 -11.333 -10.333 -20.5 -19 -27.5s-18.5 -11.667 -29.5 -14s-22.833 -2.5 -35.5 -0.5s-24.667 7 -36 15
c-3.33301 6.66699 -6.66602 14.334 -9.99902 23.001s-5 17.667 -5 27s2.16699 18.666 6.5 27.999s12.166 17.666 23.499 24.999c15.333 7.33301 29.833 11 43.5 11s24.5 -3.66699 32.5 -11zM232 272.002c10 -2.66699 16.668 -7 20.001 -13s4.66602 -13.667 3.99902 -23
s-2.5 -20.333 -5.5 -33s-5.83301 -26.334 -8.5 -41.001c0 -17.333 0.666992 -30.833 2 -40.5s5 -18.5 11 -26.5s15.333 -16.333 28 -25l53 -35c22 -15.333 36 -33 42 -53s5.83301 -40.167 -0.5 -60.5s-17.666 -40 -33.999 -59s-35.5 -34.5 -57.5 -46.5
c-25.333 -12.667 -51.5 -19.5 -78.5 -20.5s-52.333 4.33301 -76 16s-44.167 30.167 -61.5 55.5s-28.333 58 -33 98c-3.33301 24.667 -1.83301 49.834 4.5 75.501s15.666 50.5 27.999 74.5s26.5 46.333 42.5 67s31.833 38.167 47.5 52.5s30 25 43 32s22.833 8.83301 29.5 5.5
z" />
    <glyph glyph-name="Agrave" unicode="&#xc0;" 
d="M338 628c18.667 0 37.8389 -9.83398 57.5059 -29.501s38.834 -45.167 57.501 -76.5s36 -66.333 52 -105s30 -76.667 42 -114s21 -72 27 -104s8 -57.333 6 -76c-9.33301 -56.667 -29 -94.667 -59 -114s-67.667 -15.333 -113 12l-47 29
c-11.333 7.33301 -20.833 12.833 -28.5 16.5s-15 5.83398 -22 6.50098s-16.5 1 -28.5 1c-22.667 -0.666992 -44.834 -7.66699 -66.501 -21l-70.5 -43c-10 -7.33301 -22.833 -11.666 -38.5 -12.999s-30.167 1.83398 -43.5 9.50098s-23.333 20.667 -30 39
s-6.33398 44.166 0.999023 77.499c3.33301 23.333 10.166 52 20.499 86s23.166 69.667 38.499 107s32.666 74.666 51.999 111.999s39.666 70.833 60.999 100.5s43.166 53.667 65.499 72s44.5 27.5 66.5 27.5zM234.005 854.999c10.667 10.667 21.165 16.3359 31.498 17.0029
s20.833 -1.5 31.5 -6.5s21.167 -12.333 31.5 -22l31.5 -30.5l32 -33.5c10.667 -11.667 19.334 -23.334 26.001 -35.001s10.167 -23.334 10.5 -35.001s-4.83398 -22.834 -15.501 -33.501c-8 -8 -17.167 -11.167 -27.5 -9.5s-21.166 6.16699 -32.499 13.5
s-22.666 16.5 -33.999 27.5l-33 31.5c-8 8 -16.167 17.5 -24.5 28.5s-15.333 22.167 -21 33.5s-9.5 21.833 -11.5 31.5s-0.333008 17.167 5 22.5z" />
    <glyph glyph-name="Aacute" unicode="&#xc1;" 
d="M310 655c-9.33301 8 -14.8311 16.3359 -16.498 25.0029s-0.666992 17.5 3 26.5s9 18.167 16 27.5s14.5 18.666 22.5 27.999c8 10 16.5 19.833 25.5 29.5s18.167 17.667 27.5 24s18.833 10.166 28.5 11.499s19.167 -2 28.5 -10c7.33301 -6 10.666 -13.333 9.99902 -22
s-3.5 -18 -8.5 -28s-11.667 -20.167 -20 -30.5l-24.5 -29.5c-6 -7.33301 -13.333 -14.833 -22 -22.5s-17.334 -14.334 -26.001 -20.001s-17 -9.66699 -25 -12s-14.333 -1.5 -19 2.5zM338.002 628.003c18.667 0 37.8389 -9.83398 57.5059 -29.501
s38.834 -45.167 57.501 -76.5s36 -66.333 52 -105s30 -76.667 42 -114s21 -72 27 -104s8 -57.333 6 -76c-9.33301 -56.667 -29 -94.667 -59 -114s-67.667 -15.333 -113 12l-47 29c-11.333 7.33301 -20.833 12.833 -28.5 16.5s-15 5.83398 -22 6.50098s-16.5 1 -28.5 1
c-22.667 -0.666992 -44.834 -7.66699 -66.501 -21l-70.5 -43c-10 -7.33301 -22.833 -11.666 -38.5 -12.999s-30.167 1.83398 -43.5 9.50098s-23.333 20.667 -30 39s-6.33398 44.166 0.999023 77.499c3.33301 23.333 10.166 52 20.499 86s23.166 69.667 38.499 107
s32.666 74.666 51.999 111.999s39.666 70.833 60.999 100.5s43.166 53.667 65.499 72s44.5 27.5 66.5 27.5z" />
    <glyph glyph-name="Acircumflex" unicode="&#xc2;" 
d="M338 628c18.667 0 37.8389 -9.83398 57.5059 -29.501s38.834 -45.167 57.501 -76.5s36 -66.333 52 -105s30 -76.667 42 -114s21 -72 27 -104s8 -57.333 6 -76c-9.33301 -56.667 -29 -94.667 -59 -114s-67.667 -15.333 -113 12l-47 29
c-11.333 7.33301 -20.833 12.833 -28.5 16.5s-15 5.83398 -22 6.50098s-16.5 1 -28.5 1c-22.667 -0.666992 -44.834 -7.66699 -66.501 -21l-70.5 -43c-10 -7.33301 -22.833 -11.666 -38.5 -12.999s-30.167 1.83398 -43.5 9.50098s-23.333 20.667 -30 39
s-6.33398 44.166 0.999023 77.499c3.33301 23.333 10.166 52 20.499 86s23.166 69.667 38.499 107s32.666 74.666 51.999 111.999s39.666 70.833 60.999 100.5s43.166 53.667 65.499 72s44.5 27.5 66.5 27.5zM333.005 826.999c24 0 45.667 -4.99805 65 -14.998
s36.333 -21.833 51 -35.5s26.667 -27.334 36 -41.001l21 -30.5c4.66699 -6.66699 6.66699 -14 6 -22s-3.5 -14.833 -8.5 -20.5s-12.333 -9.33398 -22 -11.001s-20.834 0.833008 -33.501 7.5c-15.333 7.33301 -30 13 -44 17s-29.333 6 -46 6s-36 -1.83301 -58 -5.5
s-49 -9.5 -81 -17.5c-18.667 -6 -32.5 -8 -41.5 -6s-14.5 6.33301 -16.5 13s-1.33301 15 2 25s8 20.167 14 30.5s12.833 20 20.5 29s14.834 15.833 21.501 20.5c9.33301 6.66699 18 13.5 26 20.5s16.167 13 24.5 18s17.5 9.16699 27.5 12.5s22 5 36 5z" />
    <glyph glyph-name="Atilde" unicode="&#xc3;" 
d="M338 628c18.667 0 37.8389 -9.83398 57.5059 -29.501s38.834 -45.167 57.501 -76.5s36 -66.333 52 -105s30 -76.667 42 -114s21 -72 27 -104s8 -57.333 6 -76c-9.33301 -56.667 -29 -94.667 -59 -114s-67.667 -15.333 -113 12l-47 29
c-11.333 7.33301 -20.833 12.833 -28.5 16.5s-15 5.83398 -22 6.50098s-16.5 1 -28.5 1c-22.667 -0.666992 -44.834 -7.66699 -66.501 -21l-70.5 -43c-10 -7.33301 -22.833 -11.666 -38.5 -12.999s-30.167 1.83398 -43.5 9.50098s-23.333 20.667 -30 39
s-6.33398 44.166 0.999023 77.499c3.33301 23.333 10.166 52 20.499 86s23.166 69.667 38.499 107s32.666 74.666 51.999 111.999s39.666 70.833 60.999 100.5s43.166 53.667 65.499 72s44.5 27.5 66.5 27.5zM467.005 708.999
c-10.667 -2.66699 -22.334 -5.83105 -35.001 -9.49805l-38.5 -11.5l-38.5 -12c-12.667 -4 -24.334 -7.33301 -35.001 -10c-10.667 -4.66699 -22.667 -7.33398 -36 -8.00098s-25.666 -1 -36.999 -1c-8 2 -14.833 4.83301 -20.5 8.5s-10.667 7.5 -15 11.5l-13 12
c-4.33301 4 -9.16602 7.33301 -14.499 10s-11 3.66699 -17 3s-11.667 -1 -17 -1s-9.83301 1.16699 -13.5 3.5s-5.5 7.5 -5.5 15.5c2.66699 4.66699 7 9 13 13s12.333 7.33301 19 10s13 4.66699 19 6s10.667 2 14 2c10 2.66699 19.667 3.5 29 2.5s18.666 -2.5 27.999 -4.5
l28 -6c9.33301 -2 19 -3 29 -3c20.667 -2.66699 37 -2.5 49 0.5s22.333 6.5 31 10.5s16.834 7.33301 24.501 10s18.167 2.66699 31.5 0s23.833 -6.83398 31.5 -12.501s12.5 -11.5 14.5 -17.5s1 -11.167 -3 -15.5s-11.333 -6.5 -22 -6.5z" />
    <glyph glyph-name="Adieresis" unicode="&#xc4;" 
d="M338 628c18.667 0 37.8389 -9.83398 57.5059 -29.501s38.834 -45.167 57.501 -76.5s36 -66.333 52 -105s30 -76.667 42 -114s21 -72 27 -104s8 -57.333 6 -76c-9.33301 -56.667 -29 -94.667 -59 -114s-67.667 -15.333 -113 12l-47 29
c-11.333 7.33301 -20.833 12.833 -28.5 16.5s-15 5.83398 -22 6.50098s-16.5 1 -28.5 1c-22.667 -0.666992 -44.834 -7.66699 -66.501 -21l-70.5 -43c-10 -7.33301 -22.833 -11.666 -38.5 -12.999s-30.167 1.83398 -43.5 9.50098s-23.333 20.667 -30 39
s-6.33398 44.166 0.999023 77.499c3.33301 23.333 10.166 52 20.499 86s23.166 69.667 38.499 107s32.666 74.666 51.999 111.999s39.666 70.833 60.999 100.5s43.166 53.667 65.499 72s44.5 27.5 66.5 27.5zM187.005 830.999c13.333 10 29.501 13.499 48.501 10.499
s35.5 -12.5 49.5 -28.5c12 -13.333 20 -26.666 24 -39.999s4.66699 -25.833 2 -37.5s-8.5 -22.167 -17.5 -31.5s-20.5 -16.333 -34.5 -21c-28 -9.33301 -51.5 -9.33301 -70.5 0s-32.167 28 -39.5 56c-2.66699 10 -3.33398 19.667 -2.00098 29s4 18 8 26
s8.83301 15.167 14.5 21.5s11.5 11.5 17.5 15.5zM372.006 834.998c13.333 10 29.501 13.499 48.501 10.499s35.5 -12.5 49.5 -28.5c12 -13.333 20 -26.666 24 -39.999s4.66699 -25.833 2 -37.5s-8.5 -22.167 -17.5 -31.5s-20.5 -16.333 -34.5 -21
c-28 -9.33301 -51.5 -9.33301 -70.5 0s-32.167 28 -39.5 56c-2.66699 10 -3.33398 19.667 -2.00098 29s4 18 8 26s8.83301 15.167 14.5 21.5s11.5 11.5 17.5 15.5z" />
    <glyph glyph-name="Ccedilla" unicode="&#xc7;" horiz-adv-x="553" 
d="M510 158c12.667 -17.333 19.8359 -36.165 21.5029 -56.498s-3.5 -39.666 -15.5 -57.999s-31.333 -34.5 -58 -48.5s-61.334 -23 -104.001 -27c0 -4 2.5 -9.33301 7.5 -16s9 -14.334 12 -23.001s3.66699 -18.334 2 -29.001s-8.83398 -22.334 -21.501 -35.001
c-4.66699 -8.66699 -11 -15.334 -19 -20.001s-16.333 -7.5 -25 -8.5s-17 -0.5 -25 1.5s-14 5 -18 9c-4.66699 0 -9 1.83301 -13 5.5s-7.5 8.16699 -10.5 13.5s-5.5 11 -7.5 17s-3 11.333 -3 16c4 4 9.66699 6.33301 17 7s13.666 1 18.999 1s8.5 0.5 9.5 1.5
s-2.83301 3.5 -11.5 7.5c-9.33301 9.33301 -17.333 18.833 -24 28.5s-10 23.167 -10 40.5c-34.667 8.66699 -65.834 24.334 -93.501 47.001s-50.667 49.667 -69 81s-31.5 65.833 -39.5 103.5s-10 76.167 -6 115.5c4.66699 34 11.334 64.167 20.001 90.5s20 49.833 34 70.5
s30.833 38.667 50.5 54s42.5 29.666 68.5 42.999c26 17.333 56 28.333 90 33s66 4.33398 96 -0.999023s55.5 -15.333 76.5 -30s31.5 -32.667 31.5 -54c0 -26 -2.83301 -49 -8.5 -69s-12.167 -38 -19.5 -54s-15 -30.667 -23 -44s-14 -26.333 -18 -39
c-4 -13.333 -5 -25.833 -3 -37.5s6.66699 -24 14 -37s17.5 -27.333 30.5 -43z" />
    <glyph glyph-name="Egrave" unicode="&#xc8;" horiz-adv-x="481" 
d="M30 271c-3.33301 26.667 -3.66504 54.333 -0.998047 83s8.16699 56.667 16.5 84s19.833 53 34.5 77s32.167 45 52.5 63s43.666 31.833 69.999 41.5s55.5 13.834 87.5 12.501c37.333 -2.66699 65.5 -9.66699 84.5 -21s31 -24.5 36 -39.5s4.5 -30.667 -1.5 -47
s-15 -30.5 -27 -42.5c-10 -12.667 -17.667 -23.167 -23 -31.5s-8.33301 -15.666 -9 -21.999s0.833008 -12.333 4.5 -18s9.5 -11.834 17.5 -18.501c6.66699 -5.33301 13.667 -10.333 21 -15s13.666 -9.66699 18.999 -15s9.83301 -12 13.5 -20s5.5 -18.333 5.5 -31
c2 -15.333 0.166992 -28.333 -5.5 -39s-12.167 -20 -19.5 -28l-19.5 -22c-5.66699 -6.66699 -7.16699 -13.334 -4.5 -20.001c2 -7.33301 7.33301 -14.5 16 -21.5s17.334 -14.667 26.001 -23s16 -17.833 22 -28.5s7.66699 -23.667 5 -39
c-2.66699 -14.667 -8.33398 -28.5 -17.001 -41.5s-20.167 -23.833 -34.5 -32.5s-31.5 -14.667 -51.5 -18s-42.667 -2.33301 -68 3c-30 5.33301 -59.5 14.333 -88.5 27s-55 30 -78 52s-42.167 48.667 -57.5 80s-24 68.333 -26 111zM159.001 846.999
c10.667 10.667 21.165 16.3359 31.498 17.0029s20.833 -1.5 31.5 -6.5s21.167 -12.333 31.5 -22l31.5 -30.5l32 -33.5c10.667 -11.667 19.334 -23.334 26.001 -35.001s10.167 -23.334 10.5 -35.001s-4.83398 -22.834 -15.501 -33.501c-8 -8 -17.167 -11.167 -27.5 -9.5
s-21.166 6.16699 -32.499 13.5s-22.666 16.5 -33.999 27.5l-33 31.5c-8 8 -16.167 17.5 -24.5 28.5s-15.333 22.167 -21 33.5s-9.5 21.833 -11.5 31.5s-0.333008 17.167 5 22.5z" />
    <glyph glyph-name="Eacute" unicode="&#xc9;" horiz-adv-x="481" 
d="M233 665c-9.33301 8 -14.8311 16.3359 -16.498 25.0029s-0.666992 17.5 3 26.5s9 18.167 16 27.5s14.5 18.666 22.5 27.999c8 10 16.5 19.833 25.5 29.5s18.167 17.667 27.5 24s18.833 10.166 28.5 11.499s19.167 -2 28.5 -10c7.33301 -6 10.666 -13.333 9.99902 -22
s-3.5 -18 -8.5 -28s-11.667 -20.167 -20 -30.5l-24.5 -29.5c-6 -7.33301 -13.333 -14.833 -22 -22.5s-17.334 -14.334 -26.001 -20.001s-17 -9.66699 -25 -12s-14.333 -1.5 -19 2.5zM29.002 276.003c-5.33301 40.667 -3.66602 83.168 5.00098 127.501
s24.167 84.666 46.5 120.999s51.333 65.833 87 88.5s77.834 33 126.501 31c38 -2.66699 66.5 -9.66699 85.5 -21s31.167 -24.833 36.5 -40.5s5 -31.667 -1 -48s-15.333 -30.833 -28 -43.5c-10.667 -13.333 -18.667 -24.166 -24 -32.499s-8.33301 -15.666 -9 -21.999
s1 -12.333 5 -18s10 -12.167 18 -19.5c6.66699 -5.33301 13.667 -10.333 21 -15s13.833 -9.83398 19.5 -15.501s10.334 -12.5 14.001 -20.5s5.5 -18.333 5.5 -31c2 -15.333 0.166992 -28.5 -5.5 -39.5s-12.334 -20.667 -20.001 -29l-20 -22.5
c-5.66699 -6.66699 -7.16699 -13.334 -4.5 -20.001c2 -8 7.33301 -15.5 16 -22.5s17.334 -14.667 26.001 -23s16.167 -18 22.5 -29s8.16602 -24.167 5.49902 -39.5s-8.33398 -29.5 -17.001 -42.5s-20.334 -24 -35.001 -33s-32.167 -15.167 -52.5 -18.5
s-43.5 -2.33301 -69.5 3c-30 5.33301 -59.667 14.5 -89 27.5s-55.833 30.667 -79.5 53s-43.167 49.5 -58.5 81.5s-24.333 69.667 -27 113z" />
    <glyph glyph-name="Ecircumflex" unicode="&#xca;" horiz-adv-x="481" 
d="M30 271c-3.33301 26.667 -3.66504 54.333 -0.998047 83s8.16699 56.667 16.5 84s19.833 53 34.5 77s32.167 45 52.5 63s43.666 31.833 69.999 41.5s55.5 13.834 87.5 12.501c37.333 -2.66699 65.5 -9.66699 84.5 -21s31 -24.5 36 -39.5s4.5 -30.667 -1.5 -47
s-15 -30.5 -27 -42.5c-10 -12.667 -17.667 -23.167 -23 -31.5s-8.33301 -15.666 -9 -21.999s0.833008 -12.333 4.5 -18s9.5 -11.834 17.5 -18.501c6.66699 -5.33301 13.667 -10.333 21 -15s13.666 -9.66699 18.999 -15s9.83301 -12 13.5 -20s5.5 -18.333 5.5 -31
c2 -15.333 0.166992 -28.333 -5.5 -39s-12.167 -20 -19.5 -28l-19.5 -22c-5.66699 -6.66699 -7.16699 -13.334 -4.5 -20.001c2 -7.33301 7.33301 -14.5 16 -21.5s17.334 -14.667 26.001 -23s16 -17.833 22 -28.5s7.66699 -23.667 5 -39
c-2.66699 -14.667 -8.33398 -28.5 -17.001 -41.5s-20.167 -23.833 -34.5 -32.5s-31.5 -14.667 -51.5 -18s-42.667 -2.33301 -68 3c-30 5.33301 -59.5 14.333 -88.5 27s-55 30 -78 52s-42.167 48.667 -57.5 80s-24 68.333 -26 111zM269.001 824.999
c24 0 45.668 -4.99805 65.001 -14.998s36.166 -21.833 50.499 -35.5s26.166 -27.334 35.499 -41.001l21 -30.5c4.66699 -6.66699 6.66699 -14 6 -22s-3.5 -14.833 -8.5 -20.5s-12.167 -9.33398 -21.5 -11.001s-20.666 0.833008 -33.999 7.5c-15.333 7.33301 -30 13 -44 17
s-29.333 6 -46 6s-36 -1.83301 -58 -5.5s-49 -9.5 -81 -17.5c-18.667 -6 -32.5 -8 -41.5 -6s-14.5 6.33301 -16.5 13s-1.33301 15 2 25s8 20.167 14 30.5s12.833 20 20.5 29s14.834 15.833 21.501 20.5c9.33301 6.66699 18 13.5 26 20.5s16.167 13 24.5 18
s17.666 9.16699 27.999 12.5s22.5 5 36.5 5z" />
    <glyph glyph-name="Edieresis" unicode="&#xcb;" horiz-adv-x="481" 
d="M30 271c-3.33301 26.667 -3.66504 54.333 -0.998047 83s8.16699 56.667 16.5 84s19.833 53 34.5 77s32.167 45 52.5 63s43.666 31.833 69.999 41.5s55.5 13.834 87.5 12.501c37.333 -2.66699 65.5 -9.66699 84.5 -21s31 -24.5 36 -39.5s4.5 -30.667 -1.5 -47
s-15 -30.5 -27 -42.5c-10 -12.667 -17.667 -23.167 -23 -31.5s-8.33301 -15.666 -9 -21.999s0.833008 -12.333 4.5 -18s9.5 -11.834 17.5 -18.501c6.66699 -5.33301 13.667 -10.333 21 -15s13.666 -9.66699 18.999 -15s9.83301 -12 13.5 -20s5.5 -18.333 5.5 -31
c2 -15.333 0.166992 -28.333 -5.5 -39s-12.167 -20 -19.5 -28l-19.5 -22c-5.66699 -6.66699 -7.16699 -13.334 -4.5 -20.001c2 -7.33301 7.33301 -14.5 16 -21.5s17.334 -14.667 26.001 -23s16 -17.833 22 -28.5s7.66699 -23.667 5 -39
c-2.66699 -14.667 -8.33398 -28.5 -17.001 -41.5s-20.167 -23.833 -34.5 -32.5s-31.5 -14.667 -51.5 -18s-42.667 -2.33301 -68 3c-30 5.33301 -59.5 14.333 -88.5 27s-55 30 -78 52s-42.167 48.667 -57.5 80s-24 68.333 -26 111zM115.001 832.999
c13.333 10 29.501 13.499 48.501 10.499s35.5 -12.5 49.5 -28.5c12 -13.333 20 -26.666 24 -39.999s4.66699 -25.833 2 -37.5s-8.5 -22.167 -17.5 -31.5s-20.5 -16.333 -34.5 -21c-28 -9.33301 -51.5 -9.33301 -70.5 0s-32.167 28 -39.5 56
c-2.66699 10 -3.33398 19.667 -2.00098 29s4 18 8 26s8.83301 15.167 14.5 21.5s11.5 11.5 17.5 15.5zM300.002 836.998c13.333 10 29.501 13.499 48.501 10.499s35.5 -12.5 49.5 -28.5c12 -13.333 20 -26.666 24 -39.999s4.66699 -25.833 2 -37.5s-8.5 -22.167 -17.5 -31.5
s-20.5 -16.333 -34.5 -21c-28 -9.33301 -51.5 -9.33301 -70.5 0s-32.167 28 -39.5 56c-2.66699 10 -3.33398 19.667 -2.00098 29s4 18 8 26s8.83301 15.167 14.5 21.5s11.5 11.5 17.5 15.5z" />
    <glyph glyph-name="Igrave" unicode="&#xcc;" horiz-adv-x="316" 
d="M144 621c28 0 51 -9.00098 69 -27.001s32.5 -41 43.5 -69s18.667 -59.167 23 -93.5s6.5 -67.833 6.5 -100.5c0 -35.333 -1.16699 -72.5 -3.5 -111.5s-7.83301 -74.833 -16.5 -107.5s-21.667 -59.667 -39 -81s-41 -32 -71 -32c-22 0 -40.5 4.83301 -55.5 14.5
s-27.5 22.834 -37.5 39.501s-17.5 35.667 -22.5 57s-8.83301 43.5 -11.5 66.5s-4.16699 46.167 -4.5 69.5s-0.5 45 -0.5 65c-2.66699 30 -1.16699 63 4.5 99s14.167 69.667 25.5 101s24.833 57.5 40.5 78.5s32.167 31.5 49.5 31.5zM52 848.999
c10.667 10.667 21.165 16.3359 31.498 17.0029s20.833 -1.5 31.5 -6.5s21.167 -12.333 31.5 -22l31.5 -30.5l32 -33.5c10.667 -11.667 19.334 -23.334 26.001 -35.001s10.167 -23.334 10.5 -35.001s-4.83398 -22.834 -15.501 -33.501c-8 -8 -17.167 -11.167 -27.5 -9.5
s-21.166 6.16699 -32.499 13.5s-22.666 16.5 -33.999 27.5l-33 31.5c-8 8 -16.167 17.5 -24.5 28.5s-15.333 22.167 -21 33.5s-9.5 21.833 -11.5 31.5s-0.333008 17.167 5 22.5z" />
    <glyph glyph-name="Iacute" unicode="&#xcd;" horiz-adv-x="320" 
d="M122 655c-9.33301 8 -14.8311 16.3359 -16.498 25.0029s-0.666992 17.5 3 26.5s9 18.167 16 27.5s14.5 18.666 22.5 27.999c8 10 16.5 19.833 25.5 29.5s18.167 17.667 27.5 24s18.833 10.166 28.5 11.499s19.167 -2 28.5 -10c7.33301 -6 10.666 -13.333 9.99902 -22
s-3.5 -18 -8.5 -28s-11.667 -20.167 -20 -30.5l-24.5 -29.5c-6 -7.33301 -13.333 -14.833 -22 -22.5s-17.334 -14.334 -26.001 -20.001s-17 -9.66699 -25 -12s-14.333 -1.5 -19 2.5zM142.002 621.003c28 0 51 -9.00098 69 -27.001s32.5 -41 43.5 -69
s18.667 -59.167 23 -93.5s6.5 -67.833 6.5 -100.5c0 -35.333 -1.16699 -72.5 -3.5 -111.5s-7.83301 -74.833 -16.5 -107.5s-21.667 -59.667 -39 -81s-41 -32 -71 -32c-22 0 -40.5 4.83301 -55.5 14.5s-27.5 22.834 -37.5 39.501s-17.5 35.667 -22.5 57
s-8.83301 43.5 -11.5 66.5s-4.16699 46.167 -4.5 69.5s-0.5 45 -0.5 65c-2.66699 30 -1.16699 63 4.5 99s14.167 69.667 25.5 101s24.833 57.5 40.5 78.5s32.167 31.5 49.5 31.5z" />
    <glyph glyph-name="Idieresis" unicode="&#xcf;" horiz-adv-x="324" 
d="M152 621c28 0 51 -9.00098 69 -27.001s32.5 -41 43.5 -69s18.667 -59.167 23 -93.5s6.5 -67.833 6.5 -100.5c0 -35.333 -1.16699 -72.5 -3.5 -111.5s-7.83301 -74.833 -16.5 -107.5s-21.667 -59.667 -39 -81s-41 -32 -71 -32c-22 0 -40.5 4.83301 -55.5 14.5
s-27.5 22.834 -37.5 39.501s-17.5 35.667 -22.5 57s-8.83301 43.5 -11.5 66.5s-4.16699 46.167 -4.5 69.5s-0.5 45 -0.5 65c-2.66699 30 -1.16699 63 4.5 99s14.167 69.667 25.5 101s24.833 57.5 40.5 78.5s32.167 31.5 49.5 31.5zM29 832.999
c13.333 10 29.501 13.499 48.501 10.499s35.5 -12.5 49.5 -28.5c12 -13.333 20 -26.666 24 -39.999s4.66699 -25.833 2 -37.5s-8.5 -22.167 -17.5 -31.5s-20.5 -16.333 -34.5 -21c-28 -9.33301 -51.5 -9.33301 -70.5 0s-32.167 28 -39.5 56
c-2.66699 10 -3.33398 19.667 -2.00098 29s4 18 8 26s8.83301 15.167 14.5 21.5s11.5 11.5 17.5 15.5zM214.001 836.998c13.333 10 29.501 13.499 48.501 10.499s35.5 -12.5 49.5 -28.5c12 -13.333 20 -26.666 24 -39.999s4.66699 -25.833 2 -37.5s-8.5 -22.167 -17.5 -31.5
s-20.5 -16.333 -34.5 -21c-28 -9.33301 -51.5 -9.33301 -70.5 0s-32.167 28 -39.5 56c-2.66699 10 -3.33398 19.667 -2.00098 29s4 18 8 26s8.83301 15.167 14.5 21.5s11.5 11.5 17.5 15.5z" />
    <glyph glyph-name="Eth" unicode="&#xd0;" horiz-adv-x="561" 
d="M530 322c0 -43.333 -8.33203 -84.4971 -24.999 -123.497s-39.834 -73.333 -69.501 -103s-64.834 -53.334 -105.501 -71.001s-85 -26.5 -133 -26.5c-33.333 0 -60.333 4.66699 -81 14s-36.667 21.666 -48 36.999s-19 32.833 -23 52.5s-6 40.167 -6 61.5
s0.833008 42.166 2.5 62.499s2.5 39.166 2.5 56.499c0 16.667 -1.16699 36.834 -3.5 60.501s-4 48.167 -5 73.5s-0.166992 50.5 2.5 75.5s8.83398 47.333 18.501 67s24 35.667 43 48s44.5 18.5 76.5 18.5c48 0 93.5 -6.33301 136.5 -19s80.667 -31.667 113 -57
s57.833 -57 76.5 -95s28 -82 28 -132zM321.001 283.003c0 -15.333 -5.66406 -26.998 -16.9971 -34.998s-25.833 -13.833 -43.5 -17.5s-37.334 -5.83398 -59.001 -6.50098s-42.5 -1 -62.5 -1s-40.667 0.333008 -62 1s-40.833 2.83398 -58.5 6.50098s-32.167 9.5 -43.5 17.5
s-17 19.667 -17 35s6.16699 26.666 18.5 33.999s27.666 12.166 45.999 14.499s38 3.33301 59 3s40.167 -0.5 57.5 -0.5c18 0 37.5 -1.16699 58.5 -3.5s40.667 -5.83301 59 -10.5s33.666 -10 45.999 -16s18.5 -13 18.5 -21z" />
    <glyph glyph-name="Ntilde" unicode="&#xd1;" horiz-adv-x="739" 
d="M71 613c15.333 22.667 31.9951 36.8291 49.9951 42.4961s36.667 5.83398 56 0.500977s39.333 -14.333 60 -27l61 -39c20 -13.333 39.5 -25.5 58.5 -36.5s37.167 -17.5 54.5 -19.5c15.333 -4 28.833 -3 40.5 3s22.334 14.333 32.001 25s18.334 22.667 26.001 36
s15.334 25.666 23.001 36.999s15.334 20.5 23.001 27.5s16.167 9.83301 25.5 8.5c9.33301 -2 21.166 -15.333 35.499 -40s28.5 -56.167 42.5 -94.5s26.333 -81 37 -128s16.834 -93.667 18.501 -140s-2.16602 -90.166 -11.499 -131.499s-27.333 -75 -54 -101
c-22.667 -21.333 -45.667 -33.666 -69 -36.999s-46.666 -1.66602 -69.999 5.00098s-46 17.167 -68 31.5s-42.667 28.666 -62 42.999l-53 39c-16 11.667 -29.667 18.5 -41 20.5c-14 5.33301 -25.833 2 -35.5 -10s-19.167 -26.5 -28.5 -43.5s-19.333 -33 -30 -48
s-24.334 -22.5 -41.001 -22.5c-11.333 2 -25 12.833 -41 32.5s-31.333 45.5 -46 77.5s-27.5 68.333 -38.5 109s-17.5 82.834 -19.5 126.501s1.66699 87.334 11 131.001s27.333 84.5 54 122.5zM153.995 742.995c-15.333 2.66699 -27.9951 7 -37.9951 13s-16 12.667 -18 20
s0.333008 14.666 7 21.999s19 13 37 17c14.667 3.33301 29.667 3.33301 45 0s30.5 -7.66602 45.5 -12.999l45.5 -15.5c15.333 -5 30.666 -7.5 45.999 -7.5c14.667 0 29.167 2 43.5 6l43 12.5c14.333 4.33301 28.5 7.83301 42.5 10.5s28.667 2.66699 44 0
c18 -4 34.167 -8 48.5 -12s25.5 -13.667 33.5 -29c5.33301 -10 3.16602 -17 -6.50098 -21s-23.5 -9.33301 -41.5 -16c-9.33301 -6 -18 -12.5 -26 -19.5l-24.5 -21c-8.33301 -7 -17.333 -13.333 -27 -19s-20.5 -10.167 -32.5 -13.5c-18.667 -6 -35.334 -7.16699 -50.001 -3.5
s-30.334 9.16699 -47.001 16.5c-18 8 -33.833 15.833 -47.5 23.5s-26.834 14.667 -39.501 21s-25.667 12 -39 17s-28 8.83301 -44 11.5z" />
    <glyph glyph-name="Ograve" unicode="&#xd2;" horiz-adv-x="653" 
d="M37 202c-7.33301 24.667 -11.9971 52.1689 -13.9971 82.502s0.166992 61 6.5 92s17.333 61.5 33 91.5s37.167 57.667 64.5 83c31.333 28 65.166 47.667 101.499 59s72.666 15.5 108.999 12.5s71.666 -12.333 105.999 -28s65 -36.334 92 -62.001s49.333 -55.667 67 -90
s28.167 -71.166 31.5 -110.499c2.66699 -44.667 -1.16602 -86.334 -11.499 -125.001s-27.333 -72.667 -51 -102s-54.334 -52.833 -92.001 -70.5s-82.5 -27.834 -134.5 -30.501c-44.667 -5.33301 -84 -3 -118 7s-63.5 24.667 -88.5 44s-45.667 41.833 -62 67.5
s-29.5 52.167 -39.5 79.5zM192.003 865.002c10.667 10.667 21.165 16.3359 31.498 17.0029s20.833 -1.5 31.5 -6.5s21.167 -12.333 31.5 -22l31.5 -30.5l32 -33.5c10.667 -11.667 19.334 -23.334 26.001 -35.001s10.167 -23.334 10.5 -35.001
s-4.83398 -22.834 -15.501 -33.501c-8 -8 -17.167 -11.167 -27.5 -9.5s-21.166 6.16699 -32.499 13.5s-22.666 16.5 -33.999 27.5l-33 31.5c-8 8 -16.167 17.5 -24.5 28.5s-15.333 22.167 -21 33.5s-9.5 21.833 -11.5 31.5s-0.333008 17.167 5 22.5z" />
    <glyph glyph-name="Oacute" unicode="&#xd3;" horiz-adv-x="653" 
d="M308 696c-11.333 9.33301 -17.8311 19.166 -19.498 29.499s-0.333984 21 3.99902 32s10.833 22.167 19.5 33.5l27 34l30 35c10.667 12 21.667 21.833 33 29.5s22.666 12.167 33.999 13.5s22.666 -2.66699 33.999 -12c8.66699 -7.33301 12.667 -16.166 12 -26.499
s-4 -21.5 -10 -33.5s-14 -24.167 -24 -36.5l-29 -35.5c-7.33301 -8.66699 -16.166 -17.667 -26.499 -27s-20.833 -17.5 -31.5 -24.5s-20.667 -11.833 -30 -14.5s-17 -1.66699 -23 3zM37.002 202c-7.33301 24.667 -11.9971 52.1689 -13.9971 82.502s0.166992 61 6.5 92
s17.333 61.5 33 91.5s37.167 57.667 64.5 83c31.333 28 65.166 47.667 101.499 59s72.666 15.5 108.999 12.5s71.666 -12.333 105.999 -28s65 -36.334 92 -62.001s49.333 -55.667 67 -90s28.167 -71.166 31.5 -110.499c2.66699 -44.667 -1.16602 -86.334 -11.499 -125.001
s-27.333 -72.667 -51 -102s-54.334 -52.833 -92.001 -70.5s-82.5 -27.834 -134.5 -30.501c-44.667 -5.33301 -84 -3 -118 7s-63.5 24.667 -88.5 44s-45.667 41.833 -62 67.5s-29.5 52.167 -39.5 79.5z" />
    <glyph glyph-name="Ocircumflex" unicode="&#xd4;" horiz-adv-x="653" 
d="M37 202c-7.33301 24.667 -11.9971 52.1689 -13.9971 82.502s0.166992 61 6.5 92s17.333 61.5 33 91.5s37.167 57.667 64.5 83c31.333 28 65.166 47.667 101.499 59s72.666 15.5 108.999 12.5s71.666 -12.333 105.999 -28s65 -36.334 92 -62.001s49.333 -55.667 67 -90
s28.167 -71.166 31.5 -110.499c2.66699 -44.667 -1.16602 -86.334 -11.499 -125.001s-27.333 -72.667 -51 -102s-54.334 -52.833 -92.001 -70.5s-82.5 -27.834 -134.5 -30.501c-44.667 -5.33301 -84 -3 -118 7s-63.5 24.667 -88.5 44s-45.667 41.833 -62 67.5
s-29.5 52.167 -39.5 79.5zM333.003 827.002c24 0 45.667 -4.99805 65 -14.998s36.333 -21.833 51 -35.5s26.667 -27.334 36 -41.001l21 -30.5c4.66699 -6.66699 6.66699 -14 6 -22s-3.5 -14.833 -8.5 -20.5s-12.333 -9.33398 -22 -11.001s-20.834 0.833008 -33.501 7.5
c-15.333 7.33301 -30 13 -44 17s-29.333 6 -46 6s-36 -1.83301 -58 -5.5s-49 -9.5 -81 -17.5c-18.667 -6 -32.5 -8 -41.5 -6s-14.5 6.33301 -16.5 13s-1.33301 15 2 25s8 20.167 14 30.5s12.833 20 20.5 29s14.834 15.833 21.501 20.5c9.33301 6.66699 18 13.5 26 20.5
s16.167 13 24.5 18s17.5 9.16699 27.5 12.5s22 5 36 5z" />
    <glyph glyph-name="Otilde" unicode="&#xd5;" horiz-adv-x="653" 
d="M37 202c-7.33301 24.667 -11.9971 52.1689 -13.9971 82.502s0.166992 61 6.5 92s17.333 61.5 33 91.5s37.167 57.667 64.5 83c31.333 28 65.166 47.667 101.499 59s72.666 15.5 108.999 12.5s71.666 -12.333 105.999 -28s65 -36.334 92 -62.001s49.333 -55.667 67 -90
s28.167 -71.166 31.5 -110.499c2.66699 -44.667 -1.16602 -86.334 -11.499 -125.001s-27.333 -72.667 -51 -102s-54.334 -52.833 -92.001 -70.5s-82.5 -27.834 -134.5 -30.501c-44.667 -5.33301 -84 -3 -118 7s-63.5 24.667 -88.5 44s-45.667 41.833 -62 67.5
s-29.5 52.167 -39.5 79.5zM467.003 709.002c-10.667 -2.66699 -22.334 -5.83105 -35.001 -9.49805l-38.5 -11.5l-38.5 -12c-12.667 -4 -24.334 -7.33301 -35.001 -10c-10.667 -4.66699 -22.667 -7.33398 -36 -8.00098s-25.666 -1 -36.999 -1c-8 2 -14.833 4.83301 -20.5 8.5
s-10.667 7.5 -15 11.5l-13 12c-4.33301 4 -9.16602 7.33301 -14.499 10s-11 3.66699 -17 3s-11.667 -1 -17 -1s-9.83301 1.16699 -13.5 3.5s-5.5 7.5 -5.5 15.5c2.66699 4.66699 7 9 13 13s12.333 7.33301 19 10s13 4.66699 19 6s10.667 2 14 2
c10 2.66699 19.667 3.5 29 2.5s18.666 -2.5 27.999 -4.5l28 -6c9.33301 -2 19 -3 29 -3c20.667 -2.66699 37 -2.5 49 0.5s22.333 6.5 31 10.5s16.834 7.33301 24.501 10s18.167 2.66699 31.5 0s23.833 -6.83398 31.5 -12.501s12.5 -11.5 14.5 -17.5s1 -11.167 -3 -15.5
s-11.333 -6.5 -22 -6.5z" />
    <glyph glyph-name="Odieresis" unicode="&#xd6;" horiz-adv-x="653" 
d="M37 202c-7.33301 24.667 -11.9971 52.1689 -13.9971 82.502s0.166992 61 6.5 92s17.333 61.5 33 91.5s37.167 57.667 64.5 83c31.333 28 65.166 47.667 101.499 59s72.666 15.5 108.999 12.5s71.666 -12.333 105.999 -28s65 -36.334 92 -62.001s49.333 -55.667 67 -90
s28.167 -71.166 31.5 -110.499c2.66699 -44.667 -1.16602 -86.334 -11.499 -125.001s-27.333 -72.667 -51 -102s-54.334 -52.833 -92.001 -70.5s-82.5 -27.834 -134.5 -30.501c-44.667 -5.33301 -84 -3 -118 7s-63.5 24.667 -88.5 44s-45.667 41.833 -62 67.5
s-29.5 52.167 -39.5 79.5zM195.003 837.002c13.333 10 29.501 13.499 48.501 10.499s35.5 -12.5 49.5 -28.5c12 -13.333 20 -26.666 24 -39.999s4.66699 -25.833 2 -37.5s-8.5 -22.167 -17.5 -31.5s-20.5 -16.333 -34.5 -21c-28 -9.33301 -51.5 -9.33301 -70.5 0
s-32.167 28 -39.5 56c-2.66699 10 -3.33398 19.667 -2.00098 29s4 18 8 26s8.83301 15.167 14.5 21.5s11.5 11.5 17.5 15.5zM380.004 841.001c13.333 10 29.501 13.499 48.501 10.499s35.5 -12.5 49.5 -28.5c12 -13.333 20 -26.666 24 -39.999s4.66699 -25.833 2 -37.5
s-8.5 -22.167 -17.5 -31.5s-20.5 -16.333 -34.5 -21c-28 -9.33301 -51.5 -9.33301 -70.5 0s-32.167 28 -39.5 56c-2.66699 10 -3.33398 19.667 -2.00098 29s4 18 8 26s8.83301 15.167 14.5 21.5s11.5 11.5 17.5 15.5z" />
    <glyph glyph-name="multiply" unicode="&#xd7;" horiz-adv-x="471" 
d="M27 538c5.33301 7.33301 12.6631 10.498 21.9961 9.49805s19.5 -4.33301 30.5 -10s22.5 -12.834 34.5 -21.501l35 -26c10.667 -7.33301 19.5 -14.333 26.5 -21s14.5 -11.834 22.5 -15.501s17.667 -5.16699 29 -4.5s26 4.66699 44 12c16 8.66699 31.5 18.667 46.5 30
s29.333 21.333 43 30s26.667 15 39 19s23.833 3.33301 34.5 -2c8.66699 -7.33301 12.167 -19 10.5 -35s-5.83398 -32.833 -12.501 -50.5s-14 -34.5 -22 -50.5s-14 -27.667 -18 -35l-11.5 -21c-3.66699 -6.66699 -6 -14 -7 -22s0.166992 -17.167 3.5 -27.5
s10.333 -22.833 21 -37.5c10.667 -12.667 20.334 -26.5 29.001 -41.5s15.5 -29.5 20.5 -43.5s7.83301 -26.667 8.5 -38s-1.66602 -19.666 -6.99902 -24.999c-7.33301 -6 -16.5 -8.66699 -27.5 -8s-22.167 3 -33.5 7s-22.5 8.83301 -33.5 14.5l-27.5 14.5
c-7.33301 2.66699 -14.5 6.33398 -21.5 11.001s-14.833 9 -23.5 13s-18.167 7.16699 -28.5 9.5s-21.833 2.5 -34.5 0.5c-14 -1.33301 -25.333 -3.33301 -34 -6s-16 -5.5 -22 -8.5s-11.667 -6.33301 -17 -10s-11.666 -6.83398 -18.999 -9.50098
c-7.33301 -6 -15.666 -12.167 -24.999 -18.5s-19 -11.333 -29 -15s-19.667 -5.16699 -29 -4.5s-17.666 5.66699 -24.999 15c-5.33301 6 -7.5 14.667 -6.5 26s3.83301 23.5 8.5 36.5s10.167 25.5 16.5 37.5s12.166 21.667 17.499 29c3.33301 9.33301 7.33301 18.833 12 28.5
s8.66699 19.334 12 29.001s5 19.334 5 29.001s-2.66699 18.834 -8 27.501c-5.33301 9.33301 -12.166 22.5 -20.499 39.5s-15.833 34.667 -22.5 53s-11.167 35.5 -13.5 51.5s0.166992 27.667 7.5 35z" />
    <glyph glyph-name="Oslash" unicode="&#xd8;" horiz-adv-x="497" 
d="M436 631c11.333 -7.33301 16.666 -15.9941 15.999 -25.9941s-3 -21 -7 -33s-7.33301 -25 -10 -39s-0.333984 -28.667 6.99902 -44c11.333 -24 19.666 -50.333 24.999 -79s7.66602 -58.167 6.99902 -88.5s-4 -60.333 -10 -90s-14.5 -57.167 -25.5 -82.5
s-24.333 -47.833 -40 -67.5s-33.167 -34.167 -52.5 -43.5c-18 -9.33301 -36.167 -15.833 -54.5 -19.5s-36 -5.33398 -53 -5.00098s-33 2.66602 -48 6.99902s-28.167 10.166 -39.5 17.499c-8 4 -16.667 3.16699 -26 -2.5s-18.666 -12 -27.999 -19
s-18.666 -12.333 -27.999 -16s-17.666 -1.83398 -24.999 5.49902c-11.333 7.33301 -16.166 17.166 -14.499 29.499s5.5 25.333 11.5 39l17.5 39c5.66699 12.333 6.5 22.166 2.5 29.499c-15.333 22.667 -24.5 45.5 -27.5 68.5s-4.83301 45.833 -5.5 68.5
c-0.666992 46 1.83301 85.5 7.5 118.5s14 61.167 25 84.5s24.333 43 40 59s32.5 29.667 50.5 41c25.333 15.333 52 22.833 80 22.5s53.333 -4.5 76 -12.5c11.333 -4 22.5 -3 33.5 3s22 12.667 33 20s21.667 13.333 32 18s20.5 3.66699 30.5 -3z" />
    <glyph glyph-name="Ugrave" unicode="&#xd9;" horiz-adv-x="677" 
d="M345 555c31.333 -2.66699 56.668 -0.99707 76.001 5.00293s36.5 12.667 51.5 20s30.167 13.333 45.5 18s35 4.66699 59 0c15.333 -2 29.666 -13.833 42.999 -35.5s23.666 -49.167 30.999 -82.5s11 -70.5 11 -111.5s-5.33301 -81.833 -16 -122.5
s-27.5 -79.334 -50.5 -116.001s-53.833 -67.334 -92.5 -92.001c-42.667 -26.667 -84.667 -42.167 -126 -46.5s-80 -0.833008 -116 10.5s-68.667 28.666 -98 51.999s-53.333 49.666 -72 78.999c-8.66699 16 -18.167 37 -28.5 63s-19.5 54.5 -27.5 85.5
s-14.333 63.167 -19 96.5s-5.5 65 -2.5 95s10.5 56.833 22.5 80.5s30.333 41.5 55 53.5c18.667 10.667 36.834 14 54.501 10s36.5 -10.667 56.5 -20s41.5 -18.666 64.5 -27.999s49.167 -14 78.5 -14zM214.002 847.003c10.667 10.667 21.165 16.3359 31.498 17.0029
s20.833 -1.5 31.5 -6.5s21.167 -12.333 31.5 -22l31.5 -30.5l32 -33.5c10.667 -11.667 19.334 -23.334 26.001 -35.001s10.167 -23.334 10.5 -35.001s-4.83398 -22.834 -15.501 -33.501c-8 -8 -17.167 -11.167 -27.5 -9.5s-21.166 6.16699 -32.499 13.5
s-22.666 16.5 -33.999 27.5l-33 31.5c-8 8 -16.167 17.5 -24.5 28.5s-15.333 22.167 -21 33.5s-9.5 21.833 -11.5 31.5s-0.333008 17.167 5 22.5z" />
    <glyph glyph-name="Uacute" unicode="&#xda;" horiz-adv-x="677" 
d="M328 655c-9.33301 8 -14.8311 16.3359 -16.498 25.0029s-0.666992 17.5 3 26.5s9 18.167 16 27.5s14.5 18.666 22.5 27.999c8 10 16.5 19.833 25.5 29.5s18.167 17.667 27.5 24s18.833 10.166 28.5 11.499s19.167 -2 28.5 -10c7.33301 -6 10.666 -13.333 9.99902 -22
s-3.5 -18 -8.5 -28s-11.667 -20.167 -20 -30.5l-24.5 -29.5c-6 -7.33301 -13.333 -14.833 -22 -22.5s-17.334 -14.334 -26.001 -20.001s-17 -9.66699 -25 -12s-14.333 -1.5 -19 2.5zM345.002 555.003c31.333 -2.66699 56.668 -0.99707 76.001 5.00293s36.5 12.667 51.5 20
s30.167 13.333 45.5 18s35 4.66699 59 0c15.333 -2 29.666 -13.833 42.999 -35.5s23.666 -49.167 30.999 -82.5s11 -70.5 11 -111.5s-5.33301 -81.833 -16 -122.5s-27.5 -79.334 -50.5 -116.001s-53.833 -67.334 -92.5 -92.001c-42.667 -26.667 -84.667 -42.167 -126 -46.5
s-80 -0.833008 -116 10.5s-68.667 28.666 -98 51.999s-53.333 49.666 -72 78.999c-8.66699 16 -18.167 37 -28.5 63s-19.5 54.5 -27.5 85.5s-14.333 63.167 -19 96.5s-5.5 65 -2.5 95s10.5 56.833 22.5 80.5s30.333 41.5 55 53.5c18.667 10.667 36.834 14 54.501 10
s36.5 -10.667 56.5 -20s41.5 -18.666 64.5 -27.999s49.167 -14 78.5 -14z" />
    <glyph glyph-name="Udieresis" unicode="&#xdc;" horiz-adv-x="677" 
d="M181 777c7.33301 7.33301 17.501 11.0039 30.501 11.0039s26.833 -3.66699 41.5 -11c11.333 -7.33301 18.833 -17.333 22.5 -30s4 -25.334 1 -38.001s-9 -23.834 -18 -33.501s-20.5 -15.167 -34.5 -16.5c-14 -0.666992 -28.333 3 -43 11s-23 20 -25 36
c-3.33301 21.333 -1.83301 36.666 4.5 45.999s13.166 17.666 20.499 24.999zM418.001 777.004c7.33301 7.33301 17.5 11.0039 30.5 11.0039s26.833 -3.66699 41.5 -11c11.333 -7.33301 18.833 -17.333 22.5 -30s4 -25.334 1 -38.001s-9 -23.834 -18 -33.501
s-20.5 -15.167 -34.5 -16.5c-14 -0.666992 -28.333 3 -43 11s-23 20 -25 36c-3.33301 21.333 -2 36.666 4 45.999s13 17.666 21 24.999zM349.001 562.008c32 -2.66699 57.6689 -1.00293 77.002 4.99707s36.833 12.833 52.5 20.5s31.167 13.834 46.5 18.501s35 4.66699 59 0
c16 -2 30.667 -14 44 -36s23.666 -49.833 30.999 -83.5s11 -71.167 11 -112.5s-5.5 -82.666 -16.5 -123.999s-28 -80.666 -51 -117.999s-54.167 -68.333 -93.5 -93c-43.333 -26.667 -85.833 -42.167 -127.5 -46.5s-80.667 -0.833008 -117 10.5s-69.333 28.833 -99 52.5
s-53.834 50.167 -72.501 79.5c-8.66699 16 -18.167 37.333 -28.5 64s-19.666 55.667 -27.999 87s-14.833 63.833 -19.5 97.5s-5.5 65.5 -2.5 95.5s10.667 57.167 23 81.5s30.833 42.5 55.5 54.5c18.667 10.667 37 14 55 10s37 -10.667 57 -20s41.667 -18.833 65 -28.5
s49.666 -14.5 78.999 -14.5z" />
    <glyph glyph-name="Yacute" unicode="&#xdd;" horiz-adv-x="595" 
d="M278 -1c-20 0 -35.4951 9.66699 -46.4951 29s-19.833 42.666 -26.5 69.999s-12.334 56.333 -17.001 87s-10.667 57 -18 79c-3.33301 14.667 -10.333 31.5 -21 50.5s-22.834 39 -36.501 60l-41.5 64.5c-14 22 -26 43.333 -36 64s-16.5 39.834 -19.5 57.501
s-0.5 33.167 7.5 46.5c6.66699 11.333 17 18.5 31 21.5s29.833 3.5 47.5 1.5s36.5 -6 56.5 -12l58.5 -18l52.5 -16c16 -4.66699 29 -7 39 -7c9.33301 0 21.833 2.33301 37.5 7l50 15.5c17.667 5.66699 36 11 55 16s36.667 7.83301 53 8.5s30.666 -1.5 42.999 -6.5
s21.166 -14.833 26.499 -29.5c10 -22 10.667 -46 2 -72s-21.334 -54 -38.001 -84l-54.5 -96.5c-19.667 -34.333 -35.5 -71.166 -47.5 -110.499l-38.5 -101.5c-11 -28.333 -22 -51.833 -33 -70.5s-23 -32.334 -36 -41.001s-29.5 -13 -49.5 -13zM469.005 895
c10.667 -10.667 16.3359 -21.165 17.0029 -31.498s-1.5 -20.833 -6.5 -31.5s-12.333 -21.167 -22 -31.5l-30.5 -31.5l-33.5 -32c-11.667 -10.667 -23.334 -19.334 -35.001 -26.001s-23.334 -10.167 -35.001 -10.5s-22.834 4.83398 -33.501 15.501
c-8 8 -11.167 17.167 -9.5 27.5s6.16699 21.166 13.5 32.499s16.5 22.666 27.5 33.999l31.5 33c8 8 17.5 16.167 28.5 24.5s22.167 15.333 33.5 21s21.833 9.5 31.5 11.5s17.167 0.333008 22.5 -5z" />
    <glyph glyph-name="agrave" unicode="&#xe0;" horiz-adv-x="469" 
d="M446 8c-6 -5.33301 -13.8271 -6.83008 -23.4941 -4.49707l-36 9c-14.333 3.66699 -31 6.5 -50 8.5s-40.167 0.666992 -63.5 -4c-24 -7.33301 -48.5 -11.833 -73.5 -13.5s-48.833 1.5 -71.5 9.5s-43.334 22 -62.001 42s-33.334 48.333 -44.001 85
c-7.33301 23.333 -9.5 47.666 -6.5 72.999s10.167 50 21.5 74s26.166 46.667 44.499 68s39 39.833 62 55.5s47.667 27.667 74 36s53.166 11.833 80.499 10.5c26.667 -2 48.167 -9.16699 64.5 -21.5s28.666 -27.833 36.999 -46.5s13.833 -39.334 16.5 -62.001
s4.16699 -45.334 4.5 -68.001s0.166016 -44.167 -0.500977 -64.5s0 -37.5 2 -51.5c4.66699 -20.667 10.167 -38.167 16.5 -52.5s11.5 -26.5 15.5 -36.5s5.83301 -18.5 5.5 -25.5s-4.83301 -13.833 -13.5 -20.5zM166.006 685.003
c10.667 10.667 21.165 16.3359 31.498 17.0029s20.833 -1.5 31.5 -6.5s21.167 -12.333 31.5 -22l31.5 -30.5l32 -33.5c10.667 -11.667 19.334 -23.334 26.001 -35.001s10.167 -23.334 10.5 -35.001s-4.83398 -22.834 -15.501 -33.501c-8 -8 -17.167 -11.167 -27.5 -9.5
s-21.166 6.16699 -32.499 13.5s-22.666 16.5 -33.999 27.5l-33 31.5c-8 8 -16.167 17.5 -24.5 28.5s-15.333 22.167 -21 33.5s-9.5 21.833 -11.5 31.5s-0.333008 17.167 5 22.5z" />
    <glyph glyph-name="aacute" unicode="&#xe1;" horiz-adv-x="469" 
d="M222 492c-9.33301 8 -14.668 16.167 -16.001 24.5s-0.166016 16.833 3.50098 25.5s8.83398 17.5 15.501 26.5s14 18.167 22 27.5c7.33301 9.33301 15.333 18.666 24 27.999s17.5 17 26.5 23s18 9.66699 27 11s18.167 -1.66699 27.5 -9
c6.66699 -6 9.83398 -13.167 9.50098 -21.5s-3 -17.333 -8 -27s-11.333 -19.5 -19 -29.5s-15.5 -19.333 -23.5 -28c-6 -7.33301 -13 -14.666 -21 -21.999s-16.333 -13.833 -25 -19.5s-16.834 -9.66699 -24.501 -12s-13.834 -1.5 -18.501 2.5zM443.998 8
c-6 -5.33301 -13.8271 -6.83008 -23.4941 -4.49707l-36 9c-14.333 3.66699 -31 6.5 -50 8.5s-40.167 0.666992 -63.5 -4c-24 -7.33301 -48.5 -11.833 -73.5 -13.5s-48.833 1.5 -71.5 9.5s-43.334 22 -62.001 42s-33.334 48.333 -44.001 85
c-7.33301 23.333 -9.5 47.666 -6.5 72.999s10.167 50 21.5 74s26.166 46.667 44.499 68s39 39.833 62 55.5s47.667 27.667 74 36s53.166 11.833 80.499 10.5c26.667 -2 48.167 -9.16699 64.5 -21.5s28.666 -27.833 36.999 -46.5s13.833 -39.334 16.5 -62.001
s4.16699 -45.334 4.5 -68.001s0.166016 -44.167 -0.500977 -64.5s0 -37.5 2 -51.5c4.66699 -20.667 10.167 -38.167 16.5 -52.5s11.5 -26.5 15.5 -36.5s5.83301 -18.5 5.5 -25.5s-4.83301 -13.833 -13.5 -20.5z" />
    <glyph glyph-name="acircumflex" unicode="&#xe2;" horiz-adv-x="469" 
d="M446 8c-6 -5.33301 -13.8271 -6.83008 -23.4941 -4.49707l-36 9c-14.333 3.66699 -31 6.5 -50 8.5s-40.167 0.666992 -63.5 -4c-24 -7.33301 -48.5 -11.833 -73.5 -13.5s-48.833 1.5 -71.5 9.5s-43.334 22 -62.001 42s-33.334 48.333 -44.001 85
c-7.33301 23.333 -9.5 47.666 -6.5 72.999s10.167 50 21.5 74s26.166 46.667 44.499 68s39 39.833 62 55.5s47.667 27.667 74 36s53.166 11.833 80.499 10.5c26.667 -2 48.167 -9.16699 64.5 -21.5s28.666 -27.833 36.999 -46.5s13.833 -39.334 16.5 -62.001
s4.16699 -45.334 4.5 -68.001s0.166016 -44.167 -0.500977 -64.5s0 -37.5 2 -51.5c4.66699 -20.667 10.167 -38.167 16.5 -52.5s11.5 -26.5 15.5 -36.5s5.83301 -18.5 5.5 -25.5s-4.83301 -13.833 -13.5 -20.5zM284.006 675.003c24 0 45.665 -4.99902 64.998 -14.999
s36.166 -21.667 50.499 -35s26.166 -26.833 35.499 -40.5l21 -31.5c4.66699 -6.66699 6.83398 -14 6.50098 -22s-3.16602 -14.833 -8.49902 -20.5s-12.666 -9.33398 -21.999 -11.001s-20.666 0.833008 -33.999 7.5c-15.333 7.33301 -30 13 -44 17s-29.333 6.16699 -46 6.5
s-36 -1.5 -58 -5.5s-49 -10 -81 -18c-18 -6 -31.5 -8 -40.5 -6s-14.667 6.33301 -17 13s-1.83301 15 1.5 25s8 20.167 14 30.5s12.833 20 20.5 29s14.834 15.833 21.501 20.5c9.33301 6.66699 18 13.5 26 20.5s16.167 13 24.5 18s17.666 9.16699 27.999 12.5s22.5 5 36.5 5z
" />
    <glyph glyph-name="atilde" unicode="&#xe3;" horiz-adv-x="469" 
d="M446 8c-6 -5.33301 -13.8271 -6.83008 -23.4941 -4.49707l-36 9c-14.333 3.66699 -31 6.5 -50 8.5s-40.167 0.666992 -63.5 -4c-24 -7.33301 -48.5 -11.833 -73.5 -13.5s-48.833 1.5 -71.5 9.5s-43.334 22 -62.001 42s-33.334 48.333 -44.001 85
c-7.33301 23.333 -9.5 47.666 -6.5 72.999s10.167 50 21.5 74s26.166 46.667 44.499 68s39 39.833 62 55.5s47.667 27.667 74 36s53.166 11.833 80.499 10.5c26.667 -2 48.167 -9.16699 64.5 -21.5s28.666 -27.833 36.999 -46.5s13.833 -39.334 16.5 -62.001
s4.16699 -45.334 4.5 -68.001s0.166016 -44.167 -0.500977 -64.5s0 -37.5 2 -51.5c4.66699 -20.667 10.167 -38.167 16.5 -52.5s11.5 -26.5 15.5 -36.5s5.83301 -18.5 5.5 -25.5s-4.83301 -13.833 -13.5 -20.5zM410.006 546.003
c-10.667 -2.66699 -22.334 -5.83105 -35.001 -9.49805l-38.5 -11.5l-38.5 -12c-12.667 -4 -24.334 -7.33301 -35.001 -10c-10.667 -4.66699 -22.667 -7.33398 -36 -8.00098s-25.666 -1 -36.999 -1c-8 2 -14.833 4.83301 -20.5 8.5s-10.667 7.5 -15 11.5l-13 12
c-4.33301 4 -9.16602 7.33301 -14.499 10s-11 3.66699 -17 3s-11.667 -1 -17 -1s-9.83301 1.16699 -13.5 3.5s-5.5 7.5 -5.5 15.5c2.66699 4.66699 7 9 13 13s12.333 7.33301 19 10s13 4.66699 19 6s10.667 2 14 2c10 2.66699 19.667 3.5 29 2.5s18.666 -2.5 27.999 -4.5
l28 -6c9.33301 -2 19 -3 29 -3c20.667 -2.66699 37 -2.5 49 0.5s22.333 6.5 31 10.5s16.834 7.33301 24.501 10s18.167 2.66699 31.5 0s23.833 -6.83398 31.5 -12.501s12.5 -11.5 14.5 -17.5s1 -11.167 -3 -15.5s-11.333 -6.5 -22 -6.5z" />
    <glyph glyph-name="adieresis" unicode="&#xe4;" horiz-adv-x="469" 
d="M446 8c-6 -5.33301 -13.8271 -6.83008 -23.4941 -4.49707l-36 9c-14.333 3.66699 -31 6.5 -50 8.5s-40.167 0.666992 -63.5 -4c-24 -7.33301 -48.5 -11.833 -73.5 -13.5s-48.833 1.5 -71.5 9.5s-43.334 22 -62.001 42s-33.334 48.333 -44.001 85
c-7.33301 23.333 -9.5 47.666 -6.5 72.999s10.167 50 21.5 74s26.166 46.667 44.499 68s39 39.833 62 55.5s47.667 27.667 74 36s53.166 11.833 80.499 10.5c26.667 -2 48.167 -9.16699 64.5 -21.5s28.666 -27.833 36.999 -46.5s13.833 -39.334 16.5 -62.001
s4.16699 -45.334 4.5 -68.001s0.166016 -44.167 -0.500977 -64.5s0 -37.5 2 -51.5c4.66699 -20.667 10.167 -38.167 16.5 -52.5s11.5 -26.5 15.5 -36.5s5.83301 -18.5 5.5 -25.5s-4.83301 -13.833 -13.5 -20.5zM123.006 647.003c13.333 10 29.501 13.499 48.501 10.499
s35.5 -12.5 49.5 -28.5c12 -13.333 20 -26.666 24 -39.999s4.66699 -25.833 2 -37.5s-8.5 -22.167 -17.5 -31.5s-20.5 -16.333 -34.5 -21c-28 -9.33301 -51.5 -9.33301 -70.5 0s-32.167 28 -39.5 56c-2.66699 10 -3.33398 19.667 -2.00098 29s4 18 8 26
s8.83301 15.167 14.5 21.5s11.5 11.5 17.5 15.5zM308.007 651.002c13.333 10 29.501 13.499 48.501 10.499s35.5 -12.5 49.5 -28.5c12 -13.333 20 -26.666 24 -39.999s4.66699 -25.833 2 -37.5s-8.5 -22.167 -17.5 -31.5s-20.5 -16.333 -34.5 -21
c-28 -9.33301 -51.5 -9.33301 -70.5 0s-32.167 28 -39.5 56c-2.66699 10 -3.33398 19.667 -2.00098 29s4 18 8 26s8.83301 15.167 14.5 21.5s11.5 11.5 17.5 15.5z" />
    <glyph glyph-name="ccedilla" unicode="&#xe7;" horiz-adv-x="431" 
d="M400 129c10 -13.333 15.666 -27.1621 16.999 -41.4951s-2.33398 -28 -11.001 -41s-22.834 -24.167 -42.501 -33.5s-45.834 -15.666 -78.501 -18.999c0 -3.33301 1.66699 -8 5 -14s6 -13 8 -21s2.16699 -16.5 0.5 -25.5s-7.5 -18.5 -17.5 -28.5
c-3.33301 -6.66699 -8.16602 -11.834 -14.499 -15.501s-12.833 -5.83398 -19.5 -6.50098s-13 -0.333984 -19 0.999023s-10.667 3.66602 -14 6.99902c-7.33301 0 -13.5 4.83301 -18.5 14.5s-7.5 18.167 -7.5 25.5c2.66699 3.33301 6.83398 5.16602 12.501 5.49902
s10.667 0.5 15 0.5s6.83301 0.333008 7.5 1s-2.33301 2.66699 -9 6c-7.33301 7.33301 -13.5 14.666 -18.5 21.999s-7.5 17.666 -7.5 30.999c-26.667 6.66699 -51 17 -73 31s-40.667 31 -56 51s-26.666 42.667 -33.999 68s-9.33301 53 -6 83c3.33301 26 8.5 49.167 15.5 69.5
s15.833 38.333 26.5 54s23.334 29.334 38.001 41.001s32 22.5 52 32.5c20 13.333 43 21.833 69 25.5s50.5 3.5 73.5 -0.5s42.5 -11.667 58.5 -23s24 -25 24 -41c0 -20 -2.83301 -37.5 -8.5 -52.5s-11.667 -28.667 -18 -41l-18 -34c-5.66699 -10.333 -8.5 -20.5 -8.5 -30.5
c0 -12.667 2.66699 -23 8 -31s12 -15.5 20 -22.5l25.5 -21.5c9 -7.33301 16.833 -16 23.5 -26z" />
    <glyph glyph-name="egrave" unicode="&#xe8;" horiz-adv-x="467" 
d="M291 18c-2.66699 -6.66699 -10.335 -11.8301 -23.002 -15.4971s-28 -5 -46 -4s-37.5 4.66699 -58.5 11s-41 16 -60 29s-36 29.833 -51 50.5s-25.5 45.667 -31.5 75c-6.66699 30.667 -7 60.334 -1 89.001s16.667 55.167 32 79.5s34.166 45.666 56.499 63.999
s46.833 32.5 73.5 42.5s54.334 14.833 83.001 14.5s56.667 -6.83301 84 -19.5c36.667 -14.667 62.334 -35.334 77.001 -62.001s21.167 -53.834 19.5 -81.501s-10.5 -53.334 -26.5 -77.001s-36.333 -40.167 -61 -49.5c-47.333 -15.333 -77.5 -30 -90.5 -44
s-14.5 -25.667 -4.5 -35c6.66699 -12 12.834 -21.333 18.501 -28s10 -12.167 13 -16.5s4.33301 -8 4 -11s-2.83301 -6.83301 -7.5 -11.5zM139.999 685.004c10.667 10.667 21.165 16.3359 31.498 17.0029s20.833 -1.5 31.5 -6.5s21.167 -12.333 31.5 -22l31.5 -30.5l32 -33.5
c10.667 -11.667 19.334 -23.334 26.001 -35.001s10.167 -23.334 10.5 -35.001s-4.83398 -22.834 -15.501 -33.501c-8 -8 -17.167 -11.167 -27.5 -9.5s-21.166 6.16699 -32.499 13.5s-22.666 16.5 -33.999 27.5l-33 31.5c-8 8 -16.167 17.5 -24.5 28.5
s-15.333 22.167 -21 33.5s-9.5 21.833 -11.5 31.5s-0.333008 17.167 5 22.5z" />
    <glyph glyph-name="eacute" unicode="&#xe9;" horiz-adv-x="467" 
d="M192 492c-9.33301 8 -14.668 16.167 -16.001 24.5s-0.166016 16.833 3.50098 25.5s8.83398 17.5 15.501 26.5s14 18.167 22 27.5c7.33301 9.33301 15.333 18.666 24 27.999s17.5 17 26.5 23s18 9.66699 27 11s18.167 -1.66699 27.5 -9
c6.66699 -6 9.83398 -13.167 9.50098 -21.5s-3 -17.333 -8 -27s-11.333 -19.5 -19 -29.5s-15.5 -19.333 -23.5 -28c-6 -7.33301 -13 -14.666 -21 -21.999s-16.333 -13.833 -25 -19.5s-16.834 -9.66699 -24.501 -12s-13.834 -1.5 -18.501 2.5zM290.998 18
c-2.66699 -6.66699 -10.335 -11.8301 -23.002 -15.4971s-28 -5 -46 -4s-37.5 4.66699 -58.5 11s-41 16 -60 29s-36 29.833 -51 50.5s-25.5 45.667 -31.5 75c-6.66699 30.667 -7 60.334 -1 89.001s16.667 55.167 32 79.5s34.166 45.666 56.499 63.999s46.833 32.5 73.5 42.5
s54.334 14.833 83.001 14.5s56.667 -6.83301 84 -19.5c36.667 -14.667 62.334 -35.334 77.001 -62.001s21.167 -53.834 19.5 -81.501s-10.5 -53.334 -26.5 -77.001s-36.333 -40.167 -61 -49.5c-47.333 -15.333 -77.5 -30 -90.5 -44s-14.5 -25.667 -4.5 -35
c6.66699 -12 12.834 -21.333 18.501 -28s10 -12.167 13 -16.5s4.33301 -8 4 -11s-2.83301 -6.83301 -7.5 -11.5z" />
    <glyph glyph-name="ecircumflex" unicode="&#xea;" horiz-adv-x="467" 
d="M291 18c-2.66699 -6.66699 -10.335 -11.8301 -23.002 -15.4971s-28 -5 -46 -4s-37.5 4.66699 -58.5 11s-41 16 -60 29s-36 29.833 -51 50.5s-25.5 45.667 -31.5 75c-6.66699 30.667 -7 60.334 -1 89.001s16.667 55.167 32 79.5s34.166 45.666 56.499 63.999
s46.833 32.5 73.5 42.5s54.334 14.833 83.001 14.5s56.667 -6.83301 84 -19.5c36.667 -14.667 62.334 -35.334 77.001 -62.001s21.167 -53.834 19.5 -81.501s-10.5 -53.334 -26.5 -77.001s-36.333 -40.167 -61 -49.5c-47.333 -15.333 -77.5 -30 -90.5 -44
s-14.5 -25.667 -4.5 -35c6.66699 -12 12.834 -21.333 18.501 -28s10 -12.167 13 -16.5s4.33301 -8 4 -11s-2.83301 -6.83301 -7.5 -11.5zM272.999 676.004c24 0 45.667 -4.99902 65 -14.999s36.333 -21.667 51 -35s26.667 -26.833 36 -40.5l21 -31.5
c4.66699 -6.66699 6.66699 -14 6 -22s-3.5 -14.833 -8.5 -20.5s-12.333 -9.33398 -22 -11.001s-20.834 0.833008 -33.501 7.5c-15.333 7.33301 -30 13 -44 17s-29.333 6.16699 -46 6.5s-36 -1.5 -58 -5.5s-49 -10 -81 -18c-18.667 -6 -32.5 -8 -41.5 -6
s-14.5 6.33301 -16.5 13s-1.33301 15 2 25s8 20.167 14 30.5s12.833 20 20.5 29s14.834 15.833 21.501 20.5c9.33301 6.66699 18 13.5 26 20.5s16.167 13 24.5 18s17.5 9.16699 27.5 12.5s22 5 36 5z" />
    <glyph glyph-name="edieresis" unicode="&#xeb;" horiz-adv-x="467" 
d="M291 18c-2.66699 -6.66699 -10.335 -11.8301 -23.002 -15.4971s-28 -5 -46 -4s-37.5 4.66699 -58.5 11s-41 16 -60 29s-36 29.833 -51 50.5s-25.5 45.667 -31.5 75c-6.66699 30.667 -7 60.334 -1 89.001s16.667 55.167 32 79.5s34.166 45.666 56.499 63.999
s46.833 32.5 73.5 42.5s54.334 14.833 83.001 14.5s56.667 -6.83301 84 -19.5c36.667 -14.667 62.334 -35.334 77.001 -62.001s21.167 -53.834 19.5 -81.501s-10.5 -53.334 -26.5 -77.001s-36.333 -40.167 -61 -49.5c-47.333 -15.333 -77.5 -30 -90.5 -44
s-14.5 -25.667 -4.5 -35c6.66699 -12 12.834 -21.333 18.501 -28s10 -12.167 13 -16.5s4.33301 -8 4 -11s-2.83301 -6.83301 -7.5 -11.5zM118.999 645.004c13.333 10 29.501 13.499 48.501 10.499s35.5 -12.5 49.5 -28.5c12 -13.333 20 -26.666 24 -39.999
s4.66699 -25.833 2 -37.5s-8.5 -22.167 -17.5 -31.5s-20.5 -16.333 -34.5 -21c-28 -9.33301 -51.5 -9.33301 -70.5 0s-32.167 28 -39.5 56c-2.66699 10 -3.33398 19.667 -2.00098 29s4 18 8 26s8.83301 15.167 14.5 21.5s11.5 11.5 17.5 15.5zM304 649.003
c13.333 10 29.501 13.499 48.501 10.499s35.5 -12.5 49.5 -28.5c12 -13.333 20 -26.666 24 -39.999s4.66699 -25.833 2 -37.5s-8.5 -22.167 -17.5 -31.5s-20.5 -16.333 -34.5 -21c-28 -9.33301 -51.5 -9.33301 -70.5 0s-32.167 28 -39.5 56
c-2.66699 10 -3.33398 19.667 -2.00098 29s4 18 8 26s8.83301 15.167 14.5 21.5s11.5 11.5 17.5 15.5z" />
    <glyph glyph-name="igrave" unicode="&#xec;" horiz-adv-x="276" 
d="M133 -1c-21.333 0 -38.332 6.66504 -50.999 19.998s-22.334 30.666 -29.001 51.999s-11 45.333 -13 72s-3 53.334 -3 80.001s0.833008 53.834 2.5 81.501s6 52.834 13 75.501s17.5 41.167 31.5 55.5s33 21.5 57 21.5c21.333 0 38.5 -7.16699 51.5 -21.5
s23 -32.5 30 -54.5s11.667 -46 14 -72s3.5 -51 3.5 -75s-3.16699 -49.667 -9.5 -77s-14.5 -52.833 -24.5 -76.5s-21.333 -43.167 -34 -58.5s-25.667 -23 -39 -23zM28.001 672.998c10.667 10.667 21.165 16.3359 31.498 17.0029s20.833 -1.5 31.5 -6.5
s21.167 -12.333 31.5 -22l31.5 -30.5l32 -33.5c10.667 -11.667 19.334 -23.334 26.001 -35.001s10.167 -23.334 10.5 -35.001s-4.83398 -22.834 -15.501 -33.501c-8 -8 -17.167 -11.167 -27.5 -9.5s-21.166 6.16699 -32.499 13.5s-22.666 16.5 -33.999 27.5l-33 31.5
c-8 8 -16.167 17.5 -24.5 28.5s-15.333 22.167 -21 33.5s-9.5 21.833 -11.5 31.5s-0.333008 17.167 5 22.5z" />
    <glyph glyph-name="iacute" unicode="&#xed;" horiz-adv-x="268" 
d="M127 -1c-21.333 0 -38.332 6.66504 -50.999 19.998s-22.334 30.666 -29.001 51.999s-11 45.333 -13 72s-3 53.334 -3 80.001s0.833008 53.834 2.5 81.501s6 52.834 13 75.501s17.5 41.167 31.5 55.5s33 21.5 57 21.5c21.333 0 38.5 -7.16699 51.5 -21.5
s23 -32.5 30 -54.5s11.667 -46 14 -72s3.5 -51 3.5 -75s-3.16699 -49.667 -9.5 -77s-14.5 -52.833 -24.5 -76.5s-21.333 -43.167 -34 -58.5s-25.667 -23 -39 -23zM233.001 686.998c10.667 -10.667 16.3359 -21.165 17.0029 -31.498s-1.5 -20.833 -6.5 -31.5
s-12.333 -21.167 -22 -31.5l-30.5 -31.5l-33.5 -32c-11.667 -10.667 -23.334 -19.334 -35.001 -26.001s-23.334 -10.167 -35.001 -10.5s-22.834 4.83398 -33.501 15.501c-8 8 -11.167 17.167 -9.5 27.5s6.16699 21.166 13.5 32.499s16.5 22.666 27.5 33.999l31.5 33
c8 8 17.5 16.167 28.5 24.5s22.167 15.333 33.5 21s21.833 9.5 31.5 11.5s17.167 0.333008 22.5 -5z" />
    <glyph glyph-name="idieresis" unicode="&#xef;" horiz-adv-x="278" 
d="M123 -1c-21.333 0 -38.332 6.66504 -50.999 19.998s-22.334 30.666 -29.001 51.999s-11 45.333 -13 72s-3 53.334 -3 80.001s0.833008 53.834 2.5 81.501s6 52.834 13 75.501s17.5 41.167 31.5 55.5s33 21.5 57 21.5c21.333 0 38.5 -7.16699 51.5 -21.5
s23 -32.5 30 -54.5s11.667 -46 14 -72s3.5 -51 3.5 -75s-3.16699 -49.667 -9.5 -77s-14.5 -52.833 -24.5 -76.5s-21.333 -43.167 -34 -58.5s-25.667 -23 -39 -23zM-10.999 642.998c13.333 10 29.501 13.499 48.501 10.499s35.5 -12.5 49.5 -28.5
c12 -13.333 20 -26.666 24 -39.999s4.66699 -25.833 2 -37.5s-8.5 -22.167 -17.5 -31.5s-20.5 -16.333 -34.5 -21c-28 -9.33301 -51.5 -9.33301 -70.5 0s-32.167 28 -39.5 56c-2.66699 10 -3.33398 19.667 -2.00098 29s4 18 8 26s8.83301 15.167 14.5 21.5
s11.5 11.5 17.5 15.5zM174.002 646.997c13.333 10 29.501 13.499 48.501 10.499s35.5 -12.5 49.5 -28.5c12 -13.333 20 -26.666 24 -39.999s4.66699 -25.833 2 -37.5s-8.5 -22.167 -17.5 -31.5s-20.5 -16.333 -34.5 -21c-28 -9.33301 -51.5 -9.33301 -70.5 0
s-32.167 28 -39.5 56c-2.66699 10 -3.33398 19.667 -2.00098 29s4 18 8 26s8.83301 15.167 14.5 21.5s11.5 11.5 17.5 15.5z" />
    <glyph glyph-name="ntilde" unicode="&#xf1;" horiz-adv-x="585" 
d="M410 546c-10.667 -2.66699 -22.334 -5.83105 -35.001 -9.49805l-38.5 -11.5l-38.5 -12c-12.667 -4 -24.334 -7.33301 -35.001 -10c-10.667 -4.66699 -22.667 -7.33398 -36 -8.00098s-25.666 -1 -36.999 -1c-8 2 -14.833 4.83301 -20.5 8.5s-10.667 7.5 -15 11.5l-13 12
c-4.33301 4 -9.16602 7.33301 -14.499 10s-11 3.66699 -17 3s-11.667 -1 -17 -1s-9.83301 1.16699 -13.5 3.5s-5.5 7.5 -5.5 15.5c2.66699 4.66699 7 9 13 13s12.333 7.33301 19 10s13 4.66699 19 6s10.667 2 14 2c10 2.66699 19.667 3.5 29 2.5s18.666 -2.5 27.999 -4.5
l28 -6c9.33301 -2 19 -3 29 -3c20.667 -2.66699 37 -2.5 49 0.5s22.333 6.5 31 10.5s16.834 7.33301 24.501 10s18.167 2.66699 31.5 0s23.833 -6.83398 31.5 -12.501s12.5 -11.5 14.5 -17.5s1 -11.167 -3 -15.5s-11.333 -6.5 -22 -6.5zM116 6.00293
c-17.333 1.33301 -31.834 8.00195 -43.501 20.002s-20.834 26.833 -27.501 44.5s-11.667 37.5 -15 59.5s-5.66602 44 -6.99902 66s-1.83301 43 -1.5 63s0.5 37 0.5 51c0 20.667 1.83301 40.5 5.5 59.5s9.5 35.833 17.5 50.5s17.833 26.167 29.5 34.5s25.5 12.5 41.5 12.5
c12.667 0 22.667 -2.5 30 -7.5s16 -9.33301 26 -13s23.167 -5.33398 39.5 -5.00098s40.5 5.5 72.5 15.5c52.667 16 97 18.667 133 8s65.167 -28.5 87.5 -53.5s38.333 -54.333 48 -88s14.5 -66.167 14.5 -97.5c-5.33301 -63.333 -16.166 -114.5 -32.499 -153.5
s-40.5 -61.167 -72.5 -66.5c-13.333 0 -26 4.33301 -38 13l-38 27.5c-13.333 9.66699 -27.5 18.167 -42.5 25.5s-31.5 9.66602 -49.5 6.99902c-23.333 0 -42.333 -4.33301 -57 -13s-28 -17.834 -40 -27.501s-24 -18.167 -36 -25.5s-27 -9.66602 -45 -6.99902z" />
    <glyph glyph-name="ograve" unicode="&#xf2;" horiz-adv-x="487" 
d="M166 434c17.333 7.33301 36.832 12.165 58.499 14.498s43.667 1 66 -4s44.666 -14 66.999 -27s42.5 -30.833 60.5 -53.5c24.667 -33.333 39.834 -68.166 45.501 -104.499s2.83398 -71 -8.49902 -104s-30.666 -62.5 -57.999 -88.5s-61.333 -45.333 -102 -58
c-38 -10 -73.167 -12.333 -105.5 -7s-60.5 16.833 -84.5 34.5s-43.167 40.667 -57.5 69s-22.5 60.5 -24.5 96.5c-2.66699 34.667 -0.5 65.334 6.5 92.001s17.167 49.5 30.5 68.5s29.166 34.333 47.499 46s37.833 20.167 58.5 25.5zM146.999 684.999
c10.667 10.667 21.165 16.3359 31.498 17.0029s20.833 -1.5 31.5 -6.5s21.167 -12.333 31.5 -22l31.5 -30.5l32 -33.5c10.667 -11.667 19.334 -23.334 26.001 -35.001s10.167 -23.334 10.5 -35.001s-4.83398 -22.834 -15.501 -33.501c-8 -8 -17.167 -11.167 -27.5 -9.5
s-21.166 6.16699 -32.499 13.5s-22.666 16.5 -33.999 27.5l-33 31.5c-8 8 -16.167 17.5 -24.5 28.5s-15.333 22.167 -21 33.5s-9.5 21.833 -11.5 31.5s-0.333008 17.167 5 22.5z" />
    <glyph glyph-name="oacute" unicode="&#xf3;" horiz-adv-x="487" 
d="M216 492c-9.33301 8 -14.668 16.167 -16.001 24.5s-0.166016 16.833 3.50098 25.5s8.83398 17.5 15.501 26.5s14 18.167 22 27.5c7.33301 9.33301 15.333 18.666 24 27.999s17.5 17 26.5 23s18 9.66699 27 11s18.167 -1.66699 27.5 -9
c6.66699 -6 9.83398 -13.167 9.50098 -21.5s-3 -17.333 -8 -27s-11.333 -19.5 -19 -29.5s-15.5 -19.333 -23.5 -28c-6 -7.33301 -13 -14.666 -21 -21.999s-16.333 -13.833 -25 -19.5s-16.834 -9.66699 -24.501 -12s-13.834 -1.5 -18.501 2.5zM165.998 434
c17.333 7.33301 36.832 12.165 58.499 14.498s43.667 1 66 -4s44.666 -14 66.999 -27s42.5 -30.833 60.5 -53.5c24.667 -33.333 39.834 -68.166 45.501 -104.499s2.83398 -71 -8.49902 -104s-30.666 -62.5 -57.999 -88.5s-61.333 -45.333 -102 -58
c-38 -10 -73.167 -12.333 -105.5 -7s-60.5 16.833 -84.5 34.5s-43.167 40.667 -57.5 69s-22.5 60.5 -24.5 96.5c-2.66699 34.667 -0.5 65.334 6.5 92.001s17.167 49.5 30.5 68.5s29.166 34.333 47.499 46s37.833 20.167 58.5 25.5z" />
    <glyph glyph-name="ocircumflex" unicode="&#xf4;" horiz-adv-x="487" 
d="M166 434c17.333 7.33301 36.832 12.165 58.499 14.498s43.667 1 66 -4s44.666 -14 66.999 -27s42.5 -30.833 60.5 -53.5c24.667 -33.333 39.834 -68.166 45.501 -104.499s2.83398 -71 -8.49902 -104s-30.666 -62.5 -57.999 -88.5s-61.333 -45.333 -102 -58
c-38 -10 -73.167 -12.333 -105.5 -7s-60.5 16.833 -84.5 34.5s-43.167 40.667 -57.5 69s-22.5 60.5 -24.5 96.5c-2.66699 34.667 -0.5 65.334 6.5 92.001s17.167 49.5 30.5 68.5s29.166 34.333 47.499 46s37.833 20.167 58.5 25.5zM254.999 670.999c24 0 45.667 -5 65 -15
s36.333 -21.667 51 -35s26.667 -26.833 36 -40.5l21 -31.5c4.66699 -6.66699 6.66699 -14 6 -22s-3.5 -14.833 -8.5 -20.5s-12.333 -9.16699 -22 -10.5s-20.834 1 -33.501 7c-15.333 7.33301 -30 13 -44 17s-29.333 6.16699 -46 6.5s-36 -1.5 -58 -5.5s-49 -10 -81 -18
c-18.667 -6 -32.5 -8 -41.5 -6s-14.5 6.33301 -16.5 13s-1.33301 15 2 25s8 20.167 14 30.5s12.833 20 20.5 29s14.834 15.833 21.501 20.5l26 21c8 6.66699 16.167 12.667 24.5 18s17.5 9.5 27.5 12.5s22 4.5 36 4.5z" />
    <glyph glyph-name="otilde" unicode="&#xf5;" horiz-adv-x="487" 
d="M166 434c17.333 7.33301 36.832 12.165 58.499 14.498s43.667 1 66 -4s44.666 -14 66.999 -27s42.5 -30.833 60.5 -53.5c24.667 -33.333 39.834 -68.166 45.501 -104.499s2.83398 -71 -8.49902 -104s-30.666 -62.5 -57.999 -88.5s-61.333 -45.333 -102 -58
c-38 -10 -73.167 -12.333 -105.5 -7s-60.5 16.833 -84.5 34.5s-43.167 40.667 -57.5 69s-22.5 60.5 -24.5 96.5c-2.66699 34.667 -0.5 65.334 6.5 92.001s17.167 49.5 30.5 68.5s29.166 34.333 47.499 46s37.833 20.167 58.5 25.5zM419.999 545.999
c-10.667 -2.66699 -22.334 -5.83105 -35.001 -9.49805l-38.5 -11.5l-38.5 -12c-12.667 -4 -24.334 -7.33301 -35.001 -10c-10.667 -4.66699 -22.667 -7.33398 -36 -8.00098s-25.666 -1 -36.999 -1c-8 2 -14.833 4.83301 -20.5 8.5s-10.667 7.5 -15 11.5l-13 12
c-4.33301 4 -9.16602 7.33301 -14.499 10s-11 3.66699 -17 3s-11.667 -1 -17 -1s-9.83301 1.16699 -13.5 3.5s-5.5 7.5 -5.5 15.5c2.66699 4.66699 7 9 13 13s12.333 7.33301 19 10s13 4.66699 19 6s10.667 2 14 2c10 2.66699 19.667 3.5 29 2.5s18.666 -2.5 27.999 -4.5
l28 -6c9.33301 -2 19 -3 29 -3c20.667 -2.66699 37 -2.5 49 0.5s22.333 6.5 31 10.5s16.834 7.33301 24.501 10s18.167 2.66699 31.5 0s23.833 -6.83398 31.5 -12.501s12.5 -11.5 14.5 -17.5s1 -11.167 -3 -15.5s-11.333 -6.5 -22 -6.5z" />
    <glyph glyph-name="odieresis" unicode="&#xf6;" horiz-adv-x="487" 
d="M166 434c17.333 7.33301 36.832 12.165 58.499 14.498s43.667 1 66 -4s44.666 -14 66.999 -27s42.5 -30.833 60.5 -53.5c24.667 -33.333 39.834 -68.166 45.501 -104.499s2.83398 -71 -8.49902 -104s-30.666 -62.5 -57.999 -88.5s-61.333 -45.333 -102 -58
c-38 -10 -73.167 -12.333 -105.5 -7s-60.5 16.833 -84.5 34.5s-43.167 40.667 -57.5 69s-22.5 60.5 -24.5 96.5c-2.66699 34.667 -0.5 65.334 6.5 92.001s17.167 49.5 30.5 68.5s29.166 34.333 47.499 46s37.833 20.167 58.5 25.5zM118.999 644.999
c13.333 10 29.501 13.499 48.501 10.499s35.5 -12.5 49.5 -28.5c12 -13.333 20 -26.666 24 -39.999s4.66699 -25.833 2 -37.5s-8.5 -22.167 -17.5 -31.5s-20.5 -16.333 -34.5 -21c-28 -9.33301 -51.5 -9.33301 -70.5 0s-32.167 28 -39.5 56
c-2.66699 10 -3.33398 19.667 -2.00098 29s4 18 8 26s8.83301 15.167 14.5 21.5s11.5 11.5 17.5 15.5zM304 648.998c13.333 10 29.501 13.499 48.501 10.499s35.5 -12.5 49.5 -28.5c12 -13.333 20 -26.666 24 -39.999s4.66699 -25.833 2 -37.5s-8.5 -22.167 -17.5 -31.5
s-20.5 -16.333 -34.5 -21c-28 -9.33301 -51.5 -9.33301 -70.5 0s-32.167 28 -39.5 56c-2.66699 10 -3.33398 19.667 -2.00098 29s4 18 8 26s8.83301 15.167 14.5 21.5s11.5 11.5 17.5 15.5z" />
    <glyph glyph-name="divide" unicode="&#xf7;" horiz-adv-x="471" 
d="M195 520c8.66699 8.66699 20.502 13.0029 35.502 13.0029s31.167 -4.33301 48.5 -13c12.667 -8.66699 21.167 -20.334 25.5 -35.001s4.83301 -29.334 1.5 -44.001s-10.333 -27.667 -21 -39s-24 -17.666 -40 -18.999c-16.667 -1.33301 -33.334 2.66699 -50.001 12
s-26.334 23.333 -29.001 42c-2 12.667 -2.33301 23.167 -1 31.5s3.5 15.666 6.5 21.999s6.5 11.666 10.5 15.999zM171.002 176.003c7.33301 19.333 16.498 31.501 27.498 36.501s25.5 7.5 43.5 7.5s32.333 -3 43 -9s18.5 -13.5 23.5 -22.5s7.66699 -19.333 8 -31
s-0.5 -22.834 -2.5 -33.501c-4.66699 -20.667 -15.5 -35.334 -32.5 -44.001s-36.167 -9.66699 -57.5 -3c-27.333 8.66699 -45.166 22.834 -53.499 42.501s-8.16602 38.5 0.500977 56.5zM449 320.004c0.666992 -10 -2.49805 -17.6689 -9.49805 -23.002
s-18 -9.16602 -33 -11.499s-34.167 -4 -57.5 -5l-83 -3.5c-44.667 0 -82.667 -0.333008 -114 -1s-57 -0.333984 -77 0.999023s-34.667 4.33301 -44 9s-14.333 12 -15 22c0.666992 10.667 5.16699 18.667 13.5 24s21 9 38 11s38.333 3 64 3s56.5 0.666992 92.5 2
c55.333 2 97.666 2.83301 126.999 2.5s50.666 -1.66602 63.999 -3.99902s21.5 -5.66602 24.5 -9.99902s6.16699 -9.83301 9.5 -16.5z" />
    <glyph glyph-name="oslash" unicode="&#xf8;" horiz-adv-x="395" 
d="M348 489c8.66699 -6 12.834 -13.0029 12.501 -21.0029s-2.16602 -17 -5.49902 -27s-6 -20.667 -8 -32s0 -23.333 6 -36c14 -29.333 22.333 -61.5 25 -96.5s0.5 -68.833 -6.5 -101.5s-18.5 -62.167 -34.5 -88.5s-36 -45.5 -60 -57.5c-30 -15.333 -59.333 -22.333 -88 -21
s-52.334 8.33301 -71.001 21c-6 2.66699 -12.833 1.66699 -20.5 -3l-23.5 -15c-8 -5.33301 -15.667 -9.66602 -23 -12.999s-14 -2 -20 4c-9.33301 6 -13.333 14.167 -12 24.5s4.5 21 9.5 32l14 31.5c4.33301 10 5.16602 18 2.49902 24c-12.667 18.667 -20 37.334 -22 56.001
s-3.66699 37.334 -5 56.001c-2 47.333 3.83301 88.833 17.5 124.5s34.5 64.5 62.5 86.5c9.33301 7.33301 20.5 13.166 33.5 17.499s26.167 7.33301 39.5 9s26.333 2 39 1s23.667 -3.16699 33 -6.5c8.66699 -3.33301 17.5 -2.5 26.5 2.5s18 10.5 27 16.5
s17.833 10.833 26.5 14.5s17 2.83398 25 -2.49902z" />
    <glyph glyph-name="ugrave" unicode="&#xf9;" horiz-adv-x="551" 
d="M286 415c22 0 40.333 2.66406 55 7.99707s28 10.666 40 15.999s23.833 9.33301 35.5 12s25.5 1.33398 41.5 -3.99902c12.667 -4 24 -14.167 34 -30.5s18 -36.5 24 -60.5s9 -50.667 9 -80s-3.66699 -58.333 -11 -87s-19 -56 -35 -82s-37.333 -47.667 -64 -65
c-29.333 -22 -59.5 -35.667 -90.5 -41s-60.667 -5.16602 -89 0.500977s-54 15.834 -77 30.501s-41.167 31.334 -54.5 50.001c-18.667 24.667 -33.834 54.167 -45.501 88.5s-18.167 68.666 -19.5 102.999s2.83398 66.333 12.501 96s26.5 52.5 50.5 68.5
c13.333 8.66699 26.5 12.334 39.5 11.001s26.667 -4.5 41 -9.5l46.5 -16c16.667 -5.66699 35.667 -8.5 57 -8.5zM176 676.997c10.667 10.667 21.165 16.3359 31.498 17.0029s20.833 -1.5 31.5 -6.5s21.167 -12.333 31.5 -22l31.5 -30.5l32 -33.5
c10.667 -11.667 19.334 -23.334 26.001 -35.001s10.167 -23.334 10.5 -35.001s-4.83398 -22.834 -15.501 -33.501c-8 -8 -17.167 -11.167 -27.5 -9.5s-21.166 6.16699 -32.499 13.5s-22.666 16.5 -33.999 27.5l-33 31.5c-8 8 -16.167 17.5 -24.5 28.5
s-15.333 22.167 -21 33.5s-9.5 21.833 -11.5 31.5s-0.333008 17.167 5 22.5z" />
    <glyph glyph-name="uacute" unicode="&#xfa;" horiz-adv-x="517" 
d="M204 492c-9.33301 8 -14.668 16.167 -16.001 24.5s-0.166016 16.833 3.50098 25.5s8.83398 17.5 15.501 26.5s14 18.167 22 27.5c7.33301 9.33301 15.333 18.666 24 27.999s17.5 17 26.5 23s18 9.66699 27 11s18.167 -1.66699 27.5 -9
c6.66699 -6 9.83398 -13.167 9.50098 -21.5s-3 -17.333 -8 -27s-11.333 -19.5 -19 -29.5s-15.5 -19.333 -23.5 -28c-6 -7.33301 -13 -14.666 -21 -21.999s-16.333 -13.833 -25 -19.5s-16.834 -9.66699 -24.501 -12s-13.834 -1.5 -18.501 2.5zM265.998 415
c22 0 40.333 2.66406 55 7.99707s28 10.666 40 15.999s23.833 9.33301 35.5 12s25.5 1.33398 41.5 -3.99902c12.667 -4 24 -14.167 34 -30.5s18 -36.5 24 -60.5s9 -50.667 9 -80s-3.66699 -58.333 -11 -87s-19 -56 -35 -82s-37.333 -47.667 -64 -65
c-29.333 -22 -59.5 -35.667 -90.5 -41s-60.667 -5.16602 -89 0.500977s-54 15.834 -77 30.501s-41.167 31.334 -54.5 50.001c-18.667 24.667 -33.834 54.167 -45.501 88.5s-18.167 68.666 -19.5 102.999s2.83398 66.333 12.501 96s26.5 52.5 50.5 68.5
c13.333 8.66699 26.5 12.334 39.5 11.001s26.667 -4.5 41 -9.5l46.5 -16c16.667 -5.66699 35.667 -8.5 57 -8.5z" />
    <glyph glyph-name="udieresis" unicode="&#xfc;" horiz-adv-x="535" 
d="M268 415c22 0 40.333 2.66406 55 7.99707s28 10.666 40 15.999s23.833 9.33301 35.5 12s25.5 1.33398 41.5 -3.99902c12.667 -4 24 -14.167 34 -30.5s18 -36.5 24 -60.5s9 -50.667 9 -80s-3.66699 -58.333 -11 -87s-19 -56 -35 -82s-37.333 -47.667 -64 -65
c-29.333 -22 -59.5 -35.667 -90.5 -41s-60.667 -5.16602 -89 0.500977s-54 15.834 -77 30.501s-41.167 31.334 -54.5 50.001c-18.667 24.667 -33.834 54.167 -45.501 88.5s-18.167 68.666 -19.5 102.999s2.83398 66.333 12.501 96s26.5 52.5 50.5 68.5
c13.333 8.66699 26.5 12.334 39.5 11.001s26.667 -4.5 41 -9.5l46.5 -16c16.667 -5.66699 35.667 -8.5 57 -8.5zM132 640.997c13.333 10 29.501 13.499 48.501 10.499s35.5 -12.5 49.5 -28.5c12 -13.333 20 -26.666 24 -39.999s4.66699 -25.833 2 -37.5
s-8.5 -22.167 -17.5 -31.5s-20.5 -16.333 -34.5 -21c-28 -9.33301 -51.5 -9.33301 -70.5 0s-32.167 28 -39.5 56c-2.66699 10 -3.33398 19.667 -2.00098 29s4 18 8 26s8.83301 15.167 14.5 21.5s11.5 11.5 17.5 15.5zM317.001 644.996
c13.333 10 29.501 13.499 48.501 10.499s35.5 -12.5 49.5 -28.5c12 -13.333 20 -26.666 24 -39.999s4.66699 -25.833 2 -37.5s-8.5 -22.167 -17.5 -31.5s-20.5 -16.333 -34.5 -21c-28 -9.33301 -51.5 -9.33301 -70.5 0s-32.167 28 -39.5 56
c-2.66699 10 -3.33398 19.667 -2.00098 29s4 18 8 26s8.83301 15.167 14.5 21.5s11.5 11.5 17.5 15.5z" />
    <glyph glyph-name="yacute" unicode="&#xfd;" horiz-adv-x="581" 
d="M163 -161c-11.333 6 -18.1631 13.8252 -20.4961 23.4922s-2 20.5 1 32.5s7.83301 25.333 14.5 40l20 45.5c6.66699 15.667 12 31.834 16 48.501s5 33.334 3 50.001c0 14.667 -5.16699 31 -15.5 49s-22.833 36.5 -37.5 55.5l-46.5 57.5
c-16.333 19.333 -30.833 38.333 -43.5 57s-21.834 36.334 -27.501 53.001s-5.16699 31.667 1.5 45c8 16 16.167 26.667 24.5 32s19.666 7 33.999 5s32.833 -6.5 55.5 -13.5s52 -14.5 88 -22.5c30 -5.33301 59.667 -5.16602 89 0.500977s57.166 12.834 83.499 21.501l72 24
c21.667 7.33301 39.667 10 54 8s24.333 -10.667 30 -26s5.5 -41.333 -0.5 -78c-8.66699 -52 -22.667 -101.333 -42 -148s-41.833 -89.667 -67.5 -129s-52.834 -74.666 -81.501 -105.999s-56.334 -57.166 -83.001 -77.499s-50.667 -34.666 -72 -42.999
s-37.666 -9.83301 -48.999 -4.5zM471.003 694.992c10.667 -10.667 16.3359 -21.165 17.0029 -31.498s-1.5 -20.833 -6.5 -31.5s-12.333 -21.167 -22 -31.5l-30.5 -31.5l-33.5 -32c-11.667 -10.667 -23.334 -19.334 -35.001 -26.001s-23.334 -10.167 -35.001 -10.5
s-22.834 4.83398 -33.501 15.501c-8 8 -11.167 17.167 -9.5 27.5s6.16699 21.166 13.5 32.499s16.5 22.666 27.5 33.999l31.5 33c8 8 17.5 16.167 28.5 24.5s22.167 15.333 33.5 21s21.833 9.5 31.5 11.5s17.167 0.333008 22.5 -5z" />
    <glyph glyph-name="ydieresis" unicode="&#xff;" horiz-adv-x="571" 
d="M153 -161c-12 6 -18.9961 13.8252 -20.9961 23.4922s-1.5 20.5 1.5 32.5s7.83301 25.333 14.5 40l20 45.5c6.66699 15.667 12 31.834 16 48.501s5 33.334 3 50.001c0 14.667 -5.16699 31 -15.5 49s-22.833 36.5 -37.5 55.5l-46.5 57.5
c-16.333 19.333 -30.833 38.333 -43.5 57s-21.834 36.334 -27.501 53.001s-5.16699 31.667 1.5 45c8 16 16.167 26.667 24.5 32s19.666 7 33.999 5s32.833 -6.5 55.5 -13.5s52 -14.5 88 -22.5c30 -5.33301 59.667 -5.16602 89 0.500977s57.166 12.834 83.499 21.501l72 24
c21.667 7.33301 39.667 10 54 8s24.333 -10.667 30 -26s5.5 -41.333 -0.5 -78c-8.66699 -52 -22.667 -101.333 -42 -148s-41.833 -89.667 -67.5 -129s-52.834 -74.666 -81.501 -105.999s-56.334 -57.166 -83.001 -77.499s-50.667 -34.666 -72 -42.999
s-37.666 -9.83301 -48.999 -4.5zM160.004 644.992c7.33301 7.33301 17.501 11.0039 30.501 11.0039s26.833 -3.66699 41.5 -11c11.333 -7.33301 18.833 -17.333 22.5 -30s4 -25.334 1 -38.001s-9 -23.834 -18 -33.501s-20.5 -15.167 -34.5 -16.5
c-14 -0.666992 -28.333 3 -43 11s-23 20 -25 36c-3.33301 21.333 -1.83301 36.666 4.5 45.999s13.166 17.666 20.499 24.999zM397.005 644.996c7.33301 7.33301 17.5 11.0039 30.5 11.0039s26.833 -3.66699 41.5 -11c11.333 -7.33301 18.833 -17.333 22.5 -30
s4 -25.334 1 -38.001s-9 -23.834 -18 -33.501s-20.5 -15.167 -34.5 -16.5c-14 -0.666992 -28.333 3 -43 11s-23 20 -25 36c-3.33301 21.333 -2 36.666 4 45.999s13 17.666 21 24.999z" />
    <glyph glyph-name="Abreve" unicode="&#x102;" 
d="M338 628c18.667 0 37.8389 -9.83398 57.5059 -29.501s38.834 -45.167 57.501 -76.5s36 -66.333 52 -105s30 -76.667 42 -114s21 -72 27 -104s8 -57.333 6 -76c-9.33301 -56.667 -29 -94.667 -59 -114s-67.667 -15.333 -113 12l-47 29
c-11.333 7.33301 -20.833 12.833 -28.5 16.5s-15 5.83398 -22 6.50098s-16.5 1 -28.5 1c-22.667 -0.666992 -44.834 -7.66699 -66.501 -21l-70.5 -43c-10 -7.33301 -22.833 -11.666 -38.5 -12.999s-30.167 1.83398 -43.5 9.50098s-23.333 20.667 -30 39
s-6.33398 44.166 0.999023 77.499c3.33301 23.333 10.166 52 20.499 86s23.166 69.667 38.499 107s32.666 74.666 51.999 111.999s39.666 70.833 60.999 100.5s43.166 53.667 65.499 72s44.5 27.5 66.5 27.5zM336.005 663.999c-21.333 0 -40.666 4.50293 -57.999 13.5029
s-32.5 19.667 -45.5 32s-23.833 24.666 -32.5 36.999l-19 27.5c-4 6 -5.83301 12.667 -5.5 20s2.83301 13.5 7.5 18.5s11.167 8.33301 19.5 10s18.5 -0.5 30.5 -6.5c14 -6.66699 27.333 -11.834 40 -15.501s26.5 -5.5 41.5 -5.5s32.5 1.66699 52.5 5
s44.333 8.66602 73 15.999c16.667 5.33301 29 7.16602 37 5.49902s13 -5.66699 15 -12s1.66699 -14 -1 -23s-6.83398 -18.167 -12.501 -27.5s-12 -18.166 -19 -26.499s-13.5 -14.5 -19.5 -18.5c-8.66699 -6 -16.5 -12 -23.5 -18s-14.333 -11.333 -22 -16
s-16.167 -8.5 -25.5 -11.5s-20.333 -4.5 -33 -4.5z" />
    <glyph glyph-name="abreve" unicode="&#x103;" horiz-adv-x="469" 
d="M446 8c-6 -5.33301 -13.8271 -6.83008 -23.4941 -4.49707l-36 9c-14.333 3.66699 -31 6.5 -50 8.5s-40.167 0.666992 -63.5 -4c-24 -7.33301 -48.5 -11.833 -73.5 -13.5s-48.833 1.5 -71.5 9.5s-43.334 22 -62.001 42s-33.334 48.333 -44.001 85
c-7.33301 23.333 -9.5 47.666 -6.5 72.999s10.167 50 21.5 74s26.166 46.667 44.499 68s39 39.833 62 55.5s47.667 27.667 74 36s53.166 11.833 80.499 10.5c26.667 -2 48.167 -9.16699 64.5 -21.5s28.666 -27.833 36.999 -46.5s13.833 -39.334 16.5 -62.001
s4.16699 -45.334 4.5 -68.001s0.166016 -44.167 -0.500977 -64.5s0 -37.5 2 -51.5c4.66699 -20.667 10.167 -38.167 16.5 -52.5s11.5 -26.5 15.5 -36.5s5.83301 -18.5 5.5 -25.5s-4.83301 -13.833 -13.5 -20.5zM302.006 503.003c-22 0 -41.6689 4.50098 -59.002 13.501
s-32.5 19.667 -45.5 32s-23.833 24.666 -32.5 36.999s-15 21.833 -19 28.5c-4 6 -5.83301 12.667 -5.5 20s2.83301 13.5 7.5 18.5s11.334 8.33301 20.001 10s19 -0.5 31 -6.5c14 -7.33301 27.167 -12.833 39.5 -16.5s26.166 -5.5 41.499 -5.5s32.833 1.83301 52.5 5.5
s44.167 9.16699 73.5 16.5c24.667 8 40.167 8.33301 46.5 1s7.5 -17.5 3.5 -30.5s-11.167 -26.667 -21.5 -41s-19.833 -24.833 -28.5 -31.5c-8.66699 -6 -16.667 -12.167 -24 -18.5s-14.666 -11.833 -21.999 -16.5s-15.666 -8.5 -24.999 -11.5s-20.333 -4.5 -33 -4.5z" />
    <glyph glyph-name="Dcroat" unicode="&#x110;" horiz-adv-x="561" 
d="M530 322c0 -43.333 -8.33203 -84.4971 -24.999 -123.497s-39.834 -73.333 -69.501 -103s-64.834 -53.334 -105.501 -71.001s-85 -26.5 -133 -26.5c-33.333 0 -60.333 4.66699 -81 14s-36.667 21.666 -48 36.999s-19 32.833 -23 52.5s-6 40.167 -6 61.5
s0.833008 42.166 2.5 62.499s2.5 39.166 2.5 56.499c0 16.667 -1.16699 36.834 -3.5 60.501s-4 48.167 -5 73.5s-0.166992 50.5 2.5 75.5s8.83398 47.333 18.501 67s24 35.667 43 48s44.5 18.5 76.5 18.5c48 0 93.5 -6.33301 136.5 -19s80.667 -31.667 113 -57
s57.833 -57 76.5 -95s28 -82 28 -132zM321.001 283.003c0 -15.333 -5.66406 -26.998 -16.9971 -34.998s-25.833 -13.833 -43.5 -17.5s-37.334 -5.83398 -59.001 -6.50098s-42.5 -1 -62.5 -1s-40.667 0.333008 -62 1s-40.833 2.83398 -58.5 6.50098s-32.167 9.5 -43.5 17.5
s-17 19.667 -17 35s6.16699 26.666 18.5 33.999s27.666 12.166 45.999 14.499s38 3.33301 59 3s40.167 -0.5 57.5 -0.5c18 0 37.5 -1.16699 58.5 -3.5s40.667 -5.83301 59 -10.5s33.666 -10 45.999 -16s18.5 -13 18.5 -21z" />
    <glyph glyph-name="dcroat" unicode="&#x111;" horiz-adv-x="521" 
d="M445 629c12 -1.33301 21.6689 -9.16602 29.002 -23.499s12.833 -32.5 16.5 -54.5s5.83398 -46.5 6.50098 -73.5s0.5 -54.333 -0.5 -82s-2.5 -54.334 -4.5 -80.001s-4 -47.834 -6 -66.501s-4.66699 -38.5 -8 -59.5s-8.5 -41.5 -15.5 -61.5s-16.333 -38.833 -28 -56.5
s-26.667 -32.5 -45 -44.5s-40.666 -20.5 -66.999 -25.5s-57.5 -4.83301 -93.5 0.5c-36 6.66699 -66.833 17.5 -92.5 32.5s-46.834 32.167 -63.501 51.5s-29.334 40 -38.001 62s-14.167 43.5 -16.5 64.5s-2 40.667 1 59s8.16699 33.5 15.5 45.5
c10 15.333 21.833 27.5 35.5 36.5s28 16.167 43 21.5s30.333 9.66602 46 12.999s30.667 6.83301 45 10.5s27.666 8.33398 39.999 14.001s22.833 13.834 31.5 24.501c13.333 18 26.666 38.667 39.999 62s27 45 41 65s28.333 36.5 43 49.5s29.667 18.167 45 15.5zM577.002 530
c0 -15.333 -5.66406 -26.998 -16.9971 -34.998s-25.833 -13.833 -43.5 -17.5s-37.334 -5.83398 -59.001 -6.50098s-42.5 -1 -62.5 -1s-40.667 0.333008 -62 1s-40.833 2.83398 -58.5 6.50098s-32.167 9.5 -43.5 17.5s-17 19.667 -17 35s6.16699 26.666 18.5 33.999
s27.666 12.166 45.999 14.499s38 3.33301 59 3s40.167 -0.5 57.5 -0.5c18 0 37.5 -1.16699 58.5 -3.5s40.667 -5.83301 59 -10.5s33.666 -10 45.999 -16s18.5 -13 18.5 -21z" />
    <glyph glyph-name="Itilde" unicode="&#x128;" horiz-adv-x="314" 
d="M146 621c28 0 51 -9.00098 69 -27.001s32.5 -41 43.5 -69s18.667 -59.167 23 -93.5s6.5 -67.833 6.5 -100.5c0 -35.333 -1.16699 -72.5 -3.5 -111.5s-7.83301 -74.833 -16.5 -107.5s-21.667 -59.667 -39 -81s-41 -32 -71 -32c-22 0 -40.5 4.83301 -55.5 14.5
s-27.5 22.834 -37.5 39.501s-17.5 35.667 -22.5 57s-8.83301 43.5 -11.5 66.5s-4.16699 46.167 -4.5 69.5s-0.5 45 -0.5 65c-2.66699 30 -1.16699 63 4.5 99s14.167 69.667 25.5 101s24.833 57.5 40.5 78.5s32.167 31.5 49.5 31.5zM289 708.999
c-10.667 -2.66699 -22.334 -5.83105 -35.001 -9.49805l-38.5 -11.5l-38.5 -12c-12.667 -4 -24.334 -7.33301 -35.001 -10c-10.667 -4.66699 -22.667 -7.33398 -36 -8.00098s-25.666 -1 -36.999 -1c-8 2 -14.833 4.83301 -20.5 8.5s-10.667 7.5 -15 11.5l-13 12
c-4.33301 4 -9.16602 7.33301 -14.499 10s-11 3.66699 -17 3s-11.667 -1 -17 -1s-9.83301 1.16699 -13.5 3.5s-5.5 7.5 -5.5 15.5c2.66699 4.66699 7 9 13 13s12.333 7.33301 19 10s13 4.66699 19 6s10.667 2 14 2c10 2.66699 19.667 3.5 29 2.5s18.666 -2.5 27.999 -4.5
l28 -6c9.33301 -2 19 -3 29 -3c20.667 -2.66699 37 -2.5 49 0.5s22.333 6.5 31 10.5s16.834 7.33301 24.501 10s18.167 2.66699 31.5 0s23.833 -6.83398 31.5 -12.501s12.5 -11.5 14.5 -17.5s1 -11.167 -3 -15.5s-11.333 -6.5 -22 -6.5z" />
    <glyph glyph-name="itilde" unicode="&#x129;" horiz-adv-x="252" 
d="M130 -1c-21.333 0 -38.332 6.66504 -50.999 19.998s-22.334 30.666 -29.001 51.999s-11 45.333 -13 72s-3 53.334 -3 80.001s0.833008 53.834 2.5 81.501s6 52.834 13 75.501s17.5 41.167 31.5 55.5s33 21.5 57 21.5c21.333 0 38.5 -7.16699 51.5 -21.5
s23 -32.5 30 -54.5s11.667 -46 14 -72s3.5 -51 3.5 -75s-3.16699 -49.667 -9.5 -77s-14.5 -52.833 -24.5 -76.5s-21.333 -43.167 -34 -58.5s-25.667 -23 -39 -23zM309.001 545.998c-10.667 -2.66699 -22.334 -5.83105 -35.001 -9.49805l-38.5 -11.5l-38.5 -12
c-12.667 -4 -24.334 -7.33301 -35.001 -10c-10.667 -4.66699 -22.667 -7.33398 -36 -8.00098s-25.666 -1 -36.999 -1c-8 2 -14.833 4.83301 -20.5 8.5s-10.667 7.5 -15 11.5l-13 12c-4.33301 4 -9.16602 7.33301 -14.499 10s-11 3.66699 -17 3s-11.667 -1 -17 -1
s-9.83301 1.16699 -13.5 3.5s-5.5 7.5 -5.5 15.5c2.66699 4.66699 7 9 13 13s12.333 7.33301 19 10s13 4.66699 19 6s10.667 2 14 2c10 2.66699 19.667 3.5 29 2.5s18.666 -2.5 27.999 -4.5l28 -6c9.33301 -2 19 -3 29 -3c20.667 -2.66699 37 -2.5 49 0.5
s22.333 6.5 31 10.5s16.834 7.33301 24.501 10s18.167 2.66699 31.5 0s23.833 -6.83398 31.5 -12.501s12.5 -11.5 14.5 -17.5s1 -11.167 -3 -15.5s-11.333 -6.5 -22 -6.5z" />
    <glyph glyph-name="IJ" unicode="&#x132;" horiz-adv-x="314" 
d="M146 621c28 0 51 -9.00098 69 -27.001s32.5 -41 43.5 -69s18.667 -59.167 23 -93.5s6.5 -67.833 6.5 -100.5c0 -35.333 -1.16699 -72.5 -3.5 -111.5s-7.83301 -74.833 -16.5 -107.5s-21.667 -59.667 -39 -81s-41 -32 -71 -32c-22 0 -40.5 4.83301 -55.5 14.5
s-27.5 22.834 -37.5 39.501s-17.5 35.667 -22.5 57s-8.83301 43.5 -11.5 66.5s-4.16699 46.167 -4.5 69.5s-0.5 45 -0.5 65c-2.66699 30 -1.16699 63 4.5 99s14.167 69.667 25.5 101s24.833 57.5 40.5 78.5s32.167 31.5 49.5 31.5zM529 622.999
c42.667 2 82.1758 1.66797 118.509 -0.999023s67.666 -8.33398 93.999 -17.001s47.5 -20.667 63.5 -36s25.333 -34.333 28 -57c0 -13.333 -5.83301 -25.5 -17.5 -36.5s-24.834 -22.667 -39.501 -35s-28.334 -26.666 -41.001 -42.999s-20.334 -35.833 -23.001 -58.5
c-5.33301 -20.667 -9.33301 -42.167 -12 -64.5s-6.83398 -45.166 -12.501 -68.499s-14.334 -46.833 -26.001 -70.5s-28.834 -46.834 -51.501 -69.501c-25.333 -20.667 -53.333 -37.167 -84 -49.5s-59.834 -19.5 -87.501 -21.5s-51.834 1.66699 -72.501 11
s-33.334 25.333 -38.001 48c-4 14 -3 26.667 3 38s14 22.666 24 33.999s21 23 33 35s22.333 25.5 31 40.5s14.334 32 17.001 51s0 41.167 -8 66.5c-8.66699 25.333 -18.5 45.833 -29.5 61.5s-22 28.5 -33 38.5s-21.667 18.167 -32 24.5s-19.333 12.833 -27 19.5
s-13.5 14.334 -17.5 23.001s-5.33301 20.667 -4 36c0 20 8 36.667 24 50s36 23.666 60 30.999s50.333 12.5 79 15.5s55.667 4.5 81 4.5z" />
    <glyph glyph-name="ij" unicode="&#x133;" horiz-adv-x="252" 
d="M121 -1c-21.333 0 -38.332 6.66504 -50.999 19.998s-22.334 30.666 -29.001 51.999s-11 45.333 -13 72s-3 53.334 -3 80.001s0.833008 53.834 2.5 81.501s6 52.834 13 75.501s17.5 41.167 31.5 55.5s33 21.5 57 21.5c21.333 0 38.5 -7.16699 51.5 -21.5
s23 -32.5 30 -54.5s11.667 -46 14 -72s3.5 -51 3.5 -75s-3.16699 -49.667 -9.5 -77s-14.5 -52.833 -24.5 -76.5s-21.333 -43.167 -34 -58.5s-25.667 -23 -39 -23zM160.001 638.998c15.333 -5.33301 27.666 -14.835 36.999 -28.502s14 -28.167 14 -43.5
c2.66699 -18 1.16699 -33 -4.5 -45s-14 -20.833 -25 -26.5s-23.833 -8.66699 -38.5 -9s-29.667 2.16699 -45 7.5c-20.667 11.333 -33.667 28 -39 50s-2.66602 43.333 8.00098 64c15.333 20.667 30.833 32.334 46.5 35.001s31.167 1.33398 46.5 -3.99902zM327.001 627.996
c13.333 4.66699 27.6631 6.33105 42.9961 4.99805s29.666 -8.66602 42.999 -21.999c10.667 -12.667 17.334 -25.667 20.001 -39s1.83398 -25.833 -2.49902 -37.5s-11.666 -22 -21.999 -31s-22.833 -15.833 -37.5 -20.5c-11.333 -4 -22.166 -5.16699 -32.499 -3.5
s-19.5 5.83398 -27.5 12.501s-14.333 15.167 -19 25.5s-7 21.833 -7 34.5c-4 21.333 -1.16699 38.333 8.5 51s20.834 21 33.501 25zM147.998 -135.007c-4.66699 8.66699 -4.83301 16.501 -0.5 23.501s10.833 13.833 19.5 20.5s18.667 13.667 30 21s22.166 15.5 32.499 24.5
s19 19.333 26 31s10.5 25.167 10.5 40.5c1.33301 14 1.5 34.5 0.5 61.5s-1.83301 56.667 -2.5 89s-0.333984 65.166 0.999023 98.499s5.16602 63.5 11.499 90.5s16 49 29 66s30.833 25.167 53.5 24.5c19.333 -0.666992 34.833 -9.33398 46.5 -26.001
s20.5 -38.334 26.5 -65.001s9.16699 -57.167 9.5 -91.5s-1 -69.166 -4 -104.499s-7.66699 -69.833 -14 -103.5s-13.5 -63.5 -21.5 -89.5c-7.33301 -25.333 -18.166 -46.833 -32.499 -64.5s-30.333 -32 -48 -43s-35.667 -19 -54 -24s-35.666 -7.33301 -51.999 -7
s-30.666 2.83301 -42.999 7.5s-20.5 11.334 -24.5 20.001z" />
    <glyph glyph-name="OE" unicode="&#x152;" horiz-adv-x="1666" 
 />
    <glyph glyph-name="oe" unicode="&#x153;" horiz-adv-x="1666" 
 />
    <glyph glyph-name="scaron" unicode="&#x161;" horiz-adv-x="419" 
d="M216 529c-22 0 -41.668 4.50293 -59.001 13.5029s-32.5 19.667 -45.5 32s-23.833 24.666 -32.5 36.999l-19 27.5c-4 6 -5.83301 12.667 -5.5 20s2.83301 13.5 7.5 18.5s11.334 8.33301 20.001 10s19 -0.5 31 -6.5c14 -6.66699 27.167 -11.834 39.5 -15.501
s26.166 -5.5 41.499 -5.5s32.833 1.66699 52.5 5s44.167 8.66602 73.5 15.999c16.667 5.33301 29 7.16602 37 5.49902s13 -5.66699 15 -12s1.5 -14 -1.5 -23s-7.33301 -18.167 -13 -27.5s-11.834 -18.166 -18.501 -26.499s-13 -14.5 -19 -18.5
c-8.66699 -6 -16.667 -12 -24 -18s-14.666 -11.333 -21.999 -16s-15.666 -8.5 -24.999 -11.5s-20.333 -4.5 -33 -4.5zM367.999 383.003c-2.66699 -7.33301 -6.8291 -12.499 -12.4961 -15.499s-11.334 -5.83301 -17.001 -8.5s-10.667 -5.66699 -15 -9s-6.5 -8.33301 -6.5 -15
c0 -5.33301 3.83301 -11.833 11.5 -19.5s16.167 -18.334 25.5 -32.001s18.5 -30.5 27.5 -50.5s14.833 -44.667 17.5 -74c3.33301 -27.333 -0.5 -50.666 -11.5 -69.999s-26.167 -35.166 -45.5 -47.499s-41.333 -21.833 -66 -28.5s-49 -11.167 -73 -13.5
s-46.167 -2.83301 -66.5 -1.5s-35.5 3.66602 -45.5 6.99902c-15.333 6.66699 -28.833 14.167 -40.5 22.5s-20.334 16.333 -26.001 24s-7.5 15 -5.5 22s9.33301 12.833 22 17.5c20 5.33301 31.667 18.5 35 39.5s-4.66699 53.5 -24 97.5c-13.333 22 -20 42.167 -20 60.5
s4.16699 35 12.5 50s19.666 28.667 33.999 41s29.166 23.166 44.499 32.499c8.66699 4.66699 20.834 8.16699 36.501 10.5s33 3.5 52 3.5s38.167 -1 57.5 -3s36.666 -4.83301 51.999 -8.5s27.5 -8.16699 36.5 -13.5s12.5 -11.333 10.5 -18z" />
    <glyph glyph-name="Utilde" unicode="&#x168;" horiz-adv-x="677" 
d="M345 555c31.333 -2.66699 56.668 -0.99707 76.001 5.00293s36.5 12.667 51.5 20s30.167 13.333 45.5 18s35 4.66699 59 0c15.333 -2 29.666 -13.833 42.999 -35.5s23.666 -49.167 30.999 -82.5s11 -70.5 11 -111.5s-5.33301 -81.833 -16 -122.5
s-27.5 -79.334 -50.5 -116.001s-53.833 -67.334 -92.5 -92.001c-42.667 -26.667 -84.667 -42.167 -126 -46.5s-80 -0.833008 -116 10.5s-68.667 28.666 -98 51.999s-53.333 49.666 -72 78.999c-8.66699 16 -18.167 37 -28.5 63s-19.5 54.5 -27.5 85.5
s-14.333 63.167 -19 96.5s-5.5 65 -2.5 95s10.5 56.833 22.5 80.5s30.333 41.5 55 53.5c18.667 10.667 36.834 14 54.501 10s36.5 -10.667 56.5 -20s41.5 -18.666 64.5 -27.999s49.167 -14 78.5 -14zM506.002 709.003c-10.667 -2.66699 -22.334 -5.83105 -35.001 -9.49805
l-38.5 -11.5l-38.5 -12c-12.667 -4 -24.334 -7.33301 -35.001 -10c-10.667 -4.66699 -22.667 -7.33398 -36 -8.00098s-25.666 -1 -36.999 -1c-8 2 -14.833 4.83301 -20.5 8.5s-10.667 7.5 -15 11.5l-13 12c-4.33301 4 -9.16602 7.33301 -14.499 10s-11 3.66699 -17 3
s-11.667 -1 -17 -1s-9.83301 1.16699 -13.5 3.5s-5.5 7.5 -5.5 15.5c2.66699 4.66699 7 9 13 13s12.333 7.33301 19 10s13 4.66699 19 6s10.667 2 14 2c10 2.66699 19.667 3.5 29 2.5s18.666 -2.5 27.999 -4.5l28 -6c9.33301 -2 19 -3 29 -3c20.667 -2.66699 37 -2.5 49 0.5
s22.333 6.5 31 10.5s16.834 7.33301 24.501 10s18.167 2.66699 31.5 0s23.833 -6.83398 31.5 -12.501s12.5 -11.5 14.5 -17.5s1 -11.167 -3 -15.5s-11.333 -6.5 -22 -6.5z" />
    <glyph glyph-name="utilde" unicode="&#x169;" horiz-adv-x="551" 
d="M286 415c22 0 40.333 2.66406 55 7.99707s28 10.666 40 15.999s23.833 9.33301 35.5 12s25.5 1.33398 41.5 -3.99902c12.667 -4 24 -14.167 34 -30.5s18 -36.5 24 -60.5s9 -50.667 9 -80s-3.66699 -58.333 -11 -87s-19 -56 -35 -82s-37.333 -47.667 -64 -65
c-29.333 -22 -59.5 -35.667 -90.5 -41s-60.667 -5.16602 -89 0.500977s-54 15.834 -77 30.501s-41.167 31.334 -54.5 50.001c-18.667 24.667 -33.834 54.167 -45.501 88.5s-18.167 68.666 -19.5 102.999s2.83398 66.333 12.501 96s26.5 52.5 50.5 68.5
c13.333 8.66699 26.5 12.334 39.5 11.001s26.667 -4.5 41 -9.5l46.5 -16c16.667 -5.66699 35.667 -8.5 57 -8.5zM420 545.997c-10.667 -2.66699 -22.334 -5.83105 -35.001 -9.49805l-38.5 -11.5l-38.5 -12c-12.667 -4 -24.334 -7.33301 -35.001 -10
c-10.667 -4.66699 -22.667 -7.33398 -36 -8.00098s-25.666 -1 -36.999 -1c-8 2 -14.833 4.83301 -20.5 8.5s-10.667 7.5 -15 11.5l-13 12c-4.33301 4 -9.16602 7.33301 -14.499 10s-11 3.66699 -17 3s-11.667 -1 -17 -1s-9.83301 1.16699 -13.5 3.5s-5.5 7.5 -5.5 15.5
c2.66699 4.66699 7 9 13 13s12.333 7.33301 19 10s13 4.66699 19 6s10.667 2 14 2c10 2.66699 19.667 3.5 29 2.5s18.666 -2.5 27.999 -4.5l28 -6c9.33301 -2 19 -3 29 -3c20.667 -2.66699 37 -2.5 49 0.5s22.333 6.5 31 10.5s16.834 7.33301 24.501 10
s18.167 2.66699 31.5 0s23.833 -6.83398 31.5 -12.501s12.5 -11.5 14.5 -17.5s1 -11.167 -3 -15.5s-11.333 -6.5 -22 -6.5z" />
    <glyph glyph-name="Ydieresis" unicode="&#x178;" horiz-adv-x="595" 
d="M148 777c7.33301 7.33301 17.501 11.0039 30.501 11.0039s26.833 -3.66699 41.5 -11c11.333 -7.33301 18.833 -17.333 22.5 -30s4 -25.334 1 -38.001s-9 -23.834 -18 -33.501s-20.5 -15.167 -34.5 -16.5c-14 -0.666992 -28.333 3 -43 11s-23 20 -25 36
c-3.33301 21.333 -1.83301 36.666 4.5 45.999s13.166 17.666 20.499 24.999zM385.001 777.004c7.33301 7.33301 17.5 11.0039 30.5 11.0039s26.833 -3.66699 41.5 -11c11.333 -7.33301 18.833 -17.333 22.5 -30s4 -25.334 1 -38.001s-9 -23.834 -18 -33.501
s-20.5 -15.167 -34.5 -16.5c-14 -0.666992 -28.333 3 -43 11s-23 20 -25 36c-3.33301 21.333 -2 36.666 4 45.999s13 17.666 21 24.999zM241.001 -0.992188c-17.333 0 -30.6699 8.33594 -40.0029 25.0029s-16.833 36.834 -22.5 60.501s-10.667 48.5 -15 74.5
s-9.5 48.667 -15.5 68c-2.66699 12.667 -8.66699 27.167 -18 43.5s-19.833 33.5 -31.5 51.5l-35.5 55.5c-12 19 -22.167 37.333 -30.5 55s-14 34.167 -17 49.5s-0.833008 28.666 6.5 39.999c5.33301 10 14 16.167 26 18.5s25.667 2.66602 41 0.999023s31.5 -5 48.5 -10
s33.667 -10.167 50 -15.5s31.333 -10 45 -14s24.834 -6 33.501 -6c12.667 0 30.334 4 53.001 12s45.834 15 69.501 21s45.5 8.16699 65.5 6.5s33.333 -11.834 40 -30.501c8 -18.667 8.33301 -39.167 1 -61.5s-18.166 -46.333 -32.499 -72l-46.5 -83
c-16.667 -29.667 -30.334 -61.5 -41.001 -95.5l-32.5 -87.5c-9 -24.333 -18.333 -44.333 -28 -60s-20.167 -27.334 -31.5 -35.001s-25.333 -11.5 -42 -11.5z" />
    <glyph glyph-name="Ohorn" unicode="&#x1a0;" horiz-adv-x="653" 
d="M37 202c-7.33301 24.667 -11.999 52.1699 -13.999 82.5029s0.166992 61 6.5 92s17.333 61.5 33 91.5s37.167 57.667 64.5 83c25.333 22 51.5 37.333 78.5 46s53.667 13 80 13s51.666 -2.83301 75.999 -8.5s46.333 -12.167 66 -19.5s36.667 -14 51 -20s24.833 -9 31.5 -9
c7.33301 0 10.5 3.83301 9.5 11.5s-3 17 -6 28s-5.5 22.333 -7.5 34s-0.333008 21.167 5 28.5c10 12.667 21 21.5 33 26.5s23.833 6.33301 35.5 4s22.167 -7.33301 31.5 -15s16.166 -17.667 20.499 -30s5.5 -26.333 3.5 -42s-8.33301 -32.167 -19 -49.5
c-7.33301 -11.333 -16.5 -20.333 -27.5 -27s-18.167 -15 -21.5 -25c-2.66699 -9.33301 -1.16699 -19 4.5 -29s12.834 -21.333 21.501 -34s17.167 -27.334 25.5 -44.001s13.5 -36 15.5 -58c2.66699 -44.667 -1.16602 -86.334 -11.499 -125.001s-27.333 -72.667 -51 -102
s-54.334 -52.833 -92.001 -70.5s-82.5 -27.834 -134.5 -30.501c-44.667 -5.33301 -84 -3 -118 7s-63.5 24.667 -88.5 44s-45.667 41.833 -62 67.5s-29.5 52.167 -39.5 79.5z" />
    <glyph glyph-name="ohorn" unicode="&#x1a1;" horiz-adv-x="487" 
d="M166 434c28 3.33301 50.833 4.1709 68.5 2.50391s32 -4.33398 43 -8.00098s19.5 -7.83398 25.5 -12.501s11.833 -8.33398 17.5 -11.001s11.834 -4 18.501 -4s16.334 3 29.001 9c6.66699 3.33301 9.5 9.33301 8.5 18s-3 18.5 -6 29.5s-5.5 22 -7.5 33s0 20.5 6 28.5
c10 12.667 21 21.5 33 26.5s23.833 6.33301 35.5 4s22.167 -7.33301 31.5 -15s16.166 -17.667 20.499 -30s5.5 -26.333 3.5 -42s-8.33301 -32.167 -19 -49.5c-4 -6 -9.33301 -11.333 -16 -16l-19 -13c-6 -4 -10.833 -8 -14.5 -12s-4.5 -8.66699 -2.5 -14
c7.33301 -18 13.5 -38.167 18.5 -60.5s8 -45 9 -68s-0.833008 -45.833 -5.5 -68.5s-13 -43.834 -25 -63.501s-28.167 -37.334 -48.5 -53.001s-45.5 -27.5 -75.5 -35.5c-38 -10 -73.167 -12.333 -105.5 -7s-60.5 16.833 -84.5 34.5s-43.167 40.667 -57.5 69
s-22.5 60.5 -24.5 96.5c-2.66699 34.667 -0.5 65.334 6.5 92.001s17.167 49.5 30.5 68.5s29.166 34.333 47.499 46s37.833 20.167 58.5 25.5z" />
    <glyph glyph-name="Uhorn" unicode="&#x1af;" horiz-adv-x="730" 
d="M345 555c31.333 -2.66699 56.666 -0.998047 75.999 5.00195s36.5 12.667 51.5 20s30.167 13.333 45.5 18s35 4.66699 59 0c4.66699 -0.666992 8.5 -4.16699 11.5 -10.5l9.5 -20c3.33301 -7 7.33301 -13.167 12 -18.5s11.334 -7.33301 20.001 -6
c7.33301 0.666992 10.5 5.5 9.5 14.5s-3.16699 19.333 -6.5 31s-6 23.667 -8 36s0 22.5 6 30.5c10 12.667 21 21.5 33 26.5s23.833 6.33301 35.5 4s22.167 -7.33301 31.5 -15s16.166 -17.667 20.499 -30s5.5 -26.333 3.5 -42s-8.33301 -32.167 -19 -49.5
c-6 -9.33301 -14 -17 -24 -23s-19.833 -11.333 -29.5 -16s-17.667 -9.5 -24 -14.5s-8.83301 -11.167 -7.5 -18.5c4 -19.333 7.5 -41.333 10.5 -66s4.5 -50.5 4.5 -77.5s-2.33301 -54.5 -7 -82.5s-13.167 -55 -25.5 -81s-29 -50.333 -50 -73s-47.833 -42.334 -80.5 -59.001
c-42.667 -26.667 -84.667 -42.167 -126 -46.5s-80 -0.833008 -116 10.5s-68.667 28.666 -98 51.999s-53.333 49.666 -72 78.999c-8.66699 16 -18.167 37 -28.5 63s-19.5 54.5 -27.5 85.5s-14.333 63.167 -19 96.5s-5.5 65 -2.5 95s10.5 56.833 22.5 80.5
s30.333 41.5 55 53.5c18.667 10.667 36.834 14 54.501 10s36.5 -10.667 56.5 -20s41.5 -18.666 64.5 -27.999s49.167 -14 78.5 -14z" />
    <glyph glyph-name="uhorn" unicode="&#x1b0;" horiz-adv-x="612" 
d="M286 415c22 0 40.335 2.66309 55.002 7.99609s28 10.666 40 15.999s23.833 9.33301 35.5 12s25.5 1.33398 41.5 -3.99902c2.66699 -0.666992 5 -2.66699 7 -6s4.16699 -6.5 6.5 -9.5s4.66602 -5.66699 6.99902 -8s5.5 -2.83301 9.5 -1.5
c6.66699 2.66699 9.66699 7.83398 9 15.501s-2.5 16.334 -5.5 26.001s-5.5 19.5 -7.5 29.5s-0.333008 18.667 5 26c10 12.667 21 21.5 33 26.5s23.833 6.33301 35.5 4s22.167 -7.33301 31.5 -15s16.166 -17.667 20.499 -30s5.5 -26.333 3.5 -42s-8.33301 -32.167 -19 -49.5
c-5.33301 -8.66699 -12 -15.667 -20 -21s-16 -10.333 -24 -15s-15 -9.5 -21 -14.5s-9.66699 -10.833 -11 -17.5c-4 -22 -6 -46.833 -6 -74.5s-2.16699 -55.667 -6.5 -84s-13 -55.333 -26 -81s-34.5 -46.834 -64.5 -63.501c-29.333 -22 -59.5 -35.667 -90.5 -41
s-60.667 -5.16602 -89 0.500977s-54 15.834 -77 30.501s-41.167 31.334 -54.5 50.001c-18.667 24.667 -33.834 54.167 -45.501 88.5s-18.167 68.666 -19.5 102.999s2.83398 66.333 12.501 96s26.5 52.5 50.5 68.5c13.333 8.66699 26.5 12.334 39.5 11.001
s26.667 -4.5 41 -9.5l46.5 -16c16.667 -5.66699 35.667 -8.5 57 -8.5z" />
    <glyph glyph-name="uni01E2" unicode="&#x1e2;" horiz-adv-x="990" 
d="M414 0v173h-255l-90 -173h-59l377 712h458v-48h-378v-284h322v-48h-322v-284h378v-48h-431zM414 664l-232 -443h232v443zM531 798v46h296v-46h-296z" />
    <glyph glyph-name="uni01E3" unicode="&#x1e3;" horiz-adv-x="886" 
d="M431 230c0 -61.333 13.3301 -108.331 39.9971 -140.998s65.667 -49 117 -49c14 0 27 1.16699 39 3.5s23.167 5.83301 33.5 10.5s20.5 10.667 30.5 18s20 16 30 26l38 -30c-12.667 -12.667 -25 -23.5 -37 -32.5s-24.833 -16.667 -38.5 -23s-28.667 -11 -45 -14
s-34.5 -4.5 -54.5 -4.5c-40.667 0 -75.334 7.66699 -104.001 23s-51.334 37.666 -68.001 66.999c-10 -16 -20.833 -29.833 -32.5 -41.5s-24.667 -21 -39 -28s-30.333 -12.167 -48 -15.5s-37.5 -5 -59.5 -5c-17.333 0 -33.166 0.833008 -47.499 2.5
s-27.166 4.16699 -38.499 7.5s-21.5 7.83301 -30.5 13.5s-17.5 12.5 -25.5 20.5c-11.333 11.333 -20 25.333 -26 42s-9 34 -9 52c0 22 3.83301 41.667 11.5 59s18.834 31.833 33.501 43.5s32.334 20.667 53.001 27s44 9.5 70 9.5h156v54c0 19.333 -2.5 36.333 -7.5 51
s-12.833 27 -23.5 37s-24.667 17.5 -42 22.5s-38.333 7.5 -63 7.5c-17.333 0 -32.5 -1.16699 -45.5 -3.5s-24.833 -6 -35.5 -11s-20.167 -11.333 -28.5 -19s-16.166 -16.834 -23.499 -27.501l-37 32c10 14.667 21 26.667 33 36s24.833 16.833 38.5 22.5
s28.667 9.66699 45 12s34.166 3.5 53.499 3.5c46 0 83.333 -7.33301 112 -22s49 -35.667 61 -63c16.667 27.333 38.167 48.333 64.5 63s56.833 22 91.5 22c30 0 56.833 -5.33301 80.5 -16s43.834 -26.167 60.501 -46.5s29.5 -45 38.5 -74s13.5 -61.833 13.5 -98.5v-23h-335z
M714.997 271.002c-0.666992 11.333 -1.33398 21 -2.00098 29s-1.66699 15.5 -3 22.5s-2.83301 13.5 -4.5 19.5s-4.16699 12.667 -7.5 20c-5.33301 12.667 -12.166 24 -20.499 34s-18 18.5 -29 25.5s-22.833 12.333 -35.5 16s-26 5.5 -40 5.5
c-13.333 0 -26.5 -1.83301 -39.5 -5.5s-25 -9 -36 -16s-20.667 -15.5 -29 -25.5s-15.166 -21.333 -20.499 -34l-7.5 -20c-2.33301 -6 -4 -12.5 -5 -19.5s-1.83301 -14.5 -2.5 -22.5s-1.33398 -17.667 -2.00098 -29h284zM379.997 230.002l-149.997 -0.00195312
c-42 0 -73 -8.16699 -93 -24.5s-30 -40.5 -30 -72.5c0 -32.667 10 -56.5 30 -71.5s52 -22.5 96 -22.5c11.333 0 22.166 0.5 32.499 1.5s20.666 2.66699 30.999 5s20.166 5.83301 29.499 10.5s18.333 11.334 27 20.001c18 16.667 27 47.334 27 92.001v62zM386 608v46h296v-46
h-296z" />
    <glyph glyph-name="AEacute" unicode="&#x1fc;" horiz-adv-x="990" 
d="M414 0v173h-255l-90 -173h-59l377 712h458v-48h-378v-284h322v-48h-322v-284h378v-48h-431zM414 664l-232 -443h232v443zM433 679c-9.33301 8 -14.668 16.167 -16.001 24.5s-0.166016 16.833 3.50098 25.5s8.83398 17.5 15.501 26.5s14 18.167 22 27.5
c7.33301 9.33301 15.333 18.666 24 27.999s17.5 17 26.5 23s18 9.66699 27 11s18.167 -1.66699 27.5 -9c6.66699 -6 9.83398 -13.167 9.50098 -21.5s-3 -17.333 -8 -27s-11.333 -19.5 -19 -29.5s-15.5 -19.333 -23.5 -28c-6 -7.33301 -13 -14.666 -21 -21.999
s-16.333 -13.833 -25 -19.5s-16.834 -9.66699 -24.501 -12s-13.834 -1.5 -18.501 2.5z" />
    <glyph glyph-name="aeacute" unicode="&#x1fd;" horiz-adv-x="886" 
d="M431 230c0 -61.333 13.3301 -108.331 39.9971 -140.998s65.667 -49 117 -49c14 0 27 1.16699 39 3.5s23.167 5.83301 33.5 10.5s20.5 10.667 30.5 18s20 16 30 26l38 -30c-12.667 -12.667 -25 -23.5 -37 -32.5s-24.833 -16.667 -38.5 -23s-28.667 -11 -45 -14
s-34.5 -4.5 -54.5 -4.5c-40.667 0 -75.334 7.66699 -104.001 23s-51.334 37.666 -68.001 66.999c-10 -16 -20.833 -29.833 -32.5 -41.5s-24.667 -21 -39 -28s-30.333 -12.167 -48 -15.5s-37.5 -5 -59.5 -5c-17.333 0 -33.166 0.833008 -47.499 2.5
s-27.166 4.16699 -38.499 7.5s-21.5 7.83301 -30.5 13.5s-17.5 12.5 -25.5 20.5c-11.333 11.333 -20 25.333 -26 42s-9 34 -9 52c0 22 3.83301 41.667 11.5 59s18.834 31.833 33.501 43.5s32.334 20.667 53.001 27s44 9.5 70 9.5h156v54c0 19.333 -2.5 36.333 -7.5 51
s-12.833 27 -23.5 37s-24.667 17.5 -42 22.5s-38.333 7.5 -63 7.5c-17.333 0 -32.5 -1.16699 -45.5 -3.5s-24.833 -6 -35.5 -11s-20.167 -11.333 -28.5 -19s-16.166 -16.834 -23.499 -27.501l-37 32c10 14.667 21 26.667 33 36s24.833 16.833 38.5 22.5
s28.667 9.66699 45 12s34.166 3.5 53.499 3.5c46 0 83.333 -7.33301 112 -22s49 -35.667 61 -63c16.667 27.333 38.167 48.333 64.5 63s56.833 22 91.5 22c30 0 56.833 -5.33301 80.5 -16s43.834 -26.167 60.501 -46.5s29.5 -45 38.5 -74s13.5 -61.833 13.5 -98.5v-23h-335z
M714.997 271.002c-0.666992 11.333 -1.33398 21 -2.00098 29s-1.66699 15.5 -3 22.5s-2.83301 13.5 -4.5 19.5s-4.16699 12.667 -7.5 20c-5.33301 12.667 -12.166 24 -20.499 34s-18 18.5 -29 25.5s-22.833 12.333 -35.5 16s-26 5.5 -40 5.5
c-13.333 0 -26.5 -1.83301 -39.5 -5.5s-25 -9 -36 -16s-20.667 -15.5 -29 -25.5s-15.166 -21.333 -20.499 -34l-7.5 -20c-2.33301 -6 -4 -12.5 -5 -19.5s-1.83301 -14.5 -2.5 -22.5s-1.33398 -17.667 -2.00098 -29h284zM379.997 230.002l-149.997 -0.00195312
c-42 0 -73 -8.16699 -93 -24.5s-30 -40.5 -30 -72.5c0 -32.667 10 -56.5 30 -71.5s52 -22.5 96 -22.5c11.333 0 22.166 0.5 32.499 1.5s20.666 2.66699 30.999 5s20.166 5.83301 29.499 10.5s18.333 11.334 27 20.001c18 16.667 27 47.334 27 92.001v62zM361 489
c-9.33301 8 -14.668 16.167 -16.001 24.5s-0.166016 16.833 3.50098 25.5s8.83398 17.5 15.501 26.5s14 18.167 22 27.5c7.33301 9.33301 15.333 18.666 24 27.999s17.5 17 26.5 23s18 9.66699 27 11s18.167 -1.66699 27.5 -9c6.66699 -6 9.83398 -13.167 9.50098 -21.5
s-3 -17.333 -8 -27s-11.333 -19.5 -19 -29.5s-15.5 -19.333 -23.5 -28c-6 -7.33301 -13 -14.666 -21 -21.999s-16.333 -13.833 -25 -19.5s-16.834 -9.66699 -24.501 -12s-13.834 -1.5 -18.501 2.5z" />
    <glyph glyph-name="hookabovecombHOA" unicode="&#x2bc;" horiz-adv-x="0" 
d="M15 881c30.667 -2 54.001 -12.1699 70.001 -30.5029s24 -40.5 24 -66.5c-1.33301 -11.333 -4.83301 -22.5 -10.5 -33.5s-17 -23.167 -34 -36.5s-28.167 -25 -33.5 -35c-0.666992 -8.66699 -3.83398 -16.167 -9.50098 -22.5s-12 -10.333 -19 -12s-14 -0.666992 -21 3
s-12.167 11.5 -15.5 23.5c-6.66699 25.333 6.66602 55.333 39.999 90c13.333 8.66699 20 17 20 25c0 5.33301 -2.66699 9.83301 -8 13.5s-11.166 4.66699 -17.499 3s-13.5 -10.167 -21.5 -25.5c-4 -9.33301 -9.83301 -15.166 -17.5 -17.499s-15.5 -2.16602 -23.5 0.500977
s-15 7 -21 13s-9.33301 13 -10 21c-1.33301 30.667 7.66699 53.334 27 68.001s46.333 21 81 19z" />
    <glyph glyph-name="circumflex" unicode="&#x2c6;" horiz-adv-x="395" 
d="M193 689c24 0 45.665 -4.99805 64.998 -14.998s36.166 -21.833 50.499 -35.5s26.166 -27.334 35.499 -41.001l21 -30.5c4.66699 -6.66699 6.83398 -14 6.50098 -22s-3.16602 -14.833 -8.49902 -20.5s-12.666 -9.33398 -21.999 -11.001s-20.666 0.833008 -33.999 7.5
c-15.333 7.33301 -30 13 -44 17s-29.333 6 -46 6s-36 -1.83301 -58 -5.5s-49 -9.5 -81 -17.5c-18 -6 -31.5 -8 -40.5 -6s-14.667 6.33301 -17 13s-1.83301 15 1.5 25s8 20.167 14 30.5s12.833 20 20.5 29s14.834 15.833 21.501 20.5c9.33301 6.66699 18 13.5 26 20.5
s16.167 13 24.5 18s17.666 9.16699 27.999 12.5s22.5 5 36.5 5z" />
    <glyph glyph-name="caron" unicode="&#x2c7;" horiz-adv-x="395" 
d="M196 519c-24 0 -45.665 5 -64.998 15s-36.166 21.833 -50.499 35.5s-26.166 27.167 -35.499 40.5s-16.333 23.666 -21 30.999c-4.66699 6.66699 -6.83398 14 -6.50098 22s3.16602 14.833 8.49902 20.5s12.666 9.33398 21.999 11.001s20.666 -0.833008 33.999 -7.5
c15.333 -7.33301 30 -13 44 -17s29.333 -6 46 -6s36 1.83301 58 5.5s49 9.5 81 17.5c18 6 31.5 8 40.5 6s14.667 -6.33301 17 -13s1.83301 -15 -1.5 -25s-8 -20.167 -14 -30.5s-12.833 -20 -20.5 -29s-14.834 -15.833 -21.501 -20.5l-26 -21
c-8 -6.66699 -16.167 -12.5 -24.5 -17.5s-17.666 -9.16699 -27.999 -12.5s-22.5 -5 -36.5 -5z" />
    <glyph glyph-name="breve" unicode="&#x2d8;" horiz-adv-x="500" 
d="M244 503c-22 0 -41.6689 4.50098 -59.002 13.501s-32.5 19.667 -45.5 32s-23.833 24.666 -32.5 36.999s-15 21.833 -19 28.5c-4 6 -5.83301 12.667 -5.5 20s2.83301 13.5 7.5 18.5s11.334 8.33301 20.001 10s19 -0.5 31 -6.5c14 -7.33301 27.167 -12.833 39.5 -16.5
s26.166 -5.5 41.499 -5.5s32.833 1.83301 52.5 5.5s44.167 9.16699 73.5 16.5c24.667 8 40.167 8.33301 46.5 1s7.5 -17.5 3.5 -30.5s-11.167 -26.667 -21.5 -41s-19.833 -24.833 -28.5 -31.5c-8.66699 -6 -16.667 -12.167 -24 -18.5s-14.666 -11.833 -21.999 -16.5
s-15.666 -8.5 -24.999 -11.5s-20.333 -4.5 -33 -4.5z" />
    <glyph glyph-name="ogonek" unicode="&#x2db;" horiz-adv-x="500" 
d="M256 -220l-64 150h55l72 -150h-63z" />
    <glyph glyph-name="tilde" unicode="&#x2dc;" horiz-adv-x="500" 
d="M330 546c-10.667 -2.66699 -22.334 -5.83105 -35.001 -9.49805l-38.5 -11.5l-38.5 -12c-12.667 -4 -24.334 -7.33301 -35.001 -10c-10.667 -4.66699 -22.667 -7.33398 -36 -8.00098s-25.666 -1 -36.999 -1c-8 2 -14.833 4.83301 -20.5 8.5s-10.667 7.5 -15 11.5l-13 12
c-4.33301 4 -9.16602 7.33301 -14.499 10s-11 3.66699 -17 3s-11.667 -1 -17 -1s-9.83301 1.16699 -13.5 3.5s-5.5 7.5 -5.5 15.5c2.66699 4.66699 7 9 13 13s12.333 7.33301 19 10s13 4.66699 19 6s10.667 2 14 2c10 2.66699 19.667 3.5 29 2.5s18.666 -2.5 27.999 -4.5
l28 -6c9.33301 -2 19 -3 29 -3c20.667 -2.66699 37 -2.5 49 0.5s22.333 6.5 31 10.5s16.834 7.33301 24.501 10s18.167 2.66699 31.5 0s23.833 -6.83398 31.5 -12.501s12.5 -11.5 14.5 -17.5s1 -11.167 -3 -15.5s-11.333 -6.5 -22 -6.5z" />
    <glyph glyph-name="hungarumlaut" unicode="&#x2dd;" horiz-adv-x="409" 
d="M37 504c-11.333 9.33301 -17.8311 19.166 -19.498 29.499s-0.333984 21 3.99902 32s10.833 22.167 19.5 33.5l27 34l30 35c10.667 12 21.667 21.833 33 29.5s22.666 12.167 33.999 13.5s22.666 -2.66699 33.999 -12c8.66699 -7.33301 12.667 -16.166 12 -26.499
s-4 -21.5 -10 -33.5s-14 -24.167 -24 -36.5l-29 -35.5c-7.33301 -8.66699 -16.166 -17.667 -26.499 -27s-20.833 -17.5 -31.5 -24.5s-20.667 -11.833 -30 -14.5s-17 -1.66699 -23 3zM214.002 506c-11.333 9.33301 -17.8311 19.166 -19.498 29.499s-0.333984 21 3.99902 32
s10.833 22.167 19.5 33.5l27 34l30 35c10.667 12 21.667 21.833 33 29.5s22.666 12.167 33.999 13.5s22.666 -2.66699 33.999 -12c8.66699 -7.33301 12.667 -16.166 12 -26.499s-4 -21.5 -10 -33.5s-14 -24.167 -24 -36.5l-29 -35.5
c-7.33301 -8.66699 -16.166 -17.667 -26.499 -27s-20.833 -17.5 -31.5 -24.5s-20.667 -11.833 -30 -14.5s-17 -1.66699 -23 3z" />
    <glyph glyph-name="gravecomb" unicode="&#x300;" horiz-adv-x="0" 
d="M-64 847c10.667 10.667 21.165 16.3359 31.498 17.0029s20.833 -1.5 31.5 -6.5s21.167 -12.333 31.5 -22l31.5 -30.5l32 -33.5c10.667 -11.667 19.334 -23.334 26.001 -35.001s10.167 -23.334 10.5 -35.001s-4.83398 -22.834 -15.501 -33.501
c-8 -8 -17.167 -11.167 -27.5 -9.5s-21.166 6.16699 -32.499 13.5s-22.666 16.5 -33.999 27.5l-33 31.5c-8 8 -16.167 17.5 -24.5 28.5s-15.333 22.167 -21 33.5s-9.5 21.833 -11.5 31.5s-0.333008 17.167 5 22.5z" />
    <glyph glyph-name="acutecomb" unicode="&#x301;" horiz-adv-x="0" 
d="M15 701c-9.33301 8 -14.8311 16.3359 -16.498 25.0029s-0.666992 17.5 3 26.5s9 18.167 16 27.5s14.5 18.666 22.5 27.999c8 10 16.5 19.833 25.5 29.5s18.167 17.667 27.5 24s18.833 10.166 28.5 11.499s19.167 -2 28.5 -10c7.33301 -6 10.666 -13.333 9.99902 -22
s-3.5 -18 -8.5 -28s-11.667 -20.167 -20 -30.5l-24.5 -29.5c-6 -7.33301 -13.333 -14.833 -22 -22.5s-17.334 -14.334 -26.001 -20.001s-17 -9.66699 -25 -12s-14.333 -1.5 -19 2.5z" />
    <glyph glyph-name="tildecomb" unicode="&#x303;" horiz-adv-x="500" 
d="M147 709c-10.667 -2.66699 -22.334 -5.83105 -35.001 -9.49805l-38.5 -11.5l-38.5 -12c-12.667 -4 -24.334 -7.33301 -35.001 -10c-10.667 -4.66699 -22.667 -7.33398 -36 -8.00098s-25.666 -1 -36.999 -1c-8 2 -14.833 4.83301 -20.5 8.5s-10.667 7.5 -15 11.5l-13 12
c-4.33301 4 -9.16602 7.33301 -14.499 10s-11 3.66699 -17 3s-11.667 -1 -17 -1s-9.83301 1.16699 -13.5 3.5s-5.5 7.5 -5.5 15.5c2.66699 4.66699 7 9 13 13s12.333 7.33301 19 10s13 4.66699 19 6s10.667 2 14 2c10 2.66699 19.667 3.5 29 2.5s18.666 -2.5 27.999 -4.5
l28 -6c9.33301 -2 19 -3 29 -3c20.667 -2.66699 37 -2.5 49 0.5s22.333 6.5 31 10.5s16.834 7.33301 24.501 10s18.167 2.66699 31.5 0s23.833 -6.83398 31.5 -12.501s12.5 -11.5 14.5 -17.5s1 -11.167 -3 -15.5s-11.333 -6.5 -22 -6.5z" />
    <glyph glyph-name="hookabovecomb" unicode="&#x309;" horiz-adv-x="0" 
d="M-27 713c30.667 -2 54.001 -12.1699 70.001 -30.5029s24 -40.5 24 -66.5c-1.33301 -11.333 -4.83301 -22.5 -10.5 -33.5s-17 -23.167 -34 -36.5s-28.167 -25 -33.5 -35c-0.666992 -8.66699 -3.83398 -16.167 -9.50098 -22.5s-12 -10.333 -19 -12s-14 -0.666992 -21 3
s-12.167 11.5 -15.5 23.5c-6.66699 25.333 6.66602 55.333 39.999 90c13.333 8.66699 20 17 20 25c0 5.33301 -2.66699 9.83301 -8 13.5s-11.166 4.66699 -17.499 3s-13.5 -10.167 -21.5 -25.5c-4 -9.33301 -9.83301 -15.166 -17.5 -17.499s-15.5 -2.16602 -23.5 0.500977
s-15 7 -21 13s-9.33301 13 -10 21c-1.33301 30.667 7.66699 53.334 27 68.001s46.333 21 81 19z" />
    <glyph glyph-name="dotbelowcomb" unicode="&#x323;" horiz-adv-x="0" 
d="M-43 -40c13.333 10 29.501 13.499 48.501 10.499s35.5 -12.5 49.5 -28.5c12 -13.333 20 -26.666 24 -39.999s4.66699 -25.833 2 -37.5s-8.5 -22.167 -17.5 -31.5s-20.5 -16.333 -34.5 -21c-28 -9.33301 -51.5 -9.33301 -70.5 0s-32.167 28 -39.5 56
c-2.66699 10 -3.33398 19.667 -2.00098 29s4 18 8 26s8.83301 15.167 14.5 21.5s11.5 11.5 17.5 15.5z" />
    <glyph glyph-name="mu" unicode="&#x3bc;" horiz-adv-x="833" 
 />
    <glyph glyph-name="uni1EA0" unicode="&#x1ea0;" 
d="M338 628c18.667 0 37.8389 -9.83398 57.5059 -29.501s38.834 -45.167 57.501 -76.5s36 -66.333 52 -105s30 -76.667 42 -114s21 -72 27 -104s8 -57.333 6 -76c-9.33301 -56.667 -29 -94.667 -59 -114s-67.667 -15.333 -113 12l-47 29
c-11.333 7.33301 -20.833 12.833 -28.5 16.5s-15 5.83398 -22 6.50098s-16.5 1 -28.5 1c-22.667 -0.666992 -44.834 -7.66699 -66.501 -21l-70.5 -43c-10 -7.33301 -22.833 -11.666 -38.5 -12.999s-30.167 1.83398 -43.5 9.50098s-23.333 20.667 -30 39
s-6.33398 44.166 0.999023 77.499c3.33301 23.333 10.166 52 20.499 86s23.166 69.667 38.499 107s32.666 74.666 51.999 111.999s39.666 70.833 60.999 100.5s43.166 53.667 65.499 72s44.5 27.5 66.5 27.5zM269.005 -40.001c13.333 10 29.501 13.499 48.501 10.499
s35.5 -12.5 49.5 -28.5c12 -13.333 20 -26.666 24 -39.999s4.66699 -25.833 2 -37.5s-8.5 -22.167 -17.5 -31.5s-20.5 -16.333 -34.5 -21c-28 -9.33301 -51.5 -9.33301 -70.5 0s-32.167 28 -39.5 56c-2.66699 10 -3.33398 19.667 -2.00098 29s4 18 8 26
s8.83301 15.167 14.5 21.5s11.5 11.5 17.5 15.5z" />
    <glyph glyph-name="uni1EA1" unicode="&#x1ea1;" horiz-adv-x="469" 
d="M446 8c-6 -5.33301 -13.8271 -6.83008 -23.4941 -4.49707l-36 9c-14.333 3.66699 -31 6.5 -50 8.5s-40.167 0.666992 -63.5 -4c-24 -7.33301 -48.5 -11.833 -73.5 -13.5s-48.833 1.5 -71.5 9.5s-43.334 22 -62.001 42s-33.334 48.333 -44.001 85
c-7.33301 23.333 -9.5 47.666 -6.5 72.999s10.167 50 21.5 74s26.166 46.667 44.499 68s39 39.833 62 55.5s47.667 27.667 74 36s53.166 11.833 80.499 10.5c26.667 -2 48.167 -9.16699 64.5 -21.5s28.666 -27.833 36.999 -46.5s13.833 -39.334 16.5 -62.001
s4.16699 -45.334 4.5 -68.001s0.166016 -44.167 -0.500977 -64.5s0 -37.5 2 -51.5c4.66699 -20.667 10.167 -38.167 16.5 -52.5s11.5 -26.5 15.5 -36.5s5.83301 -18.5 5.5 -25.5s-4.83301 -13.833 -13.5 -20.5zM185.006 -39.9971c13.333 10 29.501 13.499 48.501 10.499
s35.5 -12.5 49.5 -28.5c12 -13.333 20 -26.666 24 -39.999s4.66699 -25.833 2 -37.5s-8.5 -22.167 -17.5 -31.5s-20.5 -16.333 -34.5 -21c-28 -9.33301 -51.5 -9.33301 -70.5 0s-32.167 28 -39.5 56c-2.66699 10 -3.33398 19.667 -2.00098 29s4 18 8 26
s8.83301 15.167 14.5 21.5s11.5 11.5 17.5 15.5z" />
    <glyph glyph-name="uni1EA2" unicode="&#x1ea2;" 
d="M338 628c-22 0 -44.1719 -9.16602 -66.5049 -27.499s-44.166 -42.333 -65.499 -72s-41.666 -63.167 -60.999 -100.5s-36.666 -74.666 -51.999 -111.999s-28.166 -73 -38.499 -107s-17.166 -62.667 -20.499 -86c-7.33301 -33.333 -7.66602 -59.166 -0.999023 -77.499
s16.667 -31.333 30 -39s27.833 -10.834 43.5 -9.50098s28.5 5.66602 38.5 12.999l70.5 43c21.667 13.333 43.834 20.333 66.501 21c12 0 21.5 -0.333008 28.5 -1s14.333 -2.83398 22 -6.50098s17.167 -9.16699 28.5 -16.5l47 -29c45.333 -27.333 83 -31.333 113 -12
s49.667 57.333 59 114c2 18.667 0 44 -6 76s-15 66.667 -27 104s-26 75.333 -42 114s-33.333 73.667 -52 105s-37.834 56.833 -57.501 76.5s-38.834 29.5 -57.501 29.5zM344.995 881.001c30.667 -2 54.001 -12.1699 70.001 -30.5029s24 -40.5 24 -66.5
c-1.33301 -11.333 -4.83301 -22.5 -10.5 -33.5s-17 -23.167 -34 -36.5s-28.167 -25 -33.5 -35c-0.666992 -8.66699 -3.83398 -16.167 -9.50098 -22.5s-12 -10.333 -19 -12s-14 -0.666992 -21 3s-12.167 11.5 -15.5 23.5c-6.66699 25.333 6.66602 55.333 39.999 90
c13.333 8.66699 20 17 20 25c0 5.33301 -2.66699 9.83301 -8 13.5s-11.166 4.66699 -17.499 3s-13.5 -10.167 -21.5 -25.5c-4 -9.33301 -9.83301 -15.166 -17.5 -17.499s-15.5 -2.16602 -23.5 0.500977s-15 7 -21 13s-9.33301 13 -10 21
c-1.33301 30.667 7.66699 53.334 27 68.001s46.333 21 81 19z" />
    <glyph glyph-name="uni1EA3" unicode="&#x1ea3;" horiz-adv-x="469" 
d="M446 8c8.66699 6.66699 13.1611 13.4971 13.4941 20.4971s-1.5 15.5 -5.5 25.5s-9.16699 22.167 -15.5 36.5s-11.833 31.833 -16.5 52.5c-2 14 -2.66699 31.167 -2 51.5s0.833984 41.833 0.500977 64.5s-1.83301 45.334 -4.5 68.001s-8.16699 43.334 -16.5 62.001
s-20.666 34.167 -36.999 46.5s-37.833 19.5 -64.5 21.5c-27.333 1.33301 -54.166 -2.16699 -80.499 -10.5s-51 -20.333 -74 -36s-43.667 -34.167 -62 -55.5s-33.166 -44 -44.499 -68s-18.5 -48.667 -21.5 -74s-0.833008 -49.666 6.5 -72.999
c10.667 -36.667 25.334 -65 44.001 -85s39.334 -34 62.001 -42s46.5 -11.167 71.5 -9.5s49.5 6.16699 73.5 13.5c23.333 4.66699 44.5 6 63.5 4s35.667 -4.83301 50 -8.5l36 -9c9.66699 -2.33301 17.5 -0.833008 23.5 4.5zM273.994 712.997
c30.667 -2 54.001 -12.1699 70.001 -30.5029s24 -40.5 24 -66.5c-1.33301 -11.333 -4.83301 -22.5 -10.5 -33.5s-17 -23.167 -34 -36.5s-28.167 -25 -33.5 -35c-0.666992 -8.66699 -3.83398 -16.167 -9.50098 -22.5s-12 -10.333 -19 -12s-14 -0.666992 -21 3
s-12.167 11.5 -15.5 23.5c-6.66699 25.333 6.66602 55.333 39.999 90c13.333 8.66699 20 17 20 25c0 5.33301 -2.66699 9.83301 -8 13.5s-11.166 4.66699 -17.499 3s-13.5 -10.167 -21.5 -25.5c-4 -9.33301 -9.83301 -15.166 -17.5 -17.499s-15.5 -2.16602 -23.5 0.500977
s-15 7 -21 13s-9.33301 13 -10 21c-1.33301 30.667 7.66699 53.334 27 68.001s46.333 21 81 19z" />
    </font>
</defs>
</svg>
